<svg xmlns="http://www.w3.org/2000/svg" width="375" viewBox="0 0 375 375" height="375" version="1.0"><defs><clipPath id="a"><path d="M 123.914062 128 L 251.414062 128 L 251.414062 249.628906 L 123.914062 249.628906 Z M 123.914062 128"/></clipPath><clipPath id="b"><path d="M 214 180 L 230.785156 180 L 230.785156 206 L 214 206 Z M 214 180"/></clipPath><clipPath id="c"><path d="M 149 212 L 226 212 L 226 250.359375 L 149 250.359375 Z M 149 212"/></clipPath><clipPath id="d"><path d="M 155 170.859375 L 220 170.859375 L 220 178 L 155 178 Z M 155 170.859375"/></clipPath></defs><path fill="#FFF" d="M 187.5 84.375 C 130.546875 84.375 84.375 130.546875 84.375 187.5 C 84.375 244.453125 130.546875 290.625 187.5 290.625 C 244.453125 290.625 290.625 244.453125 290.625 187.5 C 290.625 130.546875 244.453125 84.375 187.5 84.375"/><g clip-path="url(#a)"><path fill="#382F5F" d="M 247.328125 128.972656 L 213.992188 128.972656 C 215.945312 132.878906 217.25 137.253906 217.71875 141.914062 C 219.476562 142.714844 220.714844 144.480469 220.714844 146.542969 C 220.714844 148.675781 219.402344 150.503906 217.542969 151.261719 C 216.945312 151.503906 216.300781 151.640625 215.617188 151.640625 C 214.773438 151.640625 213.992188 151.4375 213.289062 151.078125 C 211.644531 150.234375 210.515625 148.523438 210.515625 146.542969 C 210.515625 144.753906 211.4375 143.195312 212.839844 142.28125 C 212.324219 137.375 210.769531 132.835938 208.429688 128.972656 L 166.945312 128.972656 C 164.601562 132.839844 163.042969 137.382812 162.535156 142.300781 C 163.914062 143.214844 164.828125 144.769531 164.828125 146.542969 C 164.828125 148.523438 163.699219 150.234375 162.050781 151.078125 C 161.351562 151.4375 160.566406 151.640625 159.726562 151.640625 C 159.046875 151.640625 158.394531 151.503906 157.800781 151.261719 C 155.941406 150.503906 154.628906 148.675781 154.628906 146.542969 C 154.628906 144.46875 155.875 142.691406 157.65625 141.894531 C 158.125 137.246094 159.421875 132.875 161.375 128.972656 L 127.996094 128.972656 L 123.914062 240.929688 C 123.914062 245.441406 127.570312 249.097656 132.082031 249.097656 L 243.242188 249.097656 C 247.757812 249.097656 251.417969 245.441406 251.417969 240.929688 Z M 247.328125 128.972656"/></g><path fill="#382F5F" d="M 158.097656 145.710938 L 158.109375 145.800781 C 158.160156 146.757812 158.945312 147.507812 159.898438 147.507812 C 160.855469 147.507812 161.640625 146.761719 161.691406 145.800781 L 161.703125 145.582031 C 161.8125 129.132812 173.425781 115.792969 187.6875 115.792969 C 201.972656 115.792969 213.605469 129.183594 213.671875 145.675781 L 213.683594 145.800781 C 213.730469 146.757812 214.515625 147.507812 215.472656 147.507812 C 216.429688 147.507812 217.214844 146.757812 217.265625 145.800781 L 217.273438 145.652344 C 217.171875 127.179688 203.917969 112.1875 187.6875 112.1875 C 171.441406 112.1875 158.167969 127.214844 158.101562 145.675781 Z M 158.097656 145.710938"/><path fill="#FFF" d="M 202.480469 205.839844 L 211.59375 205.839844 C 213.1875 205.839844 214.113281 203.21875 213.429688 200.976562 L 208.878906 186.125 C 207.8125 182.628906 205.6875 180.402344 203.214844 180.402344 L 201.238281 180.402344 C 200.945312 180.398438 200.667969 180.460938 200.402344 180.582031 C 200.140625 180.699219 199.914062 180.871094 199.722656 181.09375 C 199.535156 181.3125 199.402344 181.5625 199.320312 181.84375 C 199.242188 182.121094 199.226562 182.40625 199.273438 182.691406 C 199.433594 183.804688 199.53125 184.835938 199.59375 185.617188 L 200.773438 200.46875 C 200.863281 201.675781 200.863281 202.882812 200.773438 204.09375 C 200.75 204.328125 200.777344 204.554688 200.855469 204.777344 C 200.933594 205 201.054688 205.195312 201.21875 205.363281 C 201.382812 205.53125 201.574219 205.660156 201.796875 205.742188 C 202.019531 205.824219 202.246094 205.859375 202.480469 205.839844 Z M 202.480469 205.839844"/><path fill="#FFF" d="M 175.722656 185.617188 C 175.722656 184.835938 175.882812 183.804688 176.042969 182.691406 C 176.089844 182.40625 176.074219 182.121094 175.996094 181.84375 C 175.917969 181.5625 175.785156 181.3125 175.59375 181.09375 C 175.40625 180.871094 175.179688 180.699219 174.914062 180.582031 C 174.648438 180.460938 174.371094 180.398438 174.082031 180.402344 L 172.101562 180.402344 C 169.707031 180.402344 167.507812 182.628906 166.4375 186.125 L 161.890625 200.976562 C 161.203125 203.21875 162.128906 205.839844 163.726562 205.839844 L 172.835938 205.839844 C 173.0625 205.84375 173.277344 205.796875 173.484375 205.707031 C 173.691406 205.617188 173.871094 205.488281 174.023438 205.320312 C 174.175781 205.152344 174.289062 204.964844 174.359375 204.75 C 174.429688 204.535156 174.453125 204.316406 174.429688 204.09375 C 174.34375 202.882812 174.34375 201.675781 174.429688 200.46875 Z M 175.722656 185.617188"/><path fill="#FFF" d="M 152.875 186.125 L 145.421875 200.976562 C 145.292969 201.230469 145.199219 201.5 145.136719 201.78125 C 145.078125 202.0625 145.054688 202.34375 145.066406 202.632812 C 145.078125 202.917969 145.128906 203.199219 145.210938 203.472656 C 145.296875 203.746094 145.414062 204.003906 145.566406 204.25 C 145.714844 204.492188 145.894531 204.714844 146.105469 204.914062 C 146.3125 205.109375 146.542969 205.277344 146.792969 205.417969 C 147.046875 205.558594 147.3125 205.664062 147.589844 205.734375 C 147.867188 205.804688 148.152344 205.84375 148.4375 205.839844 L 153.671875 205.839844 C 153.921875 205.835938 154.160156 205.78125 154.382812 205.675781 C 154.609375 205.570312 154.800781 205.421875 154.964844 205.234375 C 155.125 205.046875 155.242188 204.832031 155.3125 204.59375 C 155.378906 204.355469 155.398438 204.113281 155.363281 203.871094 C 155.160156 202.25 155.300781 200.660156 155.777344 199.097656 L 160.328125 184.25 C 160.476562 183.773438 160.636719 183.3125 160.804688 182.867188 C 160.910156 182.597656 160.9375 182.320312 160.882812 182.039062 C 160.824219 181.753906 160.695312 181.507812 160.496094 181.300781 C 160.296875 181.089844 160.054688 180.953125 159.773438 180.886719 C 159.488281 180.816406 159.210938 180.832031 158.9375 180.925781 C 157.617188 181.351562 156.433594 182.015625 155.378906 182.917969 C 154.328125 183.816406 153.492188 184.886719 152.875 186.125 Z M 152.875 186.125"/><g clip-path="url(#b)"><path fill="#FFF" d="M 229.894531 200.976562 L 222.441406 186.125 C 221.824219 184.886719 220.988281 183.816406 219.9375 182.917969 C 218.886719 182.015625 217.699219 181.351562 216.378906 180.925781 C 216.101562 180.832031 215.824219 180.820312 215.539062 180.890625 C 215.253906 180.960938 215.011719 181.101562 214.8125 181.3125 C 214.613281 181.527344 214.488281 181.777344 214.4375 182.0625 C 214.382812 182.351562 214.414062 182.628906 214.527344 182.898438 C 214.699219 183.34375 214.859375 183.804688 215.007812 184.28125 L 219.570312 199.132812 C 220.050781 200.691406 220.1875 202.28125 219.984375 203.902344 C 219.957031 204.140625 219.976562 204.378906 220.046875 204.609375 C 220.117188 204.839844 220.230469 205.050781 220.390625 205.234375 C 220.546875 205.417969 220.734375 205.5625 220.953125 205.667969 C 221.171875 205.773438 221.402344 205.832031 221.644531 205.839844 L 226.878906 205.839844 C 227.167969 205.84375 227.449219 205.804688 227.730469 205.734375 C 228.007812 205.664062 228.273438 205.558594 228.523438 205.417969 C 228.777344 205.277344 229.003906 205.109375 229.214844 204.914062 C 229.421875 204.714844 229.601562 204.492188 229.753906 204.25 C 229.902344 204.003906 230.023438 203.746094 230.105469 203.472656 C 230.191406 203.199219 230.238281 202.917969 230.253906 202.632812 C 230.265625 202.34375 230.242188 202.0625 230.179688 201.78125 C 230.121094 201.5 230.023438 201.230469 229.894531 200.976562 Z M 229.894531 200.976562"/></g><path fill="#FFF" d="M 192.316406 182.628906 C 192.238281 182.308594 192.105469 182.015625 191.925781 181.742188 C 191.75 181.46875 191.53125 181.230469 191.269531 181.027344 C 191.011719 180.828125 190.730469 180.671875 190.417969 180.566406 C 190.109375 180.457031 189.789062 180.402344 189.460938 180.402344 L 185.839844 180.402344 C 185.515625 180.402344 185.199219 180.453125 184.894531 180.558594 C 184.585938 180.660156 184.304688 180.8125 184.046875 181.011719 C 183.792969 181.210938 183.574219 181.445312 183.398438 181.71875 C 183.222656 181.988281 183.09375 182.28125 183.015625 182.59375 C 182.394531 185.074219 181.980469 187.585938 181.769531 190.132812 L 181.132812 198.082031 C 180.957031 199.988281 180.957031 201.898438 181.132812 203.804688 C 181.15625 204.085938 181.230469 204.355469 181.355469 204.609375 C 181.480469 204.863281 181.648438 205.085938 181.859375 205.273438 C 182.070312 205.460938 182.308594 205.605469 182.574219 205.703125 C 182.839844 205.800781 183.117188 205.847656 183.398438 205.839844 L 191.917969 205.839844 C 192.195312 205.84375 192.464844 205.792969 192.722656 205.695312 C 192.980469 205.597656 193.214844 205.453125 193.417969 205.269531 C 193.625 205.082031 193.789062 204.867188 193.914062 204.621094 C 194.035156 204.375 194.113281 204.113281 194.136719 203.835938 C 194.3125 201.929688 194.3125 200.023438 194.136719 198.113281 L 193.46875 189.765625 C 193.292969 187.351562 192.910156 184.972656 192.316406 182.628906 Z M 192.316406 182.628906"/><g clip-path="url(#c)"><path fill="#FFF" d="M 225.953125 246.050781 L 225.953125 214.347656 C 225.953125 214.0625 225.894531 213.789062 225.785156 213.527344 C 225.675781 213.265625 225.519531 213.035156 225.316406 212.835938 C 225.117188 212.632812 224.882812 212.476562 224.621094 212.367188 C 224.359375 212.257812 224.085938 212.203125 223.800781 212.199219 L 151.519531 212.199219 C 151.234375 212.203125 150.960938 212.257812 150.695312 212.367188 C 150.433594 212.476562 150.203125 212.632812 150 212.835938 C 149.796875 213.035156 149.644531 213.265625 149.53125 213.527344 C 149.421875 213.789062 149.367188 214.0625 149.363281 214.347656 L 149.363281 247.179688 C 149.363281 247.601562 149.445312 248.007812 149.609375 248.398438 C 149.769531 248.789062 150 249.132812 150.300781 249.429688 C 150.597656 249.726562 150.945312 249.957031 151.335938 250.117188 C 151.726562 250.28125 152.132812 250.359375 152.554688 250.359375 C 152.980469 250.359375 153.386719 250.28125 153.777344 250.117188 C 154.167969 249.957031 154.511719 249.726562 154.8125 249.429688 C 155.113281 249.132812 155.34375 248.789062 155.503906 248.398438 C 155.667969 248.007812 155.746094 247.601562 155.746094 247.179688 L 155.746094 228.625 C 155.738281 228 155.789062 227.378906 155.898438 226.761719 C 156.011719 226.144531 156.179688 225.542969 156.402344 224.960938 C 156.628906 224.375 156.910156 223.816406 157.242188 223.285156 C 157.578125 222.757812 157.957031 222.261719 158.386719 221.804688 C 158.816406 221.34375 159.285156 220.933594 159.792969 220.5625 C 160.300781 220.195312 160.839844 219.878906 161.410156 219.613281 C 161.980469 219.347656 162.566406 219.136719 163.175781 218.984375 C 163.789062 218.832031 164.40625 218.738281 165.035156 218.703125 C 165.675781 218.683594 166.308594 218.730469 166.941406 218.835938 C 167.574219 218.945312 168.1875 219.117188 168.785156 219.347656 C 169.382812 219.578125 169.953125 219.867188 170.492188 220.210938 C 171.03125 220.554688 171.53125 220.949219 171.988281 221.394531 C 172.449219 221.839844 172.859375 222.324219 173.222656 222.851562 C 173.582031 223.378906 173.890625 223.9375 174.140625 224.527344 C 174.386719 225.113281 174.578125 225.722656 174.703125 226.347656 C 174.832031 226.972656 174.894531 227.605469 174.894531 228.246094 L 174.894531 246.464844 C 174.894531 246.980469 174.992188 247.480469 175.191406 247.957031 C 175.390625 248.433594 175.671875 248.855469 176.039062 249.21875 C 176.40625 249.585938 176.828125 249.867188 177.308594 250.066406 C 177.785156 250.261719 178.285156 250.359375 178.804688 250.359375 L 221.628906 250.359375 C 221.914062 250.359375 222.195312 250.332031 222.472656 250.277344 C 222.75 250.222656 223.023438 250.140625 223.285156 250.03125 C 223.546875 249.925781 223.796875 249.792969 224.03125 249.636719 C 224.269531 249.476562 224.484375 249.300781 224.6875 249.097656 C 224.886719 248.898438 225.066406 248.679688 225.226562 248.445312 C 225.382812 248.210938 225.515625 247.960938 225.625 247.699219 C 225.734375 247.441406 225.816406 247.171875 225.871094 246.894531 C 225.925781 246.617188 225.953125 246.335938 225.953125 246.050781 Z M 213.1875 228.101562 C 213.1875 228.726562 213.128906 229.347656 213.003906 229.960938 C 212.882812 230.578125 212.699219 231.171875 212.460938 231.75 C 212.21875 232.332031 211.925781 232.878906 211.574219 233.402344 C 211.226562 233.921875 210.828125 234.402344 210.382812 234.847656 C 209.941406 235.289062 209.457031 235.683594 208.933594 236.035156 C 208.410156 236.382812 207.859375 236.675781 207.277344 236.914062 C 206.699219 237.15625 206.097656 237.335938 205.484375 237.457031 C 204.867188 237.578125 204.242188 237.640625 203.613281 237.640625 L 197.234375 237.640625 C 196.605469 237.640625 195.980469 237.578125 195.363281 237.457031 C 194.75 237.335938 194.148438 237.15625 193.570312 236.914062 C 192.988281 236.675781 192.4375 236.382812 191.914062 236.035156 C 191.390625 235.683594 190.90625 235.289062 190.464844 234.847656 C 190.019531 234.402344 189.621094 233.921875 189.273438 233.402344 C 188.921875 232.878906 188.628906 232.332031 188.386719 231.75 C 188.148438 231.171875 187.964844 230.578125 187.84375 229.960938 C 187.71875 229.347656 187.660156 228.726562 187.660156 228.101562 C 187.660156 227.476562 187.71875 226.855469 187.84375 226.238281 C 187.964844 225.625 188.148438 225.027344 188.386719 224.449219 C 188.628906 223.871094 188.921875 223.320312 189.273438 222.800781 C 189.621094 222.28125 190.019531 221.796875 190.464844 221.355469 C 190.90625 220.914062 191.390625 220.515625 191.914062 220.167969 C 192.4375 219.820312 192.988281 219.527344 193.570312 219.289062 C 194.148438 219.046875 194.75 218.867188 195.363281 218.746094 C 195.980469 218.621094 196.605469 218.5625 197.234375 218.5625 L 203.613281 218.5625 C 204.242188 218.5625 204.867188 218.621094 205.484375 218.746094 C 206.097656 218.867188 206.699219 219.046875 207.277344 219.289062 C 207.859375 219.527344 208.410156 219.820312 208.933594 220.167969 C 209.457031 220.515625 209.941406 220.914062 210.382812 221.355469 C 210.828125 221.796875 211.226562 222.28125 211.574219 222.800781 C 211.925781 223.320312 212.21875 223.871094 212.460938 224.449219 C 212.699219 225.027344 212.882812 225.625 213.003906 226.238281 C 213.128906 226.855469 213.1875 227.476562 213.1875 228.101562 Z M 213.1875 228.101562"/></g><g clip-path="url(#d)"><path fill="#FFF" d="M 219.570312 174.042969 C 219.570312 173.621094 219.488281 173.214844 219.328125 172.824219 C 219.167969 172.433594 218.9375 172.089844 218.636719 171.792969 C 218.335938 171.496094 217.992188 171.265625 217.601562 171.101562 C 217.210938 170.941406 216.804688 170.859375 216.378906 170.859375 L 158.9375 170.859375 C 158.515625 170.859375 158.109375 170.941406 157.71875 171.101562 C 157.324219 171.265625 156.980469 171.496094 156.683594 171.792969 C 156.382812 172.089844 156.152344 172.433594 155.988281 172.824219 C 155.828125 173.214844 155.746094 173.621094 155.746094 174.042969 C 155.746094 174.460938 155.828125 174.867188 155.988281 175.257812 C 156.152344 175.648438 156.382812 175.992188 156.683594 176.289062 C 156.980469 176.589844 157.324219 176.816406 157.71875 176.980469 C 158.109375 177.140625 158.515625 177.222656 158.9375 177.222656 L 216.378906 177.222656 C 216.804688 177.222656 217.210938 177.140625 217.601562 176.980469 C 217.992188 176.816406 218.335938 176.589844 218.636719 176.289062 C 218.9375 175.992188 219.167969 175.648438 219.328125 175.257812 C 219.488281 174.867188 219.570312 174.460938 219.570312 174.042969 Z M 219.570312 174.042969"/></g></svg>