<svg xmlns="http://www.w3.org/2000/svg" width="375" viewBox="0 0 375 375" height="375" version="1.0"><path fill="#1A4789" d="M 375.019531 187.503906 C 375.019531 190.574219 374.941406 193.640625 374.792969 196.703125 C 374.640625 199.769531 374.414062 202.828125 374.113281 205.882812 C 373.8125 208.9375 373.4375 211.980469 372.988281 215.015625 C 372.539062 218.050781 372.015625 221.074219 371.414062 224.085938 C 370.816406 227.09375 370.144531 230.085938 369.398438 233.0625 C 368.652344 236.039062 367.835938 238.996094 366.945312 241.933594 C 366.054688 244.871094 365.089844 247.78125 364.058594 250.671875 C 363.023438 253.5625 361.917969 256.421875 360.746094 259.257812 C 359.570312 262.09375 358.328125 264.898438 357.015625 267.671875 C 355.703125 270.445312 354.324219 273.1875 352.878906 275.890625 C 351.429688 278.597656 349.917969 281.269531 348.339844 283.898438 C 346.765625 286.53125 345.121094 289.125 343.417969 291.675781 C 341.714844 294.226562 339.945312 296.734375 338.117188 299.199219 C 336.289062 301.664062 334.402344 304.082031 332.457031 306.453125 C 330.511719 308.828125 328.507812 311.148438 326.445312 313.421875 C 324.386719 315.695312 322.269531 317.917969 320.101562 320.089844 C 317.929688 322.257812 315.707031 324.375 313.433594 326.433594 C 311.160156 328.496094 308.839844 330.5 306.464844 332.445312 C 304.09375 334.390625 301.675781 336.277344 299.210938 338.105469 C 296.746094 339.933594 294.238281 341.703125 291.6875 343.40625 C 289.136719 345.109375 286.542969 346.753906 283.910156 348.328125 C 281.28125 349.90625 278.609375 351.417969 275.902344 352.867188 C 273.199219 354.3125 270.457031 355.691406 267.683594 357.003906 C 264.910156 358.316406 262.105469 359.558594 259.269531 360.734375 C 256.433594 361.90625 253.574219 363.011719 250.683594 364.046875 C 247.792969 365.078125 244.882812 366.042969 241.945312 366.933594 C 239.007812 367.824219 236.050781 368.640625 233.074219 369.386719 C 230.097656 370.132812 227.105469 370.804688 224.097656 371.402344 C 221.085938 372.003906 218.0625 372.527344 215.027344 372.976562 C 211.992188 373.425781 208.949219 373.800781 205.894531 374.101562 C 202.839844 374.402344 199.78125 374.628906 196.714844 374.78125 C 193.652344 374.929688 190.585938 375.007812 187.515625 375.007812 C 184.449219 375.007812 181.382812 374.929688 178.316406 374.78125 C 175.25 374.628906 172.191406 374.402344 169.136719 374.101562 C 166.085938 373.800781 163.039062 373.425781 160.003906 372.976562 C 156.96875 372.527344 153.945312 372.003906 150.9375 371.402344 C 147.925781 370.804688 144.933594 370.132812 141.957031 369.386719 C 138.980469 368.640625 136.023438 367.824219 133.085938 366.933594 C 130.152344 366.042969 127.238281 365.078125 124.347656 364.046875 C 121.460938 363.011719 118.597656 361.90625 115.761719 360.734375 C 112.925781 359.558594 110.121094 358.316406 107.347656 357.003906 C 104.574219 355.691406 101.835938 354.3125 99.128906 352.867188 C 96.421875 351.417969 93.753906 349.90625 91.121094 348.328125 C 88.488281 346.753906 85.898438 345.109375 83.347656 343.40625 C 80.792969 341.703125 78.285156 339.933594 75.820312 338.105469 C 73.355469 336.277344 70.9375 334.390625 68.566406 332.445312 C 66.195312 330.5 63.871094 328.496094 61.597656 326.433594 C 59.324219 324.375 57.101562 322.257812 54.933594 320.089844 C 52.761719 317.917969 50.648438 315.695312 48.585938 313.421875 C 46.527344 311.148438 44.523438 308.828125 42.574219 306.453125 C 40.628906 304.082031 38.742188 301.664062 36.914062 299.199219 C 35.085938 296.734375 33.320312 294.226562 31.613281 291.675781 C 29.910156 289.125 28.269531 286.53125 26.691406 283.898438 C 25.113281 281.269531 23.601562 278.597656 22.15625 275.890625 C 20.707031 273.1875 19.328125 270.445312 18.015625 267.671875 C 16.703125 264.898438 15.460938 262.09375 14.289062 259.257812 C 13.113281 256.421875 12.007812 253.5625 10.976562 250.671875 C 9.941406 247.78125 8.980469 244.871094 8.089844 241.933594 C 7.199219 238.996094 6.378906 236.039062 5.632812 233.0625 C 4.886719 230.085938 4.214844 227.09375 3.617188 224.085938 C 3.019531 221.074219 2.496094 218.050781 2.042969 215.015625 C 1.59375 211.980469 1.21875 208.9375 0.917969 205.882812 C 0.617188 202.828125 0.390625 199.769531 0.242188 196.703125 C 0.0898438 193.640625 0.015625 190.574219 0.015625 187.503906 C 0.015625 184.4375 0.0898438 181.371094 0.242188 178.304688 C 0.390625 175.238281 0.617188 172.179688 0.917969 169.125 C 1.21875 166.074219 1.59375 163.027344 2.042969 159.992188 C 2.496094 156.957031 3.019531 153.933594 3.617188 150.925781 C 4.214844 147.914062 4.886719 144.921875 5.632812 141.945312 C 6.378906 138.96875 7.199219 136.011719 8.089844 133.074219 C 8.980469 130.140625 9.941406 127.226562 10.976562 124.335938 C 12.007812 121.449219 13.113281 118.585938 14.289062 115.75 C 15.460938 112.914062 16.703125 110.113281 18.015625 107.335938 C 19.328125 104.5625 20.707031 101.824219 22.15625 99.117188 C 23.601562 96.410156 25.113281 93.742188 26.691406 91.109375 C 28.269531 88.476562 29.910156 85.886719 31.613281 83.335938 C 33.320312 80.78125 35.085938 78.273438 36.914062 75.808594 C 38.742188 73.34375 40.628906 70.925781 42.574219 68.554688 C 44.523438 66.183594 46.527344 63.859375 48.585938 61.585938 C 50.648438 59.3125 52.761719 57.089844 54.933594 54.921875 C 57.101562 52.75 59.324219 50.636719 61.597656 48.574219 C 63.871094 46.515625 66.195312 44.511719 68.566406 42.5625 C 70.9375 40.617188 73.355469 38.730469 75.820312 36.902344 C 78.285156 35.074219 80.792969 33.308594 83.347656 31.601562 C 85.898438 29.898438 88.488281 28.257812 91.121094 26.679688 C 93.753906 25.101562 96.421875 23.589844 99.128906 22.144531 C 101.835938 20.695312 104.574219 19.316406 107.347656 18.003906 C 110.121094 16.691406 112.925781 15.449219 115.761719 14.277344 C 118.597656 13.101562 121.460938 11.996094 124.347656 10.964844 C 127.238281 9.929688 130.152344 8.96875 133.085938 8.078125 C 136.023438 7.1875 138.980469 6.367188 141.957031 5.621094 C 144.933594 4.875 147.925781 4.203125 150.9375 3.605469 C 153.945312 3.007812 156.96875 2.484375 160.003906 2.03125 C 163.039062 1.582031 166.085938 1.207031 169.136719 0.90625 C 172.191406 0.605469 175.25 0.378906 178.316406 0.230469 C 181.382812 0.078125 184.449219 0.00390625 187.515625 0.00390625 C 190.585938 0.00390625 193.652344 0.078125 196.714844 0.230469 C 199.78125 0.378906 202.839844 0.605469 205.894531 0.90625 C 208.949219 1.207031 211.992188 1.582031 215.027344 2.03125 C 218.0625 2.484375 221.085938 3.007812 224.097656 3.605469 C 227.105469 4.203125 230.097656 4.875 233.074219 5.621094 C 236.050781 6.367188 239.007812 7.1875 241.945312 8.078125 C 244.882812 8.96875 247.792969 9.929688 250.683594 10.964844 C 253.574219 11.996094 256.433594 13.101562 259.269531 14.277344 C 262.105469 15.449219 264.910156 16.691406 267.683594 18.003906 C 270.457031 19.316406 273.199219 20.695312 275.902344 22.144531 C 278.609375 23.589844 281.277344 25.101562 283.910156 26.679688 C 286.542969 28.257812 289.136719 29.898438 291.6875 31.601562 C 294.238281 33.308594 296.746094 35.074219 299.210938 36.902344 C 301.675781 38.730469 304.09375 40.617188 306.464844 42.5625 C 308.839844 44.511719 311.160156 46.515625 313.433594 48.574219 C 315.707031 50.636719 317.929688 52.75 320.101562 54.921875 C 322.269531 57.089844 324.386719 59.3125 326.445312 61.585938 C 328.507812 63.859375 330.511719 66.183594 332.457031 68.554688 C 334.402344 70.925781 336.289062 73.34375 338.117188 75.808594 C 339.945312 78.273438 341.714844 80.78125 343.417969 83.335938 C 345.121094 85.886719 346.765625 88.476562 348.339844 91.109375 C 349.917969 93.742188 351.429688 96.410156 352.878906 99.117188 C 354.324219 101.824219 355.703125 104.5625 357.015625 107.335938 C 358.328125 110.113281 359.570312 112.914062 360.746094 115.75 C 361.917969 118.585938 363.023438 121.449219 364.058594 124.335938 C 365.089844 127.226562 366.054688 130.140625 366.945312 133.074219 C 367.835938 136.011719 368.652344 138.96875 369.398438 141.945312 C 370.144531 144.921875 370.816406 147.914062 371.414062 150.925781 C 372.015625 153.933594 372.539062 156.957031 372.988281 159.992188 C 373.4375 163.027344 373.8125 166.074219 374.113281 169.125 C 374.414062 172.179688 374.640625 175.238281 374.792969 178.304688 C 374.941406 181.371094 375.019531 184.4375 375.019531 187.503906 Z M 375.019531 187.503906"/><path fill="#FFF" d="M 234.578125 197.152344 L 239.882812 156.046875 L 199.175781 156.046875 L 199.175781 129.796875 C 199.175781 117.898438 202.496094 109.789062 219.558594 109.789062 L 241.308594 109.777344 L 241.308594 73.011719 C 237.550781 72.511719 224.640625 71.390625 209.597656 71.390625 C 178.210938 71.390625 156.738281 90.550781 156.738281 125.734375 L 156.738281 156.046875 L 121.238281 156.046875 L 121.238281 197.152344 L 156.738281 197.152344 L 156.738281 302.617188 L 199.175781 302.617188 L 199.175781 197.152344 Z M 234.578125 197.152344"/></svg>