<svg xmlns="http://www.w3.org/2000/svg" width="375" viewBox="0 0 375 375" height="375" version="1.0"><defs><clipPath id="a"><path d="M 106.859375 122 L 268.109375 122 L 268.109375 274.941406 L 106.859375 274.941406 Z M 106.859375 122"/></clipPath><clipPath id="b"><path d="M 150 100.191406 L 225 100.191406 L 225 146 L 150 146 Z M 150 100.191406"/></clipPath><clipPath id="c"><path d="M 133.007812 180 L 154 180 L 154 213 L 133.007812 213 Z M 133.007812 180"/></clipPath><clipPath id="d"><path d="M 221 180 L 241.757812 180 L 241.757812 213 L 221 213 Z M 221 180"/></clipPath><clipPath id="e"><path d="M 139 220 L 236 220 L 236 268.46875 L 139 268.46875 Z M 139 220"/></clipPath><clipPath id="f"><path d="M 147 167.96875 L 228 167.96875 L 228 177 L 147 177 Z M 147 167.96875"/></clipPath></defs><path fill="#FFF" d="M 55.332031 113.707031 L 55.332031 266.332031 L 187.332031 342.75 L 319.332031 266.332031 L 319.332031 113.707031 L 187.332031 37.5 L 55.332031 113.707031"/><g clip-path="url(#a)"><path fill="#382F5F" d="M 262.9375 122.160156 L 220.777344 122.160156 C 223.25 127.101562 224.898438 132.640625 225.492188 138.542969 C 227.71875 139.554688 229.285156 141.792969 229.285156 144.40625 C 229.285156 147.109375 227.625 149.417969 225.273438 150.382812 C 224.515625 150.6875 223.699219 150.863281 222.832031 150.863281 C 221.769531 150.863281 220.777344 150.601562 219.894531 150.148438 C 217.808594 149.078125 216.382812 146.914062 216.382812 144.40625 C 216.382812 142.140625 217.550781 140.164062 219.320312 139.011719 C 218.671875 132.792969 216.703125 127.046875 213.746094 122.160156 L 161.277344 122.160156 C 158.316406 127.050781 156.347656 132.808594 155.703125 139.03125 C 157.445312 140.1875 158.601562 142.15625 158.601562 144.40625 C 158.601562 146.914062 157.171875 149.078125 155.089844 150.148438 C 154.207031 150.601562 153.210938 150.863281 152.152344 150.863281 C 151.289062 150.863281 150.464844 150.6875 149.714844 150.382812 C 147.363281 149.417969 145.703125 147.109375 145.703125 144.40625 C 145.703125 141.777344 147.277344 139.527344 149.53125 138.519531 C 150.121094 132.632812 151.765625 127.097656 154.234375 122.15625 L 112.019531 122.15625 L 106.855469 263.925781 C 106.855469 269.636719 111.480469 274.265625 117.1875 274.265625 L 257.773438 274.265625 C 263.484375 274.265625 268.113281 269.636719 268.113281 263.925781 Z M 262.9375 122.160156"/></g><g clip-path="url(#b)"><path fill="#382F5F" d="M 150.089844 143.355469 L 150.101562 143.46875 C 150.167969 144.679688 151.164062 145.628906 152.367188 145.628906 C 153.574219 145.628906 154.570312 144.679688 154.636719 143.46875 L 154.648438 143.1875 C 154.789062 122.363281 169.476562 105.46875 187.511719 105.46875 C 205.578125 105.46875 220.289062 122.425781 220.375 143.308594 L 220.390625 143.46875 C 220.449219 144.679688 221.445312 145.628906 222.652344 145.628906 C 223.859375 145.628906 224.855469 144.679688 224.921875 143.464844 L 224.929688 143.277344 C 224.804688 119.882812 208.039062 100.90625 187.511719 100.90625 C 166.964844 100.90625 150.179688 119.929688 150.09375 143.308594 Z M 150.089844 143.355469"/></g><path fill="#FFF" d="M 206.074219 212.191406 L 217.5625 212.191406 C 219.574219 212.191406 220.742188 208.875 219.878906 206.039062 L 214.144531 187.265625 C 212.796875 182.84375 210.121094 180.03125 207 180.03125 L 204.507812 180.03125 C 204.324219 180.027344 204.144531 180.046875 203.96875 180.085938 C 203.789062 180.125 203.621094 180.179688 203.453125 180.257812 C 203.289062 180.332031 203.136719 180.425781 202.988281 180.53125 C 202.84375 180.640625 202.714844 180.765625 202.597656 180.902344 C 202.480469 181.042969 202.378906 181.191406 202.292969 181.351562 C 202.207031 181.511719 202.140625 181.675781 202.089844 181.851562 C 202.042969 182.027344 202.011719 182.203125 202.003906 182.382812 C 201.992188 182.566406 202.003906 182.746094 202.03125 182.925781 C 202.230469 184.332031 202.351562 185.636719 202.433594 186.621094 L 203.921875 205.394531 C 204.035156 206.921875 204.035156 208.453125 203.921875 209.980469 C 203.890625 210.273438 203.925781 210.5625 204.023438 210.84375 C 204.121094 211.125 204.273438 211.375 204.480469 211.585938 C 204.6875 211.800781 204.933594 211.960938 205.210938 212.066406 C 205.488281 212.171875 205.777344 212.210938 206.074219 212.191406 Z M 206.074219 212.191406"/><path fill="#FFF" d="M 172.335938 186.621094 C 172.335938 185.636719 172.535156 184.332031 172.738281 182.925781 C 172.765625 182.746094 172.777344 182.566406 172.765625 182.382812 C 172.753906 182.203125 172.726562 182.027344 172.675781 181.851562 C 172.628906 181.675781 172.5625 181.511719 172.476562 181.351562 C 172.390625 181.191406 172.289062 181.042969 172.171875 180.902344 C 172.054688 180.765625 171.921875 180.640625 171.777344 180.53125 C 171.632812 180.425781 171.476562 180.332031 171.3125 180.257812 C 171.148438 180.179688 170.976562 180.125 170.800781 180.085938 C 170.621094 180.046875 170.445312 180.027344 170.261719 180.03125 L 167.765625 180.03125 C 164.75 180.03125 161.972656 182.84375 160.625 187.265625 L 154.890625 206.039062 C 154.027344 208.875 155.191406 212.191406 157.203125 212.191406 L 168.691406 212.191406 C 168.976562 212.191406 169.25 212.132812 169.511719 212.019531 C 169.773438 211.90625 170 211.742188 170.191406 211.53125 C 170.382812 211.320312 170.523438 211.082031 170.613281 210.808594 C 170.703125 210.539062 170.734375 210.261719 170.703125 209.980469 C 170.59375 208.453125 170.59375 206.921875 170.703125 205.394531 Z M 172.335938 186.621094"/><g clip-path="url(#c)"><path fill="#FFF" d="M 143.523438 187.265625 L 134.128906 206.039062 C 133.964844 206.363281 133.84375 206.703125 133.765625 207.054688 C 133.691406 207.410156 133.660156 207.769531 133.675781 208.132812 C 133.691406 208.492188 133.753906 208.847656 133.859375 209.195312 C 133.964844 209.542969 134.113281 209.867188 134.304688 210.175781 C 134.496094 210.484375 134.722656 210.765625 134.984375 211.015625 C 135.25 211.265625 135.539062 211.480469 135.855469 211.65625 C 136.171875 211.832031 136.507812 211.964844 136.859375 212.054688 C 137.210938 212.144531 137.566406 212.191406 137.929688 212.191406 L 144.527344 212.191406 C 144.84375 212.183594 145.140625 212.113281 145.425781 211.980469 C 145.707031 211.847656 145.953125 211.660156 146.15625 211.421875 C 146.359375 211.183594 146.507812 210.914062 146.59375 210.613281 C 146.683594 210.3125 146.703125 210.007812 146.660156 209.699219 C 146.40625 207.648438 146.578125 205.640625 147.183594 203.667969 L 152.917969 184.894531 C 153.105469 184.292969 153.308594 183.707031 153.523438 183.144531 C 153.65625 182.804688 153.6875 182.457031 153.617188 182.097656 C 153.546875 181.738281 153.386719 181.429688 153.132812 181.164062 C 152.878906 180.902344 152.574219 180.726562 152.21875 180.640625 C 151.863281 180.554688 151.515625 180.574219 151.167969 180.691406 C 149.503906 181.230469 148.007812 182.070312 146.683594 183.210938 C 145.355469 184.351562 144.304688 185.703125 143.523438 187.265625 Z M 143.523438 187.265625"/></g><g clip-path="url(#d)"><path fill="#FFF" d="M 240.640625 206.039062 L 231.246094 187.265625 C 230.464844 185.703125 229.410156 184.351562 228.085938 183.210938 C 226.757812 182.070312 225.265625 181.230469 223.597656 180.691406 C 223.25 180.574219 222.898438 180.558594 222.539062 180.648438 C 222.179688 180.734375 221.875 180.914062 221.625 181.183594 C 221.371094 181.453125 221.214844 181.769531 221.148438 182.132812 C 221.082031 182.496094 221.121094 182.847656 221.265625 183.1875 C 221.480469 183.75 221.679688 184.332031 221.871094 184.933594 L 227.625 203.707031 C 228.230469 205.679688 228.402344 207.691406 228.148438 209.738281 C 228.109375 210.042969 228.136719 210.339844 228.222656 210.632812 C 228.3125 210.925781 228.457031 211.1875 228.65625 211.421875 C 228.855469 211.65625 229.089844 211.839844 229.367188 211.972656 C 229.640625 212.105469 229.933594 212.179688 230.238281 212.191406 L 236.839844 212.191406 C 237.203125 212.191406 237.558594 212.144531 237.910156 212.054688 C 238.261719 211.964844 238.597656 211.832031 238.914062 211.65625 C 239.230469 211.480469 239.519531 211.265625 239.78125 211.015625 C 240.046875 210.765625 240.273438 210.484375 240.460938 210.175781 C 240.652344 209.867188 240.800781 209.542969 240.910156 209.195312 C 241.015625 208.847656 241.074219 208.492188 241.089844 208.132812 C 241.105469 207.769531 241.078125 207.410156 241 207.054688 C 240.925781 206.703125 240.804688 206.363281 240.640625 206.039062 Z M 240.640625 206.039062"/></g><path fill="#FFF" d="M 193.257812 182.84375 C 193.15625 182.445312 192.992188 182.070312 192.765625 181.722656 C 192.539062 181.378906 192.265625 181.078125 191.9375 180.824219 C 191.613281 180.570312 191.253906 180.375 190.863281 180.238281 C 190.472656 180.101562 190.070312 180.03125 189.65625 180.03125 L 185.089844 180.03125 C 184.679688 180.027344 184.28125 180.09375 183.894531 180.226562 C 183.507812 180.359375 183.152344 180.550781 182.832031 180.804688 C 182.507812 181.054688 182.234375 181.351562 182.011719 181.695312 C 181.789062 182.039062 181.628906 182.40625 181.527344 182.804688 C 180.746094 185.9375 180.222656 189.113281 179.960938 192.332031 L 179.15625 202.382812 C 178.933594 204.792969 178.933594 207.207031 179.15625 209.617188 C 179.183594 209.972656 179.277344 210.3125 179.433594 210.632812 C 179.59375 210.953125 179.804688 211.234375 180.070312 211.472656 C 180.335938 211.710938 180.636719 211.894531 180.972656 212.015625 C 181.308594 212.140625 181.65625 212.199219 182.011719 212.191406 L 192.757812 212.191406 C 193.105469 212.191406 193.441406 212.128906 193.769531 212.003906 C 194.09375 211.878906 194.386719 211.699219 194.648438 211.464844 C 194.90625 211.230469 195.113281 210.957031 195.269531 210.644531 C 195.425781 210.335938 195.519531 210.003906 195.550781 209.65625 C 195.773438 207.246094 195.773438 204.832031 195.550781 202.421875 L 194.707031 191.867188 C 194.484375 188.820312 194.003906 185.808594 193.257812 182.84375 Z M 193.257812 182.84375"/><g clip-path="url(#e)"><path fill="#FFF" d="M 235.671875 263.023438 L 235.671875 222.945312 C 235.667969 222.585938 235.597656 222.238281 235.460938 221.90625 C 235.320312 221.578125 235.125 221.285156 234.871094 221.03125 C 234.617188 220.777344 234.324219 220.582031 233.992188 220.441406 C 233.660156 220.304688 233.316406 220.234375 232.957031 220.230469 L 141.8125 220.230469 C 141.453125 220.234375 141.109375 220.304688 140.777344 220.441406 C 140.445312 220.582031 140.152344 220.777344 139.898438 221.03125 C 139.644531 221.285156 139.449219 221.578125 139.308594 221.90625 C 139.171875 222.238281 139.097656 222.585938 139.097656 222.945312 L 139.097656 264.449219 C 139.097656 264.714844 139.121094 264.976562 139.175781 265.234375 C 139.226562 265.492188 139.300781 265.746094 139.402344 265.988281 C 139.503906 266.230469 139.628906 266.464844 139.773438 266.683594 C 139.921875 266.902344 140.089844 267.105469 140.273438 267.292969 C 140.460938 267.480469 140.664062 267.644531 140.886719 267.792969 C 141.105469 267.9375 141.335938 268.0625 141.582031 268.164062 C 141.824219 268.265625 142.078125 268.339844 142.335938 268.394531 C 142.59375 268.445312 142.855469 268.46875 143.121094 268.46875 C 143.386719 268.46875 143.648438 268.445312 143.90625 268.394531 C 144.164062 268.339844 144.417969 268.265625 144.660156 268.164062 C 144.90625 268.0625 145.136719 267.9375 145.355469 267.792969 C 145.574219 267.644531 145.777344 267.480469 145.964844 267.292969 C 146.152344 267.105469 146.320312 266.902344 146.464844 266.683594 C 146.613281 266.464844 146.738281 266.230469 146.839844 265.988281 C 146.9375 265.746094 147.015625 265.492188 147.066406 265.234375 C 147.117188 264.976562 147.144531 264.714844 147.144531 264.449219 L 147.144531 240.992188 C 147.132812 240.203125 147.195312 239.414062 147.335938 238.636719 C 147.476562 237.855469 147.6875 237.097656 147.972656 236.359375 C 148.257812 235.621094 148.609375 234.914062 149.03125 234.242188 C 149.453125 233.574219 149.933594 232.949219 150.472656 232.367188 C 151.015625 231.789062 151.605469 231.265625 152.246094 230.800781 C 152.886719 230.335938 153.566406 229.933594 154.285156 229.597656 C 155.003906 229.261719 155.746094 229 156.515625 228.804688 C 157.28125 228.613281 158.0625 228.496094 158.855469 228.449219 C 159.660156 228.425781 160.464844 228.484375 161.261719 228.621094 C 162.058594 228.757812 162.832031 228.96875 163.585938 229.261719 C 164.339844 229.554688 165.054688 229.917969 165.734375 230.355469 C 166.414062 230.792969 167.046875 231.289062 167.625 231.851562 C 168.207031 232.414062 168.722656 233.027344 169.179688 233.695312 C 169.636719 234.363281 170.019531 235.066406 170.335938 235.808594 C 170.652344 236.554688 170.886719 237.320312 171.046875 238.113281 C 171.207031 238.902344 171.289062 239.703125 171.289062 240.511719 L 171.289062 263.546875 C 171.289062 263.867188 171.320312 264.1875 171.382812 264.507812 C 171.445312 264.824219 171.539062 265.132812 171.664062 265.429688 C 171.789062 265.730469 171.9375 266.011719 172.117188 266.28125 C 172.296875 266.550781 172.503906 266.800781 172.730469 267.027344 C 172.960938 267.257812 173.210938 267.460938 173.480469 267.640625 C 173.75 267.820312 174.03125 267.972656 174.332031 268.09375 C 174.628906 268.21875 174.9375 268.3125 175.257812 268.375 C 175.574219 268.4375 175.894531 268.46875 176.21875 268.46875 L 230.21875 268.46875 C 230.578125 268.46875 230.929688 268.433594 231.28125 268.363281 C 231.632812 268.296875 231.976562 268.191406 232.304688 268.054688 C 232.636719 267.917969 232.949219 267.75 233.25 267.550781 C 233.546875 267.351562 233.820312 267.128906 234.074219 266.875 C 234.328125 266.621094 234.554688 266.347656 234.753906 266.050781 C 234.953125 265.75 235.121094 265.4375 235.257812 265.105469 C 235.394531 264.777344 235.496094 264.4375 235.566406 264.085938 C 235.636719 263.734375 235.671875 263.378906 235.671875 263.023438 Z M 219.574219 240.328125 C 219.574219 241.121094 219.5 241.90625 219.34375 242.683594 C 219.1875 243.460938 218.960938 244.214844 218.65625 244.945312 C 218.351562 245.675781 217.980469 246.371094 217.542969 247.03125 C 217.101562 247.6875 216.601562 248.296875 216.039062 248.859375 C 215.480469 249.417969 214.871094 249.917969 214.210938 250.355469 C 213.550781 250.796875 212.855469 251.167969 212.125 251.472656 C 211.390625 251.773438 210.636719 252.003906 209.859375 252.15625 C 209.082031 252.3125 208.296875 252.390625 207.503906 252.390625 L 199.457031 252.390625 C 198.664062 252.390625 197.878906 252.3125 197.101562 252.15625 C 196.324219 252.003906 195.570312 251.773438 194.835938 251.472656 C 194.105469 251.167969 193.40625 250.796875 192.75 250.355469 C 192.089844 249.917969 191.480469 249.417969 190.917969 248.859375 C 190.359375 248.296875 189.859375 247.6875 189.417969 247.03125 C 188.976562 246.371094 188.605469 245.675781 188.304688 244.945312 C 188 244.214844 187.769531 243.460938 187.617188 242.683594 C 187.460938 241.90625 187.382812 241.121094 187.382812 240.328125 C 187.382812 239.539062 187.460938 238.753906 187.617188 237.976562 C 187.769531 237.199219 188 236.445312 188.304688 235.714844 C 188.605469 234.984375 188.976562 234.289062 189.417969 233.628906 C 189.859375 232.972656 190.359375 232.363281 190.917969 231.800781 C 191.480469 231.242188 192.089844 230.742188 192.75 230.300781 C 193.40625 229.863281 194.105469 229.492188 194.835938 229.1875 C 195.570312 228.886719 196.324219 228.65625 197.101562 228.5 C 197.878906 228.347656 198.664062 228.269531 199.457031 228.269531 L 207.503906 228.269531 C 208.296875 228.269531 209.082031 228.347656 209.859375 228.5 C 210.636719 228.65625 211.390625 228.886719 212.125 229.1875 C 212.855469 229.492188 213.550781 229.863281 214.210938 230.300781 C 214.871094 230.742188 215.480469 231.242188 216.039062 231.800781 C 216.601562 232.363281 217.101562 232.972656 217.542969 233.628906 C 217.980469 234.289062 218.351562 234.984375 218.65625 235.714844 C 218.960938 236.445312 219.1875 237.199219 219.34375 237.976562 C 219.5 238.753906 219.574219 239.539062 219.574219 240.328125 Z M 219.574219 240.328125"/></g><g clip-path="url(#f)"><path fill="#FFF" d="M 227.625 171.988281 C 227.625 171.726562 227.597656 171.464844 227.546875 171.207031 C 227.496094 170.945312 227.417969 170.695312 227.316406 170.453125 C 227.214844 170.207031 227.09375 169.976562 226.945312 169.757812 C 226.796875 169.535156 226.632812 169.332031 226.445312 169.148438 C 226.257812 168.960938 226.054688 168.792969 225.835938 168.648438 C 225.617188 168.5 225.382812 168.375 225.140625 168.277344 C 224.894531 168.175781 224.644531 168.097656 224.382812 168.046875 C 224.125 167.996094 223.863281 167.96875 223.597656 167.96875 L 151.167969 167.96875 C 150.90625 167.96875 150.644531 167.996094 150.382812 168.046875 C 150.125 168.097656 149.871094 168.175781 149.628906 168.277344 C 149.382812 168.375 149.152344 168.5 148.933594 168.648438 C 148.714844 168.792969 148.511719 168.960938 148.324219 169.148438 C 148.136719 169.332031 147.96875 169.535156 147.824219 169.757812 C 147.675781 169.976562 147.550781 170.207031 147.449219 170.453125 C 147.351562 170.695312 147.273438 170.945312 147.222656 171.207031 C 147.171875 171.464844 147.144531 171.726562 147.144531 171.988281 C 147.144531 172.253906 147.171875 172.515625 147.222656 172.773438 C 147.273438 173.03125 147.351562 173.285156 147.449219 173.527344 C 147.550781 173.773438 147.675781 174.003906 147.824219 174.222656 C 147.96875 174.441406 148.136719 174.644531 148.324219 174.832031 C 148.511719 175.019531 148.714844 175.1875 148.933594 175.332031 C 149.152344 175.480469 149.382812 175.601562 149.628906 175.703125 C 149.871094 175.804688 150.125 175.882812 150.382812 175.933594 C 150.644531 175.984375 150.90625 176.011719 151.167969 176.011719 L 223.597656 176.011719 C 223.863281 176.011719 224.125 175.984375 224.382812 175.933594 C 224.644531 175.882812 224.894531 175.804688 225.140625 175.703125 C 225.382812 175.601562 225.617188 175.480469 225.835938 175.332031 C 226.054688 175.1875 226.257812 175.019531 226.445312 174.832031 C 226.632812 174.644531 226.796875 174.441406 226.945312 174.222656 C 227.09375 174.003906 227.214844 173.773438 227.316406 173.527344 C 227.417969 173.285156 227.496094 173.03125 227.546875 172.773438 C 227.597656 172.515625 227.625 172.253906 227.625 171.988281 Z M 227.625 171.988281"/></g></svg>