<svg xmlns="http://www.w3.org/2000/svg" width="375" viewBox="0 0 375 375" height="375" version="1.0"><defs><clipPath id="a"><path d="M 123.914062 119 L 251.414062 119 L 251.414062 239.902344 L 123.914062 239.902344 Z M 123.914062 119"/></clipPath><clipPath id="b"><path d="M 214 171 L 230.785156 171 L 230.785156 197 L 214 197 Z M 214 171"/></clipPath><clipPath id="c"><path d="M 149 202 L 226 202 L 226 240.636719 L 149 240.636719 Z M 149 202"/></clipPath><clipPath id="d"><path d="M 155 161.136719 L 220 161.136719 L 220 168 L 155 168 Z M 155 161.136719"/></clipPath></defs><g clip-path="url(#a)"><path fill="#382F5F" d="M 247.328125 119.25 L 213.992188 119.25 C 215.945312 123.15625 217.25 127.53125 217.71875 132.191406 C 219.476562 132.992188 220.714844 134.753906 220.714844 136.820312 C 220.714844 138.953125 219.402344 140.777344 217.542969 141.539062 C 216.945312 141.78125 216.300781 141.917969 215.617188 141.917969 C 214.773438 141.917969 213.992188 141.714844 213.289062 141.355469 C 211.644531 140.511719 210.515625 138.800781 210.515625 136.820312 C 210.515625 135.03125 211.4375 133.46875 212.839844 132.558594 C 212.324219 127.652344 210.769531 123.109375 208.429688 119.25 L 166.945312 119.25 C 164.601562 123.117188 163.042969 127.660156 162.535156 132.578125 C 163.914062 133.492188 164.828125 135.042969 164.828125 136.820312 C 164.828125 138.800781 163.699219 140.511719 162.050781 141.355469 C 161.351562 141.714844 160.566406 141.917969 159.726562 141.917969 C 159.046875 141.917969 158.394531 141.78125 157.800781 141.539062 C 155.941406 140.777344 154.628906 138.953125 154.628906 136.820312 C 154.628906 134.746094 155.875 132.96875 157.65625 132.171875 C 158.125 127.523438 159.421875 123.152344 161.375 119.25 L 127.996094 119.25 L 123.914062 231.207031 C 123.914062 235.71875 127.570312 239.375 132.082031 239.375 L 243.242188 239.375 C 247.757812 239.375 251.417969 235.71875 251.417969 231.207031 Z M 247.328125 119.25"/></g><path fill="#382F5F" d="M 158.097656 135.988281 L 158.109375 136.078125 C 158.160156 137.035156 158.945312 137.785156 159.898438 137.785156 C 160.855469 137.785156 161.640625 137.039062 161.691406 136.078125 L 161.703125 135.859375 C 161.8125 119.410156 173.425781 106.070312 187.6875 106.070312 C 201.972656 106.070312 213.605469 119.460938 213.671875 135.953125 L 213.683594 136.078125 C 213.730469 137.035156 214.515625 137.785156 215.472656 137.785156 C 216.429688 137.785156 217.214844 137.035156 217.265625 136.078125 L 217.273438 135.929688 C 217.171875 117.453125 203.917969 102.464844 187.6875 102.464844 C 171.441406 102.464844 158.167969 117.488281 158.101562 135.953125 Z M 158.097656 135.988281"/><path fill="#FFF" d="M 202.480469 196.117188 L 211.59375 196.117188 C 213.1875 196.117188 214.113281 193.496094 213.429688 191.253906 L 208.878906 176.402344 C 207.8125 172.902344 205.6875 170.679688 203.214844 170.679688 L 201.238281 170.679688 C 200.945312 170.675781 200.667969 170.734375 200.402344 170.855469 C 200.140625 170.976562 199.914062 171.148438 199.722656 171.371094 C 199.535156 171.589844 199.402344 171.839844 199.320312 172.117188 C 199.242188 172.398438 199.226562 172.679688 199.273438 172.96875 C 199.433594 174.082031 199.53125 175.113281 199.59375 175.894531 L 200.773438 190.742188 C 200.863281 191.953125 200.863281 193.160156 200.773438 194.367188 C 200.75 194.601562 200.777344 194.832031 200.855469 195.054688 C 200.933594 195.277344 201.054688 195.472656 201.21875 195.640625 C 201.382812 195.808594 201.574219 195.9375 201.796875 196.019531 C 202.019531 196.101562 202.246094 196.136719 202.480469 196.117188 Z M 202.480469 196.117188"/><path fill="#FFF" d="M 175.722656 175.894531 C 175.722656 175.113281 175.882812 174.082031 176.042969 172.96875 C 176.089844 172.679688 176.074219 172.398438 175.996094 172.117188 C 175.917969 171.839844 175.785156 171.589844 175.59375 171.371094 C 175.40625 171.148438 175.179688 170.976562 174.914062 170.855469 C 174.648438 170.734375 174.371094 170.675781 174.082031 170.679688 L 172.101562 170.679688 C 169.707031 170.679688 167.507812 172.902344 166.4375 176.402344 L 161.890625 191.253906 C 161.203125 193.496094 162.128906 196.117188 163.726562 196.117188 L 172.835938 196.117188 C 173.0625 196.121094 173.277344 196.074219 173.484375 195.984375 C 173.691406 195.894531 173.871094 195.765625 174.023438 195.597656 C 174.175781 195.429688 174.289062 195.242188 174.359375 195.027344 C 174.429688 194.8125 174.453125 194.59375 174.429688 194.367188 C 174.34375 193.160156 174.34375 191.953125 174.429688 190.742188 Z M 175.722656 175.894531"/><path fill="#FFF" d="M 152.875 176.402344 L 145.421875 191.253906 C 145.292969 191.507812 145.199219 191.777344 145.136719 192.058594 C 145.078125 192.335938 145.054688 192.621094 145.066406 192.90625 C 145.078125 193.195312 145.128906 193.476562 145.210938 193.75 C 145.296875 194.023438 145.414062 194.28125 145.566406 194.527344 C 145.714844 194.769531 145.894531 194.992188 146.105469 195.1875 C 146.3125 195.386719 146.542969 195.554688 146.792969 195.695312 C 147.046875 195.835938 147.3125 195.941406 147.589844 196.011719 C 147.867188 196.082031 148.152344 196.117188 148.4375 196.117188 L 153.671875 196.117188 C 153.921875 196.113281 154.160156 196.058594 154.382812 195.953125 C 154.609375 195.847656 154.800781 195.699219 154.964844 195.511719 C 155.125 195.324219 155.242188 195.109375 155.3125 194.871094 C 155.378906 194.632812 155.398438 194.390625 155.363281 194.148438 C 155.160156 192.527344 155.300781 190.9375 155.777344 189.375 L 160.328125 174.527344 C 160.476562 174.050781 160.636719 173.585938 160.804688 173.144531 C 160.910156 172.875 160.9375 172.597656 160.882812 172.3125 C 160.824219 172.03125 160.695312 171.785156 160.496094 171.578125 C 160.296875 171.367188 160.054688 171.230469 159.773438 171.160156 C 159.488281 171.09375 159.210938 171.109375 158.9375 171.203125 C 157.617188 171.628906 156.433594 172.292969 155.378906 173.195312 C 154.328125 174.09375 153.492188 175.164062 152.875 176.402344 Z M 152.875 176.402344"/><g clip-path="url(#b)"><path fill="#FFF" d="M 229.894531 191.253906 L 222.441406 176.402344 C 221.824219 175.164062 220.988281 174.09375 219.9375 173.195312 C 218.886719 172.292969 217.699219 171.628906 216.378906 171.203125 C 216.101562 171.109375 215.824219 171.09375 215.539062 171.164062 C 215.253906 171.234375 215.011719 171.378906 214.8125 171.589844 C 214.613281 171.804688 214.488281 172.054688 214.4375 172.339844 C 214.382812 172.628906 214.414062 172.90625 214.527344 173.175781 C 214.699219 173.621094 214.859375 174.082031 215.007812 174.558594 L 219.570312 189.410156 C 220.050781 190.96875 220.1875 192.558594 219.984375 194.179688 C 219.957031 194.417969 219.976562 194.65625 220.046875 194.886719 C 220.117188 195.117188 220.230469 195.328125 220.390625 195.511719 C 220.546875 195.695312 220.734375 195.839844 220.953125 195.945312 C 221.171875 196.050781 221.402344 196.109375 221.644531 196.117188 L 226.878906 196.117188 C 227.167969 196.117188 227.449219 196.082031 227.730469 196.011719 C 228.007812 195.941406 228.273438 195.835938 228.523438 195.695312 C 228.777344 195.554688 229.003906 195.386719 229.214844 195.1875 C 229.421875 194.992188 229.601562 194.769531 229.753906 194.527344 C 229.902344 194.28125 230.023438 194.023438 230.105469 193.75 C 230.191406 193.476562 230.238281 193.195312 230.253906 192.90625 C 230.265625 192.621094 230.242188 192.335938 230.179688 192.058594 C 230.121094 191.777344 230.023438 191.507812 229.894531 191.253906 Z M 229.894531 191.253906"/></g><path fill="#FFF" d="M 192.316406 172.902344 C 192.238281 172.585938 192.105469 172.292969 191.925781 172.019531 C 191.75 171.746094 191.53125 171.507812 191.269531 171.304688 C 191.011719 171.105469 190.730469 170.949219 190.417969 170.84375 C 190.109375 170.734375 189.789062 170.679688 189.460938 170.679688 L 185.839844 170.679688 C 185.515625 170.675781 185.199219 170.730469 184.894531 170.835938 C 184.585938 170.9375 184.304688 171.089844 184.046875 171.289062 C 183.792969 171.488281 183.574219 171.722656 183.398438 171.996094 C 183.222656 172.265625 183.09375 172.558594 183.015625 172.871094 C 182.394531 175.351562 181.980469 177.863281 181.769531 180.410156 L 181.132812 188.359375 C 180.957031 190.265625 180.957031 192.175781 181.132812 194.082031 C 181.15625 194.363281 181.230469 194.632812 181.355469 194.886719 C 181.480469 195.140625 181.648438 195.359375 181.859375 195.550781 C 182.070312 195.738281 182.308594 195.882812 182.574219 195.980469 C 182.839844 196.078125 183.117188 196.125 183.398438 196.117188 L 191.917969 196.117188 C 192.195312 196.121094 192.464844 196.070312 192.722656 195.972656 C 192.980469 195.871094 193.214844 195.730469 193.417969 195.546875 C 193.625 195.359375 193.789062 195.144531 193.914062 194.898438 C 194.035156 194.648438 194.113281 194.390625 194.136719 194.113281 C 194.3125 192.207031 194.3125 190.296875 194.136719 188.390625 L 193.46875 180.042969 C 193.292969 177.628906 192.910156 175.25 192.316406 172.902344 Z M 192.316406 172.902344"/><g clip-path="url(#c)"><path fill="#FFF" d="M 225.953125 236.328125 L 225.953125 204.625 C 225.953125 204.339844 225.894531 204.066406 225.785156 203.804688 C 225.675781 203.542969 225.519531 203.3125 225.316406 203.113281 C 225.117188 202.910156 224.882812 202.753906 224.621094 202.644531 C 224.359375 202.535156 224.085938 202.480469 223.800781 202.476562 L 151.519531 202.476562 C 151.234375 202.480469 150.960938 202.535156 150.695312 202.644531 C 150.433594 202.753906 150.203125 202.910156 150 203.113281 C 149.796875 203.3125 149.644531 203.542969 149.53125 203.804688 C 149.421875 204.066406 149.367188 204.339844 149.363281 204.625 L 149.363281 237.457031 C 149.363281 237.878906 149.445312 238.285156 149.609375 238.675781 C 149.769531 239.066406 150 239.410156 150.300781 239.707031 C 150.597656 240.003906 150.945312 240.234375 151.335938 240.394531 C 151.726562 240.558594 152.132812 240.636719 152.554688 240.636719 C 152.980469 240.636719 153.386719 240.558594 153.777344 240.394531 C 154.167969 240.234375 154.511719 240.003906 154.8125 239.707031 C 155.113281 239.410156 155.34375 239.066406 155.503906 238.675781 C 155.667969 238.285156 155.746094 237.878906 155.746094 237.457031 L 155.746094 218.902344 C 155.738281 218.277344 155.789062 217.65625 155.898438 217.039062 C 156.011719 216.421875 156.179688 215.820312 156.402344 215.238281 C 156.628906 214.652344 156.910156 214.09375 157.242188 213.5625 C 157.578125 213.03125 157.957031 212.539062 158.386719 212.082031 C 158.816406 211.621094 159.285156 211.207031 159.792969 210.839844 C 160.300781 210.472656 160.839844 210.15625 161.410156 209.890625 C 161.980469 209.625 162.566406 209.414062 163.175781 209.261719 C 163.789062 209.109375 164.40625 209.015625 165.035156 208.980469 C 165.675781 208.960938 166.308594 209.007812 166.941406 209.113281 C 167.574219 209.222656 168.1875 209.390625 168.785156 209.625 C 169.382812 209.855469 169.953125 210.144531 170.492188 210.488281 C 171.03125 210.832031 171.53125 211.226562 171.988281 211.671875 C 172.449219 212.117188 172.859375 212.601562 173.222656 213.128906 C 173.582031 213.65625 173.890625 214.214844 174.140625 214.804688 C 174.386719 215.390625 174.578125 216 174.703125 216.625 C 174.832031 217.25 174.894531 217.882812 174.894531 218.519531 L 174.894531 236.742188 C 174.894531 237.257812 174.992188 237.757812 175.191406 238.234375 C 175.390625 238.710938 175.671875 239.132812 176.039062 239.496094 C 176.40625 239.863281 176.828125 240.144531 177.308594 240.339844 C 177.785156 240.539062 178.285156 240.636719 178.804688 240.636719 L 221.628906 240.636719 C 221.914062 240.636719 222.195312 240.609375 222.472656 240.554688 C 222.75 240.5 223.023438 240.417969 223.285156 240.308594 C 223.546875 240.203125 223.796875 240.070312 224.03125 239.910156 C 224.269531 239.753906 224.484375 239.574219 224.6875 239.375 C 224.886719 239.175781 225.066406 238.957031 225.226562 238.722656 C 225.382812 238.488281 225.515625 238.238281 225.625 237.976562 C 225.734375 237.714844 225.816406 237.449219 225.871094 237.167969 C 225.925781 236.890625 225.953125 236.613281 225.953125 236.328125 Z M 213.1875 218.378906 C 213.1875 219.003906 213.128906 219.625 213.003906 220.238281 C 212.882812 220.855469 212.699219 221.449219 212.460938 222.027344 C 212.21875 222.609375 211.925781 223.15625 211.574219 223.679688 C 211.226562 224.199219 210.828125 224.679688 210.382812 225.125 C 209.941406 225.566406 209.457031 225.960938 208.933594 226.308594 C 208.410156 226.660156 207.859375 226.953125 207.277344 227.191406 C 206.699219 227.429688 206.097656 227.613281 205.484375 227.734375 C 204.867188 227.855469 204.242188 227.917969 203.613281 227.917969 L 197.234375 227.917969 C 196.605469 227.917969 195.980469 227.855469 195.363281 227.734375 C 194.75 227.613281 194.148438 227.429688 193.570312 227.191406 C 192.988281 226.953125 192.4375 226.660156 191.914062 226.308594 C 191.390625 225.960938 190.90625 225.566406 190.464844 225.125 C 190.019531 224.679688 189.621094 224.199219 189.273438 223.679688 C 188.921875 223.15625 188.628906 222.609375 188.386719 222.027344 C 188.148438 221.449219 187.964844 220.855469 187.84375 220.238281 C 187.71875 219.625 187.660156 219.003906 187.660156 218.378906 C 187.660156 217.75 187.71875 217.132812 187.84375 216.515625 C 187.964844 215.902344 188.148438 215.304688 188.386719 214.726562 C 188.628906 214.148438 188.921875 213.597656 189.273438 213.078125 C 189.621094 212.558594 190.019531 212.074219 190.464844 211.632812 C 190.90625 211.1875 191.390625 210.792969 191.914062 210.445312 C 192.4375 210.097656 192.988281 209.804688 193.570312 209.5625 C 194.148438 209.324219 194.75 209.144531 195.363281 209.019531 C 195.980469 208.898438 196.605469 208.839844 197.234375 208.839844 L 203.613281 208.839844 C 204.242188 208.839844 204.867188 208.898438 205.484375 209.019531 C 206.097656 209.144531 206.699219 209.324219 207.277344 209.5625 C 207.859375 209.804688 208.410156 210.097656 208.933594 210.445312 C 209.457031 210.792969 209.941406 211.1875 210.382812 211.632812 C 210.828125 212.074219 211.226562 212.558594 211.574219 213.078125 C 211.925781 213.597656 212.21875 214.148438 212.460938 214.726562 C 212.699219 215.304688 212.882812 215.902344 213.003906 216.515625 C 213.128906 217.132812 213.1875 217.75 213.1875 218.378906 Z M 213.1875 218.378906"/></g><g clip-path="url(#d)"><path fill="#FFF" d="M 219.570312 164.316406 C 219.570312 163.894531 219.488281 163.492188 219.328125 163.101562 C 219.167969 162.710938 218.9375 162.367188 218.636719 162.070312 C 218.335938 161.769531 217.992188 161.542969 217.601562 161.378906 C 217.210938 161.21875 216.804688 161.136719 216.378906 161.136719 L 158.9375 161.136719 C 158.515625 161.136719 158.109375 161.21875 157.71875 161.378906 C 157.324219 161.542969 156.980469 161.769531 156.683594 162.070312 C 156.382812 162.367188 156.152344 162.710938 155.988281 163.101562 C 155.828125 163.492188 155.746094 163.894531 155.746094 164.316406 C 155.746094 164.738281 155.828125 165.144531 155.988281 165.535156 C 156.152344 165.925781 156.382812 166.269531 156.683594 166.566406 C 156.980469 166.863281 157.324219 167.09375 157.71875 167.257812 C 158.109375 167.417969 158.515625 167.5 158.9375 167.5 L 216.378906 167.5 C 216.804688 167.5 217.210938 167.417969 217.601562 167.257812 C 217.992188 167.09375 218.335938 166.863281 218.636719 166.566406 C 218.9375 166.269531 219.167969 165.925781 219.328125 165.535156 C 219.488281 165.144531 219.570312 164.738281 219.570312 164.316406 Z M 219.570312 164.316406"/></g><g fill="#FFF"><g><g><path d="M 7.734375 0.109375 C 4.304688 0.109375 2.59375 -0.265625 2.59375 -1.015625 L 2.59375 -37.609375 C 2.59375 -38.890625 3.175781 -39.53125 4.34375 -39.53125 L 14.28125 -39.53125 C 19.851562 -39.53125 23.875 -38.378906 26.34375 -36.078125 C 28.8125 -33.785156 30.046875 -30.457031 30.046875 -26.09375 C 30.046875 -22.476562 28.878906 -19.164062 26.546875 -16.15625 C 25.378906 -14.644531 23.664062 -13.4375 21.40625 -12.53125 C 19.144531 -11.632812 16.507812 -11.1875 13.5 -11.1875 L 13.5 -1.078125 C 13.5 -0.617188 12.789062 -0.304688 11.375 -0.140625 C 9.96875 0.0234375 8.753906 0.109375 7.734375 0.109375 Z M 13.5 -29.703125 L 13.5 -20.78125 L 14.234375 -20.78125 C 15.546875 -20.78125 16.65625 -21.191406 17.5625 -22.015625 C 18.46875 -22.847656 18.921875 -24.015625 18.921875 -25.515625 C 18.921875 -27.023438 18.609375 -28.097656 17.984375 -28.734375 C 17.359375 -29.378906 16.257812 -29.703125 14.6875 -29.703125 Z M 13.5 -29.703125" transform="translate(95.461 298.926)"/></g></g></g><g fill="#FFF"><g><g><path d="M 13.609375 -0.796875 C 13.609375 -0.191406 11.820312 0.109375 8.25 0.109375 C 4.632812 0.109375 2.828125 -0.171875 2.828125 -0.734375 L 2.828125 -37.546875 C 2.828125 -38.867188 3.519531 -39.53125 4.90625 -39.53125 L 15.703125 -39.53125 C 25.597656 -39.53125 30.546875 -35.671875 30.546875 -27.953125 C 30.546875 -25.617188 30.09375 -23.5 29.1875 -21.59375 C 28.289062 -19.695312 27.015625 -18.179688 25.359375 -17.046875 L 32.46875 -5.1875 C 32.164062 -4.289062 31.1875 -3.257812 29.53125 -2.09375 C 27.269531 -0.46875 25.40625 0.34375 23.9375 0.34375 C 22.46875 0.34375 21.378906 -0.1875 20.671875 -1.25 L 15.359375 -13.609375 L 13.609375 -13.609375 Z M 13.609375 -29.53125 L 13.609375 -21.0625 L 13.890625 -21.0625 C 17.460938 -21.0625 19.25 -22.550781 19.25 -25.53125 C 19.25 -26.882812 18.898438 -27.890625 18.203125 -28.546875 C 17.515625 -29.203125 16.378906 -29.53125 14.796875 -29.53125 Z M 13.609375 -29.53125" transform="translate(127.646 298.926)"/></g></g></g><g fill="#FFF"><g><g><path d="M 4.296875 -13.78125 C 5.003906 -13.21875 6.234375 -12.445312 7.984375 -11.46875 C 9.734375 -10.488281 11.410156 -10 13.015625 -10 C 14.617188 -10 15.421875 -10.617188 15.421875 -11.859375 C 15.421875 -12.421875 15.191406 -12.914062 14.734375 -13.34375 C 14.285156 -13.78125 13.457031 -14.28125 12.25 -14.84375 C 11.050781 -15.414062 10.148438 -15.859375 9.546875 -16.171875 C 8.941406 -16.492188 8.140625 -17.019531 7.140625 -17.75 C 6.140625 -18.488281 5.378906 -19.253906 4.859375 -20.046875 C 3.347656 -22.191406 2.59375 -24.921875 2.59375 -28.234375 C 2.59375 -31.546875 3.828125 -34.335938 6.296875 -36.609375 C 8.765625 -38.890625 11.992188 -40.03125 15.984375 -40.03125 C 18.691406 -40.03125 21.191406 -39.738281 23.484375 -39.15625 C 25.785156 -38.570312 26.972656 -37.8125 27.046875 -36.875 C 27.046875 -36.757812 27.046875 -36.644531 27.046875 -36.53125 C 27.046875 -35.21875 26.628906 -33.550781 25.796875 -31.53125 C 24.972656 -29.519531 24.394531 -28.398438 24.0625 -28.171875 C 21.644531 -29.421875 19.484375 -30.046875 17.578125 -30.046875 C 15.679688 -30.046875 14.734375 -29.367188 14.734375 -28.015625 C 14.734375 -27.179688 15.429688 -26.445312 16.828125 -25.8125 C 17.128906 -25.65625 17.5625 -25.445312 18.125 -25.1875 C 18.6875 -24.925781 19.332031 -24.613281 20.0625 -24.25 C 20.800781 -23.894531 21.59375 -23.441406 22.4375 -22.890625 C 23.289062 -22.347656 24.207031 -21.625 25.1875 -20.71875 C 27.175781 -18.84375 28.171875 -16.359375 28.171875 -13.265625 C 28.171875 -9.242188 27.0625 -5.953125 24.84375 -3.390625 C 22.625 -0.828125 19.195312 0.488281 14.5625 0.5625 C 12.3125 0.5625 10.269531 0.375 8.4375 0 C 6.613281 -0.375 5.023438 -1.109375 3.671875 -2.203125 C 2.316406 -3.296875 1.640625 -4.613281 1.640625 -6.15625 C 1.640625 -7.695312 1.921875 -9.226562 2.484375 -10.75 C 3.046875 -12.28125 3.648438 -13.289062 4.296875 -13.78125 Z M 4.296875 -13.78125" transform="translate(160.96 298.926)"/></g></g></g><g fill="#FFF"><g><g><path d="M 11.96875 -0.390625 C 11.96875 -0.0546875 10.394531 0.109375 7.25 0.109375 C 4.113281 0.109375 2.546875 -0.148438 2.546875 -0.671875 L 2.546875 -39.359375 C 2.546875 -39.617188 3.128906 -39.804688 4.296875 -39.921875 C 5.460938 -40.035156 6.441406 -40.09375 7.234375 -40.09375 C 10.390625 -40.09375 11.96875 -39.753906 11.96875 -39.078125 L 11.96875 -27.78125 C 14.082031 -28.425781 15.679688 -28.75 16.765625 -28.75 C 19.628906 -28.75 21.890625 -27.984375 23.546875 -26.453125 C 25.203125 -24.929688 26.03125 -22.097656 26.03125 -17.953125 L 26.03125 -0.453125 C 26.03125 -0.109375 24.5625 0.0625 21.625 0.0625 C 18.3125 -0.0507812 16.65625 -0.242188 16.65625 -0.515625 L 16.65625 -17.109375 C 16.65625 -18.953125 16.050781 -19.875 14.84375 -19.875 C 14.019531 -19.875 13.0625 -19.476562 11.96875 -18.6875 Z M 11.96875 -0.390625" transform="translate(190.943 298.926)"/></g></g></g><g fill="#FFF"><g><g><path d="M 5 -3.328125 C 2.644531 -5.929688 1.46875 -9.523438 1.46875 -14.109375 C 1.46875 -18.703125 2.644531 -22.296875 5 -24.890625 C 7.351562 -27.492188 10.523438 -28.796875 14.515625 -28.796875 C 18.503906 -28.796875 21.664062 -27.492188 24 -24.890625 C 26.332031 -22.296875 27.5 -18.703125 27.5 -14.109375 C 27.5 -9.523438 26.332031 -5.929688 24 -3.328125 C 21.664062 -0.734375 18.503906 0.5625 14.515625 0.5625 C 10.523438 0.5625 7.351562 -0.734375 5 -3.328125 Z M 14.53125 -19.375 C 12.40625 -19.375 11.34375 -17.640625 11.34375 -14.171875 C 11.34375 -10.710938 12.40625 -8.984375 14.53125 -8.984375 C 16.664062 -8.984375 17.734375 -10.710938 17.734375 -14.171875 C 17.734375 -17.640625 16.664062 -19.375 14.53125 -19.375 Z M 14.53125 -19.375" transform="translate(219.232 298.926)"/></g></g></g><g fill="#FFF"><g><g><path d="M 14.6875 10.28125 C 14.6875 10.539062 13.078125 10.671875 9.859375 10.671875 C 6.640625 10.671875 5.03125 10.539062 5.03125 10.28125 L 5.03125 -18.796875 L 3.109375 -18.796875 C 2.203125 -18.796875 1.582031 -19.625 1.25 -21.28125 C 1.132812 -21.8125 1.078125 -22.488281 1.078125 -23.3125 C 1.078125 -24.144531 1.335938 -25.128906 1.859375 -26.265625 C 2.617188 -27.921875 3.828125 -28.75 5.484375 -28.75 C 6.566406 -28.75 7.566406 -28.492188 8.484375 -27.984375 C 9.410156 -27.472656 10.050781 -27 10.40625 -26.5625 C 10.769531 -26.132812 10.953125 -25.882812 10.953125 -25.8125 C 13.472656 -27.769531 16.203125 -28.75 19.140625 -28.75 C 22.078125 -28.75 24.597656 -27.609375 26.703125 -25.328125 C 28.816406 -23.046875 29.875 -19.523438 29.875 -14.765625 C 29.875 -10.003906 28.816406 -6.316406 26.703125 -3.703125 C 24.597656 -1.085938 21.925781 0.21875 18.6875 0.21875 C 17.21875 0.21875 15.882812 0.144531 14.6875 0 Z M 17 -18.859375 C 16.351562 -18.859375 15.734375 -18.648438 15.140625 -18.234375 L 15.140625 -8.25 C 15.773438 -8.164062 16.289062 -8.125 16.6875 -8.125 C 17.082031 -8.125 17.394531 -8.125 17.625 -8.125 C 19.164062 -8.28125 19.9375 -10.257812 19.9375 -14.0625 C 19.9375 -17.257812 18.957031 -18.859375 17 -18.859375 Z M 17 -18.859375" transform="translate(248.198 298.926)"/></g></g></g><g fill="#FFF"><g><g><path d="M 8.042969 0 L 10.023438 0 L 5.964844 -11.222656 L 3.925781 -11.222656 L -0.132812 0 L 1.851562 0 L 2.65625 -2.375 L 7.238281 -2.375 Z M 3.199219 -3.984375 L 4.957031 -9.21875 L 6.714844 -3.984375 Z M 3.199219 -3.984375" transform="translate(116.043 333.235)"/></g></g></g><g fill="#FFF"><g><g><path d="M 13.503906 -11.222656 L 11.054688 -2.730469 L 8.640625 -11.222656 L 6.566406 -11.222656 L 4.171875 -2.769531 L 1.738281 -11.222656 L -0.207031 -11.222656 L 3.105469 0 L 5.144531 0 L 7.59375 -8.976562 L 10.082031 0 L 12.136719 0 L 15.410156 -11.222656 Z M 13.503906 -11.222656" transform="translate(130.71 333.235)"/></g></g></g><g fill="#FFF"><g><g><path d="M 8.042969 0 L 10.023438 0 L 5.964844 -11.222656 L 3.925781 -11.222656 L -0.132812 0 L 1.851562 0 L 2.65625 -2.375 L 7.238281 -2.375 Z M 3.199219 -3.984375 L 4.957031 -9.21875 L 6.714844 -3.984375 Z M 3.199219 -3.984375" transform="translate(150.687 333.235)"/></g></g></g><g fill="#FFF"><g><g><path d="M 9.558594 -11.222656 L 7.445312 -11.222656 L 4.730469 -6.996094 L 2.039062 -11.222656 L -0.113281 -11.222656 L 3.816406 -5.273438 L 3.816406 0 L 5.648438 0 L 5.648438 -5.3125 Z M 9.558594 -11.222656" transform="translate(165.354 333.235)"/></g></g></g><g fill="#FFF"><g><g><path d="M 8.042969 0 L 10.023438 0 L 5.964844 -11.222656 L 3.925781 -11.222656 L -0.132812 0 L 1.851562 0 L 2.65625 -2.375 L 7.238281 -2.375 Z M 3.199219 -3.984375 L 4.957031 -9.21875 L 6.714844 -3.984375 Z M 3.199219 -3.984375" transform="translate(188.834 333.235)"/></g></g></g><g fill="#FFF"><g><g><path d="M 8.433594 -11.222656 L 8.433594 -6.472656 L 3.066406 -6.472656 L 3.066406 -11.222656 L 1.234375 -11.222656 L 1.234375 0 L 3.066406 0 L 3.066406 -4.769531 L 8.433594 -4.769531 L 8.433594 0 L 10.269531 0 L 10.269531 -11.222656 Z M 8.433594 -11.222656" transform="translate(203.5 333.235)"/></g></g></g><g fill="#FFF"><g><g><path d="M 7.761719 -9.558594 L 7.761719 -11.222656 L 1.328125 -11.222656 L 1.328125 0 L 7.761719 0 L 7.761719 -1.664062 L 3.160156 -1.664062 L 3.160156 -4.769531 L 7.144531 -4.769531 L 7.144531 -6.453125 L 3.160156 -6.453125 L 3.160156 -9.558594 Z M 7.761719 -9.558594" transform="translate(219.776 333.235)"/></g></g></g><g fill="#FFF"><g><g><path d="M 8.042969 0 L 10.023438 0 L 5.964844 -11.222656 L 3.925781 -11.222656 L -0.132812 0 L 1.851562 0 L 2.65625 -2.375 L 7.238281 -2.375 Z M 3.199219 -3.984375 L 4.957031 -9.21875 L 6.714844 -3.984375 Z M 3.199219 -3.984375" transform="translate(233.264 333.235)"/></g></g></g><g fill="#FFF"><g><g><path d="M 1.234375 0 L 4.601562 0 C 7.707031 0 10.210938 -2.507812 10.210938 -5.609375 C 10.210938 -8.714844 7.707031 -11.222656 4.601562 -11.222656 L 1.234375 -11.222656 Z M 3.046875 -1.703125 L 3.046875 -9.519531 L 4.601562 -9.519531 C 6.734375 -9.519531 8.398438 -7.855469 8.398438 -5.609375 C 8.398438 -3.367188 6.734375 -1.703125 4.601562 -1.703125 Z M 3.046875 -1.703125" transform="translate(247.931 333.235)"/></g></g></g></svg>