<svg width="300" height="300" viewBox="0 0 300 300" fill="none" xmlns="http://www.w3.org/2000/svg">
<path d="M82.5563 239.228C79.8125 239.228 78.4438 238.928 78.4438 238.328V209.053C78.4438 208.028 78.9094 207.516 79.8438 207.516H87.7938C92.25 207.516 95.4688 208.438 97.4438 210.278C99.4188 212.113 100.406 214.775 100.406 218.266C100.406 221.16 99.4719 223.81 97.6063 226.216C96.6719 227.425 95.3 228.391 93.4938 229.116C91.6844 229.835 89.575 230.191 87.1688 230.191V238.278C87.1688 238.647 86.6 238.897 85.4688 239.028C84.3438 239.16 83.3719 239.228 82.5563 239.228ZM87.1688 215.378V222.516H87.7563C88.8063 222.516 89.6938 222.188 90.4188 221.528C91.1438 220.863 91.5063 219.928 91.5063 218.728C91.5063 217.522 91.2563 216.663 90.7563 216.153C90.2563 215.638 89.375 215.378 88.1188 215.378H87.1688Z" fill="white"/>
<path d="M113.004 238.503C113.004 238.988 111.573 239.228 108.717 239.228C105.823 239.228 104.379 239.003 104.379 238.553V209.103C104.379 208.047 104.932 207.516 106.042 207.516H114.679C122.595 207.516 126.554 210.603 126.554 216.778C126.554 218.647 126.192 220.341 125.467 221.866C124.748 223.385 123.729 224.597 122.404 225.503L128.092 234.991C127.848 235.71 127.067 236.535 125.742 237.466C123.932 238.766 122.442 239.416 121.267 239.416C120.092 239.416 119.22 238.991 118.654 238.141L114.404 228.253H113.004V238.503ZM113.004 215.516V222.291H113.229C116.086 222.291 117.517 221.1 117.517 218.716C117.517 217.635 117.236 216.828 116.679 216.303C116.129 215.778 115.22 215.516 113.954 215.516H113.004Z" fill="white"/>
<path d="M132.206 228.116C132.771 228.566 133.756 229.185 135.156 229.966C136.556 230.75 137.896 231.141 139.181 231.141C140.462 231.141 141.106 230.647 141.106 229.653C141.106 229.203 140.921 228.81 140.556 228.466C140.196 228.116 139.534 227.716 138.568 227.266C137.609 226.81 136.887 226.453 136.406 226.203C135.921 225.947 135.281 225.525 134.481 224.941C133.681 224.35 133.071 223.738 132.656 223.103C131.446 221.388 130.843 219.203 130.843 216.553C130.843 213.903 131.831 211.672 133.806 209.853C135.781 208.028 138.362 207.116 141.556 207.116C143.721 207.116 145.721 207.35 147.555 207.816C149.396 208.285 150.346 208.891 150.405 209.641C150.405 209.735 150.405 209.825 150.405 209.916C150.405 210.966 150.071 212.3 149.405 213.916C148.746 215.525 148.284 216.422 148.018 216.603C146.084 215.603 144.355 215.103 142.83 215.103C141.312 215.103 140.556 215.647 140.556 216.728C140.556 217.397 141.112 217.985 142.231 218.491C142.471 218.616 142.818 218.785 143.268 218.991C143.718 219.2 144.234 219.45 144.818 219.741C145.409 220.025 146.043 220.388 146.718 220.828C147.399 221.263 148.134 221.841 148.918 222.566C150.509 224.066 151.305 226.053 151.305 228.528C151.305 231.747 150.418 234.378 148.643 236.428C146.868 238.478 144.124 239.531 140.418 239.591C138.618 239.591 136.984 239.441 135.518 239.141C134.059 238.841 132.787 238.253 131.706 237.378C130.621 236.503 130.081 235.45 130.081 234.216C130.081 232.985 130.306 231.76 130.756 230.541C131.206 229.316 131.687 228.51 132.206 228.116Z" fill="white"/>
<path d="M162.329 238.828C162.329 239.097 161.07 239.228 158.554 239.228C156.045 239.228 154.792 239.022 154.792 238.603V207.653C154.792 207.447 155.257 207.297 156.192 207.203C157.123 207.113 157.907 207.066 158.542 207.066C161.067 207.066 162.329 207.338 162.329 207.878V216.916C164.02 216.4 165.298 216.141 166.167 216.141C168.457 216.141 170.267 216.753 171.592 217.978C172.917 219.197 173.579 221.463 173.579 224.778V238.778C173.579 239.053 172.404 239.191 170.054 239.191C167.404 239.1 166.079 238.947 166.079 238.728V225.453C166.079 223.978 165.595 223.241 164.629 223.241C163.97 223.241 163.204 223.56 162.329 224.191V238.828Z" fill="white"/>
<path d="M179.386 236.478C177.501 234.397 176.561 231.522 176.561 227.853C176.561 224.178 177.501 221.303 179.386 219.228C181.267 217.147 183.804 216.103 186.998 216.103C190.189 216.103 192.717 217.147 194.586 219.228C196.451 221.303 197.386 224.178 197.386 227.853C197.386 231.522 196.451 234.397 194.586 236.478C192.717 238.553 190.189 239.591 186.998 239.591C183.804 239.591 181.267 238.553 179.386 236.478ZM187.011 223.641C185.311 223.641 184.461 225.028 184.461 227.803C184.461 230.572 185.311 231.953 187.011 231.953C188.717 231.953 189.573 230.572 189.573 227.803C189.573 225.028 188.717 223.641 187.011 223.641Z" fill="white"/>
<path d="M210.308 247.366C210.308 247.572 209.021 247.678 206.446 247.678C203.871 247.678 202.583 247.572 202.583 247.366V224.103H201.046C200.321 224.103 199.824 223.441 199.558 222.116C199.465 221.691 199.421 221.15 199.421 220.491C199.421 219.825 199.627 219.038 200.046 218.128C200.652 216.803 201.621 216.141 202.946 216.141C203.812 216.141 204.612 216.347 205.346 216.753C206.087 217.163 206.599 217.541 206.883 217.891C207.174 218.235 207.321 218.435 207.321 218.491C209.337 216.925 211.521 216.141 213.871 216.141C216.221 216.141 218.236 217.053 219.921 218.878C221.611 220.703 222.458 223.522 222.458 227.328C222.458 231.138 221.611 234.088 219.921 236.178C218.236 238.272 216.099 239.316 213.508 239.316C212.333 239.316 211.265 239.256 210.308 239.141V247.366ZM212.158 224.053C211.64 224.053 211.146 224.222 210.671 224.553V232.541C211.177 232.61 211.59 232.641 211.908 232.641C212.224 232.641 212.474 232.641 212.658 232.641C213.89 232.516 214.508 230.935 214.508 227.891C214.508 225.335 213.724 224.053 212.158 224.053Z" fill="white"/>
<path d="M99.2688 266.588H100.853L97.6063 257.61H95.975L92.7281 266.588H94.3156L94.9594 264.688H98.625L99.2688 266.588ZM95.3938 263.4L96.8 259.213L98.2063 263.4H95.3938Z" fill="white"/>
<path d="M115.371 257.61L113.412 264.404L111.481 257.61H109.821L107.906 264.372L105.959 257.61H104.402L107.052 266.588H108.684L110.643 259.407L112.634 266.588H114.277L116.896 257.61H115.371Z" fill="white"/>
<path d="M126.984 266.588H128.568L125.321 257.61H123.69L120.443 266.588H122.031L122.675 264.688H126.34L126.984 266.588ZM123.109 263.4L124.515 259.213L125.921 263.4H123.109Z" fill="white"/>
<path d="M139.93 257.61H138.239L136.068 260.991L133.914 257.61H132.193L135.336 262.369V266.588H136.802V262.338L139.93 257.61Z" fill="white"/>
<path d="M157.502 266.588H159.086L155.839 257.61H154.208L150.961 266.588H152.548L153.192 264.688H156.858L157.502 266.588ZM153.627 263.4L155.033 259.213L156.439 263.4H153.627Z" fill="white"/>
<path d="M169.547 257.61V261.41H165.253V257.61H163.787V266.588H165.253V262.772H169.547V266.588H171.016V257.61H169.547Z" fill="white"/>
<path d="M182.03 258.941V257.61H176.883V266.588H182.03V265.257H178.349V262.772H181.536V261.425H178.349V258.941H182.03Z" fill="white"/>
<path d="M193.046 266.588H194.63L191.383 257.61H189.752L186.505 266.588H188.092L188.736 264.688H192.402L193.046 266.588ZM189.171 263.4L190.577 259.213L191.983 263.4H189.171Z" fill="white"/>
<path d="M199.332 266.588H202.026C204.51 266.588 206.514 264.582 206.514 262.1C206.514 259.616 204.51 257.61 202.026 257.61H199.332V266.588ZM200.782 265.225V258.972H202.026C203.732 258.972 205.064 260.304 205.064 262.1C205.064 263.894 203.732 265.225 202.026 265.225H200.782Z" fill="white"/>
<path d="M88.8216 80.0633V151.288L150.422 186.95L212.022 151.288V80.0633L150.422 44.5L88.8216 80.0633Z" fill="white"/>
<path d="M185.704 84.008H166.029C167.183 86.314 167.953 88.8989 168.23 91.6534C169.269 92.1255 170 93.17 170 94.3896C170 95.651 169.225 96.7284 168.128 97.1786C167.774 97.3208 167.393 97.4028 166.988 97.4028C166.492 97.4028 166.029 97.2807 165.617 97.0692C164.644 96.5698 163.979 95.5599 163.979 94.3896C163.979 93.3323 164.524 92.4099 165.349 91.8721C165.047 88.97 164.128 86.2885 162.748 84.008H138.263C136.881 86.2903 135.962 88.9773 135.661 91.8812C136.474 92.4208 137.014 93.3396 137.014 94.3896C137.014 95.5599 136.347 96.5698 135.375 97.0692C134.963 97.2807 134.498 97.4028 134.004 97.4028C133.602 97.4028 133.217 97.3208 132.867 97.1786C131.77 96.7284 130.995 95.651 130.995 94.3896C130.995 93.1627 131.729 92.1127 132.781 91.6424C133.057 88.8953 133.824 86.3122 134.976 84.0062H115.276L112.866 150.165C112.866 152.83 115.024 154.991 117.688 154.991H183.294C185.959 154.991 188.12 152.83 188.12 150.165L185.704 84.008Z" fill="#382F5F"/>
<path d="M133.042 93.8992L133.047 93.9521C133.078 94.5172 133.543 94.9602 134.105 94.9602C134.668 94.9602 135.133 94.5172 135.164 93.9521L135.169 93.8208C135.235 84.1029 142.089 76.2188 150.505 76.2188C158.936 76.2188 165.802 84.132 165.842 93.8774L165.849 93.9521C165.876 94.5172 166.341 94.9602 166.904 94.9602C167.468 94.9602 167.933 94.5172 167.964 93.9503L167.967 93.8628C167.909 82.9453 160.085 74.0896 150.505 74.0896C140.917 74.0896 133.084 82.9672 133.044 93.8774L133.042 93.8992Z" fill="#382F5F"/>
<path d="M159.168 126.023H164.529C165.468 126.023 166.013 124.475 165.61 123.152L162.934 114.391C162.305 112.327 161.056 111.015 159.6 111.015H158.437C158.351 111.013 158.267 111.022 158.185 111.04C158.102 111.058 158.023 111.084 157.945 111.12C157.868 111.155 157.797 111.199 157.728 111.248C157.66 111.299 157.6 111.357 157.546 111.421C157.491 111.487 157.443 111.556 157.403 111.631C157.363 111.705 157.332 111.782 157.309 111.864C157.287 111.946 157.272 112.028 157.268 112.112C157.263 112.198 157.268 112.282 157.281 112.365C157.374 113.022 157.431 113.63 157.469 114.09L158.164 122.851C158.216 123.564 158.216 124.278 158.164 124.991C158.149 125.128 158.165 125.262 158.211 125.394C158.256 125.525 158.328 125.642 158.424 125.74C158.521 125.84 158.636 125.915 158.765 125.964C158.895 126.014 159.029 126.032 159.168 126.023Z" fill="white"/>
<path d="M143.423 114.09C143.423 113.63 143.516 113.022 143.611 112.365C143.624 112.281 143.629 112.198 143.624 112.112C143.619 112.028 143.606 111.946 143.582 111.864C143.56 111.782 143.529 111.705 143.489 111.631C143.449 111.556 143.402 111.487 143.347 111.421C143.292 111.357 143.23 111.299 143.163 111.248C143.095 111.199 143.022 111.155 142.946 111.12C142.869 111.084 142.789 111.058 142.707 111.04C142.623 111.022 142.541 111.013 142.455 111.015H141.291C139.883 111.015 138.587 112.327 137.958 114.391L135.282 123.152C134.879 124.475 135.423 126.023 136.361 126.023H141.723C141.856 126.023 141.983 125.995 142.105 125.942C142.228 125.89 142.333 125.813 142.423 125.715C142.512 125.616 142.578 125.505 142.62 125.377C142.661 125.252 142.676 125.122 142.661 124.991C142.61 124.278 142.61 123.564 142.661 122.851L143.423 114.09Z" fill="white"/>
<path d="M129.978 114.391L125.593 123.152C125.517 123.303 125.46 123.461 125.424 123.625C125.389 123.791 125.375 123.959 125.382 124.129C125.389 124.296 125.418 124.462 125.468 124.624C125.517 124.787 125.586 124.938 125.676 125.082C125.765 125.226 125.871 125.357 125.993 125.474C126.117 125.591 126.252 125.691 126.399 125.773C126.547 125.855 126.704 125.917 126.868 125.959C127.032 126.001 127.198 126.023 127.367 126.023H130.446C130.594 126.019 130.732 125.986 130.865 125.924C130.997 125.862 131.111 125.775 131.206 125.664C131.301 125.552 131.37 125.427 131.41 125.286C131.452 125.146 131.461 125.004 131.441 124.86C131.323 123.903 131.403 122.966 131.686 122.045L134.362 113.284C134.449 113.003 134.544 112.73 134.644 112.467C134.706 112.309 134.721 112.147 134.688 111.979C134.655 111.811 134.58 111.667 134.462 111.543C134.343 111.421 134.201 111.339 134.035 111.299C133.87 111.259 133.707 111.268 133.545 111.323C132.768 111.574 132.07 111.966 131.452 112.498C130.833 113.031 130.342 113.661 129.978 114.391Z" fill="white"/>
<path d="M175.299 123.152L170.915 114.391C170.55 113.661 170.058 113.031 169.44 112.498C168.82 111.966 168.124 111.574 167.346 111.323C167.183 111.268 167.019 111.261 166.852 111.303C166.684 111.343 166.542 111.427 166.425 111.552C166.307 111.678 166.234 111.826 166.203 111.995C166.172 112.165 166.19 112.329 166.257 112.488C166.358 112.75 166.451 113.022 166.54 113.302L169.225 122.063C169.508 122.984 169.588 123.923 169.469 124.878C169.451 125.02 169.464 125.159 169.504 125.295C169.546 125.432 169.613 125.554 169.706 125.664C169.799 125.773 169.909 125.859 170.038 125.921C170.166 125.983 170.302 126.017 170.445 126.023H173.525C173.695 126.023 173.861 126.001 174.025 125.959C174.189 125.917 174.346 125.855 174.493 125.773C174.641 125.691 174.776 125.591 174.898 125.474C175.022 125.357 175.128 125.226 175.215 125.082C175.304 124.938 175.374 124.787 175.425 124.625C175.474 124.462 175.501 124.296 175.509 124.129C175.516 123.959 175.503 123.791 175.467 123.626C175.432 123.461 175.376 123.303 175.299 123.152Z" fill="white"/>
<path d="M153.187 112.327C153.14 112.141 153.063 111.966 152.957 111.804C152.852 111.644 152.724 111.503 152.571 111.385C152.42 111.266 152.252 111.175 152.07 111.111C151.887 111.047 151.699 111.015 151.506 111.015H149.375C149.184 111.013 148.998 111.044 148.817 111.106C148.637 111.168 148.471 111.257 148.322 111.376C148.17 111.492 148.043 111.631 147.939 111.791C147.835 111.952 147.76 112.123 147.713 112.309C147.348 113.771 147.104 115.253 146.982 116.755L146.606 121.445C146.502 122.57 146.502 123.697 146.606 124.821C146.619 124.987 146.663 125.146 146.736 125.295C146.81 125.445 146.909 125.576 147.033 125.687C147.157 125.798 147.297 125.884 147.454 125.941C147.611 125.999 147.773 126.026 147.939 126.023H152.954C153.116 126.023 153.273 125.993 153.426 125.935C153.577 125.877 153.714 125.793 153.836 125.684C153.956 125.574 154.053 125.447 154.126 125.301C154.199 125.157 154.242 125.002 154.257 124.84C154.361 123.715 154.361 122.588 154.257 121.464L153.863 116.538C153.759 115.116 153.535 113.711 153.187 112.327Z" fill="white"/>
<path d="M172.98 149.744V131.041C172.978 130.873 172.946 130.711 172.882 130.556C172.816 130.403 172.725 130.266 172.607 130.148C172.488 130.029 172.351 129.938 172.196 129.873C172.041 129.809 171.881 129.776 171.713 129.774H129.179C129.011 129.776 128.851 129.809 128.696 129.873C128.541 129.938 128.404 130.029 128.286 130.148C128.167 130.266 128.076 130.403 128.011 130.556C127.947 130.711 127.912 130.873 127.912 131.041V150.41C127.912 150.534 127.923 150.656 127.949 150.776C127.972 150.896 128.007 151.015 128.054 151.128C128.102 151.241 128.16 151.35 128.228 151.452C128.297 151.554 128.375 151.649 128.461 151.737C128.548 151.824 128.643 151.901 128.747 151.97C128.849 152.038 128.957 152.096 129.072 152.143C129.185 152.191 129.303 152.225 129.423 152.251C129.544 152.274 129.666 152.285 129.79 152.285C129.914 152.285 130.036 152.274 130.156 152.251C130.277 152.225 130.395 152.191 130.508 152.143C130.623 152.096 130.73 152.038 130.833 151.97C130.935 151.901 131.029 151.824 131.117 151.737C131.204 151.649 131.283 151.554 131.35 151.452C131.42 151.35 131.478 151.241 131.525 151.128C131.571 151.015 131.607 150.896 131.631 150.776C131.655 150.656 131.667 150.534 131.667 150.41V139.463C131.662 139.095 131.691 138.727 131.757 138.364C131.822 137.999 131.921 137.646 132.054 137.301C132.187 136.957 132.351 136.627 132.548 136.313C132.745 136.001 132.969 135.71 133.221 135.438C133.474 135.168 133.749 134.924 134.048 134.707C134.347 134.49 134.664 134.302 135 134.146C135.335 133.989 135.682 133.867 136.041 133.776C136.398 133.686 136.762 133.632 137.133 133.61C137.508 133.599 137.884 133.626 138.255 133.69C138.627 133.754 138.988 133.852 139.34 133.989C139.692 134.126 140.026 134.295 140.343 134.499C140.66 134.703 140.955 134.935 141.225 135.197C141.497 135.46 141.737 135.746 141.951 136.058C142.164 136.37 142.342 136.698 142.49 137.044C142.638 137.392 142.747 137.749 142.822 138.12C142.897 138.488 142.935 138.861 142.935 139.239V149.989C142.935 150.138 142.949 150.288 142.979 150.437C143.008 150.585 143.052 150.729 143.11 150.867C143.168 151.008 143.237 151.139 143.321 151.265C143.405 151.39 143.502 151.507 143.608 151.613C143.715 151.72 143.832 151.815 143.958 151.899C144.083 151.983 144.215 152.054 144.355 152.11C144.493 152.169 144.637 152.213 144.787 152.242C144.935 152.271 145.084 152.285 145.235 152.285H170.435C170.603 152.285 170.767 152.269 170.931 152.236C171.095 152.205 171.256 152.156 171.409 152.092C171.564 152.028 171.71 151.95 171.85 151.857C171.989 151.764 172.116 151.66 172.235 151.542C172.353 151.423 172.459 151.296 172.552 151.157C172.645 151.017 172.723 150.871 172.787 150.716C172.851 150.563 172.898 150.404 172.931 150.24C172.964 150.076 172.98 149.91 172.98 149.744ZM165.468 139.153C165.468 139.523 165.433 139.89 165.36 140.252C165.287 140.615 165.182 140.967 165.04 141.308C164.897 141.649 164.724 141.973 164.52 142.281C164.314 142.588 164.081 142.872 163.818 143.134C163.558 143.395 163.273 143.628 162.965 143.833C162.657 144.039 162.333 144.212 161.992 144.354C161.649 144.494 161.297 144.602 160.934 144.673C160.572 144.746 160.205 144.782 159.835 144.782H156.08C155.71 144.782 155.343 144.746 154.981 144.673C154.618 144.602 154.266 144.494 153.923 144.354C153.583 144.212 153.256 144.039 152.95 143.833C152.642 143.628 152.358 143.395 152.095 143.134C151.834 142.872 151.601 142.588 151.395 142.281C151.189 141.973 151.016 141.649 150.876 141.308C150.733 140.967 150.626 140.615 150.555 140.252C150.482 139.89 150.445 139.523 150.445 139.153C150.445 138.785 150.482 138.419 150.555 138.056C150.626 137.693 150.733 137.341 150.876 137C151.016 136.659 151.189 136.335 151.395 136.027C151.601 135.721 151.834 135.436 152.095 135.174C152.358 134.913 152.642 134.68 152.95 134.474C153.256 134.27 153.583 134.096 153.923 133.954C154.266 133.814 154.618 133.706 154.981 133.633C155.343 133.562 155.71 133.526 156.08 133.526H159.835C160.205 133.526 160.572 133.562 160.934 133.633C161.297 133.706 161.649 133.814 161.992 133.954C162.333 134.096 162.657 134.27 162.965 134.474C163.273 134.68 163.558 134.913 163.818 135.174C164.081 135.436 164.314 135.721 164.52 136.027C164.724 136.335 164.897 136.659 165.04 137C165.182 137.341 165.287 137.693 165.36 138.056C165.433 138.419 165.468 138.785 165.468 139.153Z" fill="white"/>
<path d="M169.225 107.261C169.225 107.139 169.212 107.017 169.189 106.897C169.165 106.774 169.128 106.658 169.081 106.545C169.034 106.43 168.977 106.322 168.908 106.22C168.839 106.116 168.762 106.022 168.674 105.936C168.587 105.848 168.492 105.77 168.39 105.703C168.288 105.633 168.179 105.575 168.066 105.529C167.951 105.482 167.834 105.446 167.712 105.422C167.592 105.398 167.47 105.385 167.346 105.385H133.545C133.423 105.385 133.301 105.398 133.179 105.422C133.058 105.446 132.94 105.482 132.827 105.529C132.712 105.575 132.604 105.633 132.502 105.703C132.4 105.77 132.305 105.848 132.218 105.936C132.13 106.022 132.052 106.116 131.985 106.22C131.915 106.322 131.857 106.43 131.81 106.545C131.764 106.658 131.728 106.774 131.704 106.897C131.68 107.017 131.667 107.139 131.667 107.261C131.667 107.385 131.68 107.507 131.704 107.628C131.728 107.748 131.764 107.866 131.81 107.979C131.857 108.094 131.915 108.202 131.985 108.304C132.052 108.406 132.13 108.501 132.218 108.588C132.305 108.676 132.4 108.754 132.502 108.822C132.604 108.891 132.712 108.947 132.827 108.995C132.94 109.042 133.058 109.079 133.179 109.102C133.301 109.126 133.423 109.139 133.545 109.139H167.346C167.47 109.139 167.592 109.126 167.712 109.102C167.834 109.079 167.951 109.042 168.066 108.995C168.179 108.947 168.288 108.891 168.39 108.822C168.492 108.754 168.587 108.676 168.674 108.588C168.762 108.501 168.839 108.406 168.908 108.304C168.977 108.202 169.034 108.094 169.081 107.979C169.128 107.866 169.165 107.748 169.189 107.628C169.212 107.507 169.225 107.385 169.225 107.261Z" fill="white"/>
</svg>
