<svg width="150" height="150" viewBox="0 0 150 150" fill="none" xmlns="http://www.w3.org/2000/svg">
<path d="M22.1328 45.4828V106.533L74.9328 137.1L127.733 106.533V45.4828L74.9328 15L22.1328 45.4828Z" fill="white"/>
<path d="M105.175 48.8641H88.3109C89.3 50.8406 89.9594 53.0562 90.1969 55.4172C91.0875 55.8219 91.7141 56.7172 91.7141 57.7625C91.7141 58.8437 91.05 59.7672 90.1094 60.1531C89.8062 60.275 89.4797 60.3453 89.1328 60.3453C88.7078 60.3453 88.3109 60.2406 87.9578 60.0594C87.1234 59.6312 86.5531 58.7656 86.5531 57.7625C86.5531 56.8562 87.0203 56.0656 87.7281 55.6047C87.4687 53.1172 86.6812 50.8187 85.4984 48.8641H64.5109C63.3266 50.8203 62.5391 53.1234 62.2812 55.6125C62.9781 56.075 63.4406 56.8625 63.4406 57.7625C63.4406 58.7656 62.8687 59.6312 62.0359 60.0594C61.6828 60.2406 61.2844 60.3453 60.8609 60.3453C60.5156 60.3453 60.1859 60.275 59.8859 60.1531C58.9453 59.7672 58.2812 58.8437 58.2812 57.7625C58.2812 56.7109 58.9109 55.8109 59.8125 55.4078C60.0484 53.0531 60.7062 50.839 61.6937 48.8625H44.8078L42.7422 105.57C42.7422 107.855 44.5922 109.706 46.875 109.706H103.109C105.394 109.706 107.245 107.855 107.245 105.57L105.175 48.8641Z" fill="#382F5F"/>
<path d="M60.0359 57.3422L60.0406 57.3875C60.0671 57.8719 60.4656 58.2515 60.9468 58.2515C61.4296 58.2515 61.8281 57.8719 61.8546 57.3875L61.8593 57.275C61.9156 48.9453 67.7906 42.1875 75.0046 42.1875C82.2312 42.1875 88.1156 48.9703 88.15 57.3234L88.1562 57.3875C88.1796 57.8719 88.5781 58.2515 89.0609 58.2515C89.5437 58.2515 89.9421 57.8719 89.9687 57.3859L89.9718 57.3109C89.9218 47.9531 83.2156 40.3625 75.0046 40.3625C66.7859 40.3625 60.0718 47.9719 60.0375 57.3234L60.0359 57.3422Z" fill="#382F5F"/>
<path d="M82.4297 84.8766H87.025C87.8297 84.8766 88.2969 83.55 87.9516 82.4157L85.6579 74.9063C85.1188 73.1375 84.0485 72.0125 82.8 72.0125H81.8032C81.7297 72.011 81.6579 72.0188 81.5876 72.0344C81.5157 72.05 81.4485 72.0719 81.3813 72.1032C81.3157 72.1328 81.2547 72.1703 81.1954 72.2125C81.1376 72.2563 81.086 72.3063 81.0391 72.361C80.9922 72.4172 80.9516 72.4766 80.9172 72.5407C80.8829 72.6047 80.8563 72.6703 80.836 72.7407C80.8172 72.811 80.8047 72.8813 80.8016 72.9532C80.7969 73.0266 80.8016 73.0985 80.8126 73.1703C80.8922 73.7328 80.9407 74.2547 80.9735 74.6485L81.5688 82.1578C81.6141 82.7688 81.6141 83.3813 81.5688 83.9922C81.5563 84.1094 81.5704 84.225 81.6094 84.3375C81.6485 84.45 81.7094 84.55 81.7922 84.6344C81.8751 84.7203 81.9735 84.7844 82.0844 84.8266C82.1954 84.8688 82.311 84.8844 82.4297 84.8766Z" fill="white"/>
<path d="M68.9344 74.6485C68.9344 74.2547 69.0141 73.7328 69.0953 73.1703C69.1063 73.0985 69.111 73.0266 69.1063 72.9532C69.1016 72.8813 69.0906 72.811 69.0703 72.7407C69.0516 72.6703 69.025 72.6047 68.9906 72.5407C68.9563 72.4766 68.9156 72.4172 68.8688 72.361C68.8219 72.3063 68.7688 72.2563 68.711 72.2125C68.6531 72.1703 68.5906 72.1328 68.525 72.1032C68.4594 72.0719 68.3906 72.05 68.3203 72.0344C68.2485 72.0188 68.1781 72.011 68.1047 72.0125H67.1063C65.9 72.0125 64.7891 73.1375 64.25 74.9063L61.9563 82.4157C61.6109 83.55 62.0766 84.8766 62.8813 84.8766H67.4766C67.5906 84.8766 67.7 84.8532 67.8047 84.8078C67.9094 84.7625 68 84.6969 68.0766 84.6125C68.1531 84.5282 68.2094 84.4328 68.2453 84.3235C68.2813 84.2157 68.2938 84.1047 68.2813 83.9922C68.2375 83.3813 68.2375 82.7688 68.2813 82.1578L68.9344 74.6485Z" fill="white"/>
<path d="M57.4094 74.9063L53.6516 82.4156C53.5859 82.5453 53.5375 82.6813 53.5063 82.8219C53.4766 82.9641 53.4641 83.1078 53.4703 83.2531C53.4766 83.3969 53.5016 83.5391 53.5438 83.6781C53.5859 83.8172 53.6453 83.9469 53.7219 84.0703C53.7984 84.1938 53.8891 84.3063 53.9938 84.4063C54.1 84.5063 54.2156 84.5922 54.3422 84.6625C54.4688 84.7328 54.6031 84.786 54.7438 84.8219C54.8844 84.8578 55.0266 84.8766 55.1719 84.8766H57.8109C57.9375 84.8735 58.0563 84.8453 58.1703 84.7922C58.2828 84.7391 58.3813 84.6641 58.4625 84.5688C58.5438 84.4735 58.6031 84.3656 58.6375 84.2453C58.6734 84.125 58.6813 84.0031 58.6641 83.8797C58.5625 83.0594 58.6313 82.2563 58.8734 81.4672L61.1672 73.9578C61.2422 73.7172 61.3234 73.4828 61.4094 73.2578C61.4625 73.1219 61.475 72.9828 61.4469 72.8391C61.4188 72.6953 61.3547 72.5719 61.2531 72.4656C61.1516 72.361 61.0297 72.2906 60.8875 72.2563C60.7453 72.2219 60.6063 72.2297 60.4672 72.2766C59.8016 72.4922 59.2031 72.8281 58.6734 73.2844C58.1422 73.7406 57.7219 74.2813 57.4094 74.9063Z" fill="white"/>
<path d="M96.2562 82.4156L92.4984 74.9062C92.1859 74.2812 91.764 73.7406 91.2343 73.2843C90.7031 72.8281 90.1062 72.4922 89.439 72.2765C89.2999 72.2297 89.1593 72.2234 89.0156 72.2593C88.8718 72.2937 88.7499 72.3656 88.6499 72.4734C88.5484 72.5812 88.4859 72.7078 88.4593 72.8531C88.4328 72.9984 88.4484 73.139 88.5062 73.275C88.5921 73.5 88.6718 73.7328 88.7484 73.9734L91.0499 81.4828C91.2921 82.2719 91.3609 83.0765 91.2593 83.8953C91.2437 84.0172 91.2546 84.1359 91.289 84.2531C91.3249 84.3703 91.3827 84.475 91.4624 84.5687C91.5421 84.6625 91.6359 84.7359 91.7468 84.789C91.8562 84.8422 91.9734 84.8719 92.0952 84.8765H94.7359C94.8812 84.8765 95.0234 84.8578 95.164 84.8219C95.3046 84.7859 95.439 84.7328 95.5655 84.6625C95.6921 84.5922 95.8077 84.5062 95.9124 84.4062C96.0187 84.3062 96.1093 84.1937 96.1843 84.0703C96.2609 83.9469 96.3202 83.8172 96.364 83.6781C96.4062 83.539 96.4296 83.3969 96.4359 83.2531C96.4421 83.1078 96.4312 82.964 96.3999 82.8219C96.3702 82.6812 96.3218 82.5453 96.2562 82.4156Z" fill="white"/>
<path d="M77.3031 73.1375C77.2625 72.9781 77.1969 72.8281 77.1063 72.6891C77.0156 72.5516 76.9062 72.4313 76.775 72.3297C76.6453 72.2281 76.5016 72.15 76.3453 72.0953C76.1891 72.0406 76.0281 72.0125 75.8625 72.0125H74.0359C73.8719 72.011 73.7125 72.0375 73.5578 72.0906C73.4031 72.1438 73.2609 72.2203 73.1328 72.3219C73.0031 72.4219 72.8937 72.5406 72.8047 72.6781C72.7156 72.8156 72.6516 72.9625 72.6109 73.1219C72.2984 74.375 72.0891 75.6453 71.9844 76.9328L71.6625 80.9531C71.5734 81.9172 71.5734 82.8828 71.6625 83.8469C71.6734 83.9891 71.7109 84.125 71.7734 84.2531C71.8375 84.3813 71.9219 84.4938 72.0281 84.5891C72.1344 84.6844 72.2547 84.7578 72.3891 84.8063C72.5234 84.8563 72.6625 84.8797 72.8047 84.8766H77.1031C77.2422 84.8766 77.3766 84.8516 77.5078 84.8016C77.6375 84.7516 77.7547 84.6797 77.8594 84.5859C77.9625 84.4922 78.0453 84.3828 78.1078 84.2578C78.1703 84.1344 78.2078 84.0016 78.2203 83.8625C78.3094 82.8984 78.3094 81.9328 78.2203 80.9688L77.8828 76.7469C77.7938 75.5281 77.6016 74.3235 77.3031 73.1375Z" fill="white"/>
<path d="M94.2687 105.209V89.1781C94.2672 89.0344 94.239 88.8953 94.1843 88.7625C94.1281 88.6312 94.05 88.514 93.9484 88.4125C93.8468 88.3109 93.7297 88.2328 93.5968 88.1765C93.464 88.1219 93.3265 88.0937 93.1828 88.0922H56.725C56.5812 88.0937 56.4437 88.1219 56.3109 88.1765C56.1781 88.2328 56.0609 88.3109 55.9594 88.4125C55.8578 88.514 55.7797 88.6312 55.7234 88.7625C55.6687 88.8953 55.639 89.0344 55.639 89.1781V105.78C55.639 105.886 55.6484 105.991 55.6703 106.094C55.6906 106.197 55.7203 106.298 55.7609 106.395C55.8015 106.492 55.8515 106.586 55.9094 106.673C55.9687 106.761 56.0359 106.842 56.1094 106.917C56.1844 106.992 56.2656 107.058 56.3547 107.117C56.4422 107.175 56.5344 107.225 56.6328 107.266C56.7297 107.306 56.8312 107.336 56.9344 107.358C57.0375 107.378 57.1422 107.387 57.2484 107.387C57.3547 107.387 57.4594 107.378 57.5625 107.358C57.6656 107.336 57.7672 107.306 57.864 107.266C57.9625 107.225 58.0547 107.175 58.1422 107.117C58.2297 107.058 58.3109 106.992 58.3859 106.917C58.4609 106.842 58.5281 106.761 58.5859 106.673C58.6453 106.586 58.6953 106.492 58.7359 106.395C58.775 106.298 58.8062 106.197 58.8265 106.094C58.8469 105.991 58.8578 105.886 58.8578 105.78V96.3968C58.8531 96.0812 58.8781 95.7656 58.9344 95.4547C58.9906 95.1422 59.075 94.839 59.189 94.5437C59.3031 94.2484 59.4437 93.9656 59.6125 93.6969C59.7812 93.4297 59.9734 93.1797 60.189 92.9469C60.4062 92.7156 60.6422 92.5062 60.8984 92.3203C61.1547 92.1344 61.4265 91.9734 61.714 91.839C62.0015 91.7047 62.2984 91.6 62.6062 91.5219C62.9125 91.4453 63.225 91.3984 63.5422 91.3797C63.864 91.3703 64.1859 91.3937 64.5047 91.4484C64.8234 91.5031 65.1328 91.5875 65.4343 91.7047C65.7359 91.8219 66.0218 91.9672 66.2937 92.1422C66.5656 92.3172 66.8187 92.5156 67.05 92.7406C67.2828 92.9656 67.489 93.2109 67.6718 93.4781C67.8547 93.7453 68.0078 94.0265 68.1343 94.3234C68.2609 94.6219 68.3547 94.9281 68.4187 95.2453C68.4828 95.5609 68.5156 95.8812 68.5156 96.2047V105.419C68.5156 105.547 68.5281 105.675 68.5531 105.803C68.5781 105.93 68.6156 106.053 68.6656 106.172C68.7156 106.292 68.775 106.405 68.8468 106.512C68.9187 106.62 69.0015 106.72 69.0922 106.811C69.1843 106.903 69.2843 106.984 69.3922 107.056C69.5 107.128 69.6125 107.189 69.7328 107.237C69.8515 107.287 69.975 107.325 70.1031 107.35C70.2297 107.375 70.3578 107.387 70.4875 107.387H92.0875C92.2312 107.387 92.3718 107.373 92.5125 107.345C92.6531 107.319 92.7906 107.277 92.9218 107.222C93.0547 107.167 93.1797 107.1 93.3 107.02C93.4187 106.941 93.5281 106.852 93.6297 106.75C93.7312 106.648 93.8218 106.539 93.9015 106.42C93.9812 106.3 94.0484 106.175 94.1031 106.042C94.1578 105.911 94.1984 105.775 94.2265 105.634C94.2547 105.494 94.2687 105.352 94.2687 105.209ZM87.8297 96.1312C87.8297 96.4484 87.8 96.7625 87.7375 97.0734C87.675 97.3843 87.5843 97.6859 87.4625 97.9781C87.3406 98.2703 87.1922 98.5484 87.0172 98.8125C86.8406 99.075 86.6406 99.3187 86.4156 99.5437C86.1922 99.7672 85.9484 99.9672 85.6843 100.142C85.4203 100.319 85.1422 100.467 84.85 100.589C84.5562 100.709 84.2547 100.802 83.9437 100.862C83.6328 100.925 83.3187 100.956 83.0015 100.956H79.7828C79.4656 100.956 79.1515 100.925 78.8406 100.862C78.5297 100.802 78.2281 100.709 77.9343 100.589C77.6422 100.467 77.3625 100.319 77.1 100.142C76.8359 99.9672 76.5922 99.7672 76.3672 99.5437C76.1437 99.3187 75.9437 99.075 75.7672 98.8125C75.5906 98.5484 75.4422 98.2703 75.3218 97.9781C75.2 97.6859 75.1078 97.3843 75.0468 97.0734C74.9843 96.7625 74.9531 96.4484 74.9531 96.1312C74.9531 95.8156 74.9843 95.5015 75.0468 95.1906C75.1078 94.8797 75.2 94.5781 75.3218 94.2859C75.4422 93.9937 75.5906 93.7156 75.7672 93.4515C75.9437 93.189 76.1437 92.9453 76.3672 92.7203C76.5922 92.4969 76.8359 92.2969 77.1 92.1203C77.3625 91.9453 77.6422 91.7969 77.9343 91.675C78.2281 91.5547 78.5297 91.4625 78.8406 91.4C79.1515 91.339 79.4656 91.3078 79.7828 91.3078H83.0015C83.3187 91.3078 83.6328 91.339 83.9437 91.4C84.2547 91.4625 84.5562 91.5547 84.85 91.675C85.1422 91.7969 85.4203 91.9453 85.6843 92.1203C85.9484 92.2969 86.1922 92.4969 86.4156 92.7203C86.6406 92.9453 86.8406 93.189 87.0172 93.4515C87.1922 93.7156 87.3406 93.9937 87.4625 94.2859C87.5843 94.5781 87.675 94.8797 87.7375 95.1906C87.8 95.5015 87.8297 95.8156 87.8297 96.1312Z" fill="white"/>
<path d="M91.05 68.7953C91.05 68.6906 91.039 68.5859 91.0187 68.4828C90.9984 68.3781 90.9672 68.2781 90.9265 68.1813C90.8859 68.0828 90.8375 67.9906 90.7781 67.9031C90.7187 67.8141 90.6531 67.7328 90.5781 67.6594C90.5031 67.5844 90.4219 67.5172 90.3344 67.4594C90.2469 67.4 90.1531 67.35 90.0562 67.3109C89.9578 67.2703 89.8578 67.2391 89.7531 67.2188C89.65 67.1984 89.5453 67.1875 89.439 67.1875H60.4672C60.3625 67.1875 60.2578 67.1984 60.1531 67.2188C60.05 67.2391 59.9484 67.2703 59.8515 67.3109C59.7531 67.35 59.6609 67.4 59.5734 67.4594C59.4859 67.5172 59.4047 67.5844 59.3297 67.6594C59.2547 67.7328 59.1875 67.8141 59.1297 67.9031C59.0703 67.9906 59.0203 68.0828 58.9797 68.1813C58.9406 68.2781 58.9094 68.3781 58.889 68.4828C58.8687 68.5859 58.8578 68.6906 58.8578 68.7953C58.8578 68.9016 58.8687 69.0063 58.889 69.1094C58.9094 69.2125 58.9406 69.3141 58.9797 69.4109C59.0203 69.5094 59.0703 69.6016 59.1297 69.6891C59.1875 69.7766 59.2547 69.8578 59.3297 69.9328C59.4047 70.0078 59.4859 70.075 59.5734 70.1328C59.6609 70.1922 59.7531 70.2406 59.8515 70.2813C59.9484 70.3219 60.05 70.3531 60.1531 70.3734C60.2578 70.3938 60.3625 70.4047 60.4672 70.4047H89.439C89.5453 70.4047 89.65 70.3938 89.7531 70.3734C89.8578 70.3531 89.9578 70.3219 90.0562 70.2813C90.1531 70.2406 90.2469 70.1922 90.3344 70.1328C90.4219 70.075 90.5031 70.0078 90.5781 69.9328C90.6531 69.8578 90.7187 69.7766 90.7781 69.6891C90.8375 69.6016 90.8859 69.5094 90.9265 69.4109C90.9672 69.3141 90.9984 69.2125 91.0187 69.1094C91.039 69.0063 91.05 68.9016 91.05 68.7953Z" fill="white"/>
</svg>
