<svg xmlns="http://www.w3.org/2000/svg" width="375" viewBox="0 0 375 269.25" height="269.25" version="1.0"><defs><clipPath id="a"><path d="M 14 258 L 366.453125 258 L 366.453125 268.503906 L 14 268.503906 Z M 14 258"/></clipPath><clipPath id="b"><path d="M 328 0 L 366.453125 0 L 366.453125 27 L 328 27 Z M 328 0"/></clipPath></defs><path fill="#EBF2FF" d="M 26.023438 259.40625 L 348.144531 259.40625 C 347.808594 258.085938 347.453125 256.773438 347.148438 255.484375 C 338.832031 220.683594 365.207031 188.242188 357.894531 153.289062 C 355.527344 141.972656 349.785156 131.492188 344.132812 121.253906 C 336.300781 107.058594 328.464844 92.863281 320.628906 78.667969 C 313.972656 66.613281 306.804688 53.980469 295.597656 46.597656 C 284.394531 39.214844 267.96875 39.65625 262.375 51.070312 C 258.949219 58.058594 260.355469 67 258.425781 74.722656 C 256.492188 82.449219 247.527344 88.941406 241.464844 83.222656 C 237.785156 79.757812 237.65625 73.757812 239.320312 69.292969 C 240.980469 64.824219 244.019531 61.175781 245.835938 56.789062 C 249.082031 48.941406 247.941406 38.878906 242.945312 31.230469 C 237.945312 23.585938 229.265625 18.632812 220.902344 18.652344 C 204.628906 18.691406 194.496094 35.167969 180.15625 41.988281 C 167.707031 47.914062 152.632812 46.21875 138.578125 42.652344 C 124.523438 39.089844 110.59375 33.746094 96.402344 32.605469 C 82.207031 31.464844 67.117188 35.371094 59.34375 47.105469 C 44.605469 69.355469 63.128906 104.59375 53.078125 129.90625 C 48.453125 141.558594 38.445312 149.269531 30.726562 158.699219 C 14.660156 178.328125 8.527344 206.945312 14.589844 234.015625 C 16.609375 243.035156 20.269531 252.273438 26.023438 259.40625 Z M 26.023438 259.40625"/><g clip-path="url(#a)"><path fill="#D1DCF8" d="M 361.144531 258.535156 L 19.132812 258.535156 C 16.40625 258.535156 14.199219 260.746094 14.199219 263.472656 L 14.199219 263.484375 C 14.199219 266.210938 16.40625 268.425781 19.132812 268.425781 L 361.144531 268.425781 C 363.871094 268.425781 366.078125 266.210938 366.078125 263.484375 L 366.078125 263.472656 C 366.078125 260.746094 363.871094 258.535156 361.144531 258.535156 Z M 361.144531 258.535156"/></g><path fill="#61BA76" d="M 91.113281 155.128906 C 91.523438 150.558594 90.339844 146.003906 87.785156 142.191406 C 86.285156 139.957031 84.703125 137.421875 83.34375 135.183594 C 81.136719 131.5625 80.851562 127.164062 82.265625 123.164062 C 82.273438 123.144531 82.28125 123.121094 82.289062 123.101562 C 84.328125 117.265625 83.261719 109.8125 79.589844 104.234375 C 78.507812 102.59375 77.175781 101.074219 75.5625 100.210938 C 73.949219 99.347656 72.019531 99.234375 70.699219 100.277344 C 68.78125 101.789062 68.234375 105.46875 65.707031 105.492188 C 64.0625 105.507812 62.609375 103.921875 62.214844 102.046875 C 61.238281 97.402344 64.65625 94.429688 64.4375 90.003906 C 64.363281 88.578125 63.8125 87.113281 62.761719 86.179688 C 60.507812 84.171875 57.742188 85.769531 55.628906 87.230469 C 53.582031 88.640625 50.582031 89.746094 48.710938 87.546875 C 46.570312 85.03125 48.359375 81.300781 48.015625 78 C 47.640625 74.355469 44.222656 71.273438 41.027344 71.21875 C 37.835938 71.164062 35.152344 73.695312 34.136719 76.984375 C 33.230469 79.914062 33.582031 83.125 34.324219 86.273438 C 34.878906 88.632812 37.195312 89.710938 37.574219 92.054688 C 37.722656 92.972656 37.484375 93.886719 36.964844 94.515625 C 35.9375 95.757812 34.496094 95.253906 33.183594 95.347656 C 29.5625 95.601562 30.84375 101.46875 33.046875 103.535156 C 35.429688 105.769531 38.628906 106.449219 40.765625 109.234375 C 41.660156 110.398438 42.191406 111.914062 41.945312 113.304688 C 41.160156 117.726562 34.03125 116.054688 33.605469 120.332031 C 33.519531 121.195312 33.785156 122.113281 34.257812 122.882812 C 36.597656 126.664062 42.378906 127.621094 45.167969 130.550781 C 47.933594 133.453125 46.074219 136.351562 44.46875 139.699219 C 43.332031 142.078125 41.859375 144.414062 41.230469 147.011719 C 54.757812 162.175781 73.257812 188.46875 89.265625 175.882812 Z M 91.113281 155.128906"/><path fill="#7CD194" d="M 79.214844 155.875 L 78.171875 155.878906 C 77.832031 155.375 68.402344 140.96875 64.738281 134.601562 C 60.855469 135.636719 56.949219 135.796875 54.941406 135.546875 C 54.699219 135.519531 54.496094 135.273438 54.496094 134.996094 C 54.492188 134.726562 54.683594 134.523438 54.925781 134.554688 C 54.96875 134.558594 59.027344 135.023438 64.214844 133.6875 C 61.324219 128.605469 58.570312 123.289062 56.101562 118.027344 C 53.625 118.574219 50.121094 117.789062 47.808594 116.914062 C 47.570312 116.824219 47.421875 116.539062 47.472656 116.28125 C 47.523438 116.019531 47.757812 115.882812 47.992188 115.972656 C 48.039062 115.992188 52.550781 117.679688 55.667969 117.089844 C 51.976562 109.113281 50.15625 103.890625 50.109375 103.75 C 50.015625 103.484375 50.125 103.210938 50.351562 103.140625 C 50.574219 103.070312 50.832031 103.226562 50.921875 103.492188 C 50.984375 103.667969 53.890625 112.015625 59.871094 123.808594 C 61.082031 119.453125 61.234375 113.199219 61.238281 113.132812 C 61.242188 112.859375 61.449219 112.671875 61.6875 112.710938 C 61.929688 112.75 62.121094 113.003906 62.117188 113.277344 C 62.109375 113.578125 61.9375 120.503906 60.476562 124.984375 C 63.554688 130.972656 67.390625 137.765625 72.027344 144.804688 C 73.179688 141.585938 73.492188 136.960938 73.496094 136.910156 C 73.511719 136.640625 73.71875 136.46875 73.964844 136.519531 C 74.207031 136.574219 74.390625 136.835938 74.371094 137.105469 C 74.359375 137.328125 74.011719 142.394531 72.664062 145.753906 C 72.925781 146.144531 78.945312 155.484375 79.214844 155.875 Z M 79.214844 155.875"/><path fill="#7CD194" d="M 85.757812 177.992188 C 83.042969 175.683594 80.90625 173.625 80.851562 172.722656 C 80.703125 170.320312 80.980469 167.972656 80.820312 165.570312 C 80.371094 158.835938 76.195312 151.957031 70.25 148.152344 C 68.5 147.03125 66.558594 146.152344 64.617188 146.050781 C 62.671875 145.949219 60.730469 146.742188 59.875 148.390625 C 58.628906 150.789062 59.640625 154.6875 57.171875 155.894531 C 55.566406 156.679688 53.476562 155.789062 52.304688 154.117188 C 49.394531 149.976562 51.5 145.429688 49.425781 141.152344 C 48.753906 139.769531 47.597656 138.578125 46.175781 138.144531 C 43.121094 137.214844 41.085938 140.089844 39.625 142.527344 C 38.210938 144.882812 35.734375 147.382812 32.976562 146.078125 C 29.824219 144.589844 30.007812 140.058594 28.289062 136.949219 C 26.386719 133.515625 21.742188 132.0625 18.589844 133.503906 C 15.4375 134.945312 13.871094 138.707031 14.253906 142.441406 C 14.597656 145.765625 16.292969 148.785156 18.339844 151.554688 C 19.875 153.628906 22.597656 153.613281 23.953125 155.757812 C 24.484375 156.59375 24.632812 157.613281 24.390625 158.480469 C 23.902344 160.1875 22.28125 160.367188 21.035156 161.070312 C 17.589844 163.019531 21.308594 168.226562 24.335938 169.246094 C 27.609375 170.34375 31.03125 169.519531 34.296875 171.273438 C 35.664062 172.011719 36.820312 173.261719 37.160156 174.753906 C 38.25 179.5 30.558594 181.183594 31.9375 185.617188 C 32.214844 186.515625 32.863281 187.296875 33.648438 187.835938 C 37.53125 190.488281 41.644531 187.300781 45.613281 188.894531 C 49.542969 190.476562 50.886719 195.644531 50.722656 199.710938 C 50.554688 203.777344 49.671875 208.082031 51.75 211.894531 C 54.347656 216.664062 60.703125 218.359375 65.316406 216.867188 C 69.582031 215.488281 73.941406 203.886719 85.34375 206.542969 C 85.480469 206.574219 85.617188 206.59375 85.757812 206.625 Z M 85.757812 177.992188"/><path fill="#61BA76" d="M 85.757812 195.453125 C 84.105469 194.480469 82.472656 193.503906 80.898438 192.507812 C 80.8125 188.550781 79.019531 183.371094 78.941406 183.144531 C 78.847656 182.871094 78.558594 182.695312 78.296875 182.753906 C 78.035156 182.820312 77.90625 183.089844 78 183.363281 C 78.019531 183.414062 79.652344 188.140625 79.875 191.867188 C 72.378906 187.066406 65.765625 182.136719 60.230469 177.648438 C 59.785156 172.523438 57.042969 165.585938 56.921875 165.285156 C 56.8125 165.011719 56.519531 164.851562 56.265625 164.925781 C 56.011719 164.996094 55.890625 165.28125 56 165.550781 C 56.027344 165.621094 58.503906 171.882812 59.144531 176.765625 C 48.332031 167.886719 41.976562 160.980469 41.84375 160.835938 C 41.640625 160.613281 41.320312 160.578125 41.132812 160.753906 C 40.941406 160.929688 40.949219 161.25 41.152344 161.472656 C 41.257812 161.585938 45.234375 165.90625 52.203125 172.078125 C 49.394531 174.121094 44.265625 174.5625 44.210938 174.5625 C 43.941406 174.585938 43.769531 174.832031 43.828125 175.113281 C 43.886719 175.394531 44.15625 175.605469 44.425781 175.585938 C 47.097656 175.363281 50.832031 174.5 53.023438 172.800781 C 57.457031 176.6875 62.382812 180.6875 67.550781 184.511719 C 63.027344 188.265625 58.855469 189.707031 58.8125 189.722656 C 58.558594 189.804688 58.453125 190.09375 58.574219 190.363281 C 58.691406 190.632812 58.992188 190.78125 59.242188 190.699219 C 61.402344 189.96875 65.097656 188 68.445312 185.175781 C 74.039062 189.269531 79.375 192.816406 85.757812 196.566406 Z M 85.757812 195.453125"/><path fill="#38297A" d="M 262.683594 258.535156 C 274.519531 258.535156 284.148438 248.902344 284.148438 237.066406 L 284.148438 21.410156 C 284.148438 9.570312 274.519531 -0.0585938 262.683594 -0.0585938 L 166.304688 -0.0585938 C 154.472656 -0.0585938 144.84375 9.570312 144.84375 21.410156 L 144.84375 237.066406 C 144.84375 248.902344 154.472656 258.535156 166.304688 258.535156 Z M 262.683594 258.535156"/><path fill="#20154F" d="M 275.4375 258.535156 C 287.273438 258.535156 296.902344 248.902344 296.902344 237.066406 L 296.902344 21.410156 C 296.902344 9.570312 287.273438 -0.0585938 275.4375 -0.0585938 L 179.058594 -0.0585938 C 167.226562 -0.0585938 157.59375 9.570312 157.59375 21.410156 L 157.59375 237.066406 C 157.59375 248.902344 167.226562 258.535156 179.058594 258.535156 Z M 275.4375 258.535156"/><path fill="#20154F" d="M 151.207031 26.523438 L 151.230469 26.523438 C 152.351562 26.523438 153.261719 27.4375 153.261719 28.558594 L 153.261719 51.4375 C 153.261719 52.5625 152.351562 53.472656 151.230469 53.472656 L 151.207031 53.472656 C 150.085938 53.472656 149.175781 52.5625 149.175781 51.4375 L 149.175781 28.558594 C 149.175781 27.4375 150.085938 26.523438 151.207031 26.523438 Z M 151.207031 26.523438"/><path fill="#20154F" d="M 151.207031 63.992188 L 151.230469 63.992188 C 152.351562 63.992188 153.261719 64.902344 153.261719 66.027344 L 153.261719 88.90625 C 153.261719 90.03125 152.351562 90.941406 151.230469 90.941406 L 151.207031 90.941406 C 150.085938 90.941406 149.175781 90.03125 149.175781 88.90625 L 149.175781 66.027344 C 149.175781 64.902344 150.085938 63.992188 151.207031 63.992188 Z M 151.207031 63.992188"/><path fill="#FFF" d="M 289.589844 16.15625 C 288.359375 12.804688 285.972656 10.042969 282.910156 8.28125 C 280.824219 7.078125 278.417969 6.375 275.886719 6.320312 C 275.746094 6.304688 275.585938 6.304688 275.445312 6.304688 L 248.25 6.304688 C 248.007812 6.304688 247.792969 6.320312 247.578125 6.363281 C 245.375 6.675781 243.644531 8.59375 243.644531 10.898438 C 243.644531 11.960938 242.785156 12.832031 241.742188 12.832031 L 211.898438 12.832031 C 210.855469 12.832031 209.996094 11.960938 209.996094 10.898438 C 209.996094 8.367188 207.921875 6.304688 205.390625 6.304688 L 179.066406 6.304688 C 176.867188 6.304688 174.792969 6.761719 172.902344 7.621094 C 167.625 9.96875 163.964844 15.265625 163.964844 21.421875 L 163.964844 237.066406 C 163.964844 245.214844 170.539062 252.167969 179.066406 252.167969 L 275.429688 252.167969 C 283.769531 252.167969 290.535156 245.382812 290.535156 237.066406 L 290.535156 21.410156 C 290.535156 19.5625 290.207031 17.785156 289.589844 16.15625 Z M 289.589844 16.15625"/><path fill="#D1DCF8" d="M 290.535156 25.675781 L 290.535156 21.410156 C 290.535156 19.5625 290.207031 17.785156 289.589844 16.15625 C 288.359375 12.804688 285.972656 10.042969 282.910156 8.28125 C 280.824219 7.078125 278.417969 6.375 275.886719 6.320312 C 275.746094 6.304688 275.585938 6.304688 275.445312 6.304688 L 248.25 6.304688 C 248.007812 6.304688 247.792969 6.320312 247.578125 6.363281 C 245.375 6.675781 243.644531 8.59375 243.644531 10.898438 C 243.644531 11.960938 242.785156 12.832031 241.742188 12.832031 L 211.898438 12.832031 C 210.855469 12.832031 209.996094 11.960938 209.996094 10.898438 C 209.996094 8.367188 207.921875 6.304688 205.390625 6.304688 L 179.066406 6.304688 C 176.867188 6.304688 174.792969 6.761719 172.902344 7.621094 C 167.625 9.96875 163.964844 15.265625 163.964844 21.421875 L 163.964844 25.675781 Z M 290.535156 25.675781"/><path fill="#FFF" d="M 265.113281 12.8125 L 278.074219 12.8125 L 278.074219 19.167969 L 265.113281 19.167969 Z M 265.113281 12.8125"/><path fill="#D1DCF8" d="M 178.742188 141.164062 L 275.757812 141.164062 L 275.757812 146.324219 L 178.742188 146.324219 Z M 178.742188 141.164062"/><path fill="#D1DCF8" d="M 178.742188 154.519531 L 275.757812 154.519531 L 275.757812 159.683594 L 178.742188 159.683594 Z M 178.742188 154.519531"/><path fill="#FE4C40" d="M 253.425781 197.515625 L 201.074219 197.515625 C 198.554688 197.515625 196.515625 199.558594 196.515625 202.078125 L 196.515625 212.613281 C 196.515625 215.132812 198.554688 217.175781 201.074219 217.175781 L 253.425781 217.175781 C 255.941406 217.175781 257.984375 215.132812 257.984375 212.613281 L 257.984375 202.078125 C 257.984375 199.558594 255.941406 197.515625 253.425781 197.515625 Z M 253.425781 197.515625"/><path fill="#D1DCF8" d="M 178.742188 167.878906 L 213.945312 167.878906 L 213.945312 173.039062 L 178.742188 173.039062 Z M 178.742188 167.878906"/><path fill="#F2C3B3" d="M 264.621094 82.570312 C 266.378906 85.523438 273.394531 84.945312 273.394531 84.945312 C 273.394531 84.945312 289.210938 104.832031 295.78125 103.023438 C 300.292969 101.785156 308.046875 84.722656 308.046875 84.722656 L 299.132812 83.304688 C 298.546875 83.863281 294.09375 92.636719 294.09375 92.636719 L 275.152344 78.800781 C 275.152344 78.800781 271.867188 70.882812 270.75 72.472656 C 269.667969 73.992188 271.304688 76.46875 271.4375 76.679688 C 271.023438 76.417969 261.777344 70.734375 261.550781 72.722656 C 261.304688 74.746094 266.628906 77.113281 266.628906 77.113281 C 266.628906 77.113281 262.859375 79.628906 264.621094 82.570312 Z M 264.621094 82.570312"/><path fill="#F4A998" d="M 345.007812 236.453125 L 344.582031 248.082031 C 344.496094 250.386719 338.355469 250.8125 338.441406 248.507812 L 336.886719 237.019531 Z M 345.007812 236.453125"/><path fill="#F4A998" d="M 317.242188 240.859375 L 316.636719 252.621094 C 316.515625 254.953125 310.484375 254.480469 310.605469 252.148438 L 309.265625 240.238281 Z M 317.242188 240.859375"/><path fill="#20154F" d="M 319.128906 252.574219 C 319.011719 251.152344 318.742188 249.570312 318.175781 248.089844 C 317.941406 247.488281 317.347656 247.097656 316.714844 247.183594 C 315.238281 247.386719 312.367188 247.609375 309.988281 246.765625 C 309.277344 246.511719 308.507812 246.917969 308.269531 247.621094 C 307.75 249.15625 307.398438 251.714844 302.914062 252.601562 C 302.914062 252.601562 290.65625 252.3125 295.191406 256.472656 C 298.40625 259.421875 309.042969 258.558594 314.964844 257.808594 C 317.542969 257.480469 319.339844 255.183594 319.128906 252.574219 Z M 319.128906 252.574219"/><path fill="#20154F" d="M 347.636719 252.574219 C 347.519531 251.152344 347.25 249.570312 346.679688 248.089844 C 346.449219 247.488281 345.855469 247.097656 345.222656 247.183594 C 343.746094 247.386719 340.875 247.609375 338.496094 246.765625 C 337.785156 246.511719 337.015625 246.917969 336.777344 247.621094 C 336.257812 249.15625 335.90625 251.714844 331.421875 252.601562 C 331.421875 252.601562 319.160156 252.3125 323.699219 256.472656 C 326.914062 259.421875 337.550781 258.558594 343.472656 257.808594 C 346.050781 257.480469 347.847656 255.183594 347.636719 252.574219 Z M 347.636719 252.574219"/><path fill="#022E4F" d="M 304.976562 127.109375 C 299.484375 176.371094 307.210938 240.117188 307.210938 240.117188 C 311.550781 241.90625 315.671875 241.746094 319.628906 240.117188 C 323.375 207.617188 325.816406 185.492188 325.777344 160 L 333.839844 126.921875 Z M 304.976562 127.109375"/><path fill="#1C587E" d="M 341.480469 128.933594 L 314.109375 124.945312 C 311.265625 145.21875 324.898438 160 324.898438 160 L 335.941406 239.757812 C 340.65625 240.34375 344.347656 241.128906 346.394531 237.425781 C 346.394531 237.425781 345.839844 180.890625 348.269531 160.609375 C 350.695312 140.324219 341.480469 128.933594 341.480469 128.933594 Z M 341.480469 128.933594"/><path fill="#FE4C40" d="M 341.28125 91.246094 L 344.769531 133.449219 C 331.019531 137.875 317.207031 138.214844 303.316406 133.449219 L 304.59375 113.566406 L 305.882812 101.964844 L 306.957031 89.914062 C 306.957031 89.914062 300.238281 91.796875 295.972656 86.992188 C 295.972656 86.992188 298.113281 71.0625 308.683594 66.308594 C 314.070312 63.886719 317.988281 61.808594 327.070312 62.625 C 332.820312 63.148438 338.90625 63.441406 342.828125 67.246094 C 349.445312 73.667969 351.777344 80.902344 354.0625 88.398438 C 355.328125 92.5625 343.109375 94.070312 341.28125 91.246094 Z M 341.28125 91.246094"/><path fill="#20154F" d="M 336.796875 53.257812 C 336.796875 53.257812 333.503906 51.960938 335.199219 46.773438 C 336.894531 41.582031 333.707031 41.183594 332.609375 38.6875 C 331.511719 36.191406 333.652344 28.300781 324.765625 25.621094 C 315.601562 22.859375 312.628906 27.496094 312.628906 27.496094 C 312.628906 27.496094 308 29.566406 305.570312 33.433594 C 304.503906 35.125 305.328125 37.375 307.253906 37.917969 C 307.601562 38.015625 307.980469 38.101562 308.390625 38.160156 C 309.707031 38.359375 312.738281 45.5625 323.804688 45.964844 L 326.824219 56.652344 C 326.824219 56.652344 337.695312 58.347656 336.796875 53.257812 Z M 336.796875 53.257812"/><path fill="#F2C3B3" d="M 327.527344 49.355469 C 327.527344 49.355469 331.929688 44.191406 328.910156 42.140625 C 326.839844 40.734375 325.878906 41.714844 324.816406 44.5625 C 314.253906 41.542969 314.765625 34.679688 314.765625 34.679688 C 314.179688 37.152344 308.789062 37.925781 308.390625 38.160156 C 307.726562 42.398438 307.195312 48.300781 308.523438 52.125 C 310.785156 58.652344 315.792969 57.640625 315.792969 57.640625 C 316.707031 62.53125 313.457031 64.238281 313.457031 64.238281 C 319.664062 76.011719 332.585938 64.449219 332.308594 63.207031 C 323.429688 59.132812 327.527344 49.355469 327.527344 49.355469 Z M 327.527344 49.355469"/><path fill="#F4A998" d="M 313.457031 64.238281 C 319.664062 76.011719 332.585938 64.449219 332.308594 63.207031 C 327.953125 61.207031 326.726562 57.839844 326.601562 54.921875 C 326.601562 54.921875 326.597656 54.925781 326.597656 54.925781 C 323.195312 58.058594 315.792969 57.640625 315.792969 57.640625 C 316.707031 62.53125 313.457031 64.238281 313.457031 64.238281 Z M 313.457031 64.238281"/><path fill="#20154F" d="M 311.378906 42.417969 C 311.480469 42.433594 311.570312 42.480469 311.652344 42.5625 C 311.734375 42.640625 311.800781 42.746094 311.855469 42.875 C 311.90625 43.003906 311.9375 43.148438 311.949219 43.308594 C 311.960938 43.46875 311.953125 43.632812 311.925781 43.800781 C 311.898438 43.96875 311.851562 44.125 311.789062 44.273438 C 311.726562 44.417969 311.648438 44.546875 311.558594 44.652344 C 311.46875 44.757812 311.371094 44.835938 311.265625 44.882812 C 311.164062 44.933594 311.0625 44.949219 310.960938 44.929688 C 310.859375 44.914062 310.769531 44.867188 310.6875 44.785156 C 310.605469 44.707031 310.539062 44.601562 310.488281 44.472656 C 310.4375 44.34375 310.402344 44.199219 310.390625 44.039062 C 310.378906 43.878906 310.386719 43.714844 310.414062 43.546875 C 310.441406 43.382812 310.488281 43.222656 310.550781 43.078125 C 310.617188 42.929688 310.691406 42.800781 310.785156 42.695312 C 310.875 42.589844 310.972656 42.511719 311.074219 42.464844 C 311.179688 42.417969 311.28125 42.402344 311.378906 42.417969 Z M 311.378906 42.417969"/><path fill="#20154F" d="M 318.769531 43.761719 C 318.871094 43.777344 318.960938 43.828125 319.042969 43.90625 C 319.125 43.984375 319.195312 44.089844 319.246094 44.21875 C 319.296875 44.347656 319.328125 44.496094 319.339844 44.65625 C 319.355469 44.816406 319.347656 44.976562 319.316406 45.144531 C 319.289062 45.3125 319.246094 45.46875 319.179688 45.617188 C 319.117188 45.765625 319.039062 45.890625 318.949219 45.996094 C 318.859375 46.101562 318.761719 46.179688 318.65625 46.226562 C 318.554688 46.277344 318.453125 46.292969 318.351562 46.277344 C 318.253906 46.257812 318.160156 46.210938 318.078125 46.132812 C 317.996094 46.050781 317.929688 45.949219 317.878906 45.816406 C 317.828125 45.6875 317.796875 45.542969 317.78125 45.382812 C 317.769531 45.222656 317.777344 45.058594 317.804688 44.890625 C 317.832031 44.726562 317.878906 44.570312 317.941406 44.421875 C 318.007812 44.273438 318.085938 44.148438 318.175781 44.039062 C 318.265625 43.933594 318.363281 43.859375 318.464844 43.808594 C 318.570312 43.761719 318.671875 43.746094 318.769531 43.761719 Z M 318.769531 43.761719"/><path fill="#20154F" d="M 312.847656 41.265625 C 312.289062 40.78125 311.433594 40.648438 310.71875 40.929688 C 310.539062 41 310.339844 40.910156 310.269531 40.734375 C 310.199219 40.554688 310.289062 40.355469 310.464844 40.285156 C 311.425781 39.90625 312.539062 40.085938 313.296875 40.738281 C 313.441406 40.867188 313.457031 41.082031 313.332031 41.226562 C 313.203125 41.375 312.984375 41.386719 312.847656 41.265625 Z M 312.847656 41.265625"/><path fill="#20154F" d="M 317.21875 53.117188 C 316.792969 55.699219 312.773438 55.53125 312.316406 52.507812 C 313.585938 53.433594 315.871094 53.519531 317.21875 53.117188 Z M 317.21875 53.117188"/><path fill="#20154F" d="M 312.914062 48.035156 C 313.652344 47.105469 314.082031 45.441406 314.085938 45.421875 C 314.132812 45.238281 314.324219 45.128906 314.507812 45.171875 C 314.691406 45.222656 314.804688 45.410156 314.757812 45.59375 C 314.738281 45.667969 314.285156 47.421875 313.457031 48.464844 C 312.277344 49.957031 313.085938 50.367188 314.929688 50.089844 C 315.132812 50.054688 315.296875 50.191406 315.324219 50.378906 C 315.351562 50.566406 315.222656 50.742188 315.035156 50.773438 C 312.148438 51.207031 311.546875 49.765625 312.914062 48.035156 Z M 312.914062 48.035156"/><g clip-path="url(#b)"><path fill="#D1DCF8" d="M 331.492188 -0.0585938 L 363.25 -0.0585938 C 364.820312 -0.0585938 366.089844 1.210938 366.089844 2.777344 L 366.089844 17.75 C 366.089844 19.316406 364.820312 20.589844 363.25 20.589844 L 340.75 20.589844 L 334.332031 26.253906 C 333.914062 26.628906 333.25 26.328125 333.25 25.765625 L 333.25 20.589844 L 331.492188 20.589844 C 329.925781 20.589844 328.65625 19.316406 328.65625 17.75 L 328.65625 2.777344 C 328.65625 1.210938 329.925781 -0.0585938 331.492188 -0.0585938 Z M 331.492188 -0.0585938"/></g><path fill="#FFF" d="M 359.976562 9.449219 C 360.421875 9.449219 360.789062 9.8125 360.789062 10.261719 C 360.789062 10.714844 360.421875 11.078125 359.976562 11.078125 L 334.765625 11.078125 C 334.320312 11.078125 333.957031 10.714844 333.957031 10.269531 C 333.957031 9.8125 334.320312 9.449219 334.765625 9.449219 Z M 359.976562 9.449219"/><path fill="#FFF" d="M 359.976562 4.601562 C 360.421875 4.601562 360.789062 4.964844 360.789062 5.410156 C 360.789062 5.867188 360.421875 6.230469 359.976562 6.230469 L 350.367188 6.230469 C 349.917969 6.230469 349.554688 5.867188 349.554688 5.417969 C 349.554688 4.964844 349.917969 4.601562 350.367188 4.601562 Z M 359.976562 4.601562"/><path fill="#FFF" d="M 344.960938 4.601562 C 345.410156 4.601562 345.773438 4.964844 345.773438 5.410156 C 345.773438 5.867188 345.410156 6.230469 344.960938 6.230469 L 334.765625 6.230469 C 334.320312 6.230469 333.957031 5.867188 333.957031 5.417969 C 333.957031 4.964844 334.320312 4.601562 334.765625 4.601562 Z M 344.960938 4.601562"/><path fill="#FFF" d="M 334.765625 15.925781 C 334.320312 15.925781 333.957031 15.5625 333.957031 15.117188 C 333.957031 14.660156 334.320312 14.296875 334.765625 14.296875 L 351.0625 14.296875 C 351.507812 14.296875 351.871094 14.660156 351.871094 15.109375 C 351.871094 15.5625 351.507812 15.925781 351.0625 15.925781 Z M 334.765625 15.925781"/><path fill="#FFF" d="M 206.496094 210.164062 L 206.496094 203.816406 C 206.496094 203.5625 206.6875 203.339844 206.960938 203.339844 L 209.324219 203.339844 C 210.910156 203.339844 212.09375 204.082031 212.09375 205.644531 C 212.09375 206.925781 211.226562 207.945312 209.324219 207.945312 L 207.4375 207.945312 L 207.4375 210.164062 C 207.4375 210.433594 207.222656 210.632812 206.960938 210.632812 C 206.691406 210.632812 206.496094 210.425781 206.496094 210.164062 Z M 209.230469 207.054688 C 210.296875 207.054688 211.148438 206.695312 211.148438 205.644531 C 211.148438 204.582031 210.285156 204.230469 209.230469 204.230469 L 207.4375 204.230469 L 207.4375 207.054688 Z M 209.230469 207.054688"/><path fill="#FFF" d="M 212.664062 209.128906 C 212.664062 207.894531 213.804688 207.449219 215.046875 207.449219 L 216.300781 207.449219 L 216.300781 207.363281 C 216.300781 206.507812 215.921875 206.078125 214.910156 206.078125 C 214.46875 206.078125 214.121094 206.128906 213.535156 206.328125 C 213.210938 206.40625 213.015625 206.1875 213.015625 205.953125 C 213.015625 205.765625 213.105469 205.636719 213.285156 205.558594 C 213.871094 205.308594 214.46875 205.1875 215.078125 205.1875 C 216.421875 205.1875 217.242188 206.035156 217.242188 207.230469 L 217.242188 210.164062 C 217.242188 210.433594 217.027344 210.632812 216.765625 210.632812 C 216.5 210.632812 216.300781 210.425781 216.300781 210.164062 L 216.300781 209.894531 C 215.789062 210.421875 215.140625 210.683594 214.351562 210.683594 C 213.402344 210.683594 212.664062 210.070312 212.664062 209.128906 Z M 216.300781 209.078125 L 216.300781 208.203125 L 215.171875 208.203125 C 214.128906 208.203125 213.605469 208.476562 213.605469 209.023438 C 213.605469 209.644531 214.078125 209.851562 214.703125 209.851562 C 215.335938 209.851562 215.933594 209.496094 216.300781 209.078125 Z M 216.300781 209.078125"/><path fill="#FFF" d="M 219.503906 212.394531 L 220.175781 210.664062 L 218.226562 205.910156 C 218.085938 205.5625 218.332031 205.238281 218.652344 205.238281 C 218.851562 205.238281 219.019531 205.367188 219.089844 205.527344 L 220.683594 209.492188 L 222.3125 205.550781 C 222.402344 205.339844 222.546875 205.238281 222.746094 205.238281 C 223.089844 205.238281 223.296875 205.585938 223.183594 205.890625 L 220.351562 212.695312 C 220.257812 212.910156 220.109375 213.019531 219.917969 213.019531 C 219.605469 213.019531 219.386719 212.699219 219.503906 212.394531 Z M 219.503906 212.394531"/><path fill="#FFF" d="M 224.300781 210.164062 L 224.300781 205.714844 C 224.300781 205.453125 224.5 205.238281 224.765625 205.238281 C 225.027344 205.238281 225.246094 205.445312 225.246094 205.714844 L 225.246094 206.140625 C 225.78125 205.371094 226.367188 205.1875 227.007812 205.1875 C 227.804688 205.1875 228.367188 205.683594 228.59375 206.253906 C 229.019531 205.542969 229.65625 205.1875 230.5 205.1875 C 231.613281 205.1875 232.230469 206.089844 232.230469 207.175781 L 232.230469 210.164062 C 232.230469 210.429688 232.015625 210.632812 231.753906 210.632812 C 231.484375 210.632812 231.285156 210.429688 231.285156 210.164062 L 231.285156 207.363281 C 231.285156 206.355469 230.90625 206.058594 230.230469 206.058594 C 229.710938 206.058594 229.226562 206.242188 228.738281 207.054688 L 228.738281 210.164062 C 228.738281 210.433594 228.519531 210.632812 228.261719 210.632812 C 227.992188 210.632812 227.792969 210.425781 227.792969 210.164062 L 227.792969 207.363281 C 227.792969 206.359375 227.417969 206.058594 226.738281 206.058594 C 226.214844 206.058594 225.730469 206.246094 225.246094 207.054688 L 225.246094 210.164062 C 225.246094 210.433594 225.027344 210.632812 224.765625 210.632812 C 224.5 210.632812 224.300781 210.425781 224.300781 210.164062 Z M 224.300781 210.164062"/><path fill="#FFF" d="M 233.492188 207.933594 C 233.492188 206.414062 234.355469 205.1875 235.972656 205.1875 C 237.003906 205.1875 237.765625 205.710938 238.148438 206.496094 C 238.339844 206.894531 238.4375 207.328125 238.4375 207.800781 C 238.4375 208.054688 238.257812 208.265625 237.960938 208.265625 L 234.445312 208.265625 C 234.554688 209.222656 235.15625 209.800781 236.261719 209.800781 C 236.761719 209.800781 237.175781 209.722656 237.660156 209.480469 C 237.800781 209.410156 237.992188 209.421875 238.136719 209.554688 C 238.3125 209.710938 238.339844 210.027344 237.992188 210.226562 C 237.347656 210.589844 236.871094 210.683594 236.179688 210.683594 C 234.542969 210.683594 233.492188 209.738281 233.492188 207.933594 Z M 237.503906 207.5 C 237.484375 207.160156 237.394531 206.878906 237.242188 206.648438 C 236.933594 206.199219 236.453125 205.984375 235.972656 205.984375 C 235.191406 205.984375 234.507812 206.507812 234.445312 207.5 Z M 237.503906 207.5"/><path fill="#FFF" d="M 239.679688 210.164062 L 239.679688 205.714844 C 239.679688 205.453125 239.882812 205.238281 240.148438 205.238281 C 240.40625 205.238281 240.625 205.445312 240.625 205.714844 L 240.625 206.140625 C 241.308594 205.382812 241.917969 205.1875 242.550781 205.1875 C 243.730469 205.1875 244.40625 206.105469 244.40625 207.21875 L 244.40625 210.164062 C 244.40625 210.433594 244.191406 210.632812 243.929688 210.632812 C 243.660156 210.632812 243.464844 210.425781 243.464844 210.164062 L 243.464844 207.324219 C 243.464844 206.480469 243.085938 206.058594 242.324219 206.058594 C 241.605469 206.058594 241.078125 206.484375 240.625 207.054688 L 240.625 210.164062 C 240.625 210.433594 240.410156 210.632812 240.148438 210.632812 C 239.878906 210.632812 239.679688 210.425781 239.679688 210.164062 Z M 239.679688 210.164062"/><path fill="#FFF" d="M 246.179688 209.3125 L 246.179688 206.097656 L 245.445312 206.097656 C 245.332031 206.097656 245.246094 206.011719 245.246094 205.902344 C 245.246094 205.832031 245.277344 205.773438 245.339844 205.726562 L 246.75 204.347656 C 246.8125 204.285156 246.871094 204.253906 246.925781 204.253906 C 247.042969 204.253906 247.121094 204.355469 247.121094 204.460938 L 247.121094 205.289062 L 248.292969 205.289062 C 248.527344 205.289062 248.699219 205.453125 248.699219 205.695312 C 248.699219 205.910156 248.535156 206.097656 248.292969 206.097656 L 247.121094 206.097656 L 247.121094 209.230469 C 247.121094 209.65625 247.269531 209.851562 247.796875 209.851562 C 248.027344 209.851562 248.160156 209.800781 248.300781 209.769531 C 248.585938 209.707031 248.789062 209.914062 248.789062 210.132812 C 248.789062 210.292969 248.710938 210.414062 248.554688 210.496094 C 248.285156 210.621094 247.996094 210.683594 247.691406 210.683594 C 246.683594 210.683594 246.179688 210.226562 246.179688 209.3125 Z M 246.179688 209.3125"/><path fill="#F2C3B3" d="M 315.90625 106.347656 C 315.90625 106.347656 314.394531 103.644531 315.351562 102.832031 C 317.09375 101.351562 317.226562 105.269531 320.1875 106.324219"/><path fill="#38297A" d="M 289.871094 87.039062 L 310.296875 88.226562 C 311.027344 88.269531 311.644531 88.785156 311.8125 89.496094 L 319.101562 119.761719 C 319.363281 120.847656 318.503906 121.875 317.390625 121.808594 L 296.964844 120.621094 C 296.234375 120.582031 295.617188 120.066406 295.445312 119.355469 L 288.160156 89.085938 C 287.898438 88.003906 288.757812 86.976562 289.871094 87.039062 Z M 289.871094 87.039062"/><path fill="#F2C3B3" d="M 353.980469 89.757812 C 352.605469 92.644531 343.640625 93.640625 341.464844 91.476562 C 342.316406 95.402344 343.199219 99.425781 343.464844 100.40625 C 343.464844 100.40625 338.300781 100.96875 331.425781 104.429688 C 331.425781 104.429688 323.152344 107.382812 320.1875 106.324219 L 315.90625 106.347656 C 315.90625 106.347656 310.519531 106.140625 309.625 107.671875 C 308.671875 109.300781 309.1875 112.464844 311.226562 113.683594 C 312.601562 114.507812 314.945312 113.839844 316.648438 113.484375 C 320.871094 112.605469 320.441406 111.0625 324.65625 111.636719 C 328.867188 112.210938 350.675781 109.789062 351.195312 109.496094 C 351.714844 109.199219 355.207031 109.042969 355.796875 105.121094 C 356.121094 102.953125 355.027344 95.765625 353.980469 89.757812 Z M 353.980469 89.757812"/><path fill="#64D3FF" d="M 226.828125 48.039062 L 119.773438 48.039062 C 116.570312 48.039062 113.972656 50.636719 113.972656 53.84375 L 113.972656 114.992188 C 113.972656 118.195312 116.570312 120.796875 119.773438 120.796875 L 226.828125 120.796875 Z M 226.828125 48.039062"/><path fill="#13B1E2" d="M 201.445312 48.039062 C 201.511719 48.097656 201.558594 48.160156 201.566406 48.222656 C 201.636719 48.871094 202.125 48.984375 202.617188 49.117188 C 202.644531 49.125 202.667969 49.160156 202.695312 49.183594 C 202.59375 49.269531 202.492188 49.355469 202.34375 49.480469 C 202.996094 49.769531 202.652344 50.121094 202.4375 50.421875 C 202.082031 50.914062 201.710938 50.503906 201.320312 50.421875 C 201.851562 50.027344 202.296875 49.824219 201.828125 49.265625 C 201.628906 49.027344 201.492188 48.738281 201.3125 48.480469 C 201.207031 48.328125 201.082031 48.183594 200.96875 48.039062 L 198.761719 48.039062 C 198.742188 48.082031 198.726562 48.125 198.703125 48.171875 C 198.785156 48.847656 199.660156 48.882812 200.113281 49.390625 C 199.898438 49.398438 199.707031 49.351562 199.519531 49.296875 C 197.253906 48.628906 197 48.472656 196.652344 48.726562 C 196.566406 48.789062 196.617188 49.035156 196.613281 49.113281 C 196.019531 49.164062 195.4375 49.21875 194.855469 49.261719 C 194.203125 49.3125 193.414062 49.109375 192.492188 49.585938 C 192.25 49.714844 192.046875 49.910156 191.824219 50.074219 C 191.84375 50.140625 191.859375 50.210938 191.878906 50.277344 C 191.535156 50.183594 191.191406 50.089844 190.765625 49.976562 C 190.960938 49.789062 191.074219 49.683594 191.285156 49.484375 C 190.828125 49.417969 190.496094 49.375 190.160156 49.328125 C 190.140625 49.367188 190.121094 49.410156 190.101562 49.453125 C 190.28125 49.699219 190.464844 49.945312 190.664062 50.214844 C 190.101562 50.644531 189.265625 50.566406 188.914062 51.289062 C 188.5625 51.257812 188.179688 51.222656 187.648438 51.175781 C 187.890625 51.40625 188.023438 51.53125 188.222656 51.71875 C 187.136719 51.714844 187.367188 51.773438 186.253906 50.351562 C 187.078125 50.597656 188.15625 50.949219 188.921875 50.546875 C 189.34375 50.324219 189.382812 50.082031 188.957031 49.863281 C 188.375 49.5625 187.75 49.328125 187.125 49.121094 C 186.304688 48.851562 185.335938 49.167969 184.625 48.375 C 184.488281 48.222656 184.164062 48.121094 183.859375 48.039062 L 182.300781 48.039062 C 181.65625 48.261719 181.03125 48.652344 180.339844 48.566406 C 180.269531 48.558594 180.160156 48.582031 180.105469 48.628906 C 177.414062 50.894531 177.542969 50.753906 177.507812 50.894531 C 177.394531 51.382812 176.90625 51.558594 176.617188 51.902344 C 176.167969 52.4375 173.933594 51.847656 174.535156 54.425781 C 174.699219 55.128906 175.359375 55.332031 175.933594 54.882812 C 176.1875 54.683594 176.492188 54.550781 176.738281 54.410156 C 177.058594 54.875 177.355469 55.257812 177.597656 55.667969 C 177.703125 55.851562 177.6875 56.097656 177.761719 56.304688 C 177.972656 56.878906 178.0625 56.808594 178.472656 56.605469 C 178.585938 56.546875 178.675781 56.386719 178.785156 56.382812 C 179.777344 56.335938 178.921875 55 180.121094 54.578125 C 180.265625 54.527344 180.355469 54.308594 180.484375 54.148438 C 180.367188 54.0625 180.3125 54.015625 180.253906 53.980469 C 179.417969 53.480469 179.429688 52.804688 180.234375 52.28125 C 180.671875 51.996094 181.316406 51.925781 181.414062 51.222656 C 181.429688 51.117188 181.71875 51 181.894531 50.972656 C 182.171875 50.929688 182.460938 50.960938 182.902344 50.960938 C 182.75 51.21875 182.695312 51.394531 182.574219 51.5 C 181.613281 52.324219 180.925781 52.441406 181.425781 53.148438 C 181.488281 53.234375 181.566406 53.332031 181.570312 53.425781 C 181.605469 53.960938 181.980469 54.070312 182.386719 54.035156 C 184.214844 53.886719 184.644531 53.410156 184.898438 54.050781 C 184.5 54.710938 183.925781 54.285156 183.433594 54.28125 C 182.964844 54.277344 182.773438 54.445312 182.832031 54.902344 C 182.863281 55.164062 182.835938 55.433594 182.835938 55.796875 C 182.53125 55.601562 182.339844 55.476562 182.164062 55.363281 C 181.6875 55.601562 181.597656 55.992188 181.59375 56.453125 C 181.585938 56.894531 181.039062 57.402344 180.703125 57.355469 C 180.457031 57.320312 180.195312 57.296875 179.953125 57.34375 C 179.429688 57.445312 178.914062 57.59375 178.367188 57.734375 C 178.191406 57.085938 177.847656 57.15625 177.351562 57.363281 C 177.125 57.457031 176.742188 57.296875 176.484375 57.15625 C 176.382812 57.097656 176.367188 56.765625 176.410156 56.582031 C 176.5 56.199219 176.65625 55.832031 176.804688 55.40625 C 175.652344 55.753906 175.484375 56.046875 175.808594 57.054688 C 175.949219 57.492188 175.867188 57.679688 175.363281 57.789062 C 174.875 57.894531 174.402344 58.164062 173.964844 58.429688 C 173.691406 58.59375 173.511719 58.902344 173.261719 59.113281 C 173.074219 59.273438 172.792969 59.34375 172.640625 59.527344 C 172.234375 59.996094 171.828125 60.375 171.136719 60.171875 C 171.074219 60.152344 170.878906 60.324219 170.867188 60.421875 C 170.824219 60.777344 170.589844 60.71875 170.359375 60.71875 C 170.015625 60.710938 169.667969 60.714844 169.324219 60.714844 C 169.308594 60.785156 169.292969 60.851562 169.28125 60.921875 C 169.410156 61.007812 169.53125 61.140625 169.671875 61.175781 C 170.753906 61.449219 171.261719 62.265625 171.007812 63.339844 C 170.90625 63.765625 170.746094 64.035156 170.21875 63.957031 C 169.722656 63.886719 169.214844 63.933594 168.710938 63.910156 C 168.363281 63.894531 168.015625 63.839844 167.613281 63.796875 C 167.460938 63.910156 167.238281 64.070312 167.125 64.152344 C 167.082031 64.761719 167.207031 65.363281 166.972656 65.75 C 166.550781 66.457031 166.824219 67.089844 166.867188 67.808594 C 167.53125 67.703125 168.109375 67.78125 168.339844 68.347656 C 168.921875 68.246094 169.417969 68.125 169.917969 68.082031 C 170.480469 68.03125 171.292969 67.300781 171.292969 66.792969 C 171.289062 66.246094 171.777344 65.550781 172.285156 65.332031 C 172.722656 65.144531 173.203125 64.988281 173.117188 64.328125 C 173.101562 64.207031 173.355469 63.976562 173.519531 63.933594 C 174.464844 63.675781 174.347656 64.484375 175.417969 63.65625 C 175.835938 63.332031 176.453125 63.417969 176.699219 63.886719 C 177.488281 65.386719 179.550781 65.4375 179.550781 66.6875 C 179.550781 66.851562 179.347656 67.125 179.191406 67.160156 C 178.777344 67.253906 178.339844 67.246094 177.910156 67.277344 C 177.898438 67.316406 177.882812 67.355469 177.871094 67.394531 C 178.253906 67.585938 178.632812 67.773438 178.871094 67.894531 C 179.761719 67.089844 180.226562 66.800781 179.9375 66.261719 C 179.871094 66.140625 179.96875 65.929688 179.992188 65.730469 C 180.3125 65.835938 180.535156 65.914062 180.761719 65.992188 C 180.398438 65.351562 179.703125 65.210938 178.804688 64.601562 C 178.53125 64.417969 178.210938 63.734375 178.042969 63.617188 C 177.730469 63.398438 177.652344 63.140625 177.816406 62.71875 C 178.539062 62.773438 177.964844 62.300781 180.714844 64.402344 C 181.519531 65.023438 180.609375 65.003906 182.324219 67.148438 C 182.792969 67.148438 183.167969 67.148438 183.558594 67.148438 C 183.449219 66.738281 183.332031 66.300781 183.214844 65.859375 C 184.242188 65.449219 184.058594 65.578125 185.78125 65.742188 C 185.589844 65.824219 185.386719 65.894531 185.164062 65.894531 C 184.828125 65.890625 184.707031 66.039062 184.953125 66.359375 C 185.054688 66.492188 185.175781 66.722656 185.128906 66.84375 C 184.933594 67.3125 185.519531 67.496094 185.46875 67.894531 C 185.464844 67.914062 185.582031 67.953125 185.644531 67.972656 C 186.089844 68.109375 186.824219 68.386719 186.941406 68.257812 C 187.234375 67.9375 187.484375 68.09375 187.796875 68.230469 C 188.089844 68.359375 188.445312 68.453125 188.753906 68.410156 C 189.128906 68.359375 189.480469 68.144531 189.839844 68.003906 C 189.898438 68.039062 189.957031 68.074219 190.015625 68.113281 C 189.90625 68.828125 189.886719 69.570312 189.664062 70.246094 C 189.433594 70.953125 189.148438 71.605469 189.558594 72.324219 C 189.558594 72.324219 189.5625 72.324219 189.5625 72.324219 C 189.558594 72.320312 189.554688 72.316406 189.550781 72.3125 C 189.613281 72.453125 189.722656 72.597656 189.722656 72.742188 C 189.730469 74.027344 190.71875 74.792969 191.3125 75.761719 C 191.550781 76.148438 191.835938 76.503906 192.050781 76.902344 C 192.3125 77.402344 192.402344 78.054688 192.78125 78.421875 C 193.933594 79.535156 194.367188 80.945312 194.675781 82.425781 C 194.792969 82.976562 195.214844 83.15625 195.671875 82.832031 C 195.863281 82.699219 195.734375 82.792969 198.492188 81.726562 C 198.660156 81.660156 198.90625 81.660156 198.984375 81.539062 C 199.445312 80.820312 200.160156 80.5 200.894531 80.152344 C 201.316406 79.949219 201.636719 79.539062 202.042969 79.285156 C 202.3125 79.113281 202.417969 78.964844 202.363281 78.640625 C 202.339844 78.503906 202.519531 78.339844 202.601562 78.183594 C 202.785156 77.839844 203.164062 77.445312 203.097656 77.15625 C 203.007812 76.777344 202.625 76.300781 202.265625 76.195312 C 201.902344 76.085938 201.734375 75.933594 201.578125 75.652344 C 201.414062 75.359375 201.234375 75.074219 201.039062 74.746094 C 200.695312 75.53125 200.15625 75.980469 199.28125 75.914062 C 198.878906 75.882812 198.566406 75.8125 198.65625 75.289062 C 198.683594 75.128906 198.617188 74.953125 198.574219 74.628906 C 198.382812 74.902344 198.273438 75.0625 198.109375 75.296875 C 198.011719 75.019531 197.890625 74.847656 197.910156 74.695312 C 197.960938 74.28125 197.683594 74.132812 197.445312 73.882812 C 197.121094 73.535156 196.878906 73.078125 196.710938 72.628906 C 196.664062 72.503906 197.117188 72.042969 197.144531 72.058594 C 197.554688 72.308594 198.125 72.535156 198.273438 72.917969 C 198.667969 73.929688 200.085938 74.652344 201.082031 74.167969 C 201.363281 74.03125 201.492188 74.105469 201.660156 74.328125 C 201.839844 74.558594 202.058594 74.886719 202.296875 74.929688 C 203.210938 75.082031 204.140625 75.160156 205.066406 75.210938 C 205.527344 75.238281 205.996094 75.132812 206.460938 75.136719 C 206.621094 75.136719 206.855469 75.238281 206.929688 75.367188 C 207.363281 76.09375 207.988281 76.546875 208.839844 76.804688 C 208.613281 76.898438 208.449219 76.960938 208.242188 77.046875 C 208.828125 77.390625 209.171875 78.273438 210.015625 77.664062 C 210.03125 77.449219 210.046875 77.246094 210.0625 77.042969 C 210.105469 77.046875 210.152344 77.054688 210.195312 77.0625 C 210.476562 79.109375 209.894531 77.65625 212.160156 83.519531 C 212.386719 84.101562 212.636719 84.675781 212.910156 85.238281 C 213.023438 85.46875 213.179688 85.917969 213.507812 85.632812 C 214.042969 85.164062 214.886719 84.8125 214.585938 83.816406 C 214.554688 83.710938 214.640625 83.574219 214.648438 83.449219 C 214.6875 82.851562 214.769531 82.246094 214.730469 81.652344 C 214.710938 81.289062 214.828125 81.089844 215.066406 80.867188 C 215.714844 80.28125 217.195312 78.785156 217.597656 78.472656 C 217.882812 78.253906 218.183594 78.089844 217.832031 77.625 C 218.699219 77.367188 219.492188 77.128906 220.28125 76.894531 C 221.117188 78.066406 222.058594 79.089844 222.261719 80.574219 C 222.308594 80.898438 222.402344 81.125 222.875 81.199219 C 223.125 80.949219 223.40625 80.667969 223.734375 80.339844 C 223.738281 80.359375 223.75 80.382812 223.765625 80.40625 C 224.390625 81.226562 224.550781 82.238281 224.800781 83.1875 C 224.992188 83.929688 224.902344 84.746094 224.949219 85.527344 C 224.957031 85.691406 224.972656 85.921875 225.078125 86.007812 C 225.738281 86.554688 226.019531 87.308594 226.242188 88.089844 C 226.363281 88.511719 226.566406 88.855469 226.828125 89.148438 L 226.828125 86.875 C 226.8125 86.855469 226.800781 86.835938 226.789062 86.816406 C 226.25 86.535156 226.070312 86.199219 225.894531 85.765625 C 225.25 84.167969 225.0625 86.011719 225.71875 82.316406 C 225.960938 82.636719 226.089844 82.96875 226.238281 82.980469 C 226.492188 82.996094 226.679688 83.078125 226.828125 83.195312 L 226.828125 48.039062 Z M 201.445312 48.039062"/><path fill="#13B1E2" d="M 188.804688 71.683594 C 188.453125 71.601562 188.09375 71.527344 187.734375 71.5 C 187.476562 71.476562 187.203125 71.507812 186.945312 71.5625 C 186.714844 71.609375 186.46875 71.820312 186.269531 71.777344 C 185.5 71.613281 184.738281 71.398438 183.992188 71.148438 C 183.671875 71.039062 183.398438 70.691406 183.085938 70.664062 C 182.707031 70.628906 182.242188 70.730469 181.945312 70.949219 C 181.742188 71.097656 181.757812 71.550781 181.675781 71.867188 C 181.71875 71.886719 181.761719 71.910156 181.800781 71.929688 C 181.613281 72.023438 181.425781 72.117188 181.234375 72.210938 C 180.820312 71.933594 180.386719 71.730469 179.933594 71.636719 C 179.617188 71.570312 179.394531 71.472656 179.300781 71.160156 C 179.203125 70.835938 178.972656 70.691406 178.652344 70.710938 C 178.054688 70.753906 177.570312 70.460938 177.054688 70.226562 C 176.722656 70.074219 176.699219 69.855469 176.769531 69.578125 C 176.894531 69.085938 177.039062 68.601562 177.203125 68.003906 C 176.773438 68.046875 176.445312 68.070312 176.117188 68.109375 C 175.511719 68.179688 174.875 68.410156 174.3125 68.289062 C 173.753906 68.171875 173.300781 68.355469 172.800781 68.410156 C 172.660156 68.425781 172.515625 68.417969 172.378906 68.449219 C 172.117188 68.515625 171.8125 68.535156 171.617188 68.6875 C 170.800781 69.320312 169.550781 69.4375 168.617188 68.882812 C 168.117188 70.292969 166.699219 70.261719 166.449219 71.707031 C 166.277344 72.710938 165.894531 73.3125 164.910156 73.535156 C 164.789062 73.5625 164.585938 73.671875 164.589844 73.726562 C 164.679688 74.511719 163.75 74.351562 163.730469 75.175781 C 163.722656 75.53125 163.566406 75.730469 163.320312 75.980469 C 162.953125 76.359375 162.699219 76.847656 162.425781 77.308594 C 162.363281 77.414062 162.355469 77.652344 162.429688 77.722656 C 162.828125 78.109375 162.765625 78.613281 162.765625 79.070312 C 162.769531 79.628906 162.851562 80.34375 162.554688 80.722656 C 161.933594 81.515625 162.539062 82.21875 162.480469 82.949219 C 162.441406 83.425781 162.9375 83.472656 163.195312 83.703125 C 164.019531 84.4375 164.074219 85.757812 165.175781 86.273438 C 165.246094 86.308594 165.25 86.46875 165.292969 86.566406 C 165.332031 86.644531 165.386719 86.773438 165.433594 86.773438 C 166.433594 86.78125 166.589844 88.113281 167.515625 87.742188 C 168.152344 87.488281 168.789062 87.1875 169.515625 87.5 C 170.371094 87.863281 170.757812 87.292969 171.984375 86.90625 C 173.324219 86.480469 174.019531 86.496094 174.34375 87.777344 C 175.5 87.777344 176.414062 87.59375 176.515625 88.734375 C 176.570312 89.335938 176.558594 90.011719 176.328125 90.550781 C 176.046875 91.21875 176.25 91.65625 176.601562 92.15625 C 177.050781 92.789062 177.472656 93.441406 177.878906 94.101562 C 178.042969 94.367188 178.144531 94.671875 178.242188 94.972656 C 178.339844 95.257812 178.425781 95.550781 178.46875 95.847656 C 178.503906 96.0625 178.386719 96.328125 178.472656 96.507812 C 178.796875 97.171875 178.671875 97.710938 178.332031 98.367188 C 177.671875 99.640625 177.148438 100.996094 177.988281 102.429688 C 178.277344 102.925781 178.566406 103.421875 178.835938 103.929688 C 178.925781 104.09375 178.984375 104.289062 179.011719 104.476562 C 179.125 105.269531 179.199219 106.070312 179.34375 106.855469 C 179.398438 107.160156 179.601562 107.4375 179.75 107.71875 C 179.949219 108.105469 180.175781 108.476562 180.367188 108.867188 C 180.511719 109.171875 180.644531 109.488281 180.738281 109.808594 C 180.800781 110.023438 180.761719 110.261719 180.804688 110.484375 C 180.855469 110.765625 180.863281 111.113281 181.035156 111.296875 C 181.214844 111.488281 181.644531 111.679688 181.835938 111.589844 C 182.539062 111.265625 183.269531 111.273438 184.007812 111.214844 C 184.542969 111.175781 185.203125 111.097656 185.5625 110.765625 C 186.46875 109.933594 187.273438 108.980469 188.042969 108.011719 C 188.332031 107.652344 188.589844 107.101562 188.535156 106.679688 C 188.449219 106.042969 188.792969 105.917969 189.199219 105.796875 C 189.804688 105.613281 190.035156 105.179688 190 104.613281 C 189.96875 104.101562 189.839844 103.59375 189.761719 103.085938 C 189.738281 102.949219 189.6875 102.714844 189.734375 102.691406 C 190.460938 102.316406 190.640625 101.371094 191.480469 101.101562 C 192.292969 100.839844 192.890625 100.222656 192.867188 99.363281 C 192.835938 98.332031 193.15625 97.210938 192.382812 96.28125 C 192.34375 96.234375 192.34375 96.144531 192.34375 96.074219 C 192.34375 95.578125 192.34375 95.082031 192.34375 94.507812 C 191.921875 94.304688 191.964844 93.902344 192.234375 93.46875 C 193.222656 91.875 194.265625 90.359375 195.765625 89.15625 C 197.535156 87.738281 198.277344 85.722656 198.507812 83.507812 C 198.519531 83.40625 198.449219 83.296875 198.421875 83.203125 C 197.605469 83.664062 196.804688 83.953125 195.910156 83.9375 C 195.8125 83.933594 195.703125 83.960938 195.617188 84.007812 C 195.050781 84.296875 194.582031 84.003906 194.410156 83.402344 C 193.761719 81.132812 192.203125 81.976562 192.03125 80.484375 C 191.992188 80.152344 191.789062 79.761719 191.535156 79.542969 C 191.230469 79.28125 191.152344 79 191.066406 78.640625 C 190.925781 78.039062 190.796875 77.371094 190.445312 76.898438 C 189.558594 75.71875 189.089844 74.363281 188.496094 73.054688 C 188.539062 73.015625 188.585938 72.976562 188.628906 72.941406 C 188.761719 73.160156 188.894531 73.378906 189.027344 73.597656 C 189.089844 73.570312 189.152344 73.542969 189.214844 73.519531 C 189.324219 73.113281 189.433594 72.710938 189.546875 72.308594 C 189.425781 72.175781 189.3125 72.03125 189.179688 71.914062 C 189.070312 71.816406 188.941406 71.714844 188.804688 71.683594 Z M 188.804688 71.683594"/><path fill="#13B1E2" d="M 116.273438 53.957031 C 115.9375 54.195312 115.601562 54.4375 115.265625 54.679688 C 115.632812 54.65625 115.957031 54.578125 116.28125 54.492188 C 116.507812 54.429688 116.871094 54.417969 116.925781 54.285156 C 117.140625 53.757812 117.632812 53.816406 117.886719 53.703125 C 118.273438 53.90625 118.554688 54.121094 118.871094 54.207031 C 119.335938 54.335938 119.824219 54.359375 120.296875 54.449219 C 120.398438 54.46875 120.5 54.570312 120.570312 54.65625 C 120.816406 54.945312 121.050781 55.25 121.285156 55.546875 C 121.371094 55.667969 121.261719 55.890625 121.300781 56.085938 C 121.382812 56.476562 121.539062 56.851562 121.667969 57.234375 C 121.609375 57.230469 121.550781 57.226562 121.492188 57.222656 C 121.429688 57.5 121.34375 57.773438 121.304688 58.054688 C 121.257812 58.417969 121.234375 58.785156 121.234375 59.152344 C 121.234375 59.277344 121.328125 59.417969 121.414062 59.523438 C 121.671875 59.832031 121.972656 60.109375 122.207031 60.4375 C 122.300781 60.574219 122.265625 60.800781 122.300781 61.085938 C 121.683594 60.691406 121.796875 59.59375 120.726562 59.917969 C 121.003906 60.324219 121.25 60.6875 121.496094 61.046875 C 121.449219 61.085938 121.410156 61.105469 121.394531 61.132812 C 120.429688 62.691406 119.445312 64.234375 118.523438 65.816406 C 118.171875 66.421875 118.476562 67.867188 118.488281 68.082031 C 118.511719 68.507812 118.492188 68.9375 118.492188 69.367188 C 119.378906 69.570312 119.8125 70.046875 119.867188 70.914062 C 119.910156 71.597656 119.882812 72.320312 120.371094 72.910156 C 120.429688 72.980469 120.351562 73.265625 120.253906 73.34375 C 119.933594 73.597656 119.964844 73.8125 120.265625 74.023438 C 120.679688 74.3125 121.191406 74.53125 121.011719 75.199219 C 121.003906 75.234375 121.050781 75.296875 121.085938 75.332031 C 121.351562 75.617188 121.617188 75.898438 121.984375 76.285156 C 121.921875 75.558594 122.097656 76.257812 121.421875 74.394531 C 121.195312 73.773438 120.964844 73.15625 120.765625 72.53125 C 120.671875 72.222656 120.605469 71.894531 120.605469 71.574219 C 120.609375 71.445312 120.875 71.183594 120.917969 71.203125 C 121.152344 71.308594 121.613281 71.175781 121.542969 71.675781 C 121.449219 72.355469 121.625 72.941406 122.109375 73.4375 C 122.191406 73.519531 122.214844 73.660156 122.261719 73.777344 C 122.410156 74.164062 122.507812 74.585938 122.722656 74.9375 C 123.828125 76.734375 124.183594 76.253906 123.980469 77.652344 C 123.941406 77.929688 123.90625 78.296875 124.046875 78.496094 C 124.265625 78.8125 124.601562 79.085938 124.945312 79.265625 C 125.832031 79.734375 126.738281 80.160156 127.65625 80.558594 C 127.917969 80.671875 128.277344 80.742188 128.527344 80.65625 C 129.308594 80.390625 129.789062 80.785156 130.246094 81.304688 C 130.398438 81.476562 130.5625 81.800781 130.710938 81.792969 C 131.300781 81.761719 131.664062 82.257812 132.171875 82.335938 C 132.796875 82.433594 133.265625 82.652344 133.335938 83.210938 C 133.660156 83.3125 133.886719 83.382812 134.203125 83.484375 C 133.519531 83.925781 133.550781 84.125 134.113281 84.492188 C 134.691406 84.875 135.171875 85.410156 135.867188 85.613281 C 135.929688 85.632812 135.96875 85.722656 136.03125 85.746094 C 136.136719 85.785156 136.25 85.796875 136.476562 85.847656 C 136.21875 85.28125 136.558594 85.046875 136.902344 84.996094 C 137.457031 84.917969 137.539062 85.441406 137.675781 85.851562 C 138.0625 85.476562 138.125 85.265625 137.941406 85.023438 C 137.644531 84.628906 137.175781 84.523438 136.699219 84.695312 C 136.40625 84.800781 136.070312 84.96875 135.792969 84.914062 C 134.988281 84.761719 134.550781 83.875 134.789062 83.089844 C 134.933594 82.617188 135.074219 82.128906 135.121094 81.640625 C 135.144531 81.425781 134.992188 81.046875 134.824219 80.984375 C 134.449219 80.84375 134.015625 80.828125 133.601562 80.800781 C 133.199219 80.777344 132.796875 80.796875 132.355469 80.796875 C 132.867188 79.582031 133.320312 78.503906 133.804688 77.355469 C 133.515625 77.308594 133.210938 77.164062 132.976562 77.242188 C 132.570312 77.375 131.984375 77.265625 131.816406 77.839844 C 131.460938 79.042969 131.457031 79.054688 130.222656 79.125 C 129.960938 79.136719 129.640625 79.304688 129.457031 79.203125 C 128.921875 78.910156 128.457031 78.5 128.316406 77.855469 C 128.136719 77.007812 128.21875 76.183594 128.507812 75.367188 C 128.675781 74.898438 128.792969 74.414062 128.953125 73.945312 C 129.015625 73.765625 129.085938 73.542969 129.226562 73.445312 C 130.246094 72.730469 131.28125 72.042969 132.640625 72.507812 C 132.867188 72.585938 133.144531 72.519531 133.421875 72.519531 C 133.390625 72.328125 133.367188 72.183594 133.347656 72.074219 C 133.792969 72.011719 134.222656 71.992188 134.625 71.882812 C 135.136719 71.742188 135.488281 71.890625 135.726562 72.355469 C 135.921875 72.28125 136.085938 72.21875 136.355469 72.117188 C 136.476562 72.429688 136.714844 72.742188 136.679688 73.023438 C 136.589844 73.761719 136.972656 74.316406 137.203125 74.953125 C 137.710938 74.800781 137.929688 74.484375 137.917969 74.054688 C 137.90625 73.644531 137.855469 73.226562 137.742188 72.835938 C 137.550781 72.175781 137.609375 71.539062 138.113281 71.097656 C 141.082031 68.507812 141.140625 69.800781 141.695312 67.125 C 141.859375 67.101562 142 67.125 142.058594 67.066406 C 142.371094 66.75 142.726562 66.453125 142.945312 66.074219 C 143.273438 65.503906 143.789062 65.378906 144.355469 65.265625 C 146.402344 64.847656 143.53125 64.269531 148.945312 62.628906 C 148.960938 62.671875 148.976562 62.71875 148.992188 62.761719 C 148.59375 63.085938 148.199219 63.40625 147.800781 63.730469 C 147.832031 63.789062 147.863281 63.847656 147.894531 63.90625 C 148.027344 63.882812 148.230469 63.90625 148.289062 63.824219 C 148.683594 63.285156 149.085938 63.367188 150.449219 62.828125 C 150.480469 62.773438 150.507812 62.71875 150.539062 62.664062 C 149.351562 62.796875 149.070312 62.183594 149.226562 61.226562 C 149.386719 61.128906 149.59375 61.007812 149.902344 60.824219 C 148.796875 60.125 148.039062 61.023438 147.105469 61.261719 C 147.339844 61.023438 147.46875 60.800781 147.664062 60.699219 C 148.296875 60.371094 148.863281 59.894531 149.679688 60.003906 C 150.402344 60.101562 151.144531 60.0625 151.875 60.03125 C 152.148438 60.015625 152.457031 59.914062 152.667969 59.746094 C 153.0625 59.429688 153.492188 59.300781 153.96875 59.183594 C 154.199219 59.125 154.398438 58.820312 154.542969 58.585938 C 154.707031 58.332031 154.675781 58.074219 154.332031 57.945312 C 154.277344 57.921875 154.195312 57.832031 154.207031 57.789062 C 154.296875 57.367188 153.972656 57.320312 153.714844 57.226562 C 153.277344 57.070312 153.035156 56.648438 153.121094 56.3125 C 153.324219 55.554688 152.792969 55.054688 152.707031 54.355469 C 151.910156 54.882812 151.585938 55.335938 150.699219 55.03125 C 150.320312 54.902344 150.476562 54.589844 150.550781 54.304688 C 150.589844 54.15625 150.539062 53.953125 150.464844 53.8125 C 150.332031 53.566406 149.828125 53.121094 149.589844 53.074219 C 148.675781 52.902344 148.109375 52.832031 147.664062 53.382812 C 147.21875 53.925781 147.363281 54.875 146.4375 55.042969 C 146.761719 55.796875 146.6875 56.15625 146.078125 56.597656 C 145.746094 56.835938 145.378906 57.046875 144.996094 57.179688 C 144.625 57.308594 144.460938 57.511719 144.382812 57.886719 C 144.238281 58.558594 144.023438 59.210938 143.136719 59.269531 C 142.535156 58.539062 142.699219 57.847656 143.234375 57.289062 C 142.597656 56.992188 141.96875 56.710938 141.359375 56.402344 C 140.835938 56.140625 140.398438 55.609375 139.664062 56.054688 C 139.75 55.664062 139.816406 55.382812 139.882812 55.09375 C 139.714844 55.070312 139.605469 55.050781 139.445312 55.03125 C 140.058594 53.925781 140.933594 53.261719 142.066406 52.933594 C 142.289062 52.871094 142.550781 52.894531 142.75 52.792969 C 143.554688 52.375 144.335938 51.898438 145.148438 51.496094 C 145.664062 51.242188 146.246094 50.867188 146.753906 50.929688 C 147.425781 51.011719 147.804688 50.671875 148.230469 50.371094 C 148.519531 50.164062 148.699219 49.8125 148.925781 49.523438 C 148.523438 49.050781 148.007812 49.027344 147.550781 49.4375 C 147.1875 49.761719 146.816406 50.070312 146.425781 50.351562 C 146.324219 50.425781 146.128906 50.371094 145.976562 50.375 C 146.003906 50.238281 146.015625 50.089844 146.066406 49.957031 C 146.101562 49.851562 146.183594 49.761719 146.246094 49.667969 C 146.222656 49.632812 146.203125 49.59375 146.179688 49.558594 C 145.929688 49.636719 145.683594 49.71875 145.523438 49.769531 C 145.414062 49.511719 145.324219 49.289062 145.292969 49.214844 C 145.382812 48.820312 145.449219 48.53125 145.523438 48.214844 C 144.703125 48.179688 144.210938 48.484375 143.855469 49.042969 C 143.964844 49.1875 144.054688 49.308594 144.175781 49.472656 C 143.660156 49.847656 143.277344 50.402344 142.542969 50.03125 C 142.453125 49.988281 142.328125 49.988281 142.222656 49.996094 C 141.09375 50.085938 140.378906 50.289062 139.625 49.890625 C 139.113281 49.617188 138.507812 49.625 138.027344 49.988281 C 137.933594 50.058594 137.8125 50.117188 137.695312 50.128906 C 136.941406 50.195312 136.023438 50.179688 135.527344 50.179688 C 135.636719 49.988281 135.703125 49.875 135.769531 49.757812 C 135.113281 49.488281 134.679688 49.382812 134.402344 49.347656 C 133.824219 49.277344 133.210938 49.109375 132.671875 49.230469 C 132.171875 49.34375 131.960938 49.238281 131.839844 48.917969 C 131.214844 48.96875 130.652344 48.976562 130.101562 49.070312 C 128.519531 49.335938 127.875 49.644531 127.546875 49.515625 C 126.726562 49.1875 125.890625 48.945312 124.996094 48.96875 C 123.664062 49 122.277344 48.242188 120.285156 48.621094 C 119.539062 48.765625 118.773438 48.691406 118.039062 49.046875 C 117.246094 49.433594 116.320312 49.5 115.691406 49.71875 C 115.59375 49.816406 115.5 49.921875 115.40625 50.023438 C 115.617188 50.320312 115.800781 50.582031 116.003906 50.871094 C 115.632812 50.945312 115.226562 51.164062 114.957031 51.050781 C 114.878906 51.019531 114.800781 50.996094 114.726562 50.980469 C 114.566406 51.269531 114.425781 51.570312 114.3125 51.882812 C 114.433594 51.882812 114.554688 51.882812 114.679688 51.882812 C 114.507812 51.980469 114.363281 52.074219 114.222656 52.15625 C 114.0625 52.691406 113.972656 53.253906 113.972656 53.84375 L 113.972656 54.847656 C 114.730469 54.523438 115.484375 54.203125 116.242188 53.878906 C 116.25 53.902344 116.261719 53.929688 116.273438 53.957031 Z M 116.273438 53.957031"/><path fill="#13B1E2" d="M 148.855469 119.316406 C 148.734375 119.277344 148.609375 119.253906 148.5 119.199219 C 147.828125 118.867188 147.792969 118.523438 148.375 118.089844 C 148.617188 117.910156 148.804688 117.746094 148.636719 117.382812 C 148.550781 117.199219 148.621094 116.945312 148.621094 116.734375 C 148.800781 116.707031 148.941406 116.6875 149.207031 116.652344 C 149.03125 116.5 148.933594 116.355469 148.863281 116.367188 C 148.207031 116.5 148.234375 115.972656 148.035156 115.542969 C 148.554688 115.632812 149.035156 115.910156 149.445312 115.402344 C 149.332031 115.097656 149.210938 114.777344 149.089844 114.441406 C 149.15625 114.421875 149.222656 114.390625 149.292969 114.382812 C 149.632812 114.359375 149.976562 114.359375 150.3125 114.316406 C 150.792969 114.257812 151.34375 114.0625 151.410156 113.429688 C 151.457031 112.964844 151.191406 112.289062 150.777344 112.058594 C 150.625 111.972656 150.480469 111.871094 150.332031 111.777344 C 150.355469 111.726562 150.378906 111.675781 150.40625 111.625 C 150.699219 111.710938 151 111.773438 151.28125 111.886719 C 151.921875 112.140625 152.414062 111.988281 152.703125 111.367188 C 152.914062 110.898438 153.0625 110.402344 153.261719 109.929688 C 153.507812 109.34375 154 108.925781 154.328125 108.382812 C 154.589844 107.949219 154.714844 107.644531 154.53125 107.175781 C 154.25 106.457031 154.417969 105.964844 155.101562 105.59375 C 155.800781 105.207031 156.492188 104.78125 157.339844 104.746094 C 157.523438 104.738281 157.761719 104.574219 157.859375 104.414062 C 158.089844 104.027344 158.285156 103.613281 158.425781 103.1875 C 158.640625 102.546875 158.832031 101.890625 158.953125 101.226562 C 159.03125 100.796875 159.054688 100.359375 158.941406 99.886719 C 158.671875 98.773438 159.5 98.015625 160.109375 97.292969 C 160.832031 96.441406 161.058594 95.550781 160.875 94.511719 C 160.835938 94.296875 160.667969 94.054688 160.488281 93.925781 C 160.019531 93.585938 159.511719 93.289062 159.015625 92.988281 C 158.699219 92.800781 158.386719 92.578125 158.042969 92.472656 C 157.664062 92.355469 157.246094 92.355469 156.84375 92.308594 C 156.523438 92.273438 156.199219 92.246094 155.824219 92.210938 C 155.410156 91.421875 154.417969 90.976562 153.699219 91.375 C 153.816406 90.949219 153.660156 90.800781 153.253906 90.785156 C 153.105469 90.777344 152.898438 90.5625 152.835938 90.398438 C 152.628906 89.855469 152.46875 89.296875 152.3125 88.738281 C 152.125 88.082031 151.28125 87.324219 150.605469 87.246094 C 150.230469 87.199219 149.855469 87.148438 149.480469 87.144531 C 148.902344 87.140625 148.585938 86.742188 148.363281 86.335938 C 148.144531 85.9375 147.914062 85.679688 147.453125 85.609375 C 147.324219 85.589844 147.113281 85.351562 147.132812 85.261719 C 147.21875 84.914062 146.984375 84.894531 146.78125 84.78125 C 146.578125 84.664062 146.414062 84.480469 146.230469 84.324219 C 146.242188 84.261719 146.253906 84.195312 146.265625 84.132812 C 145.941406 84.238281 145.617188 84.359375 145.289062 84.445312 C 145.105469 84.492188 144.894531 84.527344 144.722656 84.476562 C 144.007812 84.261719 143.273438 84.070312 142.609375 83.746094 C 142.15625 83.523438 141.972656 83.871094 141.710938 84.011719 C 141.609375 84.066406 141.65625 84.410156 141.636719 84.625 C 141.628906 84.753906 141.640625 84.890625 141.609375 85.015625 C 141.601562 85.042969 141.386719 85.058594 141.382812 85.039062 C 141.335938 84.917969 141.277344 84.773438 141.300781 84.652344 C 141.398438 84.203125 141.523438 83.765625 141.648438 83.285156 C 141.601562 83.28125 141.480469 83.222656 141.40625 83.257812 C 140.867188 83.507812 140.332031 83.765625 139.808594 84.046875 C 139.640625 84.140625 139.492188 84.289062 139.375 84.445312 C 138.96875 85 138.566406 85.566406 138.1875 86.144531 C 138.117188 86.246094 138.101562 86.4375 138.144531 86.554688 C 138.40625 87.289062 138.4375 88.078125 138.046875 88.695312 C 137.679688 89.28125 137.519531 90.132812 136.734375 90.285156 C 136.648438 90.609375 136.617188 90.894531 136.507812 91.144531 C 136.171875 91.921875 136.179688 92.027344 136.789062 92.613281 C 136.710938 92.683594 136.664062 92.730469 136.617188 92.777344 C 136.019531 93.386719 135.953125 94.078125 136.402344 94.628906 C 136.78125 95.09375 137.183594 95.546875 137.492188 96.058594 C 138.0625 97.011719 138.609375 97.984375 139.089844 98.984375 C 139.421875 99.675781 139.816406 100.238281 140.570312 100.488281 C 142.035156 100.972656 142.851562 101.894531 142.839844 103.539062 C 142.828125 104.933594 142.984375 106.328125 143.082031 107.722656 C 143.132812 108.484375 143.226562 109.246094 143.273438 110.011719 C 143.320312 110.773438 143.351562 111.542969 143.355469 112.304688 C 143.359375 112.710938 143.199219 113.136719 143.28125 113.519531 C 143.445312 114.300781 143.71875 115.0625 143.953125 115.832031 C 143.988281 115.941406 144.066406 116.128906 144.125 116.132812 C 144.597656 116.136719 144.597656 116.515625 144.671875 116.808594 C 144.769531 117.1875 144.769531 117.59375 144.886719 117.96875 C 145.085938 118.59375 145.480469 119.191406 145.535156 119.820312 C 145.566406 120.195312 145.691406 120.503906 145.84375 120.796875 L 148.636719 120.796875 C 148.824219 120.535156 148.992188 120.253906 149.113281 119.960938 C 149.21875 119.714844 149.207031 119.421875 148.855469 119.316406 Z M 148.855469 119.316406"/><path fill="#FEC9AC" d="M 139.007812 55.777344 L 124.21875 55.777344 C 122.832031 55.777344 121.707031 56.902344 121.707031 58.292969 L 121.707031 71.089844 C 121.707031 72.480469 122.832031 73.605469 124.21875 73.605469 L 139.007812 73.605469 C 140.394531 73.605469 141.519531 72.480469 141.519531 71.089844 L 141.519531 58.292969 C 141.519531 56.902344 140.394531 55.777344 139.007812 55.777344 Z M 139.007812 55.777344"/><path fill="#FBFBFF" d="M 121.707031 110.421875 L 153.070312 110.421875 L 153.070312 113.054688 L 121.707031 113.054688 Z M 121.707031 110.421875"/><path fill="#FBFBFF" d="M 121.707031 104.65625 L 167.128906 104.65625 L 167.128906 107.289062 L 121.707031 107.289062 Z M 121.707031 104.65625"/><path fill="#FFF" d="M 209.398438 60.410156 L 207.113281 56.449219 C 206.871094 56.035156 206.429688 55.777344 205.949219 55.777344 L 201.378906 55.777344 C 200.898438 55.777344 200.453125 56.035156 200.214844 56.449219 L 197.929688 60.410156 C 197.6875 60.828125 197.6875 61.339844 197.929688 61.757812 L 200.214844 65.71875 C 200.453125 66.132812 200.898438 66.390625 201.378906 66.390625 L 205.949219 66.390625 C 206.429688 66.390625 206.871094 66.132812 207.113281 65.71875 L 209.398438 61.757812 C 209.636719 61.339844 209.636719 60.828125 209.398438 60.410156 Z M 209.398438 60.410156"/><path fill="#FE4C40" d="M 218.914062 60.410156 L 216.632812 56.449219 C 216.390625 56.035156 215.945312 55.777344 215.464844 55.777344 L 210.898438 55.777344 C 210.417969 55.777344 209.972656 56.035156 209.730469 56.449219 L 207.449219 60.410156 C 207.207031 60.828125 207.207031 61.339844 207.449219 61.757812 L 209.730469 65.71875 C 209.972656 66.132812 210.417969 66.390625 210.898438 66.390625 L 215.464844 66.390625 C 215.945312 66.390625 216.390625 66.132812 216.632812 65.71875 L 218.914062 61.757812 C 219.15625 61.339844 219.15625 60.828125 218.914062 60.410156 Z M 218.914062 60.410156"/><path fill="#FFF" d="M 124.257812 89.117188 L 123.257812 90.597656 L 122.257812 89.117188 L 121.640625 89.535156 L 122.808594 91.265625 L 121.640625 93 L 122.257812 93.417969 L 123.257812 91.933594 L 124.257812 93.417969 L 124.875 93 L 123.707031 91.265625 L 124.875 89.535156 Z M 124.257812 89.117188"/><path fill="#FFF" d="M 128.800781 89.117188 L 127.800781 90.597656 L 126.800781 89.117188 L 126.183594 89.535156 L 127.351562 91.265625 L 126.183594 93 L 126.800781 93.417969 L 127.800781 91.933594 L 128.800781 93.417969 L 129.417969 93 L 128.25 91.265625 L 129.417969 89.535156 Z M 128.800781 89.117188"/><path fill="#FFF" d="M 133.34375 89.117188 L 132.34375 90.597656 L 131.34375 89.117188 L 130.726562 89.535156 L 131.894531 91.265625 L 130.726562 93 L 131.34375 93.417969 L 132.34375 91.933594 L 133.34375 93.417969 L 133.960938 93 L 132.792969 91.265625 L 133.960938 89.535156 Z M 133.34375 89.117188"/><path fill="#FFF" d="M 137.886719 89.117188 L 136.886719 90.597656 L 135.890625 89.117188 L 135.269531 89.535156 L 136.4375 91.265625 L 135.269531 93 L 135.890625 93.417969 L 136.886719 91.933594 L 137.886719 93.417969 L 138.503906 93 L 137.339844 91.265625 L 138.503906 89.535156 Z M 137.886719 89.117188"/><path fill="#FFF" d="M 151.140625 89.117188 L 150.144531 90.597656 L 149.144531 89.117188 L 148.523438 89.535156 L 149.691406 91.265625 L 148.523438 93 L 149.144531 93.417969 L 150.144531 91.933594 L 151.140625 93.417969 L 151.761719 93 L 150.59375 91.265625 L 151.761719 89.535156 Z M 151.140625 89.117188"/><path fill="#FFF" d="M 155.683594 89.117188 L 154.6875 90.597656 L 153.6875 89.117188 L 153.070312 89.535156 L 154.234375 91.265625 L 153.070312 93 L 153.6875 93.417969 L 154.6875 91.933594 L 155.683594 93.417969 L 156.304688 93 L 155.136719 91.265625 L 156.304688 89.535156 Z M 155.683594 89.117188"/><path fill="#FFF" d="M 160.230469 89.117188 L 159.230469 90.597656 L 158.230469 89.117188 L 157.613281 89.535156 L 158.78125 91.265625 L 157.613281 93 L 158.230469 93.417969 L 159.230469 91.933594 L 160.230469 93.417969 L 160.847656 93 L 159.679688 91.265625 L 160.847656 89.535156 Z M 160.230469 89.117188"/><path fill="#FFF" d="M 164.773438 89.117188 L 163.773438 90.597656 L 162.773438 89.117188 L 162.15625 89.535156 L 163.324219 91.265625 L 162.15625 93 L 162.773438 93.417969 L 163.773438 91.933594 L 164.773438 93.417969 L 165.390625 93 L 164.222656 91.265625 L 165.390625 89.535156 Z M 164.773438 89.117188"/><path fill="#FFF" d="M 178.027344 89.117188 L 177.027344 90.597656 L 176.027344 89.117188 L 175.410156 89.535156 L 176.578125 91.265625 L 175.410156 93 L 176.027344 93.417969 L 177.027344 91.933594 L 178.027344 93.417969 L 178.644531 93 L 177.476562 91.265625 L 178.644531 89.535156 Z M 178.027344 89.117188"/><path fill="#FFF" d="M 182.570312 89.117188 L 181.570312 90.597656 L 180.574219 89.117188 L 179.953125 89.535156 L 181.121094 91.265625 L 179.953125 93 L 180.574219 93.417969 L 181.570312 91.933594 L 182.570312 93.417969 L 183.191406 93 L 182.023438 91.265625 L 183.191406 89.535156 Z M 182.570312 89.117188"/><path fill="#FFF" d="M 187.113281 89.117188 L 186.117188 90.597656 L 185.117188 89.117188 L 184.496094 89.535156 L 185.664062 91.265625 L 184.496094 93 L 185.117188 93.417969 L 186.117188 91.933594 L 187.113281 93.417969 L 187.734375 93 L 186.566406 91.265625 L 187.734375 89.535156 Z M 187.113281 89.117188"/><path fill="#FFF" d="M 191.65625 89.117188 L 190.660156 90.597656 L 189.660156 89.117188 L 189.042969 89.535156 L 190.207031 91.265625 L 189.042969 93 L 189.660156 93.417969 L 190.660156 91.933594 L 191.65625 93.417969 L 192.277344 93 L 191.109375 91.265625 L 192.277344 89.535156 Z M 191.65625 89.117188"/><path fill="#FFF" d="M 204.914062 89.117188 L 203.914062 90.597656 L 202.914062 89.117188 L 202.296875 89.535156 L 203.464844 91.265625 L 202.296875 93 L 202.914062 93.417969 L 203.914062 91.933594 L 204.914062 93.417969 L 205.53125 93 L 204.363281 91.265625 L 205.53125 89.535156 Z M 204.914062 89.117188"/><path fill="#FFF" d="M 209.457031 89.117188 L 208.457031 90.597656 L 207.457031 89.117188 L 206.839844 89.535156 L 208.007812 91.265625 L 206.839844 93 L 207.457031 93.417969 L 208.457031 91.933594 L 209.457031 93.417969 L 210.074219 93 L 208.90625 91.265625 L 210.074219 89.535156 Z M 209.457031 89.117188"/><path fill="#FFF" d="M 214 89.117188 L 213 90.597656 L 212 89.117188 L 211.382812 89.535156 L 212.550781 91.265625 L 211.382812 93 L 212 93.417969 L 213 91.933594 L 214 93.417969 L 214.617188 93 L 213.453125 91.265625 L 214.617188 89.535156 Z M 214 89.117188"/><path fill="#FFF" d="M 219.164062 89.535156 L 218.542969 89.117188 L 217.542969 90.597656 L 216.546875 89.117188 L 215.925781 89.535156 L 217.09375 91.265625 L 215.925781 93 L 216.546875 93.417969 L 217.542969 91.933594 L 218.542969 93.417969 L 219.164062 93 L 217.996094 91.265625 Z M 219.164062 89.535156"/><path fill="#EF9B84" d="M 141.519531 62.71875 L 141.519531 61.171875 L 136.042969 61.171875 L 136.042969 55.777344 L 134.496094 55.777344 L 134.496094 61.171875 L 121.707031 61.171875 L 121.707031 62.71875 L 127.503906 62.71875 L 127.503906 67.300781 L 121.707031 67.300781 L 121.707031 68.847656 L 134.496094 68.847656 L 134.496094 73.605469 L 136.042969 73.605469 L 136.042969 68.847656 L 141.519531 68.847656 L 141.519531 67.300781 L 136.042969 67.300781 L 136.042969 62.71875 Z M 134.496094 67.300781 L 129.050781 67.300781 L 129.050781 62.71875 L 134.496094 62.71875 Z M 134.496094 67.300781"/><path fill="#D1DCF8" d="M 223.710938 40.4375 L 231.898438 40.4375 L 231.898438 128.398438 L 223.710938 128.398438 Z M 223.710938 40.4375"/><path fill="#EF9B84" d="M 49.015625 204.792969 C 47.023438 204.792969 45.40625 206.292969 45.40625 208.140625 L 45.40625 255.1875 C 45.40625 257.035156 47.023438 258.535156 49.015625 258.535156 L 59.984375 258.535156 L 59.984375 204.792969 Z M 49.015625 204.792969"/><path fill="#FEC9AC" d="M 114.261719 204.792969 L 59.984375 204.792969 L 59.984375 258.535156 L 114.261719 258.535156 C 116.257812 258.535156 117.871094 257.035156 117.871094 255.1875 L 117.871094 208.140625 C 117.871094 206.292969 116.257812 204.792969 114.261719 204.792969 Z M 114.261719 204.792969"/><path fill="#FFF" d="M 66.957031 242.023438 L 78.347656 242.023438 L 78.347656 249.226562 L 66.957031 249.226562 Z M 66.957031 242.023438"/><path fill="#FFAB90" d="M 80.609375 204.792969 L 97.246094 204.792969 L 97.246094 217.394531 L 80.609375 217.394531 Z M 80.609375 204.792969"/><path fill="#EF9B84" d="M 114.519531 204.792969 C 112.523438 204.792969 110.910156 206.292969 110.910156 208.140625 L 110.910156 255.1875 C 110.910156 257.035156 112.523438 258.535156 114.519531 258.535156 L 125.484375 258.535156 L 125.484375 204.792969 Z M 114.519531 204.792969"/><path fill="#FEC9AC" d="M 179.765625 204.792969 L 125.484375 204.792969 L 125.484375 258.535156 L 179.765625 258.535156 C 181.757812 258.535156 183.375 257.035156 183.375 255.1875 L 183.375 208.140625 C 183.375 206.292969 181.757812 204.792969 179.765625 204.792969 Z M 179.765625 204.792969"/><path fill="#FFF" d="M 132.460938 242.023438 L 143.851562 242.023438 L 143.851562 249.226562 L 132.460938 249.226562 Z M 132.460938 242.023438"/><path fill="#FFAB90" d="M 146.113281 204.792969 L 162.746094 204.792969 L 162.746094 217.394531 L 146.113281 217.394531 Z M 146.113281 204.792969"/><path fill="#EF9B84" d="M 84.992188 154.910156 C 83.140625 154.910156 81.640625 156.300781 81.640625 158.015625 L 81.640625 201.683594 C 81.640625 203.402344 83.140625 204.792969 84.992188 204.792969 L 95.171875 204.792969 L 95.171875 154.910156 Z M 84.992188 154.910156"/><path fill="#FEC9AC" d="M 145.554688 154.910156 L 95.171875 154.910156 L 95.171875 204.792969 L 145.554688 204.792969 C 147.40625 204.792969 148.902344 203.402344 148.902344 201.683594 L 148.902344 158.015625 C 148.902344 156.300781 147.40625 154.910156 145.554688 154.910156 Z M 145.554688 154.910156"/><path fill="#FFF" d="M 102.144531 192.144531 L 109.378906 192.144531 L 109.378906 195.484375 L 102.144531 195.484375 Z M 102.144531 192.144531"/><path fill="#FFAB90" d="M 114.316406 154.90625 L 129.757812 154.90625 L 129.757812 166.605469 L 114.316406 166.605469 Z M 114.316406 154.90625"/></svg>