<svg xmlns="http://www.w3.org/2000/svg" width="375" viewBox="0 0 375 269.25" height="269.25" version="1.0"><defs><clipPath id="a"><path d="M 15 2 L 371 2 L 371 268.503906 L 15 268.503906 Z M 15 2"/></clipPath><clipPath id="b"><path d="M 49 191 L 102 191 L 102 268.503906 L 49 268.503906 Z M 49 191"/></clipPath><clipPath id="c"><path d="M 137 253 L 163 253 L 163 268.503906 L 137 268.503906 Z M 137 253"/></clipPath><clipPath id="d"><path d="M 137 264 L 163 264 L 163 268.503906 L 137 268.503906 Z M 137 264"/></clipPath><clipPath id="e"><path d="M 99 253 L 125 253 L 125 268.503906 L 99 268.503906 Z M 99 253"/></clipPath><clipPath id="f"><path d="M 99 264 L 125 264 L 125 268.503906 L 99 268.503906 Z M 99 264"/></clipPath><clipPath id="g"><path d="M 20 199 L 71 199 L 71 268.503906 L 20 268.503906 Z M 20 199"/></clipPath><clipPath id="h"><path d="M 327 251 L 351 251 L 351 268.503906 L 327 268.503906 Z M 327 251"/></clipPath><clipPath id="i"><path d="M 327 251 L 348 251 L 348 268.503906 L 327 268.503906 Z M 327 251"/></clipPath><clipPath id="j"><path d="M 327 251 L 351 251 L 351 268.503906 L 327 268.503906 Z M 327 251"/></clipPath></defs><path fill="#BDD6FF" d="M 324.492188 8.902344 L 288.425781 8.902344 C 288.285156 8.902344 288.144531 8.761719 288.144531 8.621094 C 288.144531 8.480469 288.285156 8.339844 288.425781 8.339844 L 324.492188 8.339844 C 324.632812 8.339844 324.773438 8.480469 324.773438 8.621094 C 324.773438 8.761719 324.632812 8.902344 324.492188 8.902344 Z M 324.492188 8.902344"/><path fill="#BDD6FF" d="M 324.492188 26.773438 L 288.425781 26.773438 C 288.285156 26.773438 288.144531 26.632812 288.144531 26.492188 C 288.144531 26.351562 288.285156 26.210938 288.425781 26.210938 L 324.492188 26.210938 C 324.632812 26.210938 324.773438 26.351562 324.773438 26.492188 C 324.773438 26.632812 324.632812 26.773438 324.492188 26.773438 Z M 324.492188 26.773438"/><path fill="#BDD6FF" d="M 317.910156 17.871094 L 266.921875 17.871094 C 266.78125 17.871094 266.644531 17.730469 266.644531 17.589844 C 266.644531 17.453125 266.78125 17.3125 266.921875 17.3125 L 317.910156 17.3125 C 318.050781 17.3125 318.191406 17.453125 318.191406 17.589844 C 318.191406 17.730469 318.121094 17.871094 317.910156 17.871094 Z M 317.910156 17.871094"/><path fill="#BDD6FF" d="M 295.847656 8.902344 C 295.707031 8.902344 295.570312 8.761719 295.570312 8.621094 L 295.570312 1.050781 C 295.570312 0.910156 295.707031 0.769531 295.847656 0.769531 C 295.988281 0.769531 296.128906 0.910156 296.128906 1.050781 L 296.128906 8.621094 C 296.128906 8.832031 295.988281 8.902344 295.847656 8.902344 Z M 295.847656 8.902344"/><path fill="#BDD6FF" d="M 308.527344 17.871094 C 308.386719 17.871094 308.246094 17.730469 308.246094 17.589844 L 308.246094 8.621094 C 308.246094 8.480469 308.386719 8.339844 308.527344 8.339844 C 308.664062 8.339844 308.804688 8.480469 308.804688 8.621094 L 308.804688 17.589844 C 308.804688 17.730469 308.664062 17.871094 308.527344 17.871094 Z M 308.527344 17.871094"/><path fill="#BDD6FF" d="M 298.859375 26.492188 C 298.71875 26.492188 298.582031 26.351562 298.582031 26.210938 L 298.582031 17.589844 C 298.582031 17.453125 298.71875 17.3125 298.859375 17.3125 C 299 17.3125 299.140625 17.453125 299.140625 17.589844 L 299.140625 26.210938 C 299.140625 26.351562 299.070312 26.492188 298.859375 26.492188 Z M 298.859375 26.492188"/><g clip-path="url(#a)"><path fill="#D2E4FF" d="M 349.988281 114.453125 C 353.910156 110.808594 359.722656 108.84375 363.363281 105.199219 C 366.867188 101.695312 369.109375 94.265625 370.089844 89.5 C 372.050781 79.828125 368.96875 68.40625 360.421875 63.640625 C 350.546875 58.101562 338.5 63.007812 327.367188 65.039062 C 305.582031 69.035156 281.910156 60.203125 267.972656 42.824219 C 257.257812 29.507812 250.882812 10.792969 234.984375 4.554688 C 223.5 0 210.121094 3.785156 200.035156 10.933594 C 189.882812 18.082031 182.246094 28.105469 174.191406 37.566406 C 166.136719 47.027344 157.3125 56.351562 145.898438 61.1875 C 140.433594 63.5 134.339844 64.550781 128.457031 63.988281 C 121.875 63.429688 118.164062 60.34375 112.628906 57.542969 C 103.945312 53.125 89.726562 59.574219 85.246094 67.984375 C 81.53125 74.921875 82.652344 83.402344 84.894531 90.972656 C 87.066406 98.542969 90.359375 105.902344 90.707031 113.75 C 91.546875 131.0625 78.3125 145.851562 64.375 156.011719 C 50.4375 166.175781 34.398438 174.375 24.523438 188.53125 C 14.296875 203.109375 12.195312 223.15625 19.199219 239.554688 C 24.800781 252.734375 36.007812 263.175781 49.246094 268.152344 L 355.449219 268.152344 C 363.226562 262.894531 368.269531 253.152344 369.316406 243.480469 C 370.4375 233.109375 367.917969 222.316406 362.175781 213.625 C 356.78125 205.425781 348.9375 199.257812 342.984375 191.476562 C 332.757812 178.019531 328.90625 159.726562 332.898438 143.257812 C 335.558594 132.183594 341.652344 122.089844 349.988281 114.453125 Z M 349.988281 114.453125" fill-opacity=".298"/></g><path fill="#BDD6FF" d="M 172.511719 79.058594 L 139.3125 79.058594 C 139.175781 79.058594 139.035156 78.917969 139.035156 78.777344 C 139.035156 78.636719 139.175781 78.496094 139.3125 78.496094 L 172.511719 78.496094 C 172.652344 78.496094 172.792969 78.636719 172.792969 78.777344 C 172.792969 78.917969 172.652344 79.058594 172.511719 79.058594 Z M 172.511719 79.058594"/><path fill="#BDD6FF" d="M 172.511719 95.527344 L 139.3125 95.527344 C 139.175781 95.527344 139.035156 95.386719 139.035156 95.246094 C 139.035156 95.109375 139.175781 94.96875 139.3125 94.96875 L 172.511719 94.96875 C 172.652344 94.96875 172.792969 95.109375 172.792969 95.246094 C 172.792969 95.386719 172.652344 95.527344 172.511719 95.527344 Z M 172.511719 95.527344"/><path fill="#BDD6FF" d="M 166.488281 87.328125 L 119.492188 87.328125 C 119.351562 87.328125 119.214844 87.1875 119.214844 87.046875 C 119.214844 86.90625 119.351562 86.765625 119.492188 86.765625 L 166.488281 86.765625 C 166.628906 86.765625 166.769531 86.90625 166.769531 87.046875 C 166.769531 87.1875 166.628906 87.328125 166.488281 87.328125 Z M 166.488281 87.328125"/><path fill="#BDD6FF" d="M 146.175781 79.058594 C 146.039062 79.058594 145.898438 78.917969 145.898438 78.777344 L 145.898438 71.769531 C 145.898438 71.628906 146.039062 71.488281 146.175781 71.488281 C 146.316406 71.488281 146.457031 71.628906 146.457031 71.769531 L 146.457031 78.777344 C 146.386719 78.988281 146.316406 79.058594 146.175781 79.058594 Z M 146.175781 79.058594"/><path fill="#BDD6FF" d="M 157.804688 87.328125 C 157.664062 87.328125 157.523438 87.1875 157.523438 87.046875 L 157.523438 78.777344 C 157.523438 78.636719 157.664062 78.496094 157.804688 78.496094 C 157.945312 78.496094 158.085938 78.636719 158.085938 78.777344 L 158.085938 87.046875 C 158.085938 87.1875 157.945312 87.328125 157.804688 87.328125 Z M 157.804688 87.328125"/><path fill="#BDD6FF" d="M 148.980469 95.246094 C 148.839844 95.246094 148.699219 95.109375 148.699219 94.96875 L 148.699219 86.976562 C 148.699219 86.835938 148.839844 86.695312 148.980469 86.695312 C 149.121094 86.695312 149.257812 86.835938 149.257812 86.976562 L 149.257812 94.96875 C 149.1875 95.175781 149.121094 95.246094 148.980469 95.246094 Z M 148.980469 95.246094"/><path fill="#BDD6FF" d="M 359.164062 150.964844 L 325.964844 150.964844 C 325.824219 150.964844 325.683594 150.828125 325.683594 150.6875 C 325.683594 150.546875 325.824219 150.40625 325.964844 150.40625 L 359.164062 150.40625 C 359.304688 150.40625 359.441406 150.546875 359.441406 150.6875 C 359.441406 150.828125 359.304688 150.964844 359.164062 150.964844 Z M 359.164062 150.964844"/><path fill="#BDD6FF" d="M 359.164062 167.4375 L 325.964844 167.4375 C 325.824219 167.4375 325.683594 167.296875 325.683594 167.15625 C 325.683594 167.015625 325.824219 166.875 325.964844 166.875 L 359.164062 166.875 C 359.304688 166.875 359.441406 167.015625 359.441406 167.15625 C 359.441406 167.296875 359.304688 167.4375 359.164062 167.4375 Z M 359.164062 167.4375"/><path fill="#BDD6FF" d="M 353.140625 159.167969 L 306.144531 159.167969 C 306.003906 159.167969 305.863281 159.027344 305.863281 158.886719 C 305.863281 158.746094 306.003906 158.605469 306.144531 158.605469 L 353.140625 158.605469 C 353.28125 158.605469 353.417969 158.746094 353.417969 158.886719 C 353.417969 159.027344 353.28125 159.167969 353.140625 159.167969 Z M 353.140625 159.167969"/><path fill="#BDD6FF" d="M 332.828125 150.964844 C 332.6875 150.964844 332.546875 150.828125 332.546875 150.6875 L 332.546875 143.675781 C 332.546875 143.539062 332.6875 143.398438 332.828125 143.398438 C 332.96875 143.398438 333.109375 143.539062 333.109375 143.675781 L 333.109375 150.6875 C 333.039062 150.828125 332.96875 150.964844 332.828125 150.964844 Z M 332.828125 150.964844"/><path fill="#BDD6FF" d="M 344.453125 159.167969 C 344.316406 159.167969 344.175781 159.027344 344.175781 158.886719 L 344.175781 150.6875 C 344.175781 150.546875 344.316406 150.40625 344.453125 150.40625 C 344.59375 150.40625 344.734375 150.546875 344.734375 150.6875 L 344.734375 158.886719 C 344.734375 159.027344 344.59375 159.167969 344.453125 159.167969 Z M 344.453125 159.167969"/><path fill="#BDD6FF" d="M 335.558594 167.15625 C 335.421875 167.15625 335.28125 167.015625 335.28125 166.875 L 335.28125 158.886719 C 335.28125 158.746094 335.421875 158.605469 335.558594 158.605469 C 335.699219 158.605469 335.839844 158.746094 335.839844 158.886719 L 335.839844 166.875 C 335.839844 167.015625 335.699219 167.15625 335.558594 167.15625 Z M 335.558594 167.15625"/><path fill="#BDD6FF" d="M 201.4375 197.644531 L 168.238281 197.644531 C 168.097656 197.644531 167.960938 197.503906 167.960938 197.363281 C 167.960938 197.222656 168.097656 197.082031 168.238281 197.082031 L 201.4375 197.082031 C 201.578125 197.082031 201.71875 197.222656 201.71875 197.363281 C 201.71875 197.503906 201.578125 197.644531 201.4375 197.644531 Z M 201.4375 197.644531"/><path fill="#BDD6FF" d="M 201.4375 214.113281 L 168.238281 214.113281 C 168.097656 214.113281 167.960938 213.976562 167.960938 213.835938 C 167.960938 213.695312 168.097656 213.554688 168.238281 213.554688 L 201.4375 213.554688 C 201.578125 213.554688 201.71875 213.695312 201.71875 213.835938 C 201.71875 213.976562 201.578125 214.113281 201.4375 214.113281 Z M 201.4375 214.113281"/><path fill="#BDD6FF" d="M 195.414062 205.914062 L 148.417969 205.914062 C 148.277344 205.914062 148.140625 205.773438 148.140625 205.632812 C 148.140625 205.496094 148.277344 205.355469 148.417969 205.355469 L 195.414062 205.355469 C 195.554688 205.355469 195.695312 205.496094 195.695312 205.632812 C 195.695312 205.773438 195.554688 205.914062 195.414062 205.914062 Z M 195.414062 205.914062"/><path fill="#BDD6FF" d="M 175.035156 197.644531 C 174.894531 197.644531 174.753906 197.503906 174.753906 197.363281 L 174.753906 190.355469 C 174.753906 190.214844 174.894531 190.074219 175.035156 190.074219 C 175.171875 190.074219 175.3125 190.214844 175.3125 190.355469 L 175.3125 197.363281 C 175.3125 197.574219 175.171875 197.644531 175.035156 197.644531 Z M 175.035156 197.644531"/><path fill="#BDD6FF" d="M 186.730469 205.914062 C 186.589844 205.914062 186.449219 205.773438 186.449219 205.632812 L 186.449219 197.433594 C 186.449219 197.292969 186.589844 197.152344 186.730469 197.152344 C 186.871094 197.152344 187.007812 197.292969 187.007812 197.433594 L 187.007812 205.632812 C 187.007812 205.773438 186.871094 205.914062 186.730469 205.914062 Z M 186.730469 205.914062"/><path fill="#BDD6FF" d="M 177.835938 213.835938 C 177.695312 213.835938 177.554688 213.695312 177.554688 213.554688 L 177.554688 205.5625 C 177.554688 205.425781 177.695312 205.285156 177.835938 205.285156 C 177.976562 205.285156 178.113281 205.425781 178.113281 205.5625 L 178.113281 213.554688 C 178.113281 213.765625 177.976562 213.835938 177.835938 213.835938 Z M 177.835938 213.835938"/><path fill="#FFF" d="M 100.511719 132.535156 L 111.4375 131.484375 C 113.121094 131.34375 114.589844 130.152344 115.011719 128.539062 L 121.453125 108.5625 C 122.226562 105.761719 119.984375 103.097656 117.113281 103.308594 L 104.433594 105.761719 C 102.753906 105.902344 101.285156 107.09375 100.863281 108.703125 L 96.171875 127.347656 C 95.398438 130.082031 97.640625 132.8125 100.511719 132.535156 Z M 100.511719 132.535156"/><path fill="#C6E2FA" d="M 109.984375 115.175781 C 110.136719 115.277344 110.257812 115.421875 110.34375 115.601562 C 110.425781 115.785156 110.472656 115.988281 110.476562 116.222656 C 110.476562 116.453125 110.441406 116.691406 110.359375 116.9375 C 110.28125 117.183594 110.167969 117.421875 110.015625 117.644531 C 109.867188 117.867188 109.695312 118.0625 109.496094 118.230469 C 109.296875 118.398438 109.09375 118.523438 108.878906 118.609375 C 108.664062 118.695312 108.453125 118.734375 108.253906 118.722656 C 108.054688 118.714844 107.878906 118.65625 107.722656 118.554688 C 107.570312 118.449219 107.449219 118.308594 107.363281 118.125 C 107.277344 117.945312 107.234375 117.738281 107.230469 117.507812 C 107.226562 117.277344 107.265625 117.035156 107.34375 116.789062 C 107.425781 116.542969 107.539062 116.308594 107.6875 116.085938 C 107.839844 115.859375 108.011719 115.664062 108.210938 115.496094 C 108.40625 115.332031 108.613281 115.203125 108.828125 115.117188 C 109.042969 115.035156 109.25 114.996094 109.453125 115.003906 C 109.652344 115.015625 109.828125 115.070312 109.984375 115.175781 Z M 109.984375 115.175781"/><g clip-path="url(#b)"><path fill="#060405" d="M 101.144531 268.152344 C 101.144531 267.589844 100.09375 208.507812 84.125 194.839844 C 81.53125 192.597656 78.589844 191.6875 75.507812 192.175781 C 61.152344 194.28125 52.1875 220.492188 50.4375 266.121094 C 50.367188 268.011719 50.367188 268.082031 50.296875 268.152344 L 49.945312 268.011719 L 49.59375 267.941406 C 49.59375 267.800781 49.664062 267.03125 49.664062 266.050781 C 50.714844 239.417969 55.410156 194.351562 75.300781 191.476562 C 78.660156 190.984375 81.742188 191.96875 84.472656 194.351562 C 100.722656 208.226562 101.703125 265.769531 101.773438 268.222656 Z M 101.144531 268.152344"/></g><g clip-path="url(#c)"><path fill="#0461FD" d="M 162.707031 268.152344 L 137.28125 268.152344 C 137.28125 268.152344 137.28125 268.082031 137.28125 268.011719 C 137.28125 267.941406 137.28125 267.871094 137.28125 267.730469 C 137.351562 267.171875 137.421875 265.980469 137.492188 264.507812 C 137.632812 261.214844 137.84375 256.445312 137.984375 253.363281 L 153.601562 253.363281 L 153.601562 256.097656 C 153.601562 256.097656 160.605469 258.691406 162.355469 264.4375 C 162.707031 265.628906 162.847656 266.820312 162.707031 268.152344 Z M 162.707031 268.152344"/></g><g clip-path="url(#d)"><path fill="#060405" d="M 162.707031 268.152344 L 137.28125 268.152344 C 137.28125 268.152344 137.28125 268.082031 137.28125 268.011719 C 137.28125 267.941406 137.28125 267.871094 137.28125 267.730469 C 137.351562 267.171875 137.421875 265.980469 137.492188 264.507812 L 162.355469 264.507812 C 162.707031 265.628906 162.847656 266.820312 162.707031 268.152344 Z M 162.707031 268.152344"/></g><g clip-path="url(#e)"><path fill="#0461FD" d="M 124.605469 268.152344 L 99.183594 268.152344 C 99.183594 268.152344 99.183594 268.082031 99.183594 268.011719 C 99.183594 267.941406 99.183594 267.871094 99.183594 267.730469 C 99.253906 267.171875 99.324219 265.980469 99.390625 264.507812 C 99.53125 261.214844 99.742188 256.445312 99.882812 253.363281 L 115.5 253.363281 L 115.5 256.097656 C 115.5 256.097656 122.503906 258.691406 124.253906 264.4375 C 124.605469 265.628906 124.746094 266.820312 124.605469 268.152344 Z M 124.605469 268.152344"/></g><g clip-path="url(#f)"><path fill="#060405" d="M 124.605469 268.152344 L 99.183594 268.152344 C 99.183594 268.152344 99.183594 268.082031 99.183594 268.011719 C 99.183594 267.941406 99.183594 267.871094 99.183594 267.730469 C 99.253906 267.171875 99.324219 265.980469 99.390625 264.507812 L 124.253906 264.507812 C 124.605469 265.628906 124.746094 266.820312 124.605469 268.152344 Z M 124.605469 268.152344"/></g><path fill="#FFF" d="M 87.207031 218.039062 C 0.640625 237.453125 8.902344 121.039062 44.0625 106.320312 C 54.917969 101.765625 65.214844 111.929688 77.402344 143.257812 C 91.617188 179.632812 91.339844 204.511719 101.703125 206.195312 C 109.898438 216.078125 87.207031 218.039062 87.207031 218.039062 Z M 87.207031 218.039062"/><path fill="#060405" d="M 68.925781 220.5625 C 59.191406 220.5625 50.644531 218.460938 43.433594 214.253906 C 33.625 208.507812 26.273438 198.835938 22.28125 186.21875 C 12.546875 155.734375 23.75 114.523438 43.992188 106.042969 C 47.355469 104.640625 50.507812 104.640625 53.65625 105.972656 C 61.570312 109.335938 69.207031 121.109375 77.820312 143.1875 C 83.5625 157.976562 86.925781 170.800781 89.65625 181.105469 C 93.578125 195.960938 95.890625 205.003906 101.84375 205.914062 L 101.984375 205.914062 L 102.054688 205.984375 C 103.804688 208.085938 104.296875 210.050781 103.59375 211.730469 C 101.351562 217.058594 88.1875 218.25 87.347656 218.320312 C 80.761719 219.792969 74.597656 220.5625 68.925781 220.5625 Z M 48.894531 105.621094 C 47.355469 105.621094 45.8125 105.972656 44.203125 106.601562 C 24.242188 115.011719 13.246094 155.734375 22.910156 185.941406 C 27.253906 199.535156 38.738281 219.863281 68.785156 219.863281 C 74.25 219.863281 80.34375 219.160156 87.136719 217.6875 L 87.207031 217.6875 C 87.347656 217.6875 100.863281 216.496094 102.894531 211.523438 C 103.523438 210.050781 103.035156 208.4375 101.5625 206.546875 C 95.261719 205.425781 92.878906 196.242188 88.957031 181.246094 C 86.226562 170.941406 82.933594 158.1875 77.121094 143.398438 C 68.574219 121.53125 61.011719 109.824219 53.378906 106.53125 C 51.90625 105.902344 50.4375 105.621094 48.894531 105.621094 Z M 48.894531 105.621094"/><path fill="#D2E4FF" d="M 44.203125 171.640625 C 43.222656 176.617188 42.242188 181.734375 42.589844 186.851562 C 42.941406 191.96875 44.832031 197.082031 48.613281 200.519531 C 51.835938 203.390625 56.179688 204.792969 60.519531 205.003906 C 64.863281 205.214844 69.136719 204.371094 73.339844 203.179688 C 75.300781 202.621094 77.261719 202.058594 79.292969 201.851562 C 81.324219 201.710938 83.421875 201.988281 85.105469 203.109375 C 86.785156 204.234375 87.90625 206.335938 87.554688 208.296875 C 87.414062 208.929688 87.136719 209.628906 87.347656 210.261719 C 87.625 211.101562 88.675781 211.453125 89.515625 211.242188 C 90.359375 211.03125 90.988281 210.332031 91.546875 209.628906 C 94.839844 205.214844 94.699219 198.554688 91.128906 194.351562 C 89.027344 191.828125 85.875 190.144531 84.054688 187.410156 C 82.511719 185.097656 82.023438 182.226562 80.273438 180.121094 C 78.382812 177.808594 75.300781 176.828125 72.359375 176.617188 C 69.417969 176.410156 66.472656 176.96875 63.464844 177.25 C 54.359375 178.160156 53.238281 175.148438 48.824219 173.113281 C 46.792969 172.132812 44.203125 171.851562 42.453125 173.253906"/><path fill="#060405" d="M 43.152344 178.511719 C 43.152344 178.511719 44.550781 195.050781 51.207031 198.765625 C 58.492188 202.832031 80.972656 202.902344 80.972656 202.902344 L 96.660156 254.695312 C 96.660156 257.148438 117.390625 257.148438 117.390625 254.695312 C 117.390625 254.695312 104.433594 179.703125 96.101562 175.707031 C 85.386719 170.730469 43.152344 178.511719 43.152344 178.511719 Z M 43.152344 178.511719"/><path fill="#060405" d="M 107.65625 201.851562 L 137.28125 254.484375 C 137.28125 256.65625 154.160156 256.726562 154.160156 254.554688 C 154.160156 254.554688 130 181.175781 121.59375 177.25 C 110.949219 172.203125 69.207031 177.601562 69.207031 177.601562 C 69.207031 177.601562 66.125 193.089844 75.789062 198.484375"/><path fill="#FE6021" d="M 124.046875 131.0625 L 124.046875 140.03125 C 124.046875 142.417969 125.375 144.589844 127.265625 145.710938 C 128.246094 146.269531 129.4375 146.621094 130.628906 146.621094 C 134.269531 146.621094 137.210938 143.675781 137.210938 140.03125 L 137.210938 131.0625 Z M 124.046875 131.0625"/><path fill="#FFF" d="M 119.914062 143.328125 L 120.195312 149.285156 C 120.195312 149.285156 123.625 146.480469 124.746094 146.339844 C 125.9375 146.199219 127.335938 145.710938 127.335938 145.710938 C 125.375 144.589844 124.117188 142.484375 124.117188 140.03125 L 124.117188 138.5625 C 124.675781 139.050781 125.796875 139.753906 126.285156 138.839844 C 126.917969 137.789062 125.726562 135.40625 124.117188 134.636719 C 123.695312 134.425781 123.34375 134.355469 122.925781 134.355469 C 120.753906 134.496094 119.914062 143.328125 119.914062 143.328125 Z M 119.914062 143.328125"/><path fill="#060405" d="M 119.84375 150.054688 L 119.5625 143.398438 C 119.703125 141.855469 120.613281 134.285156 122.855469 134.074219 C 123.34375 134.003906 123.765625 134.144531 124.253906 134.355469 C 125.304688 134.847656 126.285156 136.109375 126.636719 137.371094 C 126.847656 138.070312 126.847656 138.703125 126.566406 139.121094 C 126.355469 139.472656 126.078125 139.683594 125.726562 139.683594 C 125.304688 139.753906 124.886719 139.613281 124.394531 139.332031 L 124.394531 140.101562 C 124.394531 142.277344 125.585938 144.378906 127.476562 145.429688 L 127.617188 145.5 L 127.617188 145.921875 L 127.40625 145.992188 C 127.335938 145.992188 125.9375 146.480469 124.746094 146.621094 C 123.976562 146.691406 121.664062 148.445312 120.332031 149.496094 Z M 120.261719 143.328125 L 120.472656 148.582031 C 121.523438 147.742188 123.765625 146.0625 124.675781 145.992188 C 125.304688 145.921875 126.007812 145.710938 126.496094 145.570312 C 124.746094 144.308594 123.695312 142.207031 123.695312 140.03125 L 123.695312 137.789062 L 124.253906 138.28125 C 124.816406 138.703125 125.304688 138.980469 125.585938 138.910156 C 125.65625 138.910156 125.796875 138.839844 125.9375 138.632812 C 126.078125 138.351562 126.078125 137.929688 125.9375 137.441406 C 125.65625 136.527344 124.886719 135.335938 123.90625 134.847656 C 123.554688 134.636719 123.207031 134.566406 122.855469 134.636719 C 121.664062 134.777344 120.613281 139.824219 120.261719 143.328125 Z M 120.261719 143.328125"/><path fill="#6193F6" d="M 120.683594 137.511719 L 122.363281 149.707031 C 122.363281 149.707031 93.4375 162.109375 85.386719 156.433594 C 76.910156 150.40625 79.292969 115.433594 78.941406 114.589844 C 79.570312 114.242188 83.914062 107.792969 85.386719 106.671875 C 89.726562 108.214844 91.058594 109.964844 94 114.941406 C 97.292969 120.621094 101.214844 138.703125 101.214844 138.703125 Z M 120.683594 137.511719"/><path fill="#060405" d="M 78.941406 114.523438 C 78.941406 114.589844 78.871094 114.589844 78.941406 114.523438 Z M 78.941406 114.523438"/><path fill="#6193F6" d="M 88.886719 108.214844 C 80.273438 100.082031 56.527344 103.027344 46.652344 116.414062 C 35.796875 131.0625 43.152344 178.089844 43.152344 178.089844 C 43.222656 184.539062 95.332031 179.492188 95.261719 173.042969 C 95.261719 173.042969 96.3125 115.222656 88.886719 108.214844 Z M 88.886719 108.214844"/><path fill="#060405" d="M 100.164062 132.882812 C 98.832031 132.882812 97.570312 132.324219 96.730469 131.273438 C 95.820312 130.152344 95.46875 128.609375 95.890625 127.207031 L 100.582031 108.632812 C 101.074219 106.882812 102.683594 105.550781 104.503906 105.410156 L 117.183594 103.027344 C 118.652344 102.886719 120.125 103.519531 121.035156 104.640625 C 121.945312 105.761719 122.292969 107.300781 121.875 108.703125 L 115.429688 128.679688 C 114.941406 130.429688 113.398438 131.761719 111.507812 131.902344 L 100.582031 132.953125 C 100.441406 132.882812 100.304688 132.882812 100.164062 132.882812 Z M 100.511719 132.535156 Z M 117.53125 103.660156 C 117.390625 103.660156 117.320312 103.660156 117.183594 103.660156 L 104.503906 106.042969 C 102.964844 106.179688 101.632812 107.300781 101.214844 108.773438 L 96.519531 127.347656 C 96.171875 128.539062 96.449219 129.800781 97.222656 130.78125 C 97.992188 131.761719 99.183594 132.253906 100.441406 132.113281 L 111.367188 131.0625 C 112.910156 130.921875 114.242188 129.800781 114.660156 128.328125 L 121.105469 108.355469 C 121.453125 107.164062 121.175781 105.902344 120.402344 104.917969 C 119.632812 104.148438 118.652344 103.660156 117.53125 103.660156 Z M 117.53125 103.660156"/><path fill="#C6E2FA" d="M 117.253906 106.320312 C 117.183594 106.390625 117.042969 106.390625 116.972656 106.460938 C 114.03125 107.652344 110.179688 108.773438 107.867188 110.878906 C 105.484375 113.050781 103.175781 116.554688 103.804688 119.707031 C 103.945312 120.339844 106.1875 123.703125 105.625 125.105469 C 103.246094 130.78125 98.34375 129.730469 98.34375 129.730469 L 103.035156 111.15625 C 103.523438 109.546875 104.925781 108.355469 106.605469 108.214844 L 117.042969 106.25 C 117.113281 106.320312 117.113281 106.320312 117.183594 106.320312 C 117.183594 106.25 117.253906 106.320312 117.253906 106.320312 Z M 117.253906 106.320312"/><path fill="#060405" d="M 98.339844 130.011719 C 98.339844 130.011719 98.273438 130.011719 98.273438 130.011719 C 98.0625 129.941406 97.992188 129.800781 97.992188 129.589844 L 102.683594 111.015625 C 103.175781 109.195312 104.714844 107.933594 106.605469 107.792969 L 116.972656 105.832031 C 117.183594 105.832031 117.320312 105.902344 117.390625 106.109375 C 117.460938 106.320312 117.320312 106.460938 117.113281 106.53125 L 106.675781 108.496094 C 105.066406 108.632812 103.804688 109.6875 103.382812 111.226562 L 98.691406 129.800781 C 98.621094 129.941406 98.480469 130.011719 98.339844 130.011719 Z M 98.339844 130.011719"/><path fill="#FFF" d="M 98.339844 130.851562 L 91.828125 136.808594 L 89.445312 126.15625 L 92.667969 121.878906 C 92.667969 121.878906 96.941406 110.527344 99.742188 113.261719 L 98.34375 119.148438 C 98.34375 119.148438 109.335938 113.121094 109.757812 121.742188 C 110.109375 130.429688 98.339844 130.851562 98.339844 130.851562 Z M 98.339844 130.851562"/><path fill="#060405" d="M 91.546875 137.511719 L 89.027344 126.085938 L 92.320312 121.742188 C 92.738281 120.6875 95.679688 113.191406 98.410156 112.558594 C 98.972656 112.417969 99.53125 112.628906 99.953125 113.050781 L 100.09375 113.191406 L 98.832031 118.585938 C 100.511719 117.746094 105.066406 115.851562 107.867188 117.394531 C 109.269531 118.167969 109.96875 119.636719 110.109375 121.8125 C 110.25 123.984375 109.546875 125.875 108.21875 127.347656 C 105.136719 130.710938 99.53125 131.132812 98.550781 131.203125 Z M 89.796875 126.296875 L 91.96875 136.179688 L 98.132812 130.570312 L 98.273438 130.570312 C 98.34375 130.570312 104.503906 130.292969 107.585938 126.925781 C 108.847656 125.59375 109.40625 123.84375 109.335938 121.878906 C 109.269531 119.988281 108.636719 118.726562 107.445312 118.097656 C 104.363281 116.34375 98.480469 119.566406 98.410156 119.636719 L 97.710938 119.988281 L 99.253906 113.46875 C 98.972656 113.261719 98.761719 113.191406 98.480469 113.261719 C 96.449219 113.679688 93.789062 119.777344 92.878906 122.019531 L 92.808594 122.089844 Z M 89.796875 126.296875"/><path fill="#6193F6" d="M 94 137.511719 C 94 137.511719 79.292969 176.546875 56.808594 170.378906 C 41.679688 166.246094 36.917969 130.011719 45.882812 117.957031 C 58.699219 100.785156 63.53125 142.207031 63.53125 142.207031 L 89.375 124.824219 Z M 94 137.511719"/><path fill="#060405" d="M 94 137.859375 C 93.859375 137.859375 93.71875 137.789062 93.648438 137.648438 L 89.375 125.945312 C 89.308594 125.734375 89.375 125.59375 89.585938 125.523438 C 89.796875 125.457031 89.9375 125.523438 90.007812 125.734375 L 94.28125 137.441406 C 94.351562 137.648438 94.28125 137.789062 94.070312 137.859375 C 94.070312 137.859375 94.070312 137.859375 94 137.859375 Z M 94 137.859375"/><path fill="#060405" d="M 56.808594 170.730469 C 56.808594 170.730469 56.738281 170.730469 56.738281 170.730469 C 47.773438 168.277344 43.082031 155.664062 41.542969 144.730469 C 41.542969 144.519531 41.679688 144.378906 41.820312 144.308594 C 42.03125 144.308594 42.171875 144.449219 42.242188 144.589844 C 43.640625 154.890625 48.265625 167.648438 56.878906 170.03125 C 57.089844 170.101562 57.160156 170.242188 57.160156 170.449219 C 57.089844 170.660156 56.949219 170.730469 56.808594 170.730469 Z M 56.808594 170.730469"/><path fill="#060405" d="M 74.878906 166.246094 C 74.808594 166.246094 74.667969 166.175781 74.597656 166.105469 C 74.457031 165.964844 74.527344 165.753906 74.667969 165.613281 C 83.003906 159.097656 89.027344 147.8125 91.828125 141.644531 C 91.898438 141.433594 92.109375 141.363281 92.320312 141.503906 C 92.527344 141.574219 92.597656 141.785156 92.457031 141.996094 C 89.585938 148.164062 83.5625 159.585938 75.089844 166.246094 C 75.019531 166.246094 74.949219 166.246094 74.878906 166.246094 Z M 74.878906 166.246094"/><path fill="#060405" d="M 56.738281 170.730469 C 56.527344 170.660156 56.460938 170.519531 56.460938 170.3125 C 56.460938 170.101562 56.667969 170.03125 56.878906 170.03125 C 61.222656 171.222656 65.632812 170.730469 69.90625 168.628906 C 70.328125 168.417969 70.605469 169.050781 70.1875 169.257812 C 65.914062 171.363281 61.363281 171.992188 56.738281 170.730469 Z M 56.738281 170.730469"/><path fill="#060405" d="M 62.691406 139.050781 C 61.992188 134.777344 60.519531 126.648438 58 120.828125 C 57.929688 120.621094 58 120.480469 58.210938 120.339844 C 58.421875 120.269531 58.558594 120.339844 58.699219 120.550781 C 61.222656 126.4375 62.761719 134.566406 63.394531 138.910156 C 63.394531 139.121094 63.324219 139.261719 63.113281 139.332031 C 62.902344 139.402344 62.761719 139.261719 62.691406 139.050781 Z M 62.691406 139.050781"/><path fill="#060405" d="M 65.425781 140.945312 C 65.285156 140.804688 65.355469 140.59375 65.492188 140.453125 L 87.136719 125.945312 C 87.277344 125.804688 87.484375 125.875 87.625 126.015625 C 87.765625 126.15625 87.695312 126.367188 87.554688 126.507812 L 65.914062 141.015625 C 65.773438 141.15625 65.492188 141.085938 65.425781 140.945312 Z M 65.425781 140.945312"/><g clip-path="url(#g)"><path fill="#060405" d="M 69.277344 268.152344 C 69.277344 267.660156 68.296875 215.9375 53.585938 203.25 C 51.066406 201.078125 48.195312 200.167969 45.113281 200.589844 C 31.59375 202.410156 23.191406 225.75 21.582031 266.257812 C 21.511719 267.941406 21.511719 268.011719 21.441406 268.082031 L 20.808594 267.800781 L 21.160156 267.941406 L 20.808594 267.871094 C 20.808594 267.730469 20.878906 267.101562 20.878906 266.1875 C 21.859375 242.5 26.273438 202.410156 45.042969 199.816406 C 48.335938 199.398438 51.347656 200.308594 54.078125 202.621094 C 68.996094 215.445312 69.976562 265.910156 70.046875 268.011719 Z M 69.277344 268.152344"/></g><path fill="#060405" d="M 95.332031 157.625 C 95.121094 157.625 94.980469 157.484375 94.980469 157.273438 L 94.769531 139.050781 C 94.769531 138.839844 94.910156 138.703125 95.121094 138.703125 C 95.332031 138.703125 95.46875 138.839844 95.46875 139.050781 L 95.679688 157.273438 C 95.679688 157.414062 95.46875 157.625 95.332031 157.625 Z M 95.332031 157.625"/><path fill="#FFF" d="M 76.421875 98.402344 C 76.421875 98.402344 70.746094 100.363281 77.890625 104.710938 C 78.660156 107.234375 75.859375 118.375 63.464844 106.042969 C 63.464844 106.042969 65.632812 90.480469 67.316406 87.890625 C 68.996094 85.4375 76.421875 98.402344 76.421875 98.402344 Z M 76.421875 98.402344"/><path fill="#060405" d="M 73.058594 112.140625 C 70.886719 112.140625 67.664062 110.808594 63.183594 106.390625 L 63.042969 106.25 L 63.042969 106.109375 C 63.113281 105.480469 65.285156 90.410156 66.964844 87.820312 C 67.175781 87.46875 67.523438 87.328125 67.875 87.328125 C 70.398438 87.398438 76 97.140625 76.628906 98.261719 L 76.839844 98.613281 L 76.421875 98.753906 C 76.421875 98.753906 74.667969 99.382812 74.527344 100.644531 C 74.390625 101.695312 75.578125 103.027344 77.960938 104.5 L 78.101562 104.570312 L 78.171875 104.710938 C 78.660156 106.25 77.960938 110.035156 75.4375 111.578125 C 74.878906 111.859375 74.109375 112.140625 73.058594 112.140625 Z M 63.8125 105.972656 C 69.90625 112 73.339844 111.929688 75.089844 110.878906 C 77.261719 109.546875 77.820312 106.25 77.539062 104.988281 C 75.019531 103.378906 73.757812 101.90625 73.898438 100.574219 C 74.039062 99.3125 75.230469 98.613281 75.859375 98.261719 C 73.476562 94.195312 69.417969 88.027344 67.875 88.027344 C 67.804688 88.027344 67.664062 88.027344 67.59375 88.238281 C 66.125 90.480469 64.09375 104.289062 63.8125 105.972656 Z M 63.8125 105.972656"/><path fill="#FFF" d="M 65.914062 90.761719 C 67.105469 94.757812 73.828125 101.976562 80.132812 99.664062 C 88.328125 96.578125 93.578125 74.640625 84.265625 69.105469 C 78.171875 65.460938 63.671875 83.050781 65.914062 90.761719 Z M 65.914062 90.761719"/><path fill="#060405" d="M 77.539062 100.433594 C 76.140625 100.433594 74.597656 100.082031 73.128906 99.3125 C 69.347656 97.421875 66.335938 93.496094 65.5625 90.832031 C 64.023438 85.503906 70.117188 75.695312 76.351562 70.859375 C 79.640625 68.335938 82.511719 67.5625 84.402344 68.683594 C 88.1875 70.925781 90.007812 76.042969 89.445312 82.703125 C 88.816406 89.570312 85.386719 97.980469 80.273438 99.875 C 79.363281 100.292969 78.449219 100.433594 77.539062 100.433594 Z M 76.769531 71.488281 C 70.816406 76.113281 64.792969 85.714844 66.265625 90.691406 C 66.964844 93.144531 69.90625 96.929688 73.476562 98.753906 C 75.71875 99.875 78.03125 100.082031 79.992188 99.382812 C 84.195312 97.839844 88.046875 90.480469 88.746094 82.773438 C 89.308594 76.394531 87.625 71.488281 84.054688 69.386719 C 81.882812 68.054688 78.730469 69.945312 76.769531 71.488281 Z M 76.769531 71.488281"/><path fill="#060405" d="M 72.636719 65.882812 C 72.636719 65.882812 71.65625 59.855469 67.523438 57.472656 C 63.394531 55.089844 60.3125 58.59375 60.3125 58.59375 C 60.3125 58.59375 58.421875 53.476562 53.515625 55.019531 C 48.613281 56.558594 50.714844 62.9375 50.714844 62.9375 C 50.714844 62.9375 46.164062 62.65625 44.132812 67.214844 C 42.101562 71.769531 47.285156 76.746094 51.554688 71.066406 C 51.554688 71.066406 53.726562 74.78125 59.121094 71.207031 C 59.121094 71.207031 58.210938 78.425781 63.742188 77.164062 C 69.277344 75.902344 72.636719 65.882812 72.636719 65.882812 Z M 72.636719 65.882812"/><path fill="#060405" d="M 66.195312 91.671875 C 66.195312 91.671875 68.015625 81.582031 74.25 80.25 C 80.480469 78.917969 82.441406 75.34375 82.792969 72.609375 C 82.375 73.800781 89.027344 78.285156 88.816406 84.664062 C 88.816406 84.664062 93.578125 78.636719 89.375 70.367188 C 86.503906 64.691406 81.601562 64.410156 81.601562 64.410156 C 81.601562 64.410156 76 57.332031 66.613281 66.023438 C 58.628906 73.449219 64.375 89.429688 66.195312 91.671875 Z M 66.195312 91.671875"/><path fill="#FE6021" d="M 62.34375 78.148438 C 62.0625 78.148438 61.851562 77.9375 61.851562 77.65625 C 61.152344 65.460938 71.585938 61.886719 71.65625 61.886719 C 71.9375 61.816406 72.21875 61.957031 72.289062 62.238281 C 72.359375 62.515625 72.21875 62.796875 71.9375 62.867188 C 71.515625 63.007812 62.203125 66.230469 62.832031 77.585938 C 62.832031 77.867188 62.621094 78.148438 62.34375 78.148438 Z M 62.34375 78.148438"/><path fill="#060405" d="M 77.46875 85.226562 C 77.46875 85.402344 77.445312 85.570312 77.390625 85.734375 C 77.335938 85.898438 77.261719 86.042969 77.164062 86.167969 C 77.0625 86.292969 76.949219 86.386719 76.820312 86.457031 C 76.691406 86.523438 76.558594 86.558594 76.421875 86.558594 C 76.28125 86.558594 76.148438 86.523438 76.019531 86.457031 C 75.890625 86.386719 75.777344 86.292969 75.675781 86.167969 C 75.578125 86.042969 75.503906 85.898438 75.449219 85.734375 C 75.394531 85.570312 75.371094 85.402344 75.371094 85.226562 C 75.371094 85.046875 75.394531 84.878906 75.449219 84.714844 C 75.503906 84.550781 75.578125 84.410156 75.675781 84.285156 C 75.777344 84.160156 75.890625 84.0625 76.019531 83.996094 C 76.148438 83.925781 76.28125 83.894531 76.421875 83.894531 C 76.558594 83.894531 76.691406 83.925781 76.820312 83.996094 C 76.949219 84.0625 77.0625 84.160156 77.164062 84.285156 C 77.261719 84.410156 77.335938 84.550781 77.390625 84.714844 C 77.445312 84.878906 77.46875 85.046875 77.46875 85.226562 Z M 77.46875 85.226562"/><path fill="#060405" d="M 84.964844 84.945312 C 84.964844 85.121094 84.9375 85.292969 84.882812 85.453125 C 84.832031 85.617188 84.753906 85.761719 84.65625 85.886719 C 84.558594 86.011719 84.445312 86.109375 84.316406 86.175781 C 84.1875 86.242188 84.054688 86.277344 83.914062 86.277344 C 83.773438 86.277344 83.640625 86.242188 83.511719 86.175781 C 83.382812 86.109375 83.269531 86.011719 83.171875 85.886719 C 83.074219 85.761719 82.996094 85.617188 82.945312 85.453125 C 82.890625 85.292969 82.863281 85.121094 82.863281 84.945312 C 82.863281 84.769531 82.890625 84.597656 82.945312 84.433594 C 82.996094 84.273438 83.074219 84.128906 83.171875 84.003906 C 83.269531 83.878906 83.382812 83.78125 83.511719 83.714844 C 83.640625 83.648438 83.773438 83.613281 83.914062 83.613281 C 84.054688 83.613281 84.1875 83.648438 84.316406 83.714844 C 84.445312 83.78125 84.558594 83.878906 84.65625 84.003906 C 84.753906 84.128906 84.832031 84.273438 84.882812 84.433594 C 84.9375 84.597656 84.964844 84.769531 84.964844 84.945312 Z M 84.964844 84.945312"/><path fill="#060405" d="M 79.78125 91.253906 L 79.363281 90.691406 C 79.710938 90.480469 80.0625 90.203125 80.273438 89.921875 C 80.410156 89.640625 80.550781 89.289062 80.34375 89.011719 C 80.273438 88.941406 80.203125 88.800781 80.0625 88.730469 C 79.921875 88.589844 79.78125 88.519531 79.640625 88.308594 C 79.363281 87.890625 79.363281 87.398438 79.363281 87.046875 L 79.363281 84.382812 L 80.0625 84.382812 L 80.0625 87.046875 C 80.0625 87.398438 80.0625 87.75 80.203125 87.957031 C 80.273438 88.027344 80.34375 88.097656 80.480469 88.238281 C 80.621094 88.378906 80.761719 88.519531 80.902344 88.660156 C 81.253906 89.21875 81.113281 89.851562 80.832031 90.339844 C 80.621094 90.691406 80.203125 90.972656 79.78125 91.253906 Z M 79.78125 91.253906"/><path fill="#060405" d="M 78.3125 96.089844 C 77.402344 96.089844 76.558594 95.667969 76 94.96875 L 76.558594 94.546875 C 77.050781 95.246094 78.03125 95.597656 78.800781 95.316406 L 79.011719 96.019531 C 78.800781 96.019531 78.519531 96.089844 78.3125 96.089844 Z M 78.3125 96.089844"/><path fill="#060405" d="M 148.105469 201.765625 L 148.796875 201.636719 L 156.4375 242.417969 L 155.75 242.546875 Z M 148.105469 201.765625"/><path fill="#060405" d="M 141.640625 167.445312 L 142.328125 167.316406 L 148.769531 201.691406 L 148.082031 201.820312 Z M 141.640625 167.445312"/><path fill="#060405" d="M 105.25 242.488281 L 119.359375 167.335938 L 120.046875 167.46875 L 105.941406 242.617188 Z M 105.25 242.488281"/><path fill="#060405" d="M 154.976562 162.472656 L 155.664062 162.34375 L 169.746094 237.5 L 169.058594 237.628906 Z M 154.976562 162.472656"/><path fill="#060405" d="M 118.652344 237.496094 L 132.757812 162.34375 L 133.445312 162.476562 L 119.339844 237.625 Z M 118.652344 237.496094"/><path fill="#0461FD" d="M 116.480469 165.753906 C 116.480469 169.1875 126.148438 171.921875 138.054688 171.921875 C 149.960938 171.921875 159.625 169.121094 159.625 165.753906 L 159.625 156.996094 C 159.625 160.429688 149.960938 163.160156 138.054688 163.160156 C 126.148438 163.160156 116.480469 160.359375 116.480469 156.996094 Z M 116.480469 165.753906"/><path fill="#FFF" d="M 159.625 156.996094 C 159.625 157.195312 159.589844 157.398438 159.519531 157.597656 C 159.453125 157.800781 159.347656 158 159.210938 158.199219 C 159.074219 158.394531 158.902344 158.589844 158.695312 158.785156 C 158.492188 158.976562 158.253906 159.167969 157.984375 159.355469 C 157.710938 159.542969 157.410156 159.722656 157.078125 159.902344 C 156.746094 160.078125 156.382812 160.253906 155.988281 160.421875 C 155.597656 160.589844 155.175781 160.75 154.726562 160.90625 C 154.28125 161.0625 153.804688 161.210938 153.308594 161.355469 C 152.808594 161.5 152.285156 161.632812 151.738281 161.761719 C 151.191406 161.890625 150.625 162.011719 150.039062 162.121094 C 149.449219 162.234375 148.84375 162.339844 148.222656 162.433594 C 147.597656 162.527344 146.960938 162.613281 146.308594 162.691406 C 145.65625 162.769531 144.992188 162.835938 144.316406 162.894531 C 143.640625 162.953125 142.953125 163.003906 142.261719 163.042969 C 141.570312 163.082031 140.871094 163.113281 140.167969 163.132812 C 139.464844 163.152344 138.761719 163.160156 138.054688 163.160156 C 137.347656 163.160156 136.640625 163.152344 135.9375 163.132812 C 135.234375 163.113281 134.539062 163.082031 133.84375 163.042969 C 133.152344 163.003906 132.46875 162.953125 131.792969 162.894531 C 131.117188 162.835938 130.449219 162.769531 129.796875 162.691406 C 129.144531 162.613281 128.507812 162.527344 127.882812 162.433594 C 127.261719 162.339844 126.65625 162.234375 126.070312 162.121094 C 125.480469 162.011719 124.914062 161.890625 124.367188 161.761719 C 123.820312 161.632812 123.300781 161.5 122.800781 161.355469 C 122.300781 161.210938 121.828125 161.0625 121.378906 160.90625 C 120.929688 160.75 120.507812 160.589844 120.117188 160.421875 C 119.722656 160.253906 119.363281 160.078125 119.027344 159.902344 C 118.695312 159.722656 118.394531 159.542969 118.125 159.355469 C 117.851562 159.167969 117.617188 158.976562 117.410156 158.785156 C 117.207031 158.589844 117.035156 158.394531 116.894531 158.199219 C 116.757812 158 116.65625 157.800781 116.585938 157.597656 C 116.515625 157.398438 116.480469 157.195312 116.480469 156.996094 C 116.480469 156.792969 116.515625 156.589844 116.585938 156.390625 C 116.65625 156.1875 116.757812 155.988281 116.894531 155.789062 C 117.035156 155.59375 117.207031 155.398438 117.410156 155.203125 C 117.617188 155.011719 117.851562 154.820312 118.125 154.632812 C 118.394531 154.449219 118.695312 154.265625 119.027344 154.085938 C 119.363281 153.910156 119.722656 153.734375 120.117188 153.566406 C 120.507812 153.398438 120.929688 153.238281 121.378906 153.082031 C 121.828125 152.925781 122.300781 152.777344 122.800781 152.632812 C 123.300781 152.488281 123.820312 152.355469 124.367188 152.226562 C 124.914062 152.097656 125.480469 151.976562 126.070312 151.867188 C 126.65625 151.753906 127.261719 151.648438 127.882812 151.554688 C 128.507812 151.460938 129.144531 151.375 129.796875 151.296875 C 130.449219 151.21875 131.117188 151.152344 131.792969 151.09375 C 132.46875 151.035156 133.152344 150.984375 133.84375 150.945312 C 134.539062 150.90625 135.234375 150.875 135.9375 150.855469 C 136.640625 150.835938 137.347656 150.828125 138.054688 150.828125 C 138.761719 150.828125 139.464844 150.835938 140.167969 150.855469 C 140.871094 150.875 141.570312 150.90625 142.261719 150.945312 C 142.953125 150.984375 143.640625 151.035156 144.316406 151.09375 C 144.992188 151.152344 145.65625 151.21875 146.308594 151.296875 C 146.960938 151.375 147.597656 151.460938 148.222656 151.554688 C 148.84375 151.648438 149.449219 151.753906 150.039062 151.867188 C 150.625 151.976562 151.191406 152.097656 151.738281 152.226562 C 152.285156 152.355469 152.808594 152.488281 153.308594 152.632812 C 153.804688 152.777344 154.28125 152.925781 154.726562 153.082031 C 155.175781 153.238281 155.597656 153.398438 155.988281 153.566406 C 156.382812 153.734375 156.746094 153.910156 157.078125 154.085938 C 157.410156 154.265625 157.710938 154.449219 157.984375 154.632812 C 158.253906 154.820312 158.492188 155.011719 158.695312 155.203125 C 158.902344 155.398438 159.074219 155.59375 159.210938 155.789062 C 159.347656 155.988281 159.453125 156.1875 159.519531 156.390625 C 159.589844 156.589844 159.625 156.792969 159.625 156.996094 Z M 159.625 156.996094"/><path fill="#060405" d="M 138.054688 163.582031 C 125.726562 163.582031 116.132812 160.707031 116.132812 157.0625 C 116.132812 153.417969 125.796875 150.546875 138.054688 150.546875 C 150.378906 150.546875 159.976562 153.417969 159.976562 157.0625 C 159.976562 160.707031 150.378906 163.582031 138.054688 163.582031 Z M 138.054688 151.175781 C 125.375 151.175781 116.832031 154.191406 116.832031 156.996094 C 116.832031 159.796875 125.375 162.8125 138.054688 162.8125 C 150.730469 162.8125 159.273438 159.796875 159.273438 156.996094 C 159.273438 154.191406 150.800781 151.175781 138.054688 151.175781 Z M 138.054688 151.175781"/><path fill="#060405" d="M 290.316406 238.433594 L 196.394531 238.433594 C 188.902344 238.433594 182.808594 232.335938 182.808594 224.839844 L 182.808594 35.882812 C 182.808594 28.386719 188.902344 22.289062 196.394531 22.289062 L 290.316406 22.289062 C 297.808594 22.289062 303.902344 28.386719 303.902344 35.882812 L 303.902344 224.910156 C 303.902344 232.40625 297.808594 238.433594 290.316406 238.433594 Z M 290.316406 238.433594"/><path fill="#060405" d="M 341.375 103.449219 L 337.171875 103.449219 L 337.171875 102.746094 L 341.375 102.746094 Z M 332.96875 103.449219 L 328.765625 103.449219 L 328.765625 102.746094 L 332.96875 102.746094 Z M 324.5625 103.449219 L 320.363281 103.449219 L 320.363281 102.746094 L 324.5625 102.746094 Z M 316.160156 103.449219 L 311.957031 103.449219 L 311.957031 102.746094 L 316.160156 102.746094 Z M 307.753906 103.449219 L 303.554688 103.449219 L 303.554688 102.746094 L 307.753906 102.746094 Z M 299.351562 103.449219 L 295.148438 103.449219 L 295.148438 102.746094 L 299.351562 102.746094 Z M 345.574219 102.328125 L 345.15625 101.765625 C 346.207031 100.925781 346.835938 99.734375 346.835938 98.402344 L 347.535156 98.402344 C 347.464844 100.015625 346.765625 101.414062 345.574219 102.328125 Z M 347.535156 94.265625 L 346.835938 94.265625 L 346.835938 90.0625 L 347.535156 90.0625 Z M 347.535156 85.855469 L 346.835938 85.855469 L 346.835938 81.652344 L 347.535156 81.652344 Z M 347.535156 77.445312 L 346.835938 77.445312 L 346.835938 73.242188 L 347.535156 73.242188 Z M 347.535156 77.445312"/><path fill="#060405" d="M 209.632812 106.042969 L 208.160156 106.042969 L 208.160156 105.339844 L 209.632812 105.339844 Z M 203.957031 106.042969 L 199.757812 106.042969 L 199.757812 105.339844 L 203.957031 105.339844 Z M 195.554688 106.042969 L 191.351562 106.042969 L 191.351562 105.339844 L 195.554688 105.339844 Z M 187.148438 106.042969 L 182.949219 106.042969 L 182.949219 105.339844 L 187.148438 105.339844 Z M 178.746094 106.042969 L 174.542969 106.042969 L 174.542969 105.339844 L 178.746094 105.339844 Z M 170.339844 106.042969 L 166.136719 106.042969 L 166.136719 105.339844 L 170.339844 105.339844 Z M 161.9375 106.042969 L 160.183594 106.042969 C 159.34375 106.042969 158.433594 105.832031 157.664062 105.410156 L 158.015625 104.78125 C 158.644531 105.128906 159.414062 105.339844 160.183594 105.339844 L 161.9375 105.339844 Z M 155.074219 101.90625 C 155.003906 101.554688 154.933594 101.207031 154.933594 100.855469 L 154.933594 97.628906 L 155.632812 97.628906 L 155.632812 100.855469 C 155.632812 101.136719 155.632812 101.484375 155.703125 101.765625 Z M 155.703125 93.425781 L 155.003906 93.425781 L 155.003906 89.21875 L 155.703125 89.21875 Z M 155.703125 85.015625 L 155.003906 85.015625 L 155.003906 80.808594 L 155.703125 80.808594 Z M 155.703125 76.605469 L 155.003906 76.605469 L 155.003906 72.398438 L 155.703125 72.398438 Z M 155.703125 68.195312 L 155.003906 68.195312 L 155.003906 63.988281 L 155.703125 63.988281 Z M 155.703125 59.785156 L 155.003906 59.785156 L 155.003906 55.578125 L 155.703125 55.578125 Z M 155.703125 59.785156"/><path fill="#FFF" d="M 182.808594 39.390625 L 303.902344 39.390625 L 303.902344 218.039062 L 182.808594 218.039062 Z M 182.808594 39.390625"/><path fill="#D2E4FF" d="M 273.648438 85.226562 L 272.804688 89.570312 L 267.695312 115.992188 C 267.34375 117.886719 265.664062 119.21875 263.769531 119.21875 L 219.367188 119.21875 C 217.40625 119.21875 215.796875 117.816406 215.445312 115.992188 L 210.332031 89.570312 L 209.492188 85.226562 Z M 273.648438 85.226562"/><path fill="#BDD6FF" d="M 278.828125 75.203125 L 278.828125 83.191406 C 278.828125 84.3125 277.917969 85.15625 276.796875 85.15625 L 206.339844 85.15625 C 205.148438 85.15625 204.308594 84.246094 204.308594 83.191406 L 204.308594 75.203125 C 204.308594 74.222656 205.078125 73.519531 205.988281 73.519531 L 277.148438 73.519531 C 278.058594 73.519531 278.828125 74.292969 278.828125 75.203125 Z M 278.828125 75.203125"/><path fill="#060405" d="M 246.820312 61.464844 L 246.820312 79.898438 C 246.820312 81.019531 245.910156 82 244.722656 82 L 238.417969 82 C 237.296875 82 236.316406 81.089844 236.316406 79.898438 L 236.316406 61.535156 C 236.316406 60.414062 237.226562 59.433594 238.417969 59.433594 L 244.789062 59.433594 C 245.910156 59.433594 246.820312 60.34375 246.820312 61.464844 Z M 246.820312 61.464844"/><path fill="#FFF" d="M 243.460938 77.726562 C 243.460938 77.976562 243.414062 78.21875 243.316406 78.449219 C 243.21875 78.683594 243.082031 78.886719 242.90625 79.0625 C 242.730469 79.242188 242.523438 79.378906 242.292969 79.472656 C 242.0625 79.570312 241.820312 79.617188 241.570312 79.617188 C 241.320312 79.617188 241.078125 79.570312 240.84375 79.472656 C 240.613281 79.378906 240.410156 79.242188 240.230469 79.0625 C 240.054688 78.886719 239.917969 78.683594 239.820312 78.449219 C 239.726562 78.21875 239.679688 77.976562 239.679688 77.726562 C 239.679688 77.476562 239.726562 77.234375 239.820312 77.003906 C 239.917969 76.769531 240.054688 76.566406 240.230469 76.386719 C 240.410156 76.210938 240.613281 76.074219 240.84375 75.976562 C 241.078125 75.882812 241.320312 75.832031 241.570312 75.832031 C 241.820312 75.832031 242.0625 75.882812 242.292969 75.976562 C 242.523438 76.074219 242.730469 76.210938 242.90625 76.386719 C 243.082031 76.566406 243.21875 76.769531 243.316406 77.003906 C 243.414062 77.234375 243.460938 77.476562 243.460938 77.726562 Z M 243.460938 77.726562"/><path fill="#FFF" d="M 258.730469 96.300781 L 258.730469 108.355469 C 258.730469 109.546875 257.746094 110.457031 256.628906 110.457031 C 255.507812 110.457031 254.527344 109.546875 254.527344 108.355469 L 254.527344 96.230469 C 254.527344 94.96875 255.71875 93.917969 257.046875 94.195312 C 258.027344 94.265625 258.730469 95.246094 258.730469 96.300781 Z M 258.730469 96.300781"/><path fill="#FFF" d="M 248.714844 96.300781 L 248.714844 108.355469 C 248.714844 109.546875 247.734375 110.457031 246.613281 110.457031 C 245.492188 110.457031 244.511719 109.546875 244.511719 108.355469 L 244.511719 96.230469 C 244.511719 94.96875 245.703125 93.917969 247.03125 94.195312 C 248.011719 94.265625 248.714844 95.246094 248.714844 96.300781 Z M 248.714844 96.300781"/><path fill="#FFF" d="M 238.699219 96.300781 L 238.699219 108.355469 C 238.699219 109.546875 237.71875 110.457031 236.597656 110.457031 C 235.476562 110.457031 234.496094 109.546875 234.496094 108.355469 L 234.496094 96.230469 C 234.496094 94.96875 235.6875 93.917969 237.015625 94.195312 C 237.996094 94.265625 238.699219 95.246094 238.699219 96.300781 Z M 238.699219 96.300781"/><path fill="#FFF" d="M 228.683594 96.230469 L 228.683594 108.285156 C 228.683594 109.476562 227.703125 110.386719 226.582031 110.386719 C 225.460938 110.386719 224.480469 109.476562 224.480469 108.285156 L 224.480469 96.160156 C 224.480469 94.757812 225.8125 93.707031 227.28125 94.195312 C 228.121094 94.476562 228.683594 95.316406 228.683594 96.230469 Z M 228.683594 96.230469"/><path fill="#C6E2FA" d="M 288.425781 166.316406 L 200.738281 166.316406 C 198.285156 166.316406 196.253906 164.351562 196.253906 161.832031 L 196.253906 140.875 C 196.253906 138.421875 198.214844 136.390625 200.738281 136.390625 L 288.425781 136.390625 C 290.875 136.390625 292.90625 138.351562 292.90625 140.875 L 292.90625 161.832031 C 292.90625 164.28125 290.945312 166.316406 288.425781 166.316406 Z M 288.425781 166.316406" fill-opacity=".298"/><path fill="#D2E4FF" d="M 286.253906 164.214844 L 198.496094 164.214844 C 196.042969 164.214844 194.011719 162.25 194.011719 159.726562 L 194.011719 138.773438 C 194.011719 136.320312 195.972656 134.285156 198.496094 134.285156 L 286.183594 134.285156 C 288.632812 134.285156 290.664062 136.25 290.664062 138.773438 L 290.664062 159.726562 C 290.734375 162.179688 288.703125 164.214844 286.253906 164.214844 Z M 286.253906 164.214844"/><path fill="#FFF" d="M 286.324219 141.363281 C 286.042969 141.644531 285.691406 141.644531 285.484375 141.363281 L 284.433594 140.3125 L 283.382812 141.363281 C 283.171875 141.644531 282.75 141.644531 282.542969 141.363281 C 282.261719 141.15625 282.261719 140.734375 282.542969 140.523438 L 283.59375 139.472656 L 282.542969 138.421875 C 282.261719 138.210938 282.261719 137.789062 282.542969 137.582031 C 282.75 137.371094 283.171875 137.371094 283.382812 137.582031 L 284.433594 138.632812 L 285.484375 137.582031 C 285.691406 137.300781 286.113281 137.300781 286.324219 137.582031 C 286.535156 137.789062 286.535156 138.210938 286.324219 138.421875 L 285.273438 139.472656 L 286.324219 140.523438 C 286.535156 140.734375 286.535156 141.15625 286.324219 141.363281 Z M 286.324219 141.363281"/><path fill="#FFF" d="M 220.417969 149.285156 C 220.417969 149.929688 220.355469 150.566406 220.230469 151.199219 C 220.105469 151.832031 219.917969 152.445312 219.671875 153.039062 C 219.425781 153.636719 219.121094 154.199219 218.765625 154.734375 C 218.40625 155.273438 218 155.765625 217.546875 156.222656 C 217.089844 156.679688 216.59375 157.085938 216.058594 157.441406 C 215.523438 157.800781 214.960938 158.101562 214.363281 158.351562 C 213.769531 158.597656 213.15625 158.78125 212.523438 158.910156 C 211.894531 159.035156 211.257812 159.097656 210.613281 159.097656 C 209.96875 159.097656 209.332031 159.035156 208.699219 158.910156 C 208.066406 158.78125 207.453125 158.597656 206.859375 158.351562 C 206.265625 158.101562 205.699219 157.800781 205.164062 157.441406 C 204.628906 157.085938 204.132812 156.679688 203.679688 156.222656 C 203.222656 155.765625 202.816406 155.273438 202.460938 154.734375 C 202.101562 154.199219 201.800781 153.636719 201.554688 153.039062 C 201.308594 152.445312 201.121094 151.832031 200.996094 151.199219 C 200.871094 150.566406 200.808594 149.929688 200.808594 149.285156 C 200.808594 148.640625 200.871094 148.003906 200.996094 147.371094 C 201.121094 146.738281 201.308594 146.125 201.554688 145.53125 C 201.800781 144.933594 202.101562 144.367188 202.460938 143.832031 C 202.816406 143.296875 203.222656 142.800781 203.679688 142.347656 C 204.132812 141.890625 204.628906 141.484375 205.164062 141.125 C 205.699219 140.769531 206.265625 140.464844 206.859375 140.21875 C 207.453125 139.972656 208.066406 139.785156 208.699219 139.660156 C 209.332031 139.535156 209.96875 139.472656 210.613281 139.472656 C 211.257812 139.472656 211.894531 139.535156 212.523438 139.660156 C 213.15625 139.785156 213.769531 139.972656 214.363281 140.21875 C 214.960938 140.464844 215.523438 140.769531 216.058594 141.125 C 216.59375 141.484375 217.089844 141.890625 217.546875 142.347656 C 218 142.800781 218.40625 143.296875 218.765625 143.832031 C 219.121094 144.367188 219.425781 144.933594 219.671875 145.53125 C 219.917969 146.125 220.105469 146.738281 220.230469 147.371094 C 220.355469 148.003906 220.417969 148.640625 220.417969 149.285156 Z M 220.417969 149.285156"/><path fill="#060405" d="M 207.671875 153.417969 L 205.289062 151.035156 C 204.871094 150.617188 204.871094 149.984375 205.289062 149.566406 C 205.710938 149.144531 206.339844 149.144531 206.761719 149.566406 L 208.441406 151.246094 L 214.535156 145.148438 C 214.953125 144.730469 215.585938 144.730469 216.003906 145.148438 C 216.425781 145.570312 216.425781 146.199219 216.003906 146.621094 L 209.210938 153.417969 C 208.722656 153.839844 208.019531 153.839844 207.671875 153.417969 Z M 207.671875 153.417969"/><path fill="#FFF" d="M 239.539062 144.027344 C 239.539062 144.519531 239.117188 144.9375 238.628906 144.9375 L 227.492188 144.9375 C 227 144.9375 226.582031 144.519531 226.582031 144.027344 C 226.582031 143.539062 227 143.117188 227.492188 143.117188 L 238.628906 143.117188 C 239.117188 143.117188 239.539062 143.539062 239.539062 144.027344 Z M 239.539062 144.027344"/><path fill="#FFF" d="M 245.492188 150.335938 C 245.492188 150.828125 245.070312 151.246094 244.582031 151.246094 L 227.421875 151.246094 C 226.929688 151.246094 226.511719 150.828125 226.511719 150.335938 C 226.511719 149.84375 226.929688 149.425781 227.421875 149.425781 L 244.582031 149.425781 C 245.070312 149.425781 245.492188 149.84375 245.492188 150.335938 Z M 245.492188 150.335938"/><path fill="#FFF" d="M 283.660156 150.335938 C 283.660156 150.828125 283.242188 151.246094 282.75 151.246094 L 249.902344 151.246094 C 249.414062 151.246094 248.992188 150.828125 248.992188 150.335938 C 248.992188 149.84375 249.414062 149.425781 249.902344 149.425781 L 282.75 149.425781 C 283.242188 149.425781 283.660156 149.84375 283.660156 150.335938 Z M 283.660156 150.335938"/><path fill="#FFF" d="M 238.628906 154.472656 C 238.628906 154.960938 238.207031 155.382812 237.71875 155.382812 L 227.421875 155.382812 C 226.929688 155.382812 226.511719 154.960938 226.511719 154.472656 C 226.511719 153.980469 226.929688 153.558594 227.421875 153.558594 L 237.71875 153.558594 C 238.277344 153.558594 238.628906 153.980469 238.628906 154.472656 Z M 238.628906 154.472656"/><path fill="#FFF" d="M 259.570312 154.472656 C 259.570312 154.960938 259.148438 155.382812 258.660156 155.382812 L 244.089844 155.382812 C 243.601562 155.382812 243.179688 154.960938 243.179688 154.472656 C 243.179688 153.980469 243.601562 153.558594 244.089844 153.558594 L 258.660156 153.558594 C 259.148438 153.558594 259.570312 153.980469 259.570312 154.472656 Z M 259.570312 154.472656"/><path fill="#C6E2FA" d="M 288.425781 204.234375 L 200.738281 204.234375 C 198.285156 204.234375 196.253906 202.269531 196.253906 199.746094 L 196.253906 178.792969 C 196.253906 176.339844 198.214844 174.304688 200.738281 174.304688 L 288.425781 174.304688 C 290.875 174.304688 292.90625 176.269531 292.90625 178.792969 L 292.90625 199.816406 C 292.90625 202.269531 290.945312 204.234375 288.425781 204.234375 Z M 288.425781 204.234375" fill-opacity=".298"/><path fill="#D2E4FF" d="M 286.253906 202.128906 L 198.496094 202.128906 C 196.042969 202.128906 194.011719 200.167969 194.011719 197.644531 L 194.011719 176.6875 C 194.011719 174.234375 195.972656 172.203125 198.496094 172.203125 L 286.183594 172.203125 C 288.632812 172.203125 290.664062 174.164062 290.664062 176.6875 L 290.664062 197.714844 C 290.734375 200.167969 288.703125 202.128906 286.253906 202.128906 Z M 286.253906 202.128906"/><path fill="#FFF" d="M 286.324219 179.351562 C 286.042969 179.632812 285.691406 179.632812 285.484375 179.351562 L 284.433594 178.300781 L 283.382812 179.351562 C 283.171875 179.632812 282.75 179.632812 282.542969 179.351562 C 282.261719 179.140625 282.261719 178.722656 282.542969 178.511719 L 283.59375 177.460938 L 282.542969 176.40625 C 282.261719 176.199219 282.261719 175.777344 282.542969 175.566406 C 282.75 175.355469 283.171875 175.355469 283.382812 175.566406 L 284.433594 176.617188 L 285.484375 175.566406 C 285.691406 175.285156 286.113281 175.285156 286.324219 175.566406 C 286.535156 175.777344 286.535156 176.199219 286.324219 176.40625 L 285.273438 177.460938 L 286.324219 178.511719 C 286.535156 178.722656 286.535156 179.070312 286.324219 179.351562 Z M 286.324219 179.351562"/><path fill="#FFF" d="M 220.417969 187.203125 C 220.417969 187.847656 220.355469 188.484375 220.230469 189.117188 C 220.105469 189.746094 219.917969 190.359375 219.671875 190.957031 C 219.425781 191.550781 219.121094 192.117188 218.765625 192.652344 C 218.40625 193.1875 218 193.683594 217.546875 194.140625 C 217.089844 194.59375 216.59375 195.003906 216.058594 195.359375 C 215.523438 195.71875 214.960938 196.019531 214.363281 196.265625 C 213.769531 196.511719 213.15625 196.699219 212.523438 196.824219 C 211.894531 196.949219 211.257812 197.015625 210.613281 197.015625 C 209.96875 197.015625 209.332031 196.949219 208.699219 196.824219 C 208.066406 196.699219 207.453125 196.511719 206.859375 196.265625 C 206.265625 196.019531 205.699219 195.71875 205.164062 195.359375 C 204.628906 195.003906 204.132812 194.59375 203.679688 194.140625 C 203.222656 193.683594 202.816406 193.1875 202.460938 192.652344 C 202.101562 192.117188 201.800781 191.550781 201.554688 190.957031 C 201.308594 190.359375 201.121094 189.746094 200.996094 189.117188 C 200.871094 188.484375 200.808594 187.847656 200.808594 187.203125 C 200.808594 186.558594 200.871094 185.917969 200.996094 185.289062 C 201.121094 184.65625 201.308594 184.042969 201.554688 183.445312 C 201.800781 182.851562 202.101562 182.285156 202.460938 181.75 C 202.816406 181.214844 203.222656 180.71875 203.679688 180.261719 C 204.132812 179.808594 204.628906 179.402344 205.164062 179.042969 C 205.699219 178.683594 206.265625 178.382812 206.859375 178.136719 C 207.453125 177.890625 208.066406 177.703125 208.699219 177.578125 C 209.332031 177.453125 209.96875 177.390625 210.613281 177.390625 C 211.257812 177.390625 211.894531 177.453125 212.523438 177.578125 C 213.15625 177.703125 213.769531 177.890625 214.363281 178.136719 C 214.960938 178.382812 215.523438 178.683594 216.058594 179.042969 C 216.59375 179.402344 217.089844 179.808594 217.546875 180.261719 C 218 180.71875 218.40625 181.214844 218.765625 181.75 C 219.121094 182.285156 219.425781 182.851562 219.671875 183.445312 C 219.917969 184.042969 220.105469 184.65625 220.230469 185.289062 C 220.355469 185.917969 220.417969 186.558594 220.417969 187.203125 Z M 220.417969 187.203125"/><path fill="#060405" d="M 207.671875 191.335938 L 205.289062 188.953125 C 204.871094 188.53125 204.871094 187.902344 205.289062 187.480469 C 205.710938 187.0625 206.339844 187.0625 206.761719 187.480469 L 208.441406 189.164062 L 214.535156 183.066406 C 214.953125 182.644531 215.585938 182.644531 216.003906 183.066406 C 216.425781 183.488281 216.425781 184.117188 216.003906 184.539062 L 209.210938 191.335938 C 208.722656 191.757812 208.019531 191.757812 207.671875 191.335938 Z M 207.671875 191.335938"/><path fill="#FFF" d="M 239.539062 181.945312 C 239.539062 182.4375 239.117188 182.855469 238.628906 182.855469 L 227.492188 182.855469 C 227 182.855469 226.582031 182.4375 226.582031 181.945312 C 226.582031 181.453125 227 181.035156 227.492188 181.035156 L 238.628906 181.035156 C 239.117188 181.035156 239.539062 181.453125 239.539062 181.945312 Z M 239.539062 181.945312"/><path fill="#FFF" d="M 245.492188 188.253906 C 245.492188 188.742188 245.070312 189.164062 244.582031 189.164062 L 227.421875 189.164062 C 226.929688 189.164062 226.511719 188.742188 226.511719 188.253906 C 226.511719 187.761719 226.929688 187.339844 227.421875 187.339844 L 244.582031 187.339844 C 245.070312 187.339844 245.492188 187.761719 245.492188 188.253906 Z M 245.492188 188.253906"/><path fill="#FFF" d="M 283.660156 188.253906 C 283.660156 188.742188 283.242188 189.164062 282.75 189.164062 L 249.902344 189.164062 C 249.414062 189.164062 248.992188 188.742188 248.992188 188.253906 C 248.992188 187.761719 249.414062 187.339844 249.902344 187.339844 L 282.75 187.339844 C 283.242188 187.339844 283.660156 187.761719 283.660156 188.253906 Z M 283.660156 188.253906"/><path fill="#FFF" d="M 238.628906 192.457031 C 238.628906 192.949219 238.207031 193.371094 237.71875 193.371094 L 227.421875 193.371094 C 226.929688 193.371094 226.511719 192.949219 226.511719 192.457031 C 226.511719 191.96875 226.929688 191.546875 227.421875 191.546875 L 237.71875 191.546875 C 238.277344 191.546875 238.628906 191.898438 238.628906 192.457031 Z M 238.628906 192.457031"/><path fill="#FFF" d="M 259.570312 192.457031 C 259.570312 192.949219 259.148438 193.371094 258.660156 193.371094 L 244.089844 193.371094 C 243.601562 193.371094 243.179688 192.949219 243.179688 192.457031 C 243.179688 191.96875 243.601562 191.546875 244.089844 191.546875 L 258.660156 191.546875 C 259.148438 191.546875 259.570312 191.898438 259.570312 192.457031 Z M 259.570312 192.457031"/><path fill="#060405" d="M 365.394531 73.242188 L 324.773438 73.242188 C 322.601562 73.242188 320.851562 71.488281 320.851562 69.316406 L 320.851562 28.664062 C 320.851562 26.492188 322.601562 24.742188 324.773438 24.742188 L 365.394531 24.742188 C 367.566406 24.742188 369.316406 26.492188 369.316406 28.664062 L 369.316406 69.316406 C 369.316406 71.488281 367.566406 73.242188 365.394531 73.242188 Z M 365.394531 73.242188"/><path fill="#FFF" d="M 359.652344 64.550781 L 330.449219 64.550781 C 329.117188 64.550781 327.996094 63.5 327.996094 62.097656 L 327.996094 45.765625 C 327.996094 44.433594 329.046875 43.3125 330.449219 43.3125 L 359.652344 43.3125 C 360.984375 43.3125 362.105469 44.363281 362.105469 45.765625 L 362.105469 62.097656 C 362.105469 63.429688 360.984375 64.550781 359.652344 64.550781 Z M 359.652344 64.550781"/><path fill="#060405" d="M 358.53125 60.90625 C 358.53125 61.394531 358.113281 61.816406 357.621094 61.816406 L 353.910156 61.816406 C 353.417969 61.816406 353 61.394531 353 60.90625 C 353 60.414062 353.417969 59.996094 353.910156 59.996094 L 357.621094 59.996094 C 358.113281 59.996094 358.53125 60.414062 358.53125 60.90625 Z M 358.53125 60.90625"/><path fill="#060405" d="M 336.890625 52.84375 L 331.917969 52.84375 C 331.777344 52.84375 331.566406 52.707031 331.566406 52.496094 L 331.566406 47.519531 C 331.566406 47.378906 331.707031 47.167969 331.917969 47.167969 L 336.890625 47.167969 C 337.03125 47.167969 337.242188 47.308594 337.242188 47.519531 L 337.242188 52.496094 C 337.242188 52.707031 337.101562 52.84375 336.890625 52.84375 Z M 336.890625 52.84375"/><path fill="#060405" d="M 344.59375 56.558594 C 344.59375 57.050781 344.175781 57.542969 343.613281 57.542969 L 339.0625 57.542969 C 338.570312 57.542969 338.152344 57.121094 338.152344 56.558594 C 338.152344 56 338.992188 55.578125 339.550781 55.578125 L 343.613281 55.578125 C 344.175781 55.578125 344.59375 56 344.59375 56.558594 Z M 344.59375 56.558594"/><path fill="#060405" d="M 337.242188 56.488281 C 337.242188 56.980469 336.820312 57.472656 336.261719 57.472656 L 331.707031 57.472656 C 331.21875 57.472656 330.726562 57.050781 330.726562 56.488281 C 330.726562 56 331.566406 55.507812 332.128906 55.507812 L 336.191406 55.507812 C 336.820312 55.507812 337.242188 55.929688 337.242188 56.488281 Z M 337.242188 56.488281"/><path fill="#060405" d="M 351.949219 56.558594 C 351.949219 57.050781 351.527344 57.542969 350.96875 57.542969 L 346.484375 57.542969 C 345.996094 57.542969 345.503906 57.121094 345.503906 56.558594 C 345.503906 56 346.347656 55.578125 346.90625 55.578125 L 350.96875 55.578125 C 351.527344 55.578125 351.949219 56 351.949219 56.558594 Z M 351.949219 56.558594"/><path fill="#060405" d="M 359.304688 56.558594 C 359.304688 57.050781 358.882812 57.542969 358.390625 57.542969 L 353.839844 57.542969 C 353.351562 57.542969 352.859375 57.121094 352.859375 56.558594 C 352.859375 56 353.28125 55.578125 354.261719 55.578125 L 358.8125 55.578125 C 358.953125 55.578125 359.304688 56 359.304688 56.558594 Z M 359.304688 56.558594"/><path fill="#060405" d="M 166.628906 61.117188 L 126.007812 61.117188 C 123.835938 61.117188 122.085938 59.363281 122.085938 57.191406 L 122.085938 16.539062 C 122.085938 14.367188 123.835938 12.617188 126.007812 12.617188 L 166.628906 12.617188 C 168.800781 12.617188 170.550781 14.367188 170.550781 16.539062 L 170.550781 57.191406 C 170.550781 59.363281 168.800781 61.117188 166.628906 61.117188 Z M 166.628906 61.117188"/><path fill="#FF7545" d="M 155.632812 14.367188 C 155.632812 14.976562 155.574219 15.578125 155.457031 16.171875 C 155.335938 16.769531 155.160156 17.347656 154.929688 17.90625 C 154.695312 18.46875 154.410156 19.003906 154.074219 19.507812 C 153.738281 20.011719 153.355469 20.480469 152.925781 20.910156 C 152.496094 21.339844 152.027344 21.722656 151.523438 22.058594 C 151.019531 22.398438 150.488281 22.683594 149.925781 22.914062 C 149.363281 23.148438 148.785156 23.324219 148.191406 23.441406 C 147.597656 23.558594 146.996094 23.621094 146.386719 23.621094 C 145.78125 23.621094 145.179688 23.558594 144.585938 23.441406 C 143.988281 23.324219 143.410156 23.148438 142.851562 22.914062 C 142.289062 22.683594 141.757812 22.398438 141.25 22.058594 C 140.746094 21.722656 140.28125 21.339844 139.851562 20.910156 C 139.421875 20.480469 139.039062 20.011719 138.699219 19.507812 C 138.363281 19.003906 138.078125 18.46875 137.847656 17.90625 C 137.613281 17.347656 137.4375 16.769531 137.320312 16.171875 C 137.203125 15.578125 137.144531 14.976562 137.144531 14.367188 C 137.144531 13.761719 137.203125 13.160156 137.320312 12.5625 C 137.4375 11.96875 137.613281 11.386719 137.847656 10.828125 C 138.078125 10.265625 138.363281 9.734375 138.699219 9.226562 C 139.039062 8.722656 139.421875 8.253906 139.851562 7.824219 C 140.28125 7.394531 140.746094 7.011719 141.25 6.675781 C 141.757812 6.339844 142.289062 6.054688 142.851562 5.820312 C 143.410156 5.589844 143.988281 5.414062 144.585938 5.292969 C 145.179688 5.175781 145.78125 5.117188 146.386719 5.117188 C 146.996094 5.117188 147.597656 5.175781 148.191406 5.292969 C 148.785156 5.414062 149.363281 5.589844 149.925781 5.820312 C 150.488281 6.054688 151.019531 6.339844 151.523438 6.675781 C 152.027344 7.011719 152.496094 7.398438 152.925781 7.824219 C 153.355469 8.253906 153.738281 8.722656 154.074219 9.226562 C 154.410156 9.734375 154.695312 10.265625 154.929688 10.828125 C 155.160156 11.386719 155.335938 11.96875 155.457031 12.5625 C 155.574219 13.160156 155.632812 13.761719 155.632812 14.367188 Z M 155.632812 14.367188"/><path fill="#FFF" d="M 143.9375 18.714844 L 141.765625 16.539062 C 141.273438 16.050781 141.273438 15.207031 141.765625 14.71875 C 142.253906 14.226562 143.097656 14.226562 143.585938 14.71875 L 144.777344 15.910156 L 149.960938 10.722656 C 150.449219 10.234375 151.289062 10.234375 151.78125 10.722656 C 152.269531 11.214844 152.269531 12.054688 151.78125 12.546875 L 145.6875 18.644531 C 145.265625 19.203125 144.425781 19.203125 143.9375 18.714844 Z M 143.9375 18.714844"/><path fill="#FFF" d="M 153.390625 36.867188 C 153.390625 46.398438 145.757812 52.355469 145.757812 52.355469 C 145.757812 52.355469 138.125 46.398438 138.125 36.867188 C 138.125 32.660156 141.554688 29.226562 145.757812 29.226562 C 150.03125 29.296875 153.390625 32.660156 153.390625 36.867188 Z M 153.390625 36.867188"/><path fill="#060405" d="M 149.890625 36.867188 C 149.890625 37.132812 149.863281 37.398438 149.8125 37.660156 C 149.757812 37.921875 149.683594 38.175781 149.582031 38.421875 C 149.476562 38.667969 149.351562 38.902344 149.203125 39.125 C 149.058594 39.347656 148.886719 39.550781 148.699219 39.738281 C 148.511719 39.929688 148.304688 40.097656 148.085938 40.246094 C 147.863281 40.394531 147.628906 40.519531 147.382812 40.621094 C 147.136719 40.722656 146.882812 40.800781 146.621094 40.851562 C 146.359375 40.90625 146.09375 40.929688 145.828125 40.929688 C 145.5625 40.929688 145.296875 40.90625 145.035156 40.851562 C 144.773438 40.800781 144.519531 40.722656 144.273438 40.621094 C 144.027344 40.519531 143.792969 40.394531 143.570312 40.246094 C 143.347656 40.097656 143.144531 39.929688 142.953125 39.738281 C 142.765625 39.550781 142.597656 39.347656 142.449219 39.125 C 142.300781 38.902344 142.175781 38.667969 142.074219 38.421875 C 141.972656 38.175781 141.894531 37.921875 141.84375 37.660156 C 141.792969 37.398438 141.765625 37.132812 141.765625 36.867188 C 141.765625 36.597656 141.792969 36.335938 141.84375 36.074219 C 141.894531 35.8125 141.972656 35.554688 142.074219 35.308594 C 142.175781 35.0625 142.300781 34.828125 142.449219 34.605469 C 142.597656 34.386719 142.765625 34.179688 142.953125 33.992188 C 143.144531 33.800781 143.347656 33.632812 143.570312 33.484375 C 143.792969 33.335938 144.027344 33.210938 144.273438 33.109375 C 144.519531 33.007812 144.773438 32.929688 145.035156 32.878906 C 145.296875 32.828125 145.5625 32.800781 145.828125 32.800781 C 146.09375 32.800781 146.359375 32.828125 146.621094 32.878906 C 146.882812 32.929688 147.136719 33.007812 147.382812 33.109375 C 147.628906 33.210938 147.863281 33.335938 148.085938 33.484375 C 148.304688 33.632812 148.511719 33.800781 148.699219 33.992188 C 148.886719 34.179688 149.058594 34.386719 149.203125 34.605469 C 149.351562 34.828125 149.476562 35.0625 149.582031 35.308594 C 149.683594 35.554688 149.757812 35.8125 149.8125 36.074219 C 149.863281 36.335938 149.890625 36.597656 149.890625 36.867188 Z M 149.890625 36.867188"/><path fill="#6193F6" d="M 339.480469 250.699219 C 339.34375 248.949219 339.761719 247.125 340.671875 245.515625 C 341.023438 244.882812 341.652344 243.691406 342.285156 243.410156 C 342.914062 243.128906 344.453125 244.183594 345.085938 244.53125 C 345.085938 243.339844 345.085938 242.21875 345.367188 241.097656 C 347.117188 240.117188 348.378906 238.925781 349.566406 237.3125 C 350.6875 239.347656 351.597656 241.589844 352.160156 243.832031 C 352.4375 245.023438 352.648438 246.285156 352.371094 247.476562 C 352.089844 248.597656 351.386719 249.578125 350.546875 250.351562 C 349.707031 251.121094 348.726562 251.75 347.746094 252.382812 C 345.996094 253.503906 343.542969 252.101562 341.652344 251.191406 C 340.8125 250.769531 340.324219 250.699219 339.480469 250.699219 Z M 339.480469 250.699219"/><path fill="#6193F6" d="M 369.386719 205.632812 C 370.648438 210.261719 368.617188 216.078125 365.1875 220.070312 C 358.53125 227.851562 347.535156 230.585938 341.722656 239.347656 C 338.921875 243.480469 337.3125 248.527344 337.171875 253.644531 C 336.820312 248.527344 338.152344 243.269531 340.953125 238.855469 C 346.484375 229.675781 357.480469 227.082031 364.484375 219.441406 C 367.847656 215.9375 370.230469 210.398438 369.386719 205.632812 Z M 369.386719 205.632812"/><path fill="#6193F6" d="M 369.386719 205.632812 C 369.386719 205.632812 374.359375 216.289062 368.269531 224.277344 L 366.375 223.714844 L 366.375 225.609375 C 366.375 225.609375 362.734375 227.640625 357.273438 226.660156 L 357.273438 226.03125 L 359.792969 224.417969 L 362.175781 222.804688 L 365.046875 219.511719 L 367.148438 216.636719 L 368.617188 214.324219 L 369.738281 209.347656 Z M 369.386719 205.632812"/><path fill="#6193F6" d="M 373.660156 242.851562 C 373.660156 242.851562 370.859375 244.742188 366.167969 243.972656 C 361.402344 243.128906 351.738281 233.25 343.964844 236.121094 C 344.945312 235.210938 346.90625 233.179688 346.835938 233.320312 C 346.835938 233.320312 358.253906 227.011719 366.167969 229.605469 C 373.941406 232.265625 373.660156 242.851562 373.660156 242.851562 Z M 373.660156 242.851562"/><path fill="#6193F6" d="M 373.660156 242.851562 C 373.660156 242.851562 370.859375 244.742188 366.167969 243.972656 C 361.402344 243.128906 351.738281 233.25 343.964844 236.121094 C 345.785156 234.929688 349.917969 232.617188 352.160156 232.617188 C 356.640625 232.757812 359.234375 234.929688 364.414062 239.347656 C 369.527344 243.691406 373.660156 242.851562 373.660156 242.851562 Z M 373.660156 242.851562" fill-opacity=".098"/><path fill="#6193F6" d="M 340.953125 226.941406 C 340.953125 226.941406 356.570312 227.640625 360.703125 213.765625 L 355.171875 212.503906 L 361.054688 209.207031 C 361.054688 209.207031 361.542969 199.746094 363.925781 196.59375 C 363.925781 196.523438 330.867188 200.519531 340.953125 226.941406 Z M 340.953125 226.941406"/><path fill="#6193F6" d="M 335 249.789062 C 335.28125 247.195312 335.140625 244.601562 334.789062 242.078125 C 333.527344 233.667969 329.1875 227.429688 321.132812 225.117188 C 323.304688 225.75 323.304688 225.679688 323.933594 225.960938 C 325.476562 226.660156 324.5625 226.03125 327.367188 227.78125 C 327.644531 228.132812 333.808594 231.707031 335.070312 242.007812 C 335.421875 244.601562 335.351562 247.265625 335 249.789062 Z M 335 249.789062"/><path fill="#6193F6" d="M 329.746094 230.09375 C 315.527344 233.878906 315.179688 219.722656 315.179688 219.722656 C 318.261719 222.59375 322.882812 221.402344 326.59375 223.507812 C 330.308594 225.609375 329.746094 230.09375 329.746094 230.09375 Z M 329.746094 230.09375"/><path fill="#6193F6" d="M 335.910156 249.578125 C 335.769531 247.265625 335.628906 245.023438 335.421875 242.710938 C 334.789062 235.632812 333.738281 229.183594 331.289062 222.523438 C 334.089844 228.761719 335.351562 235.910156 335.699219 242.640625 C 335.769531 243.761719 335.839844 244.953125 335.839844 246.074219 C 335.910156 247.265625 335.910156 248.386719 335.910156 249.578125 Z M 335.910156 249.578125"/><path fill="#6193F6" d="M 332.058594 224.558594 C 329.957031 219.582031 317 213.414062 313.917969 210.191406 C 310.835938 206.964844 311.675781 201.78125 311.675781 201.78125 C 314.617188 204.652344 321.34375 204.933594 329.257812 210.191406 C 337.101562 215.515625 332.058594 224.558594 332.058594 224.558594 Z M 332.058594 224.558594"/><path fill="#6193F6" d="M 333.109375 246.355469 C 333.109375 246.355469 333.390625 235.140625 327.296875 233.738281 C 321.203125 232.335938 318.539062 233.738281 318.539062 233.738281 L 318.75 235.492188 L 316.507812 233.808594 C 316.507812 233.808594 311.957031 235.070312 310.207031 234.71875 C 310.207031 234.71875 311.1875 238.015625 316.648438 239.277344 C 322.042969 240.609375 329.398438 240.886719 333.109375 246.355469 Z M 333.109375 246.355469"/><path fill="#6193F6" d="M 332.6875 245.023438 C 333.109375 245.863281 333.320312 246.773438 333.390625 247.757812 C 333.457031 248.667969 333.390625 249.648438 333.109375 250.558594 L 333.039062 249.15625 L 332.96875 247.828125 L 332.828125 246.496094 C 332.757812 245.933594 332.6875 245.515625 332.6875 245.023438 Z M 332.6875 245.023438"/><path fill="#6193F6" d="M 332.058594 224.558594 C 329.957031 219.582031 317 213.414062 313.917969 210.191406 C 310.835938 206.964844 311.675781 201.78125 311.675781 201.78125 C 311.675781 201.78125 311.535156 207.246094 316.160156 208.507812 C 320.710938 209.769531 330.65625 215.867188 332.058594 224.558594 Z M 332.058594 224.558594" fill-opacity=".098"/><path fill="#6193F6" d="M 337.730469 249.578125 C 337.449219 244.953125 337.800781 240.328125 338.5 235.773438 C 340.882812 221.613281 347.535156 209 359.582031 201.289062 C 353.417969 205.914062 353.351562 206.753906 351.878906 208.15625 C 351.109375 209.070312 350.339844 209.910156 349.707031 210.820312 C 342.703125 219.863281 339.132812 231.425781 338.011719 242.710938 C 337.800781 244.953125 337.660156 247.265625 337.730469 249.578125 Z M 337.730469 249.578125"/><g clip-path="url(#h)"><path fill="#FFF" d="M 345.296875 268.152344 L 332.476562 268.152344 C 331.707031 268.152344 331.078125 267.660156 330.9375 266.890625 L 327.644531 251.75 L 350.199219 251.75 L 346.90625 266.890625 C 346.625 267.589844 345.996094 268.152344 345.296875 268.152344 Z M 345.296875 268.152344"/></g><g clip-path="url(#i)"><path fill="#BDD6FF" d="M 347.046875 265.980469 L 346.835938 266.890625 C 346.695312 267.589844 346.066406 268.152344 345.296875 268.152344 L 332.476562 268.152344 C 331.707031 268.152344 331.078125 267.660156 330.9375 266.890625 L 327.574219 251.75 L 329.746094 251.75 L 330.585938 255.535156 C 331.917969 261.632812 337.3125 265.980469 343.542969 265.980469 Z M 347.046875 265.980469"/></g><g clip-path="url(#j)"><path fill="#060405" d="M 345.296875 268.503906 L 332.476562 268.503906 C 331.566406 268.503906 330.796875 267.871094 330.585938 266.960938 L 327.15625 251.402344 L 350.546875 251.402344 L 347.117188 266.960938 C 346.976562 267.871094 346.207031 268.503906 345.296875 268.503906 Z M 327.996094 252.101562 L 331.21875 266.820312 C 331.359375 267.378906 331.847656 267.800781 332.410156 267.800781 L 345.226562 267.800781 C 345.785156 267.800781 346.277344 267.378906 346.414062 266.820312 L 349.636719 252.101562 Z M 327.996094 252.101562"/></g><path fill="#FFF" d="M 351.738281 252.523438 L 326.035156 252.523438 C 325.683594 252.523438 325.40625 252.242188 325.335938 251.960938 L 324.5625 248.175781 C 324.492188 247.757812 324.84375 247.335938 325.265625 247.335938 L 352.507812 247.335938 C 353 247.335938 353.28125 247.757812 353.210938 248.175781 L 352.4375 251.960938 C 352.371094 252.3125 352.089844 252.523438 351.738281 252.523438 Z M 351.738281 252.523438"/><path fill="#060405" d="M 351.738281 252.871094 L 326.035156 252.871094 C 325.542969 252.871094 325.054688 252.523438 324.984375 252.03125 L 324.214844 248.246094 C 324.074219 247.546875 324.5625 246.984375 325.265625 246.984375 L 352.507812 246.984375 C 353.210938 246.984375 353.699219 247.617188 353.558594 248.246094 L 352.789062 252.03125 C 352.648438 252.523438 352.230469 252.871094 351.738281 252.871094 Z M 325.265625 247.617188 C 325.054688 247.617188 324.84375 247.828125 324.914062 248.035156 L 325.683594 251.820312 C 325.683594 252.03125 325.894531 252.101562 326.035156 252.101562 L 351.738281 252.101562 C 351.949219 252.101562 352.089844 251.960938 352.089844 251.820312 L 352.859375 248.035156 C 352.929688 247.828125 352.71875 247.617188 352.507812 247.617188 Z M 325.265625 247.617188"/><path fill="#FF7545" d="M 354.332031 24.8125 C 354.332031 25.417969 354.269531 26.019531 354.152344 26.617188 C 354.035156 27.210938 353.859375 27.789062 353.625 28.351562 C 353.394531 28.914062 353.109375 29.445312 352.773438 29.949219 C 352.433594 30.457031 352.050781 30.921875 351.621094 31.351562 C 351.191406 31.78125 350.726562 32.164062 350.222656 32.503906 C 349.714844 32.839844 349.183594 33.125 348.625 33.359375 C 348.0625 33.589844 347.484375 33.765625 346.890625 33.882812 C 346.292969 34.003906 345.691406 34.0625 345.085938 34.0625 C 344.476562 34.0625 343.878906 34.003906 343.28125 33.882812 C 342.6875 33.765625 342.109375 33.589844 341.546875 33.359375 C 340.988281 33.125 340.453125 32.839844 339.949219 32.503906 C 339.445312 32.164062 338.976562 31.78125 338.546875 31.351562 C 338.117188 30.921875 337.734375 30.457031 337.398438 29.949219 C 337.0625 29.445312 336.777344 28.914062 336.542969 28.351562 C 336.3125 27.789062 336.136719 27.210938 336.019531 26.617188 C 335.898438 26.019531 335.839844 25.417969 335.839844 24.8125 C 335.839844 24.203125 335.898438 23.601562 336.019531 23.003906 C 336.136719 22.410156 336.3125 21.832031 336.542969 21.269531 C 336.777344 20.710938 337.0625 20.175781 337.398438 19.671875 C 337.734375 19.164062 338.117188 18.699219 338.546875 18.269531 C 338.976562 17.839844 339.445312 17.457031 339.949219 17.117188 C 340.453125 16.78125 340.988281 16.496094 341.546875 16.261719 C 342.109375 16.03125 342.6875 15.855469 343.28125 15.738281 C 343.878906 15.617188 344.476562 15.558594 345.085938 15.558594 C 345.691406 15.558594 346.292969 15.617188 346.890625 15.738281 C 347.484375 15.855469 348.0625 16.03125 348.625 16.261719 C 349.183594 16.496094 349.714844 16.78125 350.222656 17.117188 C 350.726562 17.457031 351.191406 17.839844 351.621094 18.269531 C 352.050781 18.699219 352.433594 19.164062 352.773438 19.671875 C 353.109375 20.175781 353.394531 20.710938 353.625 21.269531 C 353.859375 21.832031 354.035156 22.410156 354.152344 23.003906 C 354.269531 23.601562 354.332031 24.203125 354.332031 24.8125 Z M 354.332031 24.8125"/><path fill="#FFF" d="M 342.632812 29.15625 L 340.460938 26.984375 C 339.972656 26.492188 339.972656 25.652344 340.460938 25.160156 C 340.953125 24.671875 341.792969 24.671875 342.285156 25.160156 L 343.472656 26.351562 L 348.65625 21.167969 C 349.148438 20.675781 349.988281 20.675781 350.476562 21.167969 C 350.96875 21.65625 350.96875 22.496094 350.476562 22.988281 L 344.386719 29.085938 C 343.964844 29.648438 343.125 29.648438 342.632812 29.15625 Z M 342.632812 29.15625"/></svg>