<svg xmlns="http://www.w3.org/2000/svg" width="375" viewBox="0 0 375 269.25" height="269.25" version="1.0"><defs><clipPath id="a"><path d="M 15.105469 1 L 347 1 L 347 260 L 15.105469 260 Z M 15.105469 1"/></clipPath><clipPath id="b"><path d="M 15.105469 178 L 98 178 L 98 260 L 15.105469 260 Z M 15.105469 178"/></clipPath><clipPath id="c"><path d="M 15.105469 259 L 347 259 L 347 268.503906 L 15.105469 268.503906 Z M 15.105469 259"/></clipPath><clipPath id="d"><path d="M 178.890625 88.960938 L 229.765625 88.960938 L 229.765625 123.363281 L 178.890625 123.363281 Z M 178.890625 88.960938"/></clipPath></defs><g clip-path="url(#a)"><path fill="#EBF2FF" d="M 311.34375 148.816406 C 297.375 142.179688 281.539062 141.035156 266.464844 137.585938 C 251.386719 134.136719 235.710938 127.324219 228.328125 113.734375 C 219.070312 96.707031 225.886719 75.523438 222.417969 56.453125 C 218.734375 36.171875 203.117188 19.378906 184.480469 10.574219 C 165.839844 1.765625 144.539062 0.0898438 123.988281 1.695312 C 99.382812 3.617188 74.320312 10.492188 55.507812 26.460938 C 36.695312 42.433594 25.484375 68.835938 32.355469 92.539062 C 37.960938 111.890625 54.730469 129.132812 51.1875 148.964844 C 49.941406 155.945312 43.878906 161.953125 36.65625 167.203125 C 23.328125 176.890625 15.246094 192.203125 15.367188 208.683594 L 15.371094 209.261719 C 15.578125 236.910156 38.050781 259.214844 65.699219 259.214844 L 302.457031 259.214844 C 311.324219 259.214844 319.945312 255.96875 326.417969 249.910156 C 359.902344 218.582031 349.050781 166.726562 311.34375 148.816406 Z M 311.34375 148.816406"/></g><path fill="#61BA76" d="M 33.4375 150.15625 C 31.324219 148.175781 30.097656 142.558594 33.570312 142.3125 C 34.828125 142.226562 36.207031 142.707031 37.191406 141.519531 C 37.691406 140.917969 37.921875 140.039062 37.777344 139.160156 C 37.414062 136.917969 35.195312 135.882812 34.660156 133.625 C 33.949219 130.609375 33.613281 127.53125 34.480469 124.726562 C 35.457031 121.574219 38.027344 119.148438 41.089844 119.203125 C 44.152344 119.253906 47.429688 122.207031 47.789062 125.699219 C 48.117188 128.859375 46.402344 132.433594 48.457031 134.84375 C 50.25 136.949219 53.125 135.890625 55.085938 134.539062 C 57.117188 133.140625 59.765625 131.609375 61.925781 133.53125 C 62.933594 134.425781 63.464844 135.828125 63.535156 137.199219 C 63.746094 141.4375 60.464844 144.285156 61.402344 148.734375 C 61.78125 150.527344 63.171875 152.046875 64.753906 152.03125 C 67.171875 152.011719 67.699219 148.484375 69.539062 147.035156 C 70.804688 146.039062 72.652344 146.144531 74.199219 146.972656 C 75.746094 147.800781 77.023438 149.253906 78.058594 150.828125 C 81.582031 156.171875 82.605469 163.308594 80.648438 168.898438 C 79.953125 170.890625 78.914062 172.675781 78.207031 174.660156 C 77.6875 176.117188 82.023438 184.046875 84.648438 189.035156 C 85.097656 189.886719 85.453125 190.78125 85.730469 191.691406 C 69.722656 205.058594 54.746094 206.878906 41.285156 191.800781 C 41.886719 189.3125 43.296875 187.074219 44.390625 184.796875 C 45.925781 181.589844 47.710938 178.8125 45.058594 176.035156 C 42.382812 173.230469 36.84375 172.3125 34.601562 168.6875 C 34.144531 167.953125 33.890625 167.074219 33.972656 166.246094 C 34.378906 162.148438 41.214844 163.75 41.96875 159.515625 C 42.203125 158.183594 41.695312 156.734375 40.839844 155.617188 C 38.789062 152.949219 35.722656 152.300781 33.4375 150.15625 Z M 33.4375 150.15625"/><path fill="#7CD194" d="M 72.195312 191.726562 L 71.195312 191.726562 C 71.03125 191.484375 70.859375 191.238281 70.699219 190.996094 C 70.617188 190.925781 70.554688 190.839844 70.523438 190.738281 C 68.066406 187.039062 65.832031 183.398438 63.820312 179.914062 C 60.101562 180.90625 56.355469 181.058594 54.429688 180.820312 C 54.195312 180.792969 54.003906 180.554688 54 180.292969 C 53.996094 180.03125 54.183594 179.839844 54.414062 179.871094 C 54.457031 179.875 58.347656 180.320312 63.320312 179.035156 C 60.546875 174.167969 57.90625 169.078125 55.542969 164.035156 C 53.167969 164.5625 49.808594 163.808594 47.589844 162.972656 C 47.363281 162.886719 47.21875 162.613281 47.265625 162.363281 C 47.316406 162.113281 47.542969 161.984375 47.765625 162.070312 C 47.8125 162.089844 52.140625 163.703125 55.125 163.140625 C 51.589844 155.5 49.839844 150.496094 49.796875 150.363281 C 49.707031 150.109375 49.8125 149.847656 50.027344 149.777344 C 50.242188 149.710938 50.488281 149.863281 50.578125 150.117188 C 50.636719 150.285156 53.425781 158.28125 59.15625 169.574219 C 60.316406 165.40625 60.464844 159.414062 60.464844 159.347656 C 60.472656 159.089844 60.667969 158.90625 60.898438 158.945312 C 61.128906 158.984375 61.3125 159.226562 61.308594 159.488281 C 61.300781 159.773438 61.136719 166.410156 59.734375 170.703125 C 62.6875 176.4375 66.367188 182.945312 70.808594 189.683594 C 71.914062 186.601562 72.214844 182.175781 72.21875 182.125 C 72.234375 181.867188 72.433594 181.703125 72.667969 181.75 C 72.902344 181.800781 73.074219 182.054688 73.058594 182.3125 C 73.046875 182.523438 72.714844 187.378906 71.421875 190.59375 C 71.671875 190.96875 71.941406 191.347656 72.195312 191.726562 Z M 72.195312 191.726562"/><g clip-path="url(#b)"><path fill="#7CD194" d="M 91.628906 227.648438 C 86.957031 223.9375 79.375 218.109375 79.273438 216.425781 C 79.128906 214.128906 79.394531 211.875 79.242188 209.578125 C 78.808594 203.125 74.808594 196.535156 69.109375 192.894531 C 67.429688 191.820312 65.570312 190.976562 63.703125 190.882812 C 61.839844 190.785156 59.980469 191.542969 59.160156 193.121094 C 57.964844 195.417969 58.933594 199.15625 56.570312 200.308594 C 55.027344 201.058594 53.023438 200.207031 51.898438 198.609375 C 49.109375 194.640625 51.128906 190.285156 49.140625 186.1875 C 48.496094 184.863281 47.386719 183.722656 46.023438 183.308594 C 43.097656 182.417969 41.144531 185.171875 39.742188 187.503906 C 38.386719 189.761719 36.015625 192.15625 33.371094 190.90625 C 30.347656 189.480469 30.523438 185.140625 28.875 182.164062 C 27.054688 178.875 22.597656 177.480469 19.574219 178.863281 C 16.550781 180.242188 15.050781 183.847656 15.421875 187.421875 C 15.75 190.605469 17.375 193.496094 19.335938 196.152344 C 20.808594 198.140625 23.417969 198.125 24.71875 200.175781 C 25.226562 200.980469 25.371094 201.957031 25.136719 202.785156 C 24.671875 204.421875 23.117188 204.589844 21.921875 205.265625 C 18.617188 207.132812 22.183594 212.121094 25.085938 213.09375 C 28.226562 214.148438 31.503906 213.359375 34.636719 215.039062 C 35.945312 215.746094 37.054688 216.945312 37.382812 218.371094 C 38.425781 222.917969 31.050781 224.53125 32.375 228.777344 C 32.640625 229.636719 33.261719 230.386719 34.015625 230.902344 C 37.738281 233.441406 41.683594 230.390625 45.484375 231.917969 C 49.253906 233.429688 50.542969 238.382812 50.382812 242.277344 C 50.226562 246.175781 49.378906 250.296875 51.371094 253.949219 C 53.863281 258.515625 59.957031 260.140625 64.378906 258.710938 C 68.46875 257.390625 72.644531 246.277344 83.578125 248.824219 C 85.941406 249.371094 88.351562 249.421875 90.460938 248.617188 C 96.28125 246.382812 98.332031 242.023438 96.835938 235.660156 C 96.105469 232.546875 94.207031 229.695312 91.628906 227.648438 Z M 91.628906 227.648438"/></g><path fill="#61BA76" d="M 79.316406 235.378906 C 79.234375 231.589844 77.515625 226.625 77.441406 226.410156 C 77.347656 226.148438 77.070312 225.980469 76.824219 226.035156 C 76.570312 226.097656 76.445312 226.355469 76.539062 226.621094 C 76.554688 226.667969 78.125 231.195312 78.335938 234.761719 C 71.144531 230.167969 64.808594 225.441406 59.503906 221.144531 C 59.070312 216.238281 56.445312 209.589844 56.328125 209.304688 C 56.226562 209.042969 55.941406 208.886719 55.699219 208.957031 C 55.457031 209.027344 55.339844 209.296875 55.445312 209.558594 C 55.46875 209.625 57.84375 215.625 58.457031 220.300781 C 48.09375 211.796875 41.996094 205.179688 41.871094 205.039062 C 41.679688 204.828125 41.371094 204.796875 41.191406 204.960938 C 41.007812 205.132812 41.015625 205.4375 41.207031 205.648438 C 41.308594 205.761719 45.125 209.898438 51.804688 215.8125 C 49.113281 217.765625 44.191406 218.1875 44.140625 218.191406 C 43.882812 218.214844 43.71875 218.449219 43.773438 218.71875 C 43.832031 218.988281 44.085938 219.1875 44.347656 219.167969 C 46.910156 218.957031 50.492188 218.128906 52.589844 216.503906 C 56.996094 220.363281 61.726562 224.175781 66.519531 227.71875 C 62.179688 231.316406 58.179688 232.695312 58.140625 232.710938 C 57.898438 232.789062 57.796875 233.066406 57.910156 233.324219 C 58.023438 233.582031 58.3125 233.726562 58.550781 233.644531 C 60.628906 232.945312 64.171875 231.054688 67.378906 228.355469 C 70.8125 230.867188 74.53125 233.425781 78.5 235.941406 C 78.570312 236.027344 78.667969 236.082031 78.777344 236.113281 C 81.136719 237.605469 83.582031 239.078125 86.109375 240.515625 C 81.085938 242.289062 76.703125 243.253906 76.65625 243.265625 C 76.402344 243.316406 76.273438 243.578125 76.363281 243.84375 C 76.453125 244.105469 76.730469 244.277344 76.980469 244.222656 C 77.027344 244.210938 81.894531 243.140625 87.273438 241.179688 C 89.863281 242.628906 92.539062 244.03125 95.28125 245.378906 C 95.484375 245.136719 95.671875 244.886719 95.84375 244.628906 C 89.976562 241.757812 84.4375 238.609375 79.316406 235.378906 Z M 79.316406 235.378906"/><path fill="#38297A" d="M 172.78125 259.214844 C 183.378906 259.214844 192 250.601562 192 240.011719 L 192 47.125 C 192 36.539062 183.378906 27.925781 172.78125 27.925781 L 86.496094 27.925781 C 75.902344 27.925781 67.28125 36.539062 67.28125 47.125 L 67.28125 240.011719 C 67.28125 250.601562 75.902344 259.214844 86.496094 259.214844 Z M 172.78125 259.214844"/><path fill="#20154F" d="M 184.199219 259.214844 C 194.796875 259.214844 203.417969 250.601562 203.417969 240.011719 L 203.417969 47.125 C 203.417969 36.539062 194.796875 27.925781 184.199219 27.925781 L 97.914062 27.925781 C 87.320312 27.925781 78.699219 36.539062 78.699219 47.125 L 78.699219 240.011719 C 78.699219 250.601562 87.320312 259.214844 97.914062 259.214844 Z M 184.199219 259.214844"/><path fill="#FFF" d="M 97.914062 33.617188 L 110.574219 33.617188 C 112.84375 33.617188 114.691406 35.464844 114.691406 37.734375 C 114.691406 38.675781 115.460938 39.445312 116.402344 39.445312 L 164.941406 39.445312 C 165.882812 39.445312 166.652344 38.675781 166.652344 37.734375 C 166.652344 35.464844 168.5 33.617188 170.769531 33.617188 L 184.214844 33.617188 C 191.664062 33.617188 197.722656 39.679688 197.722656 47.128906 L 197.722656 240.011719 C 197.722656 247.460938 191.65625 253.519531 184.199219 253.519531 L 97.914062 253.519531 C 90.457031 253.519531 84.390625 247.460938 84.390625 240.011719 L 84.390625 47.140625 C 84.390625 39.683594 90.457031 33.617188 97.914062 33.617188 Z M 97.914062 33.617188"/><path fill="#BBCAEA" d="M 159.914062 179.710938 C 159.914062 181.589844 159.871094 183.464844 159.789062 185.335938 C 159.703125 187.203125 159.578125 189.0625 159.410156 190.902344 C 159.242188 192.746094 159.035156 194.566406 158.785156 196.363281 C 158.535156 198.164062 158.246094 199.929688 157.917969 201.664062 C 157.589844 203.402344 157.222656 205.097656 156.816406 206.753906 C 156.410156 208.410156 155.96875 210.023438 155.492188 211.582031 C 155.015625 213.144531 154.503906 214.652344 153.960938 216.105469 C 153.414062 217.558594 152.839844 218.949219 152.230469 220.277344 C 151.625 221.605469 150.988281 222.867188 150.324219 224.058594 C 149.660156 225.25 148.96875 226.367188 148.253906 227.410156 C 147.542969 228.457031 146.804688 229.421875 146.046875 230.304688 C 145.289062 231.191406 144.515625 231.996094 143.71875 232.714844 C 142.925781 233.433594 142.117188 234.066406 141.296875 234.609375 C 140.476562 235.15625 139.640625 235.613281 138.800781 235.976562 C 137.957031 236.34375 137.109375 236.621094 136.253906 236.804688 C 135.398438 236.988281 134.542969 237.082031 133.683594 237.082031 C 132.824219 237.082031 131.964844 236.988281 131.109375 236.804688 C 130.257812 236.621094 129.40625 236.34375 128.566406 235.976562 C 127.722656 235.613281 126.890625 235.15625 126.066406 234.609375 C 125.246094 234.066406 124.4375 233.433594 123.644531 232.714844 C 122.851562 231.996094 122.074219 231.191406 121.316406 230.304688 C 120.558594 229.421875 119.824219 228.457031 119.109375 227.410156 C 118.394531 226.367188 117.707031 225.25 117.042969 224.058594 C 116.378906 222.867188 115.742188 221.605469 115.132812 220.277344 C 114.527344 218.949219 113.949219 217.558594 113.40625 216.105469 C 112.859375 214.652344 112.347656 213.144531 111.871094 211.582031 C 111.394531 210.023438 110.953125 208.410156 110.546875 206.753906 C 110.144531 205.097656 109.777344 203.402344 109.449219 201.664062 C 109.117188 199.929688 108.828125 198.164062 108.582031 196.363281 C 108.332031 194.566406 108.121094 192.746094 107.957031 190.902344 C 107.789062 189.0625 107.660156 187.203125 107.578125 185.335938 C 107.492188 183.464844 107.449219 181.589844 107.449219 179.710938 C 107.449219 177.832031 107.492188 175.957031 107.578125 174.089844 C 107.660156 172.21875 107.789062 170.363281 107.957031 168.519531 C 108.121094 166.675781 108.332031 164.855469 108.582031 163.058594 C 108.828125 161.261719 109.117188 159.492188 109.449219 157.757812 C 109.777344 156.019531 110.144531 154.324219 110.546875 152.667969 C 110.953125 151.011719 111.394531 149.402344 111.871094 147.839844 C 112.347656 146.277344 112.859375 144.769531 113.40625 143.316406 C 113.949219 141.863281 114.527344 140.472656 115.132812 139.144531 C 115.742188 137.816406 116.378906 136.554688 117.042969 135.363281 C 117.707031 134.171875 118.394531 133.054688 119.109375 132.011719 C 119.824219 130.96875 120.558594 130.003906 121.316406 129.117188 C 122.074219 128.230469 122.851562 127.429688 123.644531 126.710938 C 124.4375 125.992188 125.246094 125.359375 126.066406 124.8125 C 126.890625 124.265625 127.722656 123.8125 128.566406 123.445312 C 129.40625 123.078125 130.257812 122.804688 131.109375 122.617188 C 131.964844 122.433594 132.824219 122.34375 133.683594 122.34375 C 134.542969 122.34375 135.398438 122.433594 136.253906 122.617188 C 137.109375 122.804688 137.957031 123.078125 138.800781 123.445312 C 139.640625 123.8125 140.476562 124.265625 141.296875 124.8125 C 142.117188 125.359375 142.925781 125.992188 143.71875 126.710938 C 144.515625 127.429688 145.289062 128.230469 146.046875 129.117188 C 146.804688 130.003906 147.542969 130.96875 148.253906 132.011719 C 148.96875 133.054688 149.660156 134.171875 150.324219 135.363281 C 150.988281 136.554688 151.625 137.816406 152.230469 139.144531 C 152.839844 140.472656 153.414062 141.863281 153.960938 143.316406 C 154.503906 144.769531 155.015625 146.277344 155.492188 147.839844 C 155.96875 149.402344 156.410156 151.011719 156.816406 152.667969 C 157.222656 154.324219 157.589844 156.019531 157.917969 157.757812 C 158.246094 159.492188 158.535156 161.261719 158.785156 163.058594 C 159.035156 164.855469 159.242188 166.675781 159.410156 168.519531 C 159.578125 170.363281 159.703125 172.21875 159.789062 174.089844 C 159.871094 175.957031 159.914062 177.832031 159.914062 179.710938 Z M 159.914062 179.710938"/><path fill="#20154F" d="M 72.976562 56.609375 L 73 56.609375 C 74.1875 56.609375 75.148438 57.574219 75.148438 58.761719 L 75.148438 82.9375 C 75.148438 84.125 74.1875 85.089844 73 85.089844 L 72.976562 85.089844 C 71.789062 85.089844 70.828125 84.125 70.828125 82.9375 L 70.828125 58.761719 C 70.828125 57.574219 71.789062 56.609375 72.976562 56.609375 Z M 72.976562 56.609375"/><path fill="#20154F" d="M 72.976562 102 L 73 102 C 74.1875 102 75.148438 102.964844 75.148438 104.152344 L 75.148438 128.328125 C 75.148438 129.515625 74.1875 130.480469 73 130.480469 L 72.976562 130.480469 C 71.789062 130.480469 70.828125 129.515625 70.828125 128.328125 L 70.828125 104.152344 C 70.828125 102.964844 71.789062 102 72.976562 102 Z M 72.976562 102"/><path fill="#2B1963" d="M 217.042969 119.8125 L 223.46875 114.65625 C 223.417969 114.527344 223.324219 114.429688 223.285156 114.289062 C 222.648438 111.90625 224.285156 109.453125 226.863281 109.226562 C 228.578125 109.074219 230.265625 110.117188 230.914062 111.714844 C 231.84375 114.007812 230.539062 116.523438 228.226562 117.144531 C 226.910156 117.496094 225.617188 117.097656 224.648438 116.289062 L 218.527344 121.199219 C 218.167969 121.488281 217.96875 121.929688 217.992188 122.390625 L 218.566406 133.742188 L 216.558594 133.84375 L 215.96875 122.199219 C 215.921875 121.277344 216.324219 120.390625 217.042969 119.8125 Z M 217.042969 119.8125"/><path fill="#FE4C40" d="M 209.546875 130.480469 L 225.128906 133.972656 L 224.558594 137.90625 L 208.371094 138.582031 C 206.824219 138.742188 208.003906 130.636719 209.546875 130.480469 Z M 209.546875 130.480469"/><path fill="#2B1963" d="M 236.726562 134.085938 L 225.320312 133.847656 L 224.5625 139.070312 L 235.964844 139.308594 C 237.457031 139.390625 238.492188 134.160156 236.726562 134.085938 Z M 236.726562 134.085938"/><path fill="#2B1963" d="M 225.8125 131.757812 C 226.042969 131.796875 226.238281 131.960938 226.40625 132.238281 C 226.570312 132.519531 226.695312 132.894531 226.773438 133.371094 C 226.855469 133.84375 226.882812 134.378906 226.863281 134.976562 C 226.84375 135.574219 226.773438 136.1875 226.65625 136.816406 C 226.542969 137.445312 226.386719 138.042969 226.191406 138.605469 C 225.996094 139.171875 225.777344 139.660156 225.53125 140.074219 C 225.289062 140.488281 225.039062 140.796875 224.78125 141 C 224.527344 141.199219 224.285156 141.28125 224.054688 141.238281 C 223.828125 141.195312 223.628906 141.035156 223.464844 140.753906 C 223.296875 140.476562 223.171875 140.097656 223.09375 139.625 C 223.015625 139.148438 222.984375 138.613281 223.003906 138.015625 C 223.027344 137.417969 223.09375 136.804688 223.210938 136.175781 C 223.328125 135.550781 223.484375 134.953125 223.679688 134.386719 C 223.875 133.824219 224.09375 133.332031 224.335938 132.917969 C 224.582031 132.503906 224.832031 132.195312 225.085938 131.996094 C 225.34375 131.792969 225.585938 131.714844 225.8125 131.757812 Z M 225.8125 131.757812"/><path fill="#2B1963" d="M 219.640625 134.585938 L 225.128906 134.980469 L 224.703125 137.523438 L 219.214844 137.128906 C 218.363281 137.046875 218.925781 134.507812 219.640625 134.585938 Z M 219.640625 134.585938"/><path fill="#2B1963" d="M 178.4375 124.273438 C 178.148438 123.398438 177.457031 122.710938 176.578125 122.433594 L 168.722656 119.941406 C 168.722656 119.800781 168.777344 119.675781 168.761719 119.53125 C 168.496094 117.082031 166.085938 115.378906 163.601562 116.097656 C 162.019531 116.554688 160.835938 118.019531 160.726562 119.664062 C 160.554688 122.246094 162.730469 124.238281 165.183594 123.972656 C 166.535156 123.828125 167.597656 122.992188 168.214844 121.886719 L 175.691406 124.257812 C 176.128906 124.398438 176.476562 124.742188 176.621094 125.179688 L 180.175781 135.976562 L 182.085938 135.347656 Z M 178.4375 124.273438"/><path fill="#EA241F" d="M 157.152344 218.832031 C 155.824219 218.832031 154.523438 218.515625 153.339844 217.914062 C 147.597656 214.992188 141.152344 197.6875 147.527344 166.972656 C 147.875 165.238281 146.5625 163.605469 144.789062 163.605469 L 138.777344 163.605469 C 136.808594 163.605469 135.089844 164.988281 134.671875 166.917969 C 128.617188 194.484375 128.261719 217.429688 133.742188 224.597656 C 135.832031 227.332031 139.101562 228.890625 142.542969 228.890625 C 147.234375 228.886719 173.367188 228.84375 173.367188 228.84375 C 180.644531 226.871094 189.15625 223.058594 194.089844 218.824219 Z M 157.152344 218.832031"/><path fill="#FE4C40" d="M 180.054688 221.15625 C 182.332031 221.15625 184.453125 219.988281 185.703125 218.078125 C 196.726562 201.242188 191.667969 175.03125 189.886719 170.871094 C 188.78125 168.253906 185.347656 160.945312 186.621094 152.21875 C 187.882812 143.484375 208.457031 149.578125 211.191406 150.757812 C 213.929688 151.9375 214.105469 156.40625 220.753906 171.613281 C 227.394531 186.8125 223.207031 195.453125 223.207031 195.453125 L 214.71875 208.054688 L 201.265625 226.425781 L 173.359375 228.839844 C 173.359375 228.839844 171.34375 228.839844 168.324219 228.851562 C 160.484375 228.863281 145.933594 228.890625 142.539062 228.890625 C 141.890625 228.890625 141.242188 228.828125 140.605469 228.722656 C 140.582031 228.722656 140.570312 228.722656 140.546875 228.699219 L 136.480469 220.859375 C 137.179688 221.046875 137.914062 221.15625 138.671875 221.15625 Z M 180.054688 221.15625"/><path fill="#4AA4F0" d="M 136.480469 220.859375 C 136.199219 220.78125 135.921875 220.695312 135.652344 220.589844 C 132.824219 219.492188 130.703125 216.910156 130.324219 213.738281 C 130.125 212.042969 129.996094 210.191406 129.929688 208.226562 Z M 136.480469 220.859375"/><path fill="#4AA4F0" d="M 119.796875 162.9375 C 119.796875 162.925781 119.796875 162.925781 119.796875 162.925781 L 144.789062 163.597656 L 138.777344 163.597656 C 138.625 163.597656 138.484375 163.609375 138.339844 163.621094 L 138.328125 163.621094 C 138.222656 163.632812 138.117188 163.644531 138.011719 163.667969 C 136.421875 163.957031 135.109375 165.140625 134.664062 166.921875 C 131.144531 183.003906 129.554688 197.503906 129.929688 208.226562 L 118.121094 185.457031 C 118.121094 177.460938 118.710938 169.84375 119.796875 162.9375 Z M 119.796875 162.9375"/><path fill="#EA241F" d="M 168.324219 218.832031 L 157.152344 218.832031 C 155.824219 218.832031 154.523438 218.515625 153.339844 217.914062 C 147.597656 214.992188 141.152344 197.6875 147.527344 166.972656 C 147.875 165.238281 146.5625 163.605469 144.789062 163.605469 L 138.777344 163.605469 C 136.808594 163.605469 135.089844 164.988281 134.671875 166.917969 C 128.617188 194.484375 128.261719 217.429688 133.742188 224.597656 C 135.832031 227.332031 139.101562 228.890625 142.542969 228.890625 C 145.929688 228.890625 160.488281 228.863281 168.324219 228.851562 Z M 168.324219 218.832031"/><path fill="#FE4C40" d="M 118.121094 185.457031 C 118.121094 195.53125 119.066406 205.003906 120.730469 213.230469 C 122.300781 221.003906 128.609375 226.9375 136.457031 228.09375 L 140.546875 228.699219 C 140.570312 228.722656 140.582031 228.722656 140.605469 228.722656 C 141.242188 228.828125 141.890625 228.890625 142.539062 228.890625 C 145.933594 228.890625 160.484375 228.863281 168.324219 228.851562 L 168.324219 221.144531 L 138.671875 221.144531 C 137.609375 221.144531 136.585938 220.941406 135.652344 220.589844 C 132.824219 219.492188 130.703125 216.910156 130.324219 213.738281 C 129.027344 202.785156 130.5 185.949219 134.664062 166.921875 C 135.109375 165.136719 136.421875 163.957031 138.011719 163.667969 C 138.117188 163.644531 138.222656 163.632812 138.328125 163.621094 L 138.339844 163.621094 C 138.484375 163.609375 138.625 163.597656 138.777344 163.597656 L 144.789062 163.597656 L 119.796875 162.925781 C 119.796875 162.925781 119.796875 162.925781 119.796875 162.9375 C 118.710938 169.84375 118.121094 177.460938 118.121094 185.457031 Z M 118.121094 185.457031"/><path fill="#2B1963" d="M 119.796875 162.925781 C 119.796875 162.925781 119.796875 162.925781 119.796875 162.9375 L 138.328125 163.621094 L 138.339844 163.621094 L 145.839844 163.890625 C 147.679688 163.960938 149.304688 162.675781 149.671875 160.875 C 149.90625 159.707031 150.15625 158.527344 150.378906 157.441406 C 150.78125 155.496094 149.292969 153.660156 147.300781 153.660156 L 121.847656 152.761719 C 121.046875 155.933594 120.351562 159.328125 119.796875 162.925781 Z M 119.796875 162.925781"/><path fill="#FE4C40" d="M 191.863281 142.933594 L 205.101562 142.019531 L 205.839844 152.746094 L 192.601562 153.65625 Z M 191.863281 142.933594"/><path fill="#FE4C40" d="M 185.53125 138.363281 C 185.878906 144.277344 201.308594 146.089844 201.308594 146.089844 L 201.902344 125.070312 C 191.863281 126.355469 185.105469 131.023438 185.53125 138.363281 Z M 185.53125 138.363281"/><path fill="#FE4C40" d="M 212.585938 135.53125 C 212.597656 136.238281 212.550781 136.945312 212.449219 137.640625 C 212.347656 138.339844 212.1875 139.019531 211.976562 139.679688 C 211.761719 140.335938 211.5 140.964844 211.183594 141.5625 C 210.867188 142.15625 210.507812 142.710938 210.101562 143.21875 C 209.695312 143.726562 209.253906 144.183594 208.773438 144.585938 C 208.292969 144.988281 207.785156 145.328125 207.25 145.609375 C 206.714844 145.890625 206.160156 146.105469 205.589844 146.253906 C 205.015625 146.402344 204.4375 146.480469 203.851562 146.492188 C 203.265625 146.5 202.6875 146.441406 202.109375 146.3125 C 201.535156 146.183594 200.972656 145.988281 200.425781 145.726562 C 199.882812 145.464844 199.363281 145.136719 198.871094 144.753906 C 198.375 144.367188 197.917969 143.925781 197.496094 143.429688 C 197.074219 142.9375 196.695312 142.394531 196.359375 141.8125 C 196.023438 141.226562 195.738281 140.609375 195.503906 139.957031 C 195.269531 139.304688 195.089844 138.632812 194.960938 137.9375 C 194.835938 137.242188 194.769531 136.542969 194.757812 135.832031 C 194.742188 135.121094 194.789062 134.417969 194.890625 133.71875 C 194.992188 133.019531 195.152344 132.34375 195.363281 131.683594 C 195.578125 131.023438 195.839844 130.394531 196.15625 129.800781 C 196.472656 129.203125 196.832031 128.652344 197.238281 128.144531 C 197.644531 127.632812 198.085938 127.179688 198.566406 126.777344 C 199.046875 126.375 199.554688 126.03125 200.089844 125.75 C 200.625 125.46875 201.179688 125.253906 201.75 125.109375 C 202.324219 124.960938 202.902344 124.878906 203.488281 124.871094 C 204.074219 124.859375 204.652344 124.921875 205.230469 125.046875 C 205.804688 125.175781 206.367188 125.375 206.914062 125.636719 C 207.457031 125.898438 207.976562 126.222656 208.46875 126.609375 C 208.964844 126.996094 209.421875 127.433594 209.84375 127.929688 C 210.265625 128.425781 210.644531 128.964844 210.980469 129.550781 C 211.316406 130.132812 211.601562 130.753906 211.835938 131.40625 C 212.070312 132.054688 212.25 132.730469 212.378906 133.425781 C 212.503906 134.117188 212.570312 134.820312 212.585938 135.53125 Z M 212.585938 135.53125"/><path fill="#2B1963" d="M 212.589844 135.800781 C 212.601562 136.472656 212.570312 137.136719 212.492188 137.796875 C 212.417969 138.457031 212.300781 139.097656 212.140625 139.722656 C 211.984375 140.34375 211.785156 140.9375 211.546875 141.5 C 211.3125 142.0625 211.039062 142.582031 210.734375 143.0625 C 210.429688 143.542969 210.097656 143.972656 209.734375 144.351562 C 209.371094 144.730469 208.988281 145.050781 208.582031 145.316406 C 208.179688 145.578125 207.757812 145.78125 207.328125 145.917969 C 206.894531 146.058594 206.457031 146.128906 206.015625 146.136719 C 205.570312 146.144531 205.132812 146.085938 204.695312 145.964844 C 204.257812 145.839844 203.832031 145.652344 203.417969 145.402344 C 203.003906 145.152344 202.609375 144.84375 202.234375 144.476562 C 201.859375 144.113281 201.511719 143.695312 201.191406 143.222656 C 200.871094 142.753906 200.582031 142.242188 200.324219 141.691406 C 200.070312 141.136719 199.851562 140.550781 199.671875 139.933594 C 199.492188 139.316406 199.351562 138.679688 199.253906 138.023438 C 199.160156 137.367188 199.105469 136.703125 199.09375 136.03125 C 199.082031 135.359375 199.113281 134.695312 199.1875 134.035156 C 199.261719 133.375 199.378906 132.734375 199.539062 132.109375 C 199.699219 131.488281 199.898438 130.894531 200.132812 130.332031 C 200.371094 129.769531 200.640625 129.25 200.945312 128.769531 C 201.25 128.289062 201.585938 127.859375 201.949219 127.480469 C 202.308594 127.101562 202.695312 126.78125 203.097656 126.515625 C 203.503906 126.253906 203.921875 126.050781 204.355469 125.914062 C 204.785156 125.773438 205.226562 125.703125 205.667969 125.695312 C 206.109375 125.6875 206.550781 125.746094 206.988281 125.867188 C 207.425781 125.992188 207.851562 126.179688 208.261719 126.429688 C 208.675781 126.679688 209.070312 126.988281 209.445312 127.355469 C 209.820312 127.71875 210.167969 128.136719 210.492188 128.609375 C 210.8125 129.078125 211.101562 129.589844 211.355469 130.140625 C 211.613281 130.695312 211.828125 131.28125 212.007812 131.898438 C 212.191406 132.515625 212.328125 133.152344 212.425781 133.808594 C 212.523438 134.464844 212.578125 135.128906 212.589844 135.800781 Z M 212.589844 135.800781"/><path fill="#EBF6FF" d="M 206.214844 143.414062 C 206.132812 143.421875 206.050781 143.425781 205.96875 143.425781 C 203.476562 143.46875 201.308594 140.066406 201.242188 135.992188 C 201.175781 132.074219 203.070312 128.679688 205.464844 128.421875 C 205.546875 128.410156 205.628906 128.40625 205.714844 128.40625 C 206.859375 128.386719 207.976562 129.089844 208.867188 130.386719 C 209.847656 131.816406 210.40625 133.753906 210.441406 135.839844 C 210.507812 139.757812 208.609375 143.15625 206.214844 143.414062 Z M 206.214844 143.414062"/><path fill="#FE4C40" d="M 194.609375 131.125 L 165.144531 137.039062 L 165.074219 141.871094 L 194.464844 141.074219 C 197.242188 141.117188 197.390625 131.167969 194.609375 131.125 Z M 194.609375 131.125"/><path fill="#2B1963" d="M 143.921875 138.355469 L 164.832031 136.90625 L 164.738281 143.316406 L 143.828125 144.765625 C 141.085938 145.019531 140.671875 138.628906 143.921875 138.355469 Z M 143.921875 138.355469"/><path fill="#2B1963" d="M 164.871094 134.332031 C 165.085938 134.332031 165.296875 134.375 165.503906 134.453125 C 165.710938 134.53125 165.914062 134.644531 166.109375 134.792969 C 166.304688 134.941406 166.488281 135.125 166.664062 135.339844 C 166.835938 135.554688 166.996094 135.796875 167.144531 136.070312 C 167.292969 136.34375 167.421875 136.640625 167.535156 136.960938 C 167.648438 137.28125 167.746094 137.617188 167.820312 137.972656 C 167.898438 138.328125 167.953125 138.691406 167.988281 139.066406 C 168.027344 139.445312 168.042969 139.824219 168.035156 140.207031 C 168.03125 140.589844 168.003906 140.96875 167.957031 141.34375 C 167.910156 141.71875 167.84375 142.082031 167.753906 142.433594 C 167.667969 142.785156 167.5625 143.121094 167.441406 143.4375 C 167.316406 143.753906 167.175781 144.042969 167.023438 144.3125 C 166.867188 144.582031 166.699219 144.820312 166.519531 145.03125 C 166.339844 145.242188 166.148438 145.417969 165.949219 145.5625 C 165.75 145.703125 165.546875 145.8125 165.335938 145.882812 C 165.125 145.953125 164.914062 145.988281 164.699219 145.984375 C 164.488281 145.984375 164.277344 145.941406 164.066406 145.863281 C 163.859375 145.785156 163.65625 145.671875 163.460938 145.523438 C 163.269531 145.375 163.082031 145.191406 162.910156 144.976562 C 162.734375 144.761719 162.574219 144.519531 162.425781 144.246094 C 162.28125 143.972656 162.148438 143.675781 162.035156 143.355469 C 161.921875 143.035156 161.828125 142.699219 161.75 142.34375 C 161.675781 141.988281 161.617188 141.625 161.582031 141.246094 C 161.546875 140.871094 161.53125 140.492188 161.535156 140.109375 C 161.542969 139.726562 161.566406 139.347656 161.617188 138.972656 C 161.664062 138.597656 161.730469 138.234375 161.816406 137.882812 C 161.902344 137.53125 162.007812 137.195312 162.132812 136.878906 C 162.253906 136.5625 162.394531 136.273438 162.550781 136.003906 C 162.703125 135.734375 162.871094 135.496094 163.050781 135.285156 C 163.234375 135.074219 163.421875 134.898438 163.621094 134.757812 C 163.820312 134.613281 164.027344 134.503906 164.234375 134.433594 C 164.445312 134.363281 164.660156 134.328125 164.871094 134.332031 Z M 164.871094 134.332031"/><path fill="#FE4C40" d="M 223.210938 195.453125 L 214.714844 208.050781 L 201.265625 226.417969 L 177.667969 228.464844 L 178.453125 221.152344 C 181.507812 221.574219 183.675781 220.707031 185.144531 218.824219 C 185.34375 218.59375 185.535156 218.339844 185.707031 218.082031 C 196.734375 201.234375 191.679688 175.027344 189.890625 170.871094 C 188.773438 168.25 185.34375 160.949219 186.621094 152.222656 C 187.886719 143.480469 208.460938 149.574219 211.191406 150.757812 C 213.933594 151.941406 214.109375 156.40625 220.75 171.613281 C 227.394531 186.808594 223.210938 195.453125 223.210938 195.453125 Z M 223.210938 195.453125"/><path fill="#EA241F" d="M 198.394531 147.808594 L 199.316406 147.808594 C 199.363281 147.832031 199.417969 147.847656 199.46875 147.867188 L 218.355469 196.917969 L 204.226562 208.433594 C 204.226562 208.433594 202.496094 204.351562 204.582031 195.792969 C 206.667969 187.238281 207.230469 181.015625 205.179688 174.5 C 203.429688 168.953125 199.519531 152.558594 198.394531 147.808594 Z M 198.394531 147.808594"/><path fill="#D1DCF8" d="M 199.394531 147.839844 C 200.957031 148.519531 202.773438 148.914062 204.855469 148.914062 C 204.875 148.914062 204.894531 148.910156 204.917969 148.910156 L 215.378906 177.738281 C 216.160156 179.894531 217.578125 181.726562 219.359375 183.160156 C 220.78125 184.304688 221.867188 186.164062 222.230469 188.382812 C 222.914062 192.492188 220.882812 196.28125 217.691406 196.851562 C 214.503906 197.410156 211.371094 194.542969 210.695312 190.441406 C 210.484375 189.179688 210.53125 187.941406 210.792969 186.824219 C 211.367188 184.371094 211.359375 181.835938 210.535156 179.496094 Z M 199.394531 147.839844"/><path fill="#FE4C40" d="M 218.730469 188.878906 C 218.820312 189.304688 218.84375 189.730469 218.804688 190.152344 C 218.761719 190.570312 218.660156 190.957031 218.492188 191.308594 C 218.324219 191.660156 218.105469 191.949219 217.839844 192.179688 C 217.570312 192.40625 217.273438 192.554688 216.945312 192.628906 C 216.613281 192.699219 216.28125 192.683594 215.945312 192.585938 C 215.605469 192.488281 215.289062 192.3125 214.992188 192.0625 C 214.695312 191.808594 214.441406 191.5 214.230469 191.132812 C 214.019531 190.765625 213.871094 190.371094 213.777344 189.941406 C 213.6875 189.515625 213.660156 189.09375 213.703125 188.671875 C 213.742188 188.25 213.847656 187.863281 214.015625 187.515625 C 214.183594 187.164062 214.398438 186.871094 214.667969 186.644531 C 214.9375 186.417969 215.234375 186.265625 215.5625 186.195312 C 215.890625 186.125 216.222656 186.140625 216.5625 186.238281 C 216.902344 186.335938 217.21875 186.511719 217.515625 186.761719 C 217.8125 187.015625 218.066406 187.324219 218.277344 187.691406 C 218.484375 188.058594 218.636719 188.453125 218.730469 188.878906 Z M 218.730469 188.878906"/><path fill="#EA241F" d="M 209.269531 198.917969 C 206.480469 201.496094 203.117188 209.539062 199.230469 225.929688 L 199.070312 226.609375 L 201.265625 226.417969 L 214.714844 208.046875 L 223.351562 195.117188 C 220.28125 194.675781 214.382812 194.191406 209.269531 198.917969 Z M 209.269531 198.917969"/><path fill="#EA241F" d="M 221.367188 171.34375 C 214.597656 155.84375 214.558594 151.476562 211.457031 150.140625 C 204.675781 147.203125 187.167969 143.746094 185.957031 152.125 C 184.933594 159.113281 186.648438 165.054688 189.273438 171.136719 C 191.113281 175.433594 195.910156 201.261719 185.144531 217.710938 C 184.011719 219.441406 182.105469 221.148438 180.050781 221.148438 L 173.429688 221.148438 L 180.050781 221.820312 C 182.5625 221.820312 184.886719 220.558594 186.269531 218.445312 C 197.324219 201.554688 192.398438 175.019531 190.507812 170.609375 C 187.945312 164.667969 186.316406 158.957031 187.289062 152.316406 C 188.324219 145.167969 206.011719 149.246094 210.921875 151.375 C 213.289062 152.394531 213.6875 157.121094 220.136719 171.882812 C 226.554688 186.566406 222.644531 195.078125 222.605469 195.160156 C 222.445312 195.496094 222.585938 195.898438 222.917969 196.058594 C 223.257812 196.21875 223.65625 196.078125 223.816406 195.746094 C 223.992188 195.378906 228.054688 186.644531 221.367188 171.34375 Z M 221.367188 171.34375"/><path fill="#2B1963" d="M 234.171875 258.019531 L 233.515625 258.902344 L 239.667969 257.820312 C 251.902344 255.667969 259.902344 242.824219 257.507812 229.195312 C 255.113281 215.550781 243.214844 206.203125 230.980469 208.355469 C 218.761719 210.503906 210.761719 223.347656 213.15625 236.992188 C 215.1875 248.558594 224.070312 257.042969 234.171875 258.019531 Z M 234.171875 258.019531"/><path fill="#2B1963" d="M 251.355469 230.292969 C 251.496094 231.105469 251.601562 231.917969 251.671875 232.738281 C 251.738281 233.554688 251.773438 234.375 251.769531 235.195312 C 251.769531 236.015625 251.730469 236.832031 251.652344 237.644531 C 251.578125 238.453125 251.464844 239.257812 251.320312 240.058594 C 251.171875 240.855469 250.988281 241.640625 250.773438 242.414062 C 250.554688 243.1875 250.304688 243.949219 250.015625 244.691406 C 249.730469 245.4375 249.414062 246.160156 249.0625 246.867188 C 248.710938 247.574219 248.328125 248.261719 247.914062 248.921875 C 247.5 249.585938 247.058594 250.222656 246.585938 250.835938 C 246.113281 251.449219 245.617188 252.03125 245.089844 252.585938 C 244.566406 253.144531 244.015625 253.667969 243.441406 254.160156 C 242.867188 254.65625 242.273438 255.117188 241.65625 255.542969 C 241.039062 255.972656 240.402344 256.363281 239.75 256.71875 C 239.09375 257.074219 238.425781 257.394531 237.738281 257.679688 C 237.054688 257.960938 236.359375 258.203125 235.648438 258.410156 C 234.941406 258.617188 234.222656 258.78125 233.496094 258.910156 C 232.769531 259.035156 232.039062 259.125 231.300781 259.171875 C 230.5625 259.21875 229.824219 259.222656 229.085938 259.191406 C 228.34375 259.15625 227.605469 259.082031 226.871094 258.96875 C 226.132812 258.855469 225.402344 258.703125 224.679688 258.507812 C 223.953125 258.316406 223.238281 258.085938 222.53125 257.816406 C 221.820312 257.546875 221.125 257.238281 220.445312 256.894531 C 219.761719 256.546875 219.09375 256.167969 218.441406 255.753906 C 217.792969 255.335938 217.160156 254.886719 216.546875 254.402344 C 215.933594 253.921875 215.339844 253.40625 214.769531 252.859375 C 214.199219 252.3125 213.652344 251.738281 213.132812 251.136719 C 212.609375 250.535156 212.117188 249.90625 211.648438 249.25 C 211.183594 248.59375 210.742188 247.917969 210.335938 247.21875 C 209.925781 246.515625 209.546875 245.796875 209.203125 245.058594 C 208.855469 244.320312 208.542969 243.566406 208.261719 242.796875 C 207.980469 242.027344 207.734375 241.246094 207.523438 240.449219 C 207.3125 239.65625 207.132812 238.855469 206.992188 238.042969 C 206.851562 237.234375 206.746094 236.421875 206.675781 235.601562 C 206.605469 234.78125 206.570312 233.964844 206.574219 233.144531 C 206.578125 232.324219 206.617188 231.507812 206.691406 230.695312 C 206.769531 229.882812 206.878906 229.078125 207.027344 228.28125 C 207.171875 227.484375 207.355469 226.699219 207.574219 225.925781 C 207.789062 225.148438 208.042969 224.390625 208.328125 223.648438 C 208.613281 222.902344 208.933594 222.175781 209.285156 221.46875 C 209.636719 220.761719 210.019531 220.078125 210.433594 219.414062 C 210.84375 218.753906 211.289062 218.117188 211.761719 217.503906 C 212.230469 216.890625 212.730469 216.308594 213.253906 215.75 C 213.78125 215.195312 214.332031 214.671875 214.90625 214.175781 C 215.476562 213.683594 216.074219 213.222656 216.691406 212.796875 C 217.308594 212.367188 217.941406 211.976562 218.597656 211.621094 C 219.25 211.261719 219.921875 210.941406 220.605469 210.660156 C 221.289062 210.378906 221.988281 210.132812 222.695312 209.929688 C 223.40625 209.722656 224.125 209.554688 224.851562 209.429688 C 225.578125 209.300781 226.308594 209.214844 227.042969 209.167969 C 227.78125 209.121094 228.519531 209.113281 229.261719 209.148438 C 230 209.183594 230.738281 209.253906 231.476562 209.371094 C 232.210938 209.484375 232.941406 209.636719 233.667969 209.828125 C 234.390625 210.023438 235.109375 210.253906 235.816406 210.523438 C 236.523438 210.792969 237.21875 211.101562 237.902344 211.445312 C 238.585938 211.789062 239.25 212.171875 239.902344 212.585938 C 240.554688 213.003906 241.1875 213.453125 241.800781 213.933594 C 242.414062 214.417969 243.007812 214.933594 243.578125 215.480469 C 244.148438 216.023438 244.691406 216.597656 245.214844 217.203125 C 245.734375 217.804688 246.230469 218.433594 246.695312 219.089844 C 247.164062 219.742188 247.601562 220.421875 248.011719 221.121094 C 248.417969 221.820312 248.796875 222.539062 249.144531 223.277344 C 249.488281 224.019531 249.804688 224.773438 250.085938 225.542969 C 250.363281 226.3125 250.609375 227.09375 250.824219 227.886719 C 251.035156 228.679688 251.210938 229.484375 251.355469 230.292969 Z M 251.355469 230.292969"/><path fill="#CBCBCB" d="M 242.695312 231.792969 C 241.335938 224.046875 235.207031 218.203125 228.445312 218.203125 C 227.761719 218.203125 227.078125 218.265625 226.402344 218.382812 C 218.945312 219.695312 214.121094 227.84375 215.648438 236.546875 C 217.011719 244.292969 223.136719 250.136719 229.902344 250.136719 C 230.582031 250.136719 231.269531 250.078125 231.941406 249.957031 C 239.402344 248.644531 244.226562 240.496094 242.695312 231.792969 Z M 242.695312 231.792969"/><path fill="#4D4C51" d="M 235.664062 233.027344 C 234.929688 228.84375 231.425781 225.960938 227.84375 226.59375 C 224.257812 227.222656 221.945312 231.125 222.679688 235.3125 C 223.414062 239.496094 226.917969 242.378906 230.503906 241.746094 C 234.089844 241.117188 236.398438 237.214844 235.664062 233.027344 Z M 235.664062 233.027344"/><path fill="#FF6561" d="M 259.613281 214.605469 C 258.511719 212.25 255.371094 206.132812 250.75 202.097656 C 246.273438 198.191406 241.96875 193.441406 229.582031 194.042969 C 229.582031 194.042969 222.265625 193.882812 213.515625 198.628906 C 213.515625 198.628906 246.78125 211.488281 252.5 218.183594 C 252.5 218.183594 253.101562 218.398438 256.425781 217.386719 C 257.574219 217.039062 258.367188 216.742188 258.910156 216.496094 C 259.628906 216.167969 259.949219 215.320312 259.613281 214.605469 Z M 259.613281 214.605469"/><path fill="#FE4C40" d="M 211.53125 200.253906 C 212.359375 199.164062 213.566406 198.414062 214.917969 198.183594 C 239.058594 194.042969 252.5 218.183594 252.5 218.183594 C 240.390625 218.34375 229.394531 215.65625 220.835938 215.488281 C 219.265625 215.269531 217.703125 216.019531 216.441406 216.976562 C 210.480469 221.5 206.726562 226.417969 206.726562 226.417969 C 203.988281 227.765625 201.265625 226.417969 201.265625 226.417969 C 205.070312 210.386719 209.316406 203.15625 211.53125 200.253906 Z M 211.53125 200.253906"/><path fill="#2B1963" d="M 175 137.246094 L 164.863281 138.292969 L 164.921875 141.410156 L 175.058594 140.363281 C 176.636719 140.179688 176.332031 137.078125 175 137.246094 Z M 175 137.246094"/><path fill="#2B1963" d="M 110.722656 91.144531 C 110.574219 91.082031 110.449219 90.980469 110.351562 90.835938 C 110.25 90.695312 110.203125 90.542969 110.203125 90.378906 C 110.203125 90.167969 110.273438 89.988281 110.417969 89.832031 C 110.558594 89.675781 110.742188 89.597656 110.964844 89.597656 C 111.089844 89.597656 111.207031 89.621094 111.320312 89.671875 C 112.464844 90.183594 113.6875 90.4375 114.992188 90.4375 C 117.167969 90.4375 118.257812 89.722656 118.257812 88.292969 C 118.257812 87.917969 118.117188 87.609375 117.835938 87.359375 C 117.558594 87.113281 117.210938 86.917969 116.800781 86.773438 C 116.390625 86.628906 115.808594 86.460938 115.050781 86.261719 C 114.042969 86 113.226562 85.746094 112.605469 85.503906 C 111.984375 85.261719 111.453125 84.898438 111.003906 84.414062 C 110.554688 83.929688 110.332031 83.285156 110.332031 82.476562 C 110.332031 81.765625 110.519531 81.125 110.890625 80.546875 C 111.265625 79.96875 111.816406 79.507812 112.542969 79.167969 C 113.269531 78.824219 114.140625 78.652344 115.160156 78.652344 C 116.527344 78.652344 117.765625 78.859375 118.871094 79.269531 C 119.21875 79.394531 119.394531 79.640625 119.394531 80.015625 C 119.394531 80.214844 119.324219 80.394531 119.1875 80.554688 C 119.050781 80.71875 118.871094 80.796875 118.648438 80.796875 C 118.574219 80.796875 118.472656 80.773438 118.351562 80.722656 C 117.378906 80.386719 116.378906 80.21875 115.347656 80.21875 C 114.367188 80.21875 113.566406 80.40625 112.953125 80.777344 C 112.335938 81.152344 112.03125 81.675781 112.03125 82.34375 C 112.03125 82.792969 112.175781 83.15625 112.46875 83.4375 C 112.757812 83.714844 113.125 83.933594 113.566406 84.089844 C 114.007812 84.242188 114.609375 84.410156 115.367188 84.582031 C 116.347656 84.820312 117.140625 85.054688 117.742188 85.292969 C 118.347656 85.527344 118.863281 85.894531 119.292969 86.390625 C 119.71875 86.886719 119.933594 87.558594 119.933594 88.40625 C 119.933594 89.101562 119.734375 89.726562 119.335938 90.277344 C 118.941406 90.832031 118.378906 91.265625 117.660156 91.574219 C 116.9375 91.886719 116.105469 92.039062 115.160156 92.039062 C 113.582031 92.039062 112.105469 91.742188 110.722656 91.144531 Z M 110.722656 91.144531"/><path fill="#2B1963" d="M 122.910156 90.746094 C 122.058594 89.882812 121.632812 88.664062 121.632812 87.101562 C 121.632812 86.21875 121.792969 85.402344 122.117188 84.65625 C 122.441406 83.910156 122.9375 83.308594 123.609375 82.847656 C 124.277344 82.390625 125.105469 82.160156 126.085938 82.160156 C 127.007812 82.160156 127.804688 82.375 128.472656 82.800781 C 129.144531 83.230469 129.65625 83.804688 130.003906 84.515625 C 130.351562 85.234375 130.523438 86.011719 130.523438 86.855469 C 130.523438 87.09375 130.449219 87.292969 130.292969 87.453125 C 130.136719 87.617188 129.929688 87.695312 129.667969 87.695312 L 123.347656 87.695312 C 123.445312 88.566406 123.769531 89.242188 124.316406 89.726562 C 124.863281 90.214844 125.628906 90.457031 126.609375 90.457031 C 127.132812 90.457031 127.589844 90.40625 127.980469 90.304688 C 128.371094 90.207031 128.753906 90.0625 129.128906 89.878906 C 129.226562 89.828125 129.339844 89.804688 129.460938 89.804688 C 129.660156 89.804688 129.835938 89.871094 129.984375 90.007812 C 130.132812 90.144531 130.207031 90.320312 130.207031 90.53125 C 130.207031 90.804688 130.046875 91.035156 129.722656 91.21875 C 129.238281 91.492188 128.761719 91.699219 128.289062 91.835938 C 127.816406 91.972656 127.207031 92.039062 126.460938 92.039062 C 124.945312 92.039062 123.761719 91.609375 122.910156 90.746094 Z M 128.847656 86.316406 C 128.808594 85.707031 128.652344 85.199219 128.371094 84.789062 C 128.089844 84.378906 127.746094 84.078125 127.335938 83.882812 C 126.925781 83.691406 126.507812 83.59375 126.085938 83.59375 C 125.664062 83.59375 125.25 83.691406 124.839844 83.882812 C 124.429688 84.078125 124.085938 84.378906 123.8125 84.789062 C 123.539062 85.199219 123.382812 85.707031 123.347656 86.316406 Z M 128.847656 86.316406"/><path fill="#2B1963" d="M 133.003906 91.703125 C 132.84375 91.542969 132.761719 91.34375 132.761719 91.109375 L 132.761719 83.109375 C 132.761719 82.875 132.84375 82.671875 133.003906 82.503906 C 133.167969 82.335938 133.363281 82.253906 133.601562 82.253906 C 133.835938 82.253906 134.039062 82.335938 134.207031 82.503906 C 134.375 82.671875 134.457031 82.875 134.457031 83.109375 L 134.457031 83.910156 C 135.328125 82.742188 136.304688 82.160156 137.386719 82.160156 L 137.480469 82.160156 C 137.714844 82.160156 137.910156 82.238281 138.066406 82.402344 C 138.222656 82.5625 138.300781 82.761719 138.300781 83 C 138.300781 83.234375 138.21875 83.425781 138.058594 83.574219 C 137.894531 83.726562 137.691406 83.800781 137.441406 83.800781 L 137.347656 83.800781 C 136.753906 83.800781 136.207031 83.945312 135.707031 84.238281 C 135.210938 84.53125 134.792969 84.929688 134.457031 85.441406 L 134.457031 91.109375 C 134.457031 91.34375 134.375 91.542969 134.207031 91.703125 C 134.039062 91.867188 133.835938 91.949219 133.601562 91.949219 C 133.363281 91.949219 133.167969 91.867188 133.003906 91.703125 Z M 133.003906 91.703125"/><path fill="#2B1963" d="M 142.664062 91.75 C 142.476562 91.621094 142.339844 91.457031 142.253906 91.257812 L 139.007812 83.5 C 138.945312 83.351562 138.914062 83.222656 138.914062 83.109375 C 138.914062 82.875 138.996094 82.671875 139.15625 82.503906 C 139.320312 82.335938 139.519531 82.253906 139.753906 82.253906 C 139.914062 82.253906 140.066406 82.296875 140.210938 82.390625 C 140.355469 82.484375 140.457031 82.601562 140.519531 82.738281 L 143.371094 89.972656 L 146.222656 82.738281 C 146.285156 82.601562 146.390625 82.484375 146.53125 82.390625 C 146.675781 82.296875 146.828125 82.253906 146.988281 82.253906 C 147.222656 82.253906 147.421875 82.335938 147.585938 82.503906 C 147.746094 82.671875 147.828125 82.875 147.828125 83.109375 C 147.828125 83.222656 147.796875 83.351562 147.734375 83.5 L 144.488281 91.257812 C 144.402344 91.457031 144.265625 91.621094 144.078125 91.75 C 143.894531 91.882812 143.6875 91.949219 143.464844 91.949219 L 143.277344 91.949219 C 143.054688 91.949219 142.847656 91.882812 142.664062 91.75 Z M 142.664062 91.75"/><path fill="#2B1963" d="M 149.914062 80.125 C 149.730469 79.941406 149.636719 79.714844 149.636719 79.457031 L 149.636719 79.382812 C 149.636719 79.121094 149.730469 78.894531 149.914062 78.710938 C 150.101562 78.523438 150.328125 78.429688 150.585938 78.429688 L 150.699219 78.429688 C 150.960938 78.429688 151.183594 78.523438 151.371094 78.710938 C 151.558594 78.894531 151.648438 79.121094 151.648438 79.382812 L 151.648438 79.457031 C 151.648438 79.714844 151.558594 79.941406 151.371094 80.125 C 151.183594 80.3125 150.960938 80.40625 150.699219 80.40625 L 150.585938 80.40625 C 150.328125 80.40625 150.101562 80.3125 149.914062 80.125 Z M 150.027344 91.703125 C 149.867188 91.542969 149.785156 91.34375 149.785156 91.109375 L 149.785156 83.109375 C 149.785156 82.875 149.867188 82.671875 150.027344 82.503906 C 150.1875 82.335938 150.386719 82.253906 150.625 82.253906 C 150.871094 82.253906 151.078125 82.332031 151.238281 82.496094 C 151.402344 82.65625 151.480469 82.859375 151.480469 83.109375 L 151.480469 91.109375 C 151.480469 91.34375 151.398438 91.542969 151.230469 91.703125 C 151.0625 91.867188 150.859375 91.949219 150.625 91.949219 C 150.386719 91.949219 150.1875 91.867188 150.027344 91.703125 Z M 150.027344 91.703125"/><path fill="#2B1963" d="M 156.347656 91.445312 C 155.589844 91.046875 154.984375 90.472656 154.53125 89.726562 C 154.078125 88.984375 153.851562 88.105469 153.851562 87.101562 C 153.851562 86.09375 154.078125 85.214844 154.53125 84.46875 C 154.984375 83.726562 155.589844 83.152344 156.347656 82.753906 C 157.105469 82.359375 157.933594 82.160156 158.828125 82.160156 C 159.488281 82.160156 160.054688 82.242188 160.535156 82.410156 C 161.011719 82.578125 161.457031 82.792969 161.867188 83.054688 C 162.117188 83.214844 162.238281 83.433594 162.238281 83.707031 C 162.238281 83.894531 162.167969 84.0625 162.027344 84.21875 C 161.882812 84.375 161.71875 84.453125 161.53125 84.453125 C 161.394531 84.453125 161.257812 84.414062 161.121094 84.339844 C 160.710938 84.128906 160.359375 83.976562 160.066406 83.882812 C 159.777344 83.789062 159.414062 83.742188 158.976562 83.742188 C 157.910156 83.742188 157.070312 84.050781 156.460938 84.667969 C 155.851562 85.28125 155.546875 86.09375 155.546875 87.101562 C 155.546875 88.105469 155.851562 88.917969 156.460938 89.53125 C 157.070312 90.148438 157.910156 90.457031 158.976562 90.457031 C 159.414062 90.457031 159.777344 90.410156 160.066406 90.316406 C 160.359375 90.222656 160.710938 90.070312 161.121094 89.859375 C 161.257812 89.785156 161.394531 89.746094 161.53125 89.746094 C 161.71875 89.746094 161.882812 89.824219 162.027344 89.980469 C 162.167969 90.136719 162.238281 90.304688 162.238281 90.492188 C 162.238281 90.765625 162.117188 90.984375 161.867188 91.144531 C 161.457031 91.40625 161.011719 91.621094 160.535156 91.789062 C 160.054688 91.957031 159.488281 92.039062 158.828125 92.039062 C 157.933594 92.039062 157.105469 91.84375 156.347656 91.445312 Z M 156.347656 91.445312"/><path fill="#2B1963" d="M 164.988281 90.746094 C 164.136719 89.882812 163.714844 88.664062 163.714844 87.101562 C 163.714844 86.21875 163.875 85.402344 164.199219 84.65625 C 164.519531 83.910156 165.019531 83.308594 165.6875 82.847656 C 166.359375 82.390625 167.1875 82.160156 168.167969 82.160156 C 169.089844 82.160156 169.882812 82.375 170.554688 82.800781 C 171.226562 83.230469 171.738281 83.804688 172.085938 84.515625 C 172.433594 85.234375 172.605469 86.011719 172.605469 86.855469 C 172.605469 87.09375 172.527344 87.292969 172.375 87.453125 C 172.21875 87.617188 172.011719 87.695312 171.75 87.695312 L 165.429688 87.695312 C 165.527344 88.566406 165.851562 89.242188 166.398438 89.726562 C 166.945312 90.214844 167.707031 90.457031 168.691406 90.457031 C 169.214844 90.457031 169.671875 90.40625 170.0625 90.304688 C 170.453125 90.207031 170.835938 90.0625 171.207031 89.878906 C 171.308594 89.828125 171.417969 89.804688 171.542969 89.804688 C 171.742188 89.804688 171.917969 89.871094 172.066406 90.007812 C 172.214844 90.144531 172.289062 90.320312 172.289062 90.53125 C 172.289062 90.804688 172.128906 91.035156 171.804688 91.21875 C 171.320312 91.492188 170.839844 91.699219 170.367188 91.835938 C 169.898438 91.972656 169.289062 92.039062 168.542969 92.039062 C 167.023438 92.039062 165.839844 91.609375 164.988281 90.746094 Z M 170.929688 86.316406 C 170.890625 85.707031 170.734375 85.199219 170.453125 84.789062 C 170.171875 84.378906 169.828125 84.078125 169.417969 83.882812 C 169.007812 83.691406 168.589844 83.59375 168.167969 83.59375 C 167.746094 83.59375 167.332031 83.691406 166.917969 83.882812 C 166.511719 84.078125 166.167969 84.378906 165.894531 84.789062 C 165.621094 85.199219 165.464844 85.707031 165.429688 86.316406 Z M 170.929688 86.316406"/><path fill="#2B1963" d="M 111.300781 72.261719 C 111.140625 72.097656 111.058594 71.898438 111.058594 71.664062 L 111.058594 60.347656 C 111.058594 60.109375 111.140625 59.90625 111.300781 59.738281 C 111.464844 59.574219 111.664062 59.488281 111.898438 59.488281 L 115.644531 59.488281 C 117.0625 59.488281 118.265625 59.800781 119.253906 60.429688 C 120.242188 61.058594 120.984375 61.867188 121.484375 62.863281 C 121.980469 63.859375 122.226562 64.902344 122.226562 65.996094 C 122.226562 67.089844 121.980469 68.132812 121.484375 69.128906 C 120.984375 70.121094 120.242188 70.933594 119.253906 71.5625 C 118.265625 72.1875 117.0625 72.503906 115.644531 72.503906 L 111.898438 72.503906 C 111.664062 72.503906 111.464844 72.421875 111.300781 72.261719 Z M 115.441406 70.917969 C 116.460938 70.917969 117.355469 70.710938 118.125 70.292969 C 118.898438 69.878906 119.492188 69.300781 119.914062 68.558594 C 120.339844 67.820312 120.550781 66.964844 120.550781 65.996094 C 120.550781 65.027344 120.339844 64.171875 119.914062 63.433594 C 119.492188 62.691406 118.898438 62.113281 118.125 61.699219 C 117.355469 61.28125 116.460938 61.074219 115.441406 61.074219 L 112.757812 61.074219 L 112.757812 70.917969 Z M 115.441406 70.917969"/><path fill="#2B1963" d="M 125.070312 71.394531 C 124.21875 70.53125 123.792969 69.3125 123.792969 67.75 C 123.792969 66.867188 123.953125 66.050781 124.277344 65.304688 C 124.601562 64.558594 125.097656 63.957031 125.769531 63.496094 C 126.441406 63.039062 127.269531 62.808594 128.25 62.808594 C 129.171875 62.808594 129.964844 63.023438 130.636719 63.449219 C 131.308594 63.878906 131.816406 64.453125 132.164062 65.164062 C 132.511719 65.882812 132.6875 66.660156 132.6875 67.503906 C 132.6875 67.742188 132.609375 67.941406 132.453125 68.101562 C 132.300781 68.265625 132.089844 68.34375 131.828125 68.34375 L 125.507812 68.34375 C 125.609375 69.214844 125.933594 69.890625 126.480469 70.375 C 127.023438 70.863281 127.789062 71.105469 128.773438 71.105469 C 129.292969 71.105469 129.75 71.054688 130.140625 70.953125 C 130.535156 70.855469 130.914062 70.710938 131.289062 70.527344 C 131.386719 70.476562 131.5 70.453125 131.625 70.453125 C 131.824219 70.453125 131.996094 70.519531 132.148438 70.65625 C 132.296875 70.792969 132.371094 70.96875 132.371094 71.179688 C 132.371094 71.453125 132.207031 71.683594 131.886719 71.867188 C 131.402344 72.140625 130.921875 72.347656 130.449219 72.484375 C 129.976562 72.621094 129.367188 72.6875 128.621094 72.6875 C 127.105469 72.6875 125.921875 72.257812 125.070312 71.394531 Z M 131.007812 66.964844 C 130.972656 66.355469 130.8125 65.847656 130.535156 65.4375 C 130.253906 65.027344 129.910156 64.726562 129.5 64.53125 C 129.089844 64.339844 128.671875 64.242188 128.25 64.242188 C 127.828125 64.242188 127.410156 64.339844 127 64.53125 C 126.589844 64.726562 126.25 65.027344 125.976562 65.4375 C 125.703125 65.847656 125.546875 66.355469 125.507812 66.964844 Z M 131.007812 66.964844"/><path fill="#2B1963" d="M 135.167969 72.351562 C 135.003906 72.191406 134.925781 71.992188 134.925781 71.757812 L 134.925781 59.65625 C 134.925781 59.421875 135.003906 59.21875 135.167969 59.050781 C 135.328125 58.882812 135.527344 58.800781 135.765625 58.800781 C 136.011719 58.800781 136.21875 58.878906 136.378906 59.042969 C 136.539062 59.203125 136.621094 59.40625 136.621094 59.65625 L 136.621094 71.757812 C 136.621094 71.992188 136.539062 72.191406 136.371094 72.351562 C 136.203125 72.515625 136 72.597656 135.765625 72.597656 C 135.527344 72.597656 135.328125 72.515625 135.167969 72.351562 Z M 135.167969 72.351562"/><path fill="#2B1963" d="M 139.699219 60.773438 C 139.511719 60.589844 139.417969 60.363281 139.417969 60.105469 L 139.417969 60.03125 C 139.417969 59.769531 139.511719 59.542969 139.699219 59.359375 C 139.882812 59.171875 140.109375 59.078125 140.367188 59.078125 L 140.480469 59.078125 C 140.742188 59.078125 140.964844 59.171875 141.152344 59.359375 C 141.339844 59.542969 141.433594 59.769531 141.433594 60.03125 L 141.433594 60.105469 C 141.433594 60.363281 141.339844 60.589844 141.152344 60.773438 C 140.964844 60.960938 140.742188 61.054688 140.480469 61.054688 L 140.367188 61.054688 C 140.109375 61.054688 139.882812 60.960938 139.699219 60.773438 Z M 139.808594 72.351562 C 139.648438 72.191406 139.566406 71.992188 139.566406 71.757812 L 139.566406 63.757812 C 139.566406 63.523438 139.648438 63.320312 139.808594 63.152344 C 139.972656 62.984375 140.171875 62.902344 140.40625 62.902344 C 140.65625 62.902344 140.859375 62.980469 141.023438 63.144531 C 141.183594 63.304688 141.261719 63.507812 141.261719 63.757812 L 141.261719 71.757812 C 141.261719 71.992188 141.179688 72.191406 141.011719 72.351562 C 140.84375 72.515625 140.640625 72.597656 140.40625 72.597656 C 140.171875 72.597656 139.972656 72.515625 139.808594 72.351562 Z M 139.808594 72.351562"/><path fill="#2B1963" d="M 146.96875 72.398438 C 146.78125 72.269531 146.644531 72.105469 146.558594 71.90625 L 143.316406 64.148438 C 143.253906 64 143.222656 63.871094 143.222656 63.757812 C 143.222656 63.523438 143.300781 63.320312 143.464844 63.152344 C 143.625 62.984375 143.824219 62.902344 144.0625 62.902344 C 144.222656 62.902344 144.375 62.945312 144.519531 63.039062 C 144.660156 63.132812 144.761719 63.25 144.824219 63.386719 L 147.675781 70.621094 L 150.53125 63.386719 C 150.59375 63.25 150.695312 63.132812 150.839844 63.039062 C 150.980469 62.945312 151.132812 62.902344 151.292969 62.902344 C 151.53125 62.902344 151.730469 62.984375 151.890625 63.152344 C 152.054688 63.320312 152.132812 63.523438 152.132812 63.757812 C 152.132812 63.871094 152.101562 64 152.039062 64.148438 L 148.796875 71.90625 C 148.710938 72.105469 148.574219 72.269531 148.386719 72.398438 C 148.199219 72.53125 147.996094 72.597656 147.769531 72.597656 L 147.585938 72.597656 C 147.359375 72.597656 147.15625 72.53125 146.96875 72.398438 Z M 146.96875 72.398438"/><path fill="#2B1963" d="M 154.660156 71.394531 C 153.808594 70.53125 153.382812 69.3125 153.382812 67.75 C 153.382812 66.867188 153.546875 66.050781 153.867188 65.304688 C 154.191406 64.558594 154.6875 63.957031 155.359375 63.496094 C 156.03125 63.039062 156.859375 62.808594 157.839844 62.808594 C 158.761719 62.808594 159.554688 63.023438 160.226562 63.449219 C 160.898438 63.878906 161.40625 64.453125 161.753906 65.164062 C 162.101562 65.882812 162.277344 66.660156 162.277344 67.503906 C 162.277344 67.742188 162.199219 67.941406 162.042969 68.101562 C 161.890625 68.265625 161.679688 68.34375 161.417969 68.34375 L 155.097656 68.34375 C 155.199219 69.214844 155.523438 69.890625 156.070312 70.375 C 156.613281 70.863281 157.378906 71.105469 158.363281 71.105469 C 158.882812 71.105469 159.339844 71.054688 159.730469 70.953125 C 160.125 70.855469 160.507812 70.710938 160.878906 70.527344 C 160.976562 70.476562 161.089844 70.453125 161.214844 70.453125 C 161.414062 70.453125 161.585938 70.519531 161.738281 70.65625 C 161.886719 70.792969 161.960938 70.96875 161.960938 71.179688 C 161.960938 71.453125 161.796875 71.683594 161.476562 71.867188 C 160.992188 72.140625 160.511719 72.347656 160.039062 72.484375 C 159.566406 72.621094 158.957031 72.6875 158.210938 72.6875 C 156.695312 72.6875 155.511719 72.257812 154.660156 71.394531 Z M 160.597656 66.964844 C 160.5625 66.355469 160.402344 65.847656 160.125 65.4375 C 159.84375 65.027344 159.5 64.726562 159.089844 64.53125 C 158.679688 64.339844 158.261719 64.242188 157.839844 64.242188 C 157.417969 64.242188 157 64.339844 156.589844 64.53125 C 156.179688 64.726562 155.839844 65.027344 155.566406 65.4375 C 155.292969 65.847656 155.136719 66.355469 155.097656 66.964844 Z M 160.597656 66.964844"/><path fill="#2B1963" d="M 164.757812 72.351562 C 164.59375 72.191406 164.515625 71.992188 164.515625 71.757812 L 164.515625 63.757812 C 164.515625 63.523438 164.59375 63.320312 164.757812 63.152344 C 164.917969 62.984375 165.117188 62.902344 165.355469 62.902344 C 165.589844 62.902344 165.792969 62.984375 165.960938 63.152344 C 166.128906 63.320312 166.210938 63.523438 166.210938 63.757812 L 166.210938 64.558594 C 167.082031 63.390625 168.058594 62.808594 169.136719 62.808594 L 169.230469 62.808594 C 169.46875 62.808594 169.664062 62.886719 169.820312 63.050781 C 169.972656 63.210938 170.050781 63.410156 170.050781 63.648438 C 170.050781 63.882812 169.972656 64.074219 169.808594 64.222656 C 169.648438 64.375 169.441406 64.449219 169.195312 64.449219 L 169.101562 64.449219 C 168.503906 64.449219 167.957031 64.59375 167.460938 64.886719 C 166.964844 65.179688 166.546875 65.578125 166.210938 66.089844 L 166.210938 71.757812 C 166.210938 71.992188 166.128906 72.191406 165.960938 72.351562 C 165.792969 72.515625 165.589844 72.597656 165.355469 72.597656 C 165.117188 72.597656 164.917969 72.515625 164.757812 72.351562 Z M 164.757812 72.351562"/><path fill="#2B1963" d="M 173.210938 76.640625 C 173.058594 76.480469 172.980469 76.285156 172.980469 76.0625 C 172.980469 75.964844 173 75.863281 173.035156 75.765625 L 174.246094 72.652344 L 170.742188 64.113281 C 170.691406 63.988281 170.667969 63.871094 170.667969 63.757812 C 170.667969 63.523438 170.75 63.320312 170.910156 63.152344 C 171.070312 62.984375 171.269531 62.902344 171.507812 62.902344 C 171.679688 62.902344 171.839844 62.949219 171.980469 63.050781 C 172.125 63.148438 172.226562 63.273438 172.289062 63.421875 L 175.160156 70.542969 L 178.089844 63.460938 C 178.25 63.085938 178.511719 62.902344 178.871094 62.902344 C 179.105469 62.902344 179.304688 62.984375 179.46875 63.152344 C 179.628906 63.320312 179.710938 63.523438 179.710938 63.757812 C 179.710938 63.871094 179.691406 63.976562 179.652344 64.074219 L 174.5625 76.304688 C 174.390625 76.691406 174.128906 76.882812 173.78125 76.882812 C 173.558594 76.882812 173.367188 76.804688 173.210938 76.640625 Z M 173.210938 76.640625"/><path fill="#F4A998" d="M 302.34375 239.027344 L 302.34375 251.878906 C 302.34375 254.429688 295.757812 254.429688 295.757812 251.878906 L 293.632812 239.027344 Z M 302.34375 239.027344"/><path fill="#F4A998" d="M 274.578125 238.242188 L 272.625 250.945312 C 272.234375 253.464844 265.726562 252.464844 266.113281 249.945312 L 265.96875 236.917969 Z M 274.578125 238.242188"/><path fill="#F4A998" d="M 288.855469 91.558594 C 280.59375 92.367188 278.824219 80.386719 278.824219 80.386719 C 278.824219 80.386719 279.257812 78.285156 279.367188 76.039062 C 279.492188 73.890625 279.324219 72.09375 279.324219 72.09375 L 291.828125 76.332031 C 291.828125 76.695312 291.839844 77.03125 291.882812 77.339844 C 292.027344 78.820312 292.738281 79.71875 293.207031 80.386719 C 293.761719 81.179688 294.074219 81.59375 294.074219 81.59375 C 294.074219 81.59375 297.113281 90.75 288.855469 91.558594 Z M 288.855469 91.558594"/><path fill="#20154F" d="M 272.769531 53.152344 C 274.902344 48.152344 280.726562 48.039062 280.726562 48.039062 L 285.832031 52.25 C 285.832031 52.25 285.988281 57.917969 285.714844 57.960938 C 285.433594 57.988281 280.253906 69.675781 280.078125 69.675781 L 274.382812 65.402344 C 274.382812 65.402344 270.628906 58.15625 272.769531 53.152344 Z M 272.769531 53.152344"/><path fill="#F2C3B3" d="M 274.792969 64.667969 C 275.585938 63.542969 276.480469 63.546875 277.25 63.929688 C 278.058594 64.328125 278.601562 65.125 278.84375 65.992188 L 279.324219 67.71875 L 279.648438 67.726562 C 279.992188 62.210938 281.917969 53.179688 285.5625 51.894531 C 290.207031 50.257812 295.371094 51.054688 297.027344 53.640625 C 300.339844 58.808594 299.179688 76.226562 290.257812 77.757812 C 281.339844 79.285156 277.433594 70.261719 277.433594 70.261719 C 277.433594 70.261719 272.417969 68.054688 274.792969 64.667969 Z M 274.792969 64.667969"/><path fill="#D1DCF8" d="M 245.402344 7.109375 C 255.574219 8.175781 263.640625 16.835938 264.050781 27.058594 C 264.1875 30.472656 263.511719 33.703125 262.1875 36.605469 L 268.246094 44.390625 C 268.851562 45.164062 268.09375 46.253906 267.15625 45.960938 L 257.667969 42.984375 C 253.425781 47.085938 247.457031 49.40625 240.960938 48.75 C 231.675781 47.816406 223.933594 40.582031 222.46875 31.363281 C 220.265625 17.503906 231.664062 5.664062 245.402344 7.109375 Z M 245.402344 7.109375"/><path fill="#BBCAEA" d="M 251.074219 39.273438 C 251.074219 39.402344 251.023438 39.53125 250.921875 39.660156 C 250.820312 39.789062 250.667969 39.914062 250.46875 40.035156 C 250.269531 40.15625 250.023438 40.269531 249.734375 40.378906 C 249.445312 40.484375 249.117188 40.585938 248.746094 40.679688 C 248.378906 40.769531 247.976562 40.851562 247.542969 40.925781 C 247.109375 41 246.652344 41.058594 246.171875 41.109375 C 245.6875 41.160156 245.191406 41.195312 244.679688 41.222656 C 244.167969 41.246094 243.652344 41.261719 243.128906 41.261719 C 242.609375 41.261719 242.09375 41.246094 241.582031 41.222656 C 241.070312 41.195312 240.570312 41.160156 240.089844 41.109375 C 239.609375 41.058594 239.148438 41 238.714844 40.925781 C 238.28125 40.851562 237.882812 40.769531 237.511719 40.679688 C 237.144531 40.585938 236.816406 40.484375 236.523438 40.378906 C 236.234375 40.269531 235.992188 40.15625 235.789062 40.035156 C 235.589844 39.914062 235.441406 39.789062 235.339844 39.660156 C 235.238281 39.53125 235.1875 39.402344 235.1875 39.273438 C 235.1875 39.144531 235.238281 39.015625 235.339844 38.886719 C 235.441406 38.757812 235.589844 38.632812 235.789062 38.511719 C 235.992188 38.390625 236.234375 38.277344 236.523438 38.167969 C 236.816406 38.0625 237.144531 37.960938 237.511719 37.867188 C 237.882812 37.777344 238.28125 37.695312 238.714844 37.621094 C 239.148438 37.546875 239.609375 37.488281 240.089844 37.4375 C 240.570312 37.386719 241.070312 37.351562 241.582031 37.324219 C 242.09375 37.300781 242.609375 37.285156 243.128906 37.285156 C 243.652344 37.285156 244.167969 37.300781 244.679688 37.324219 C 245.191406 37.351562 245.6875 37.386719 246.171875 37.4375 C 246.652344 37.488281 247.109375 37.546875 247.542969 37.621094 C 247.976562 37.695312 248.378906 37.777344 248.746094 37.867188 C 249.117188 37.960938 249.445312 38.0625 249.734375 38.167969 C 250.023438 38.277344 250.269531 38.390625 250.46875 38.511719 C 250.667969 38.632812 250.820312 38.757812 250.921875 38.886719 C 251.023438 39.015625 251.074219 39.144531 251.074219 39.273438 Z M 251.074219 39.273438"/><path fill="#FE4C40" d="M 243.132812 14.589844 C 238.527344 14.589844 234.800781 18.324219 234.800781 22.921875 C 234.800781 26.261719 239.195312 34.015625 241.601562 38.015625 C 242.296875 39.171875 243.972656 39.167969 244.667969 38.015625 C 247.070312 34.015625 251.460938 26.261719 251.460938 22.921875 C 251.460938 18.324219 247.730469 14.589844 243.132812 14.589844 Z M 243.132812 26.773438 C 241 26.773438 239.273438 25.046875 239.273438 22.921875 C 239.273438 20.796875 241 19.070312 243.132812 19.070312 C 245.261719 19.070312 246.984375 20.796875 246.984375 22.921875 C 246.984375 25.046875 245.261719 26.773438 243.132812 26.773438 Z M 243.132812 26.773438"/><path fill="#EA7D20" d="M 300.6875 52.496094 L 300.6875 53.242188 C 298.90625 53.757812 297.054688 54.21875 295.128906 54.578125 C 291.09375 55.351562 286.785156 55.796875 282.257812 56 C 281.265625 56.042969 280.289062 56.101562 279.285156 56.113281 C 277.230469 56.15625 275.148438 56.171875 273.023438 56.128906 C 272.476562 56.113281 272.003906 55.742188 271.917969 55.195312 C 271.742188 54.289062 271.601562 53.183594 271.601562 52.496094 C 271.601562 45.484375 278.007812 39.8125 285.949219 39.726562 C 286.050781 39.710938 286.136719 39.710938 286.222656 39.710938 L 286.308594 39.710938 C 294.253906 39.78125 300.6875 45.472656 300.6875 52.496094 Z M 300.6875 52.496094"/><path fill="#EE984F" d="M 306.871094 55.777344 C 304.546875 54.449219 300.691406 53.242188 300.691406 53.242188 C 294.9375 52.832031 287.746094 53.84375 279.28125 56.113281 C 280.339844 56.742188 285.898438 59.941406 290.519531 60.632812 C 291.734375 60.816406 292.984375 60.664062 294.109375 60.167969 C 297.839844 58.519531 301.992188 57.632812 306.488281 57.371094 C 307.335938 57.320312 307.609375 56.199219 306.871094 55.777344 Z M 306.871094 55.777344"/><path fill="#EE984F" d="M 259.183594 95.75 C 261.019531 91.152344 264.644531 87.472656 269.566406 85.960938 L 279.613281 82.875 L 286.023438 90.578125 L 292.433594 82.875 L 308.027344 87.671875 L 313.578125 95.175781 L 306.582031 155.375 L 265.449219 155.375 L 258.667969 97.039062 Z M 259.183594 95.75"/><path fill="#F2C3B3" d="M 294.515625 120.160156 C 294.515625 120.160156 295.082031 117.496094 294.070312 117.066406 C 292.214844 116.277344 293.128906 119.597656 290.914062 121.261719"/><path fill="#EA7D20" d="M 286.015625 90.574219 L 293.570312 93.839844 L 298.15625 84.636719 L 293.207031 80.386719 Z M 286.015625 90.574219"/><path fill="#EA7D20" d="M 286.015625 90.574219 L 278.457031 93.839844 L 273.84375 84.648438 L 278.824219 80.386719 Z M 286.015625 90.574219"/><path fill="#20154F" d="M 296.542969 64.9375 C 296.542969 65.109375 296.523438 65.273438 296.484375 65.433594 C 296.445312 65.59375 296.390625 65.734375 296.316406 65.855469 C 296.242188 65.976562 296.15625 66.070312 296.0625 66.136719 C 295.964844 66.203125 295.867188 66.234375 295.761719 66.234375 C 295.65625 66.234375 295.558594 66.203125 295.460938 66.136719 C 295.367188 66.070312 295.28125 65.976562 295.207031 65.855469 C 295.136719 65.734375 295.078125 65.59375 295.039062 65.433594 C 295 65.273438 294.980469 65.109375 294.980469 64.9375 C 294.980469 64.761719 295 64.597656 295.039062 64.4375 C 295.078125 64.28125 295.136719 64.140625 295.207031 64.015625 C 295.28125 63.894531 295.367188 63.800781 295.460938 63.734375 C 295.558594 63.667969 295.65625 63.636719 295.761719 63.636719 C 295.867188 63.636719 295.964844 63.667969 296.0625 63.734375 C 296.15625 63.800781 296.242188 63.894531 296.316406 64.015625 C 296.390625 64.140625 296.445312 64.28125 296.484375 64.4375 C 296.523438 64.597656 296.542969 64.761719 296.542969 64.9375 Z M 296.542969 64.9375"/><path fill="#20154F" d="M 288.878906 65.046875 C 288.878906 65.21875 288.859375 65.386719 288.820312 65.546875 C 288.78125 65.703125 288.722656 65.84375 288.652344 65.96875 C 288.578125 66.089844 288.492188 66.183594 288.398438 66.25 C 288.300781 66.3125 288.203125 66.347656 288.097656 66.347656 C 287.992188 66.347656 287.894531 66.3125 287.796875 66.25 C 287.703125 66.183594 287.617188 66.089844 287.542969 65.96875 C 287.46875 65.84375 287.414062 65.703125 287.375 65.546875 C 287.335938 65.386719 287.316406 65.21875 287.316406 65.046875 C 287.316406 64.875 287.335938 64.710938 287.375 64.550781 C 287.414062 64.390625 287.472656 64.25 287.542969 64.128906 C 287.617188 64.007812 287.703125 63.914062 287.796875 63.847656 C 287.894531 63.78125 287.992188 63.75 288.097656 63.75 C 288.203125 63.75 288.300781 63.78125 288.398438 63.847656 C 288.492188 63.914062 288.578125 64.007812 288.652344 64.128906 C 288.722656 64.25 288.78125 64.390625 288.820312 64.550781 C 288.859375 64.710938 288.878906 64.875 288.878906 65.046875 Z M 288.878906 65.046875"/><path fill="#20154F" d="M 294.234375 61.433594 C 294.128906 61.289062 294.160156 61.089844 294.304688 60.984375 C 295.152344 60.363281 296.289062 60.3125 297.191406 60.851562 C 297.347656 60.945312 297.398438 61.140625 297.304688 61.296875 C 297.214844 61.449219 297.011719 61.5 296.863281 61.40625 C 296.179688 61.003906 295.324219 61.039062 294.6875 61.507812 C 294.539062 61.609375 294.339844 61.578125 294.234375 61.433594 Z M 294.234375 61.433594"/><path fill="#20154F" d="M 288.089844 73.414062 C 288.085938 76.082031 292.160156 76.585938 293.128906 73.625 C 291.695312 74.34375 289.378906 74.042969 288.089844 73.414062 Z M 288.089844 73.414062"/><path fill="#20154F" d="M 292.289062 71.703125 C 291.851562 71.703125 291.320312 71.601562 290.691406 71.394531 C 290.523438 71.339844 290.429688 71.15625 290.484375 70.988281 C 290.542969 70.820312 290.722656 70.726562 290.890625 70.78125 C 292.753906 71.386719 293.625 71.054688 292.683594 69.355469 C 292.027344 68.171875 291.867188 66.339844 291.859375 66.261719 C 291.84375 66.085938 291.976562 65.929688 292.15625 65.914062 C 292.363281 65.90625 292.492188 66.03125 292.503906 66.207031 C 292.503906 66.226562 292.660156 67.980469 293.25 69.042969 C 294.210938 70.78125 293.53125 71.703125 292.289062 71.703125 Z M 292.289062 71.703125"/><path fill="#20154F" d="M 286.191406 62.449219 C 286.078125 62.308594 286.097656 62.105469 286.238281 61.992188 C 287.054688 61.335938 288.1875 61.230469 289.117188 61.722656 C 289.273438 61.804688 289.332031 62.003906 289.25 62.160156 C 289.164062 62.316406 288.96875 62.375 288.8125 62.292969 C 288.109375 61.921875 287.261719 62 286.644531 62.5 C 286.5 62.613281 286.296875 62.585938 286.191406 62.449219 Z M 286.191406 62.449219"/><path fill="#022E4F" d="M 265.464844 155.917969 C 265.109375 175.199219 263.886719 244.78125 263.886719 244.78125 C 267.160156 246.480469 270.886719 246.945312 275.289062 245.550781 L 285.636719 186.171875 L 292.421875 244.640625 C 297.1875 246.972656 301.296875 246.933594 304.777344 244.582031 L 307.179688 155.917969 Z M 265.464844 155.917969"/><path fill="#1C587E" d="M 290.230469 155.917969 L 265.464844 155.917969 C 265.109375 175.199219 263.886719 244.78125 263.886719 244.78125 C 267.160156 246.480469 270.886719 246.945312 275.289062 245.550781 L 285.636719 186.171875 C 288.855469 173.828125 290.171875 167.089844 290.230469 155.917969 Z M 290.230469 155.917969"/><path fill="#20154F" d="M 306.960938 152.414062 L 265.226562 152.414062 C 264.332031 152.414062 263.609375 153.136719 263.609375 154.03125 L 263.609375 156.730469 C 263.609375 157.625 264.332031 158.351562 265.226562 158.351562 L 306.960938 158.351562 C 307.855469 158.351562 308.582031 157.625 308.582031 156.730469 L 308.582031 154.03125 C 308.582031 153.136719 307.855469 152.414062 306.960938 152.414062 Z M 306.960938 152.414062"/><path fill="#1C587E" d="M 293.632812 152.980469 L 293.632812 157.765625 C 293.632812 158.585938 292.984375 159.230469 292.164062 159.230469 L 283.359375 159.230469 C 282.554688 159.230469 281.894531 158.585938 281.894531 157.765625 L 281.894531 152.980469 C 281.894531 152.175781 282.554688 151.515625 283.359375 151.515625 L 292.164062 151.515625 C 292.984375 151.515625 293.632812 152.175781 293.632812 152.980469 Z M 293.632812 152.980469"/><path fill="#EE984F" d="M 308.027344 87.671875 C 308.027344 87.671875 316.140625 91.605469 320.863281 104.742188 C 319.441406 109.144531 315.183594 113.046875 309.953125 114.675781 C 309.953125 114.675781 300.5 99.269531 308.027344 87.671875 Z M 308.027344 87.671875"/><path fill="#EF9B84" d="M 338.269531 105.917969 L 316.066406 104.273438 L 316.066406 142.59375 L 338.3125 140.328125 C 339.097656 140.25 339.691406 139.589844 339.691406 138.800781 L 339.691406 107.449219 C 339.691406 106.644531 339.074219 105.976562 338.269531 105.917969 Z M 338.269531 105.917969"/><path fill="#FFAB90" d="M 331.921875 112.742188 L 331.921875 105.445312 L 325.234375 104.949219 L 325.234375 112.742188 Z M 331.921875 112.742188"/><path fill="#FFAB90" d="M 295.597656 107.882812 C 294.863281 108.015625 294.328125 108.652344 294.328125 109.398438 L 294.328125 136.851562 C 294.328125 137.578125 294.84375 138.207031 295.554688 138.355469 L 316.066406 142.59375 L 316.066406 104.273438 Z M 295.597656 107.882812"/><path fill="#F2C3B3" d="M 268.472656 106.820312 C 268.472656 106.820312 269.742188 120.511719 269.808594 122.375 C 269.808594 122.375 274.296875 121.496094 280.976562 122.605469 C 280.976562 122.605469 288.699219 122.921875 290.914062 121.261719 L 294.515625 120.160156 C 294.515625 120.160156 298.992188 118.578125 300.144531 119.628906 C 301.371094 120.75 301.761719 123.539062 300.367188 125.09375 C 299.425781 126.144531 297.28125 126.199219 295.757812 126.347656 C 291.976562 126.710938 291.9375 125.300781 288.546875 126.886719 C 285.15625 128.46875 266.199219 132.136719 265.6875 132.023438 C 265.171875 131.910156 262.199219 132.691406 260.679688 129.550781 C 259.160156 126.414062 257.246094 108.210938 257.246094 108.210938 Z M 268.472656 106.820312"/><path fill="#EE984F" d="M 264.105469 88.902344 C 264.105469 88.902344 256.476562 95.234375 256.394531 109.195312 C 259.199219 112.871094 264.511719 115.136719 269.988281 114.933594 C 269.988281 114.933594 275.0625 97.335938 264.105469 88.902344 Z M 264.105469 88.902344"/><path fill="#F2C3B3" d="M 339.800781 134.566406 C 337.609375 134.566406 335.832031 132.554688 335.832031 130.066406 C 335.832031 127.582031 337.609375 125.570312 339.800781 125.570312 C 341.996094 125.570312 341.996094 134.566406 339.800781 134.566406 Z M 339.800781 134.566406"/><path fill="#2B1963" d="M 264.441406 247.214844 C 264.929688 246.816406 265.507812 246.574219 265.882812 247.082031 C 267.199219 248.84375 270.882812 251.59375 272.496094 247.871094 C 272.777344 247.21875 273.789062 247.367188 274.15625 247.976562 C 275.289062 249.863281 278.597656 252.722656 280.667969 253.453125 C 280.667969 253.453125 285.472656 255.050781 287.421875 254.398438 C 289.367188 253.742188 291.757812 260.488281 271.117188 259 C 263.636719 258.457031 261.871094 256.777344 261.808594 254.472656 C 261.789062 253.726562 264.023438 247.554688 264.441406 247.214844 Z M 264.441406 247.214844"/><path fill="#EE984F" d="M 271.269531 257.398438 C 283.078125 258.25 287.347656 256.40625 288.472656 254.796875 C 289.378906 256.167969 287.515625 260.183594 271.117188 259 C 263.859375 258.476562 260.625 257.265625 261.808594 254.472656 C 262.367188 256.15625 265.578125 256.988281 271.269531 257.398438 Z M 271.269531 257.398438"/><path fill="#2B1963" d="M 293.746094 247.214844 C 294.234375 246.816406 294.8125 246.574219 295.1875 247.082031 C 296.503906 248.84375 300.1875 251.59375 301.800781 247.871094 C 302.082031 247.21875 303.09375 247.367188 303.460938 247.976562 C 304.59375 249.863281 307.902344 252.722656 309.972656 253.453125 C 309.972656 253.453125 314.777344 255.050781 316.726562 254.398438 C 318.671875 253.742188 321.0625 260.488281 300.425781 259 C 292.941406 258.457031 291.175781 256.777344 291.113281 254.472656 C 291.09375 253.726562 293.328125 247.554688 293.746094 247.214844 Z M 293.746094 247.214844"/><path fill="#EE984F" d="M 300.574219 257.398438 C 312.382812 258.25 316.652344 256.40625 317.777344 254.796875 C 318.683594 256.167969 316.820312 260.183594 300.425781 259 C 293.164062 258.476562 289.929688 257.265625 291.113281 254.472656 C 291.671875 256.15625 294.886719 256.988281 300.574219 257.398438 Z M 300.574219 257.398438"/><g clip-path="url(#c)"><path fill="#BBCAEA" d="M 341.925781 259.214844 L 20.03125 259.214844 C 17.464844 259.214844 15.386719 261.292969 15.386719 263.859375 L 15.386719 263.867188 C 15.386719 266.433594 17.464844 268.511719 20.03125 268.511719 L 341.925781 268.511719 C 344.492188 268.511719 346.570312 266.433594 346.570312 263.867188 L 346.570312 263.859375 C 346.570312 261.292969 344.492188 259.214844 341.925781 259.214844 Z M 341.925781 259.214844"/></g><path fill="#37B63F" d="M 181.308594 100.402344 L 227.347656 100.402344 L 224.242188 106.164062 L 227.347656 111.921875 L 181.308594 111.921875 L 184.410156 106.164062 L 181.308594 100.402344"/><path fill="#31A640" d="M 183.332031 101.597656 L 225.324219 101.597656 L 222.496094 106.164062 L 225.324219 110.726562 L 183.332031 110.726562 L 186.160156 106.164062 L 183.332031 101.597656"/><path fill="#F5F5F5" d="M 215.660156 117.714844 C 215.238281 118.140625 211.582031 117.757812 211.0625 118.0625 C 210.542969 118.363281 209.027344 121.746094 208.441406 121.902344 C 207.863281 122.054688 204.894531 119.875 204.292969 119.875 C 203.691406 119.875 200.707031 122.035156 200.128906 121.878906 C 199.550781 121.71875 198.050781 118.328125 197.53125 118.019531 C 197.011719 117.71875 193.355469 118.074219 192.9375 117.644531 C 192.511719 117.214844 192.890625 113.523438 192.59375 112.996094 C 192.296875 112.464844 188.949219 110.929688 188.800781 110.34375 C 188.644531 109.761719 190.796875 106.746094 190.800781 106.140625 C 190.800781 105.535156 188.664062 102.511719 188.820312 101.925781 C 188.980469 101.339844 192.332031 99.824219 192.628906 99.296875 C 192.933594 98.777344 192.574219 95.078125 193 94.648438 C 193.425781 94.222656 197.078125 94.601562 197.597656 94.300781 C 198.117188 94 199.636719 90.617188 200.21875 90.460938 C 200.796875 90.304688 203.773438 92.484375 204.367188 92.484375 C 204.96875 92.484375 207.957031 90.328125 208.535156 90.484375 C 209.113281 90.644531 210.609375 94.035156 211.128906 94.339844 C 211.648438 94.644531 215.304688 94.28125 215.722656 94.714844 C 216.148438 95.144531 215.773438 98.839844 216.070312 99.367188 C 216.367188 99.894531 219.707031 101.429688 219.863281 102.015625 C 220.019531 102.601562 217.867188 105.613281 217.867188 106.222656 C 217.859375 106.824219 219.996094 109.851562 219.839844 110.4375 C 219.6875 111.023438 216.335938 112.539062 216.03125 113.058594 C 215.730469 113.585938 216.085938 117.285156 215.660156 117.714844"/><path fill="#37B63F" d="M 214.804688 116.828125 C 214.410156 117.21875 211.035156 116.867188 210.558594 117.152344 C 210.074219 117.425781 208.671875 120.550781 208.136719 120.699219 C 207.601562 120.839844 204.851562 118.828125 204.300781 118.824219 C 203.746094 118.824219 200.984375 120.820312 200.453125 120.675781 C 199.914062 120.53125 198.53125 117.394531 198.054688 117.113281 C 197.574219 116.832031 194.195312 117.164062 193.808594 116.769531 C 193.414062 116.371094 193.761719 112.957031 193.488281 112.464844 C 193.210938 111.980469 190.121094 110.558594 189.984375 110.019531 C 189.84375 109.476562 191.828125 106.699219 191.828125 106.136719 C 191.835938 105.574219 189.859375 102.78125 190.003906 102.242188 C 190.148438 101.703125 193.25 100.296875 193.523438 99.8125 C 193.804688 99.328125 193.472656 95.910156 193.867188 95.515625 C 194.261719 95.125 197.632812 95.476562 198.117188 95.195312 C 198.597656 94.917969 200 91.789062 200.535156 91.644531 C 201.070312 91.503906 203.816406 93.515625 204.375 93.519531 C 204.929688 93.519531 207.6875 91.519531 208.222656 91.667969 C 208.753906 91.8125 210.140625 94.949219 210.621094 95.226562 C 211.097656 95.511719 214.476562 95.179688 214.867188 95.574219 C 215.257812 95.972656 214.90625 99.386719 215.183594 99.878906 C 215.457031 100.363281 218.546875 101.785156 218.6875 102.324219 C 218.832031 102.867188 216.84375 105.644531 216.839844 106.207031 C 216.839844 106.769531 218.8125 109.5625 218.667969 110.101562 C 218.523438 110.640625 215.425781 112.046875 215.144531 112.53125 C 214.867188 113.015625 215.199219 116.433594 214.804688 116.828125"/><path fill="#31A640" d="M 213.234375 115.230469 C 212.902344 115.570312 210.042969 115.269531 209.636719 115.507812 C 209.222656 115.738281 208.035156 118.390625 207.582031 118.515625 C 207.128906 118.632812 204.796875 116.925781 204.328125 116.925781 C 203.859375 116.925781 201.519531 118.617188 201.0625 118.496094 C 200.609375 118.367188 199.4375 115.710938 199.03125 115.472656 C 198.625 115.238281 195.765625 115.515625 195.429688 115.179688 C 195.101562 114.84375 195.394531 111.945312 195.164062 111.535156 C 194.929688 111.121094 192.308594 109.921875 192.1875 109.457031 C 192.070312 109 193.753906 106.644531 193.753906 106.167969 C 193.757812 105.691406 192.082031 103.324219 192.210938 102.863281 C 192.332031 102.40625 194.957031 101.214844 195.191406 100.804688 C 195.429688 100.394531 195.148438 97.496094 195.480469 97.160156 C 195.8125 96.824219 198.675781 97.125 199.085938 96.886719 C 199.492188 96.65625 200.683594 94.003906 201.132812 93.878906 C 201.589844 93.761719 203.921875 95.464844 204.386719 95.464844 C 204.855469 95.464844 207.195312 93.773438 207.652344 93.898438 C 208.105469 94.027344 209.277344 96.683594 209.683594 96.917969 C 210.089844 97.15625 212.957031 96.878906 213.285156 97.210938 C 213.613281 97.550781 213.320312 100.449219 213.554688 100.859375 C 213.785156 101.273438 216.410156 102.472656 216.527344 102.933594 C 216.648438 103.390625 214.960938 105.75 214.960938 106.226562 C 214.960938 106.703125 216.632812 109.070312 216.511719 109.53125 C 216.382812 109.988281 213.757812 111.175781 213.523438 111.589844 C 213.289062 112 213.566406 114.898438 213.234375 115.230469"/><path fill="#37B63F" d="M 195.179688 101.664062 L 212.90625 102.027344 C 214.75 102.0625 216.171875 101.976562 216.230469 102.09375 L 217.363281 104.296875 L 215.730469 107.484375 L 217.425781 110.789062 C 217.480469 110.902344 214.726562 110.734375 212.886719 110.695312 L 195.160156 110.335938 C 193.320312 110.300781 191.839844 110.398438 191.839844 110.265625 L 191.867188 101.597656 C 191.867188 101.46875 197.015625 101.707031 195.179688 101.664062"/><path fill="#F5F5F5" d="M 201.949219 103.746094 L 202.449219 103.746094 C 202.816406 103.746094 202.976562 103.953125 202.972656 104.429688 L 202.972656 105.09375 C 202.972656 105.628906 202.734375 105.796875 202.34375 105.796875 L 201.941406 105.796875 Z M 208.175781 102.792969 L 208.152344 109.480469 L 210.984375 109.496094 L 210.992188 108.539062 L 209.199219 108.539062 L 209.203125 106.582031 L 210.628906 106.582031 L 210.628906 105.628906 L 209.207031 105.628906 L 209.210938 103.761719 L 211.003906 103.761719 L 211.007812 102.808594 Z M 204.710938 102.792969 L 204.691406 109.480469 L 207.523438 109.496094 L 207.527344 108.539062 L 205.734375 108.539062 L 205.738281 106.582031 L 207.164062 106.582031 L 207.164062 105.628906 L 205.742188 105.628906 L 205.742188 103.761719 L 207.539062 103.761719 L 207.539062 102.8125 Z M 200.914062 102.792969 L 200.894531 109.480469 L 201.929688 109.480469 L 201.9375 106.757812 L 202.300781 106.757812 C 202.769531 106.761719 202.976562 106.988281 202.976562 107.613281 L 202.972656 108.664062 C 202.96875 109.207031 203.007812 109.3125 203.0625 109.480469 L 204.121094 109.480469 C 204.015625 109.234375 204.007812 108.996094 204.011719 108.671875 L 204.011719 107.644531 C 204.015625 106.945312 203.84375 106.4375 203.328125 106.214844 C 203.789062 106 204.007812 105.550781 204.011719 104.859375 L 204.011719 104.335938 C 204.015625 103.304688 203.554688 102.796875 202.480469 102.792969 Z M 197.671875 102.777344 L 197.648438 109.457031 L 198.6875 109.457031 L 198.699219 106.703125 L 200.035156 106.703125 L 200.035156 105.746094 L 198.699219 105.746094 L 198.703125 103.746094 L 200.410156 103.746094 L 200.410156 102.789062 L 197.671875 102.777344"/><g clip-path="url(#d)"><path fill="#ECF0EF" d="M 200.214844 90.4375 C 200.796875 90.285156 203.769531 92.464844 204.367188 92.46875 C 204.964844 92.46875 207.957031 90.304688 208.535156 90.464844 C 209.113281 90.621094 210.605469 94.015625 211.128906 94.324219 C 211.644531 94.625 215.300781 94.269531 215.722656 94.699219 C 216.144531 95.128906 215.769531 98.820312 216.066406 99.347656 C 216.195312 99.566406 216.867188 99.972656 217.597656 100.402344 L 227.347656 100.402344 L 224.246094 106.164062 L 227.347656 111.917969 L 217.703125 111.917969 C 216.914062 112.375 216.164062 112.808594 216.027344 113.042969 C 215.722656 113.566406 216.082031 117.265625 215.65625 117.695312 C 215.230469 118.121094 211.582031 117.742188 211.0625 118.042969 C 210.539062 118.34375 209.019531 121.722656 208.441406 121.878906 C 207.859375 122.035156 204.886719 119.859375 204.289062 119.859375 C 203.691406 119.851562 200.699219 122.015625 200.121094 121.855469 C 199.542969 121.699219 198.046875 118.308594 197.53125 118 C 197.011719 117.695312 193.355469 118.058594 192.933594 117.628906 C 192.507812 117.199219 192.886719 113.5 192.589844 112.972656 C 192.460938 112.753906 191.785156 112.347656 191.054688 111.917969 L 181.308594 111.917969 L 184.410156 106.164062 L 181.308594 100.402344 L 190.957031 100.402344 C 191.742188 99.945312 192.492188 99.511719 192.628906 99.277344 C 192.933594 98.757812 192.574219 95.054688 193 94.628906 C 193.425781 94.199219 197.074219 94.582031 197.597656 94.28125 C 198.117188 93.980469 199.636719 90.59375 200.214844 90.4375 Z M 200.25 88.964844 C 200.136719 88.96875 200 88.992188 199.847656 89.035156 L 199.847656 89.03125 C 199.222656 89.199219 199.074219 89.460938 198.898438 89.652344 C 198.722656 89.847656 198.585938 90.039062 198.445312 90.242188 C 198.171875 90.652344 197.902344 91.117188 197.636719 91.574219 C 197.375 92.035156 197.125 92.484375 196.925781 92.800781 C 196.890625 92.863281 196.867188 92.882812 196.835938 92.9375 C 196.777344 92.9375 196.75 92.953125 196.675781 92.953125 C 196.300781 92.964844 195.792969 92.964844 195.265625 92.953125 C 194.742188 92.953125 194.214844 92.949219 193.722656 92.984375 C 193.480469 92.996094 193.25 93.023438 192.996094 93.078125 C 192.738281 93.136719 192.445312 93.136719 191.988281 93.59375 L 191.984375 93.59375 C 191.527344 94.050781 191.527344 94.347656 191.472656 94.605469 C 191.414062 94.863281 191.386719 95.097656 191.367188 95.347656 C 191.332031 95.839844 191.328125 96.378906 191.328125 96.910156 C 191.328125 97.4375 191.328125 97.957031 191.316406 98.332031 C 191.316406 98.410156 191.308594 98.4375 191.304688 98.496094 C 191.289062 98.511719 191.289062 98.515625 191.269531 98.523438 C 191.09375 98.636719 190.824219 98.792969 190.566406 98.941406 L 178.890625 98.941406 L 182.773438 106.15625 L 178.890625 113.371094 L 190.652344 113.371094 C 190.871094 113.503906 191.113281 113.644531 191.261719 113.742188 L 191.265625 113.742188 C 191.265625 113.800781 191.269531 113.832031 191.269531 113.90625 C 191.285156 114.28125 191.277344 114.796875 191.273438 115.328125 C 191.273438 115.851562 191.273438 116.394531 191.304688 116.890625 C 191.324219 117.136719 191.347656 117.371094 191.40625 117.628906 C 191.460938 117.886719 191.460938 118.1875 191.910156 118.652344 C 192.367188 119.113281 192.660156 119.113281 192.914062 119.171875 C 193.167969 119.226562 193.402344 119.25 193.644531 119.269531 C 194.132812 119.308594 194.667969 119.3125 195.191406 119.3125 C 195.714844 119.3125 196.226562 119.3125 196.601562 119.328125 C 196.671875 119.328125 196.699219 119.339844 196.757812 119.339844 C 196.789062 119.390625 196.8125 119.417969 196.847656 119.476562 C 197.046875 119.796875 197.296875 120.25 197.558594 120.710938 C 197.816406 121.167969 198.082031 121.636719 198.355469 122.046875 C 198.492188 122.253906 198.628906 122.445312 198.804688 122.640625 C 198.980469 122.832031 199.128906 123.09375 199.753906 123.261719 C 200.371094 123.433594 200.628906 123.285156 200.878906 123.207031 C 201.121094 123.128906 201.339844 123.035156 201.558594 122.925781 C 201.996094 122.710938 202.460938 122.445312 202.917969 122.179688 C 203.371094 121.917969 203.808594 121.652344 204.136719 121.480469 C 204.207031 121.445312 204.234375 121.433594 204.289062 121.40625 C 204.335938 121.433594 204.363281 121.445312 204.425781 121.480469 C 204.757812 121.660156 205.199219 121.917969 205.652344 122.1875 C 206.097656 122.453125 206.558594 122.722656 207.003906 122.9375 C 207.222656 123.046875 207.4375 123.148438 207.683594 123.226562 C 207.929688 123.308594 208.191406 123.457031 208.808594 123.289062 C 209.433594 123.125 209.582031 122.867188 209.761719 122.667969 C 209.933594 122.476562 210.070312 122.285156 210.210938 122.082031 C 210.484375 121.671875 210.753906 121.207031 211.019531 120.75 C 211.28125 120.292969 211.53125 119.839844 211.730469 119.523438 C 211.765625 119.460938 211.789062 119.441406 211.820312 119.390625 C 211.878906 119.390625 211.90625 119.375 211.980469 119.375 C 212.355469 119.359375 212.863281 119.359375 213.390625 119.375 C 213.910156 119.375 214.441406 119.375 214.929688 119.339844 C 215.175781 119.324219 215.40625 119.300781 215.660156 119.246094 C 215.917969 119.191406 216.210938 119.191406 216.667969 118.734375 C 217.128906 118.273438 217.128906 117.972656 217.183594 117.71875 C 217.242188 117.457031 217.269531 117.226562 217.285156 116.976562 C 217.324219 116.484375 217.328125 115.945312 217.328125 115.414062 C 217.328125 114.882812 217.324219 114.367188 217.339844 113.988281 C 217.339844 113.914062 217.351562 113.886719 217.351562 113.828125 C 217.367188 113.816406 217.371094 113.808594 217.390625 113.800781 C 217.566406 113.6875 217.839844 113.53125 218.09375 113.378906 L 229.765625 113.378906 L 225.886719 106.167969 L 229.765625 98.949219 L 217.996094 98.949219 C 217.78125 98.820312 217.542969 98.683594 217.394531 98.589844 C 217.390625 98.523438 217.386719 98.496094 217.382812 98.421875 C 217.371094 98.042969 217.378906 97.527344 217.382812 96.996094 C 217.382812 96.472656 217.382812 95.933594 217.351562 95.433594 C 217.332031 95.1875 217.304688 94.953125 217.25 94.699219 C 217.195312 94.4375 217.195312 94.136719 216.746094 93.675781 C 216.289062 93.210938 215.996094 93.210938 215.742188 93.15625 C 215.488281 93.097656 215.253906 93.070312 215.011719 93.050781 C 214.523438 93.015625 213.984375 93.011719 213.464844 93.011719 C 212.941406 93.011719 212.429688 93.011719 212.054688 92.996094 C 211.984375 92.996094 211.957031 92.984375 211.898438 92.984375 C 211.867188 92.933594 211.847656 92.910156 211.808594 92.847656 C 211.609375 92.527344 211.359375 92.074219 211.097656 91.617188 C 210.839844 91.15625 210.574219 90.695312 210.300781 90.28125 C 210.164062 90.078125 210.027344 89.886719 209.851562 89.6875 C 209.675781 89.496094 209.527344 89.230469 208.910156 89.0625 L 208.902344 89.0625 C 208.285156 88.898438 208.03125 89.042969 207.777344 89.121094 C 207.535156 89.199219 207.316406 89.296875 207.097656 89.398438 C 206.660156 89.613281 206.1875 89.886719 205.738281 90.144531 C 205.285156 90.410156 204.847656 90.671875 204.519531 90.847656 C 204.449219 90.886719 204.421875 90.894531 204.367188 90.921875 C 204.320312 90.894531 204.292969 90.886719 204.230469 90.847656 C 203.898438 90.671875 203.460938 90.40625 203.007812 90.140625 C 202.558594 89.875 202.097656 89.601562 201.660156 89.386719 C 201.4375 89.277344 201.21875 89.175781 200.972656 89.097656 C 200.785156 89.039062 200.597656 88.9375 200.25 88.964844"/></g></svg>