<svg width="32" height="32" viewBox="0 0 32 32" fill="none" xmlns="http://www.w3.org/2000/svg">
<path d="M16 0.485031C24.5677 0.485031 31.515 7.43165 31.515 16C31.515 24.5677 24.5677 31.515 16 31.515C7.43166 31.515 0.485046 24.5677 0.485046 16C0.485046 7.43165 7.43166 0.485031 16 0.485031Z" fill="#F6F6F6"/>
<path d="M16 32C7.17773 32 0 24.8216 0 16C0 7.17773 7.17773 0 16 0C24.8216 0 32 7.17773 32 16C32 24.8216 24.8216 32 16 32ZM16 0.969401C7.71224 0.969401 0.969401 7.71224 0.969401 16C0.969401 24.2878 7.71224 31.0306 16 31.0306C24.2871 31.0306 31.0306 24.2878 31.0306 16C31.0306 7.71224 24.2878 0.969401 16 0.969401Z" fill="#D9D9D8"/>
<path d="M17.2852 22.0514L11.3757 15.9147L17.2969 9.94856L18.6745 11.3164L14.0879 15.9362L18.6836 20.7064L17.2852 22.0514Z" fill="#505050"/>
</svg>
