<svg xmlns="http://www.w3.org/2000/svg" width="900" viewBox="0 0 900 480" height="480" version="1.0"><defs><clipPath id="a"><path d="M 288 144 L 613.191406 144 L 613.191406 336 L 288 336 Z M 288 144"/></clipPath></defs><g clip-path="url(#a)"><path d="M 613.191406 172.671875 C 613.191406 167.855469 611.417969 163.289062 608.117188 159.996094 L 597.464844 149.34375 C 594.164062 146.046875 589.597656 144.273438 585.03125 144.273438 C 580.464844 144.273438 575.898438 146.046875 572.347656 149.34375 L 450.828125 270.558594 L 329.5625 149.34375 C 326.265625 146.046875 321.699219 144.273438 317.132812 144.273438 C 312.3125 144.273438 308 146.046875 304.449219 149.34375 L 293.792969 159.996094 C 286.941406 166.839844 286.941406 178.253906 293.792969 185.097656 L 438.398438 330.148438 C 441.695312 333.445312 446.261719 335.726562 451.082031 335.726562 C 455.902344 335.726562 460.214844 333.445312 463.511719 330.148438 L 607.863281 185.605469 C 611.417969 182.054688 613.191406 177.492188 613.191406 172.671875 Z M 613.191406 172.671875"/></g></svg>