<svg xmlns="http://www.w3.org/2000/svg" width="900" viewBox="0 0 900 480" height="480" version="1.0"><defs><clipPath id="a"><path d="M 334.539062 144 L 535 144 L 535 336 L 334.539062 336 Z M 334.539062 144"/></clipPath></defs><g clip-path="url(#a)"><path d="M 405.957031 282.445312 L 496.339844 282.445312 C 497.316406 282.4375 498.289062 282.351562 499.253906 282.1875 C 500.21875 282.019531 501.164062 281.777344 502.089844 281.457031 C 503.015625 281.136719 503.90625 280.742188 504.769531 280.273438 C 505.628906 279.808594 506.445312 279.273438 507.21875 278.671875 C 507.996094 278.074219 508.714844 277.414062 509.378906 276.695312 C 510.046875 275.976562 510.648438 275.207031 511.191406 274.390625 C 511.730469 273.574219 512.203125 272.71875 512.605469 271.824219 C 513.003906 270.929688 513.332031 270.007812 513.582031 269.0625 L 534.558594 191.785156 C 534.707031 191.152344 534.710938 190.515625 534.570312 189.882812 C 534.433594 189.246094 534.160156 188.671875 533.757812 188.160156 C 532.882812 187.191406 531.792969 186.652344 530.492188 186.539062 L 375.234375 186.539062 L 364.597656 147.394531 C 364.484375 146.945312 364.296875 146.527344 364.042969 146.144531 C 363.785156 145.761719 363.472656 145.429688 363.101562 145.152344 C 362.730469 144.878906 362.324219 144.671875 361.882812 144.535156 C 361.445312 144.394531 360.992188 144.335938 360.53125 144.355469 L 334.800781 144.355469 L 334.800781 152.835938 L 357.386719 152.835938 L 367.726562 191.535156 L 367.726562 191.796875 L 388.71875 269.070312 C 388.878906 269.460938 389.109375 270.003906 389.324219 270.523438 L 396.472656 297.246094 C 394.839844 298.117188 393.347656 299.1875 392.003906 300.464844 C 390.660156 301.738281 389.511719 303.167969 388.550781 304.753906 C 387.59375 306.339844 386.863281 308.023438 386.359375 309.804688 C 385.855469 311.589844 385.597656 313.410156 385.582031 315.261719 L 385.582031 319.605469 L 386.097656 319.605469 C 386.324219 320.746094 386.648438 321.855469 387.066406 322.941406 C 387.488281 324.023438 387.996094 325.0625 388.59375 326.058594 C 389.191406 327.054688 389.871094 327.992188 390.628906 328.871094 C 391.390625 329.75 392.21875 330.558594 393.117188 331.296875 C 394.015625 332.03125 394.96875 332.6875 395.980469 333.257812 C 396.988281 333.828125 398.042969 334.3125 399.132812 334.699219 C 400.226562 335.089844 401.347656 335.386719 402.488281 335.582031 C 403.632812 335.78125 404.785156 335.878906 405.945312 335.878906 C 406.621094 335.878906 407.296875 335.847656 407.972656 335.78125 C 408.644531 335.714844 409.316406 335.617188 409.980469 335.488281 C 410.644531 335.355469 411.300781 335.191406 411.949219 334.996094 C 412.597656 334.800781 413.234375 334.578125 413.859375 334.320312 C 414.484375 334.0625 415.097656 333.773438 415.695312 333.457031 C 416.292969 333.140625 416.875 332.792969 417.441406 332.417969 C 418.003906 332.042969 418.550781 331.644531 419.074219 331.214844 C 419.597656 330.789062 420.101562 330.335938 420.582031 329.859375 C 421.066406 329.382812 421.523438 328.882812 421.953125 328.359375 C 422.386719 327.839844 422.792969 327.296875 423.171875 326.738281 C 423.550781 326.175781 423.902344 325.597656 424.226562 325 C 424.550781 324.40625 424.84375 323.796875 425.105469 323.171875 C 425.371094 322.546875 425.601562 321.910156 425.804688 321.261719 C 426.003906 320.617188 426.175781 319.960938 426.3125 319.296875 C 426.449219 318.632812 426.554688 317.964844 426.628906 317.289062 C 426.699219 316.617188 426.738281 315.941406 426.746094 315.261719 C 426.691406 313.078125 426.3125 310.949219 425.601562 308.882812 C 424.894531 306.816406 423.890625 304.902344 422.59375 303.144531 L 479.679688 303.144531 C 478.382812 304.902344 477.378906 306.816406 476.667969 308.882812 C 475.957031 310.949219 475.574219 313.078125 475.519531 315.261719 C 475.527344 315.941406 475.566406 316.617188 475.636719 317.289062 C 475.710938 317.964844 475.816406 318.632812 475.953125 319.296875 C 476.089844 319.960938 476.261719 320.617188 476.460938 321.265625 C 476.664062 321.914062 476.894531 322.546875 477.160156 323.171875 C 477.425781 323.796875 477.71875 324.40625 478.039062 325.003906 C 478.363281 325.597656 478.714844 326.179688 479.09375 326.738281 C 479.476562 327.300781 479.882812 327.84375 480.3125 328.363281 C 480.746094 328.886719 481.203125 329.386719 481.683594 329.863281 C 482.167969 330.339844 482.667969 330.792969 483.195312 331.21875 C 483.722656 331.648438 484.265625 332.046875 484.832031 332.421875 C 485.394531 332.796875 485.976562 333.140625 486.574219 333.460938 C 487.171875 333.777344 487.785156 334.0625 488.414062 334.320312 C 489.039062 334.578125 489.675781 334.804688 490.324219 335 C 490.972656 335.195312 491.628906 335.359375 492.292969 335.488281 C 492.957031 335.621094 493.628906 335.71875 494.300781 335.78125 C 494.976562 335.847656 495.652344 335.878906 496.328125 335.878906 C 497.488281 335.878906 498.644531 335.78125 499.789062 335.585938 C 500.933594 335.386719 502.050781 335.09375 503.144531 334.703125 C 504.238281 334.3125 505.292969 333.832031 506.304688 333.261719 C 507.316406 332.6875 508.269531 332.035156 509.167969 331.296875 C 510.066406 330.558594 510.894531 329.753906 511.65625 328.871094 C 512.414062 327.992188 513.09375 327.054688 513.691406 326.058594 C 514.289062 325.058594 514.800781 324.019531 515.21875 322.933594 C 515.636719 321.847656 515.960938 320.738281 516.1875 319.597656 L 516.699219 319.597656 L 516.699219 315.253906 C 516.707031 314.582031 516.679688 313.910156 516.617188 313.242188 C 516.558594 312.570312 516.464844 311.90625 516.335938 311.246094 C 516.210938 310.585938 516.054688 309.933594 515.863281 309.289062 C 515.671875 308.644531 515.453125 308.011719 515.199219 307.390625 C 514.945312 306.769531 514.664062 306.160156 514.351562 305.5625 C 514.039062 304.96875 513.699219 304.390625 513.328125 303.832031 C 512.960938 303.269531 512.5625 302.730469 512.140625 302.207031 C 511.71875 301.683594 511.269531 301.183594 510.796875 300.707031 C 510.328125 300.230469 509.832031 299.777344 509.316406 299.347656 C 508.800781 298.917969 508.261719 298.515625 507.707031 298.140625 C 507.152344 297.765625 506.578125 297.417969 505.988281 297.097656 C 505.394531 296.78125 504.792969 296.488281 504.171875 296.230469 C 503.554688 295.972656 502.921875 295.742188 502.28125 295.546875 C 501.640625 295.347656 500.992188 295.183594 500.332031 295.050781 C 499.675781 294.917969 499.011719 294.816406 498.347656 294.75 C 497.679688 294.679688 497.007812 294.648438 496.339844 294.644531 L 405.957031 294.644531 C 405.628906 294.644531 405.171875 294.777344 404.570312 294.824219 L 401.015625 281.539062 C 402.609375 282.128906 404.257812 282.429688 405.957031 282.445312 Z M 405.957031 327.59375 C 405.15625 327.585938 404.363281 327.5 403.582031 327.335938 C 402.800781 327.175781 402.039062 326.9375 401.304688 326.625 C 400.570312 326.3125 399.871094 325.933594 399.207031 325.484375 C 398.546875 325.035156 397.933594 324.523438 397.375 323.953125 C 396.8125 323.386719 396.3125 322.765625 395.871094 322.097656 C 395.429688 321.429688 395.058594 320.726562 394.757812 319.984375 C 394.453125 319.242188 394.226562 318.480469 394.074219 317.695312 C 393.921875 316.910156 393.847656 316.117188 393.847656 315.316406 C 393.851562 314.515625 393.929688 313.722656 394.089844 312.9375 C 394.246094 312.152344 394.480469 311.390625 394.789062 310.652344 C 395.09375 309.914062 395.46875 309.210938 395.914062 308.546875 C 396.359375 307.878906 396.863281 307.265625 397.429688 306.699219 C 397.996094 306.132812 398.609375 305.628906 399.273438 305.183594 C 399.941406 304.738281 400.640625 304.363281 401.378906 304.054688 C 402.117188 303.746094 402.878906 303.515625 403.660156 303.359375 C 404.445312 303.199219 405.238281 303.121094 406.035156 303.117188 C 406.835938 303.117188 407.628906 303.191406 408.410156 303.34375 C 409.195312 303.5 409.957031 303.726562 410.699219 304.03125 C 411.4375 304.335938 412.140625 304.707031 412.808594 305.148438 C 413.472656 305.589844 414.09375 306.09375 414.660156 306.65625 C 415.226562 307.21875 415.738281 307.832031 416.183594 308.492188 C 416.632812 309.15625 417.011719 309.855469 417.324219 310.59375 C 417.632812 311.332031 417.871094 312.09375 418.03125 312.875 C 418.195312 313.660156 418.28125 314.453125 418.285156 315.253906 C 418.308594 316.070312 418.246094 316.878906 418.105469 317.683594 C 417.960938 318.488281 417.738281 319.273438 417.4375 320.03125 C 417.132812 320.789062 416.757812 321.511719 416.308594 322.195312 C 415.863281 322.875 415.347656 323.507812 414.773438 324.085938 C 414.195312 324.664062 413.566406 325.175781 412.882812 325.628906 C 412.203125 326.078125 411.484375 326.453125 410.726562 326.757812 C 409.96875 327.058594 409.1875 327.285156 408.382812 327.425781 C 407.582031 327.570312 406.769531 327.632812 405.957031 327.613281 Z M 496.339844 327.59375 C 495.53125 327.613281 494.730469 327.558594 493.9375 327.421875 C 493.140625 327.285156 492.367188 327.070312 491.617188 326.78125 C 490.863281 326.492188 490.148438 326.128906 489.464844 325.699219 C 488.785156 325.265625 488.152344 324.773438 487.570312 324.214844 C 486.984375 323.65625 486.460938 323.046875 486 322.386719 C 485.535156 321.726562 485.140625 321.027344 484.816406 320.285156 C 484.492188 319.546875 484.242188 318.78125 484.070312 317.996094 C 483.898438 317.207031 483.800781 316.40625 483.785156 315.601562 C 483.769531 314.792969 483.832031 313.992188 483.976562 313.199219 C 484.117188 312.402344 484.335938 311.628906 484.632812 310.878906 C 484.929688 310.125 485.292969 309.410156 485.730469 308.734375 C 486.167969 308.054688 486.667969 307.425781 487.226562 306.84375 C 487.789062 306.265625 488.402344 305.746094 489.066406 305.285156 C 489.726562 304.828125 490.429688 304.4375 491.171875 304.121094 C 491.910156 303.800781 492.675781 303.558594 493.464844 303.390625 C 494.253906 303.222656 495.050781 303.132812 495.855469 303.125 C 496.664062 303.113281 497.464844 303.183594 498.253906 303.332031 C 499.046875 303.480469 499.816406 303.707031 500.566406 304.007812 C 501.3125 304.308594 502.023438 304.679688 502.699219 305.125 C 503.375 305.566406 504 306.070312 504.574219 306.636719 C 505.148438 307.203125 505.660156 307.820312 506.113281 308.488281 C 506.566406 309.15625 506.949219 309.863281 507.261719 310.609375 C 507.578125 311.351562 507.8125 312.121094 507.976562 312.910156 C 508.136719 313.703125 508.21875 314.5 508.222656 315.308594 C 508.242188 316.105469 508.179688 316.894531 508.042969 317.679688 C 507.90625 318.464844 507.691406 319.226562 507.402344 319.96875 C 507.113281 320.710938 506.75 321.414062 506.320312 322.085938 C 505.894531 322.753906 505.402344 323.375 504.847656 323.949219 C 504.296875 324.519531 503.691406 325.035156 503.039062 325.484375 C 502.382812 325.9375 501.691406 326.320312 500.960938 326.636719 C 500.230469 326.949219 499.476562 327.1875 498.699219 327.351562 C 497.917969 327.519531 497.132812 327.605469 496.339844 327.613281 Z M 496.339844 327.59375"/></g></svg>