<svg xmlns="http://www.w3.org/2000/svg" width="900" viewBox="0 0 900 480" height="480" version="1.0"><defs><clipPath id="a"><path d="M 373.039062 144 L 526.789062 144 L 526.789062 336 L 373.039062 336 Z M 373.039062 144"/></clipPath></defs><g clip-path="url(#a)"><path fill="#FA0000" d="M 526.789062 144.019531 L 373.039062 144.019531 L 373.039062 279.925781 L 449.351562 335.980469 L 526.789062 279.925781 Z M 526.789062 144.019531"/></g><path fill="#FFF" d="M 447.125 269.707031 C 447.125 272 446.847656 274.085938 446.289062 275.972656 C 445.75 277.84375 444.894531 279.457031 443.730469 280.816406 C 442.566406 282.171875 441.066406 283.214844 439.238281 283.949219 C 437.410156 284.667969 435.222656 285.027344 432.675781 285.027344 C 430.179688 285.027344 428.019531 284.667969 426.191406 283.949219 C 424.375 283.214844 422.878906 282.179688 421.699219 280.835938 C 420.519531 279.480469 419.648438 277.859375 419.078125 275.972656 C 418.507812 274.085938 418.222656 271.984375 418.222656 269.667969 C 418.222656 266.574219 418.734375 263.886719 419.75 261.609375 C 420.777344 259.316406 422.363281 257.546875 424.503906 256.300781 C 426.644531 255.039062 429.382812 254.40625 432.714844 254.40625 C 436.101562 254.40625 438.851562 255.039062 440.964844 256.300781 C 443.09375 257.5625 444.652344 259.339844 445.640625 261.628906 C 446.628906 263.921875 447.125 266.613281 447.125 269.707031 Z M 426.679688 269.707031 C 426.679688 271.496094 426.882812 273.035156 427.289062 274.324219 C 427.695312 275.613281 428.339844 276.605469 429.21875 277.296875 C 430.101562 277.988281 431.25 278.332031 432.675781 278.332031 C 434.152344 278.332031 435.324219 277.988281 436.191406 277.296875 C 437.070312 276.605469 437.699219 275.613281 438.078125 274.324219 C 438.472656 273.035156 438.667969 271.496094 438.667969 269.707031 C 438.667969 267.019531 438.222656 264.898438 437.328125 263.339844 C 436.433594 261.78125 434.894531 261 432.714844 261 C 431.265625 261 430.09375 261.351562 429.199219 262.058594 C 428.316406 262.761719 427.675781 263.765625 427.269531 265.070312 C 426.875 266.371094 426.679688 267.917969 426.679688 269.707031 Z M 426.679688 269.707031"/><path fill="#FFF" d="M 466.085938 267.53125 L 461.1875 267.53125 L 461.1875 284.621094 L 453.242188 284.621094 L 453.242188 267.53125 L 450.191406 267.53125 L 450.191406 263.625 L 453.402344 261.671875 L 453.402344 261.285156 C 453.402344 259.289062 453.667969 257.667969 454.195312 256.421875 C 454.726562 255.160156 455.566406 254.230469 456.714844 253.632812 C 457.867188 253.039062 459.371094 252.738281 461.226562 252.738281 C 462.421875 252.738281 463.496094 252.835938 464.460938 253.023438 C 465.433594 253.214844 466.449219 253.484375 467.507812 253.839844 L 465.800781 258.984375 C 465.40625 258.875 464.96875 258.78125 464.480469 258.699219 C 464.003906 258.621094 463.492188 258.578125 462.933594 258.578125 C 462.324219 258.578125 461.878906 258.769531 461.59375 259.148438 C 461.324219 259.515625 461.1875 260.117188 461.1875 260.957031 L 461.1875 261.570312 L 466.085938 261.570312 Z M 483.277344 267.53125 L 478.378906 267.53125 L 478.378906 284.621094 L 470.433594 284.621094 L 470.433594 267.53125 L 467.386719 267.53125 L 467.386719 263.625 L 470.597656 261.671875 L 470.597656 261.285156 C 470.597656 259.289062 470.859375 257.667969 471.390625 256.421875 C 471.917969 255.160156 472.757812 254.230469 473.910156 253.632812 C 475.0625 253.039062 476.566406 252.738281 478.421875 252.738281 C 479.613281 252.738281 480.691406 252.835938 481.652344 253.023438 C 482.628906 253.214844 483.644531 253.484375 484.699219 253.839844 L 482.992188 258.984375 C 482.601562 258.875 482.160156 258.78125 481.671875 258.699219 C 481.199219 258.621094 480.683594 258.578125 480.128906 258.578125 C 479.519531 258.578125 479.070312 258.769531 478.785156 259.148438 C 478.515625 259.515625 478.378906 260.117188 478.378906 260.957031 L 478.378906 261.570312 L 483.277344 261.570312 Z M 483.277344 267.53125"/><path fill="#FFF" d="M 423.316406 206.25 C 425.703125 206.25 427.871094 206.789062 429.828125 207.863281 C 431.78125 208.941406 433.347656 210.507812 434.519531 212.5625 C 435.691406 214.617188 436.277344 217.121094 436.277344 220.078125 C 436.277344 223.265625 435.632812 225.976562 434.34375 228.210938 C 433.074219 230.421875 431.148438 232.105469 428.566406 233.257812 C 426.003906 234.394531 422.769531 234.960938 418.859375 234.960938 C 416.375 234.960938 414.109375 234.765625 412.054688 234.375 C 410.023438 234.003906 408.203125 233.425781 406.601562 232.640625 L 406.601562 223.128906 C 408.105469 223.816406 409.914062 224.441406 412.027344 225.007812 C 414.15625 225.558594 416.113281 225.832031 417.890625 225.832031 C 419.320312 225.832031 420.53125 225.625 421.527344 225.214844 C 422.523438 224.804688 423.277344 224.195312 423.785156 223.394531 C 424.3125 222.59375 424.578125 221.605469 424.578125 220.429688 C 424.578125 218.804688 423.992188 217.53125 422.820312 216.613281 C 421.644531 215.671875 419.867188 215.203125 417.480469 215.203125 C 416.40625 215.203125 415.351562 215.3125 414.3125 215.527344 C 413.277344 215.742188 412.367188 215.976562 411.585938 216.230469 L 407.335938 214.117188 L 408.949219 191.453125 L 433.40625 191.453125 L 433.40625 201.113281 L 418.800781 201.113281 L 418.273438 206.777344 C 418.898438 206.660156 419.535156 206.542969 420.179688 206.425781 C 420.84375 206.308594 421.890625 206.25 423.316406 206.25 Z M 423.316406 206.25"/><path fill="#FFF" d="M 451.058594 190.835938 C 454.421875 190.835938 457.121094 192.011719 459.152344 194.359375 C 461.207031 196.710938 462.230469 200.007812 462.230469 204.253906 C 462.230469 208.5 461.273438 211.816406 459.359375 214.207031 C 457.441406 216.59375 454.675781 217.789062 451.058594 217.789062 C 447.773438 217.789062 445.125 216.59375 443.113281 214.207031 C 441.117188 211.816406 440.121094 208.5 440.121094 204.253906 C 440.121094 200.007812 441.058594 196.710938 442.9375 194.359375 C 444.832031 192.011719 447.539062 190.835938 451.058594 190.835938 Z M 451.175781 198 C 450.335938 198 449.75 198.578125 449.417969 199.734375 C 449.105469 200.867188 448.949219 202.414062 448.949219 204.371094 C 448.949219 206.289062 449.105469 207.835938 449.417969 209.007812 C 449.75 210.164062 450.335938 210.742188 451.175781 210.742188 C 452.015625 210.742188 452.59375 210.175781 452.90625 209.039062 C 453.21875 207.882812 453.375 206.328125 453.375 204.371094 C 453.375 202.414062 453.21875 200.867188 452.90625 199.734375 C 452.59375 198.578125 452.015625 198 451.175781 198 Z M 483.609375 191.453125 L 459.828125 234.375 L 451.117188 234.375 L 474.902344 191.453125 Z M 483.667969 207.921875 C 487.03125 207.921875 489.730469 209.097656 491.761719 211.445312 C 493.816406 213.796875 494.84375 217.09375 494.84375 221.339844 C 494.84375 225.566406 493.882812 228.875 491.96875 231.261719 C 490.050781 233.648438 487.285156 234.84375 483.667969 234.84375 C 480.382812 234.84375 477.734375 233.648438 475.722656 231.261719 C 473.726562 228.875 472.730469 225.566406 472.730469 221.339844 C 472.730469 217.09375 473.667969 213.796875 475.546875 211.445312 C 477.441406 209.097656 480.148438 207.921875 483.667969 207.921875 Z M 483.785156 215.085938 C 482.945312 215.085938 482.359375 215.664062 482.027344 216.820312 C 481.714844 217.953125 481.558594 219.5 481.558594 221.457031 C 481.558594 223.375 481.714844 224.921875 482.027344 226.09375 C 482.359375 227.25 482.945312 227.828125 483.785156 227.828125 C 484.628906 227.828125 485.203125 227.261719 485.515625 226.125 C 485.847656 224.96875 486.015625 223.414062 486.015625 221.457031 C 486.015625 219.421875 485.847656 217.855469 485.515625 216.761719 C 485.203125 215.644531 484.628906 215.085938 483.785156 215.085938 Z M 483.785156 215.085938"/></svg>