<svg xmlns="http://www.w3.org/2000/svg" width="900" viewBox="0 0 900 480" height="480" version="1.0"><defs><clipPath id="a"><path d="M 354 144 L 546 144 L 546 336 L 354 336 Z M 354 144"/></clipPath></defs><path d="M 450 201.359375 C 428.648438 201.359375 411.277344 218.730469 411.277344 240.082031 C 411.277344 261.4375 428.648438 278.808594 450 278.808594 C 471.351562 278.808594 488.722656 261.4375 488.722656 240.082031 C 488.722656 218.730469 471.351562 201.359375 450 201.359375 Z M 450 269.449219 C 433.808594 269.449219 420.632812 256.277344 420.632812 240.082031 C 420.632812 223.890625 433.808594 210.714844 450 210.714844 C 466.191406 210.714844 479.367188 223.890625 479.367188 240.082031 C 479.367188 256.277344 466.191406 269.449219 450 269.449219 Z M 450 269.449219"/><g clip-path="url(#a)"><path d="M 541.328125 216.148438 L 519.78125 216.148438 C 518.773438 213.207031 517.574219 210.324219 516.199219 207.53125 L 531.441406 192.289062 C 533.269531 190.460938 533.269531 187.496094 531.441406 185.671875 L 504.328125 158.558594 C 502.503906 156.730469 499.539062 156.730469 497.710938 158.558594 L 482.4375 173.832031 C 479.660156 172.464844 476.789062 171.277344 473.851562 170.273438 L 473.851562 148.671875 C 473.851562 146.089844 471.753906 143.996094 469.171875 143.996094 L 430.828125 143.996094 C 428.246094 143.996094 426.148438 146.089844 426.148438 148.671875 L 426.148438 170.273438 C 423.214844 171.277344 420.34375 172.464844 417.5625 173.832031 L 402.289062 158.558594 C 400.460938 156.730469 397.5 156.730469 395.671875 158.558594 L 368.558594 185.671875 C 366.730469 187.496094 366.730469 190.460938 368.558594 192.289062 L 383.800781 207.53125 C 382.425781 210.324219 381.226562 213.207031 380.21875 216.148438 L 358.671875 216.148438 C 356.089844 216.148438 353.996094 218.242188 353.996094 220.828125 L 353.996094 259.171875 C 353.996094 261.753906 356.089844 263.851562 358.671875 263.851562 L 380.164062 263.851562 C 381.167969 266.816406 382.367188 269.714844 383.746094 272.523438 L 368.558594 287.710938 C 366.730469 289.539062 366.730469 292.503906 368.558594 294.328125 L 395.671875 321.441406 C 396.546875 322.320312 397.738281 322.8125 398.980469 322.8125 C 400.21875 322.8125 401.410156 322.320312 402.285156 321.441406 L 417.449219 306.28125 C 420.261719 307.667969 423.171875 308.875 426.148438 309.894531 L 426.148438 331.328125 C 426.148438 333.910156 428.242188 336.003906 430.828125 336.003906 L 469.171875 336.003906 C 471.753906 336.003906 473.851562 333.910156 473.851562 331.328125 L 473.851562 309.894531 C 476.828125 308.875 479.734375 307.667969 482.550781 306.28125 L 497.710938 321.441406 C 498.625 322.355469 499.824219 322.8125 501.019531 322.8125 C 502.21875 322.8125 503.414062 322.355469 504.328125 321.441406 L 531.441406 294.328125 C 532.320312 293.453125 532.8125 292.261719 532.8125 291.023438 C 532.8125 289.78125 532.320312 288.589844 531.441406 287.714844 L 516.253906 272.527344 C 517.632812 269.714844 518.828125 266.816406 519.835938 263.851562 L 541.328125 263.851562 C 543.910156 263.851562 546.003906 261.757812 546.003906 259.171875 L 546.003906 220.828125 C 546.003906 218.246094 543.910156 216.148438 541.328125 216.148438 Z M 536.648438 254.492188 L 516.332031 254.492188 C 516.304688 254.496094 516.28125 254.496094 516.253906 254.496094 C 513.828125 254.519531 511.847656 256.386719 511.644531 258.765625 C 510.441406 262.742188 508.851562 266.601562 506.902344 270.269531 C 505.3125 272.109375 505.382812 274.886719 507.128906 276.632812 L 521.519531 291.023438 L 501.019531 311.519531 L 486.632812 297.132812 C 484.855469 295.355469 482.007812 295.3125 480.171875 296.992188 C 476.613281 298.882812 472.867188 300.441406 468.996094 301.632812 C 466.496094 301.722656 464.492188 303.777344 464.492188 306.300781 L 464.492188 306.367188 C 464.492188 306.371094 464.492188 306.375 464.492188 306.378906 L 464.492188 326.648438 L 435.507812 326.648438 L 435.507812 306.378906 C 435.507812 306.375 435.507812 306.371094 435.507812 306.367188 L 435.507812 306.300781 C 435.507812 303.777344 433.503906 301.722656 431.003906 301.632812 C 427.136719 300.4375 423.386719 298.882812 419.828125 296.992188 C 417.992188 295.308594 415.144531 295.351562 413.367188 297.128906 L 398.980469 311.519531 L 378.480469 291.019531 L 392.871094 276.632812 C 394.613281 274.886719 394.6875 272.109375 393.097656 270.269531 C 391.148438 266.601562 389.558594 262.738281 388.355469 258.761719 C 388.148438 256.382812 386.164062 254.515625 383.738281 254.496094 C 383.71875 254.496094 383.699219 254.492188 383.675781 254.492188 L 363.351562 254.492188 L 363.351562 225.503906 L 383.628906 225.503906 C 383.632812 225.503906 383.636719 225.507812 383.644531 225.507812 C 383.652344 225.507812 383.664062 225.503906 383.671875 225.503906 L 383.699219 225.503906 C 383.738281 225.503906 383.773438 225.5 383.8125 225.5 C 383.890625 225.496094 383.972656 225.496094 384.050781 225.488281 C 386.238281 225.324219 388 223.660156 388.320312 221.523438 C 389.582031 217.308594 391.285156 213.21875 393.394531 209.351562 C 394.632812 207.582031 394.503906 205.15625 393.011719 203.523438 C 392.972656 203.480469 392.933594 203.433594 392.890625 203.390625 C 392.882812 203.382812 392.878906 203.375 392.871094 203.367188 L 378.484375 188.980469 L 398.980469 168.480469 L 413.347656 182.847656 C 413.351562 182.851562 413.351562 182.855469 413.355469 182.859375 L 413.367188 182.867188 C 413.5 183 413.636719 183.121094 413.78125 183.234375 C 413.820312 183.265625 413.863281 183.292969 413.90625 183.324219 C 414.023438 183.410156 414.144531 183.492188 414.265625 183.566406 C 414.304688 183.589844 414.347656 183.613281 414.386719 183.636719 C 414.550781 183.730469 414.714844 183.8125 414.882812 183.882812 C 414.882812 183.882812 414.882812 183.882812 414.886719 183.882812 C 415.0625 183.957031 415.246094 184.015625 415.429688 184.066406 C 415.464844 184.078125 415.503906 184.085938 415.542969 184.09375 C 415.6875 184.132812 415.832031 184.160156 415.976562 184.183594 C 416.027344 184.191406 416.078125 184.199219 416.128906 184.203125 C 416.300781 184.222656 416.472656 184.238281 416.644531 184.238281 C 416.65625 184.238281 416.667969 184.238281 416.679688 184.238281 C 416.707031 184.238281 416.734375 184.234375 416.761719 184.234375 C 416.90625 184.230469 417.046875 184.222656 417.1875 184.207031 C 417.253906 184.199219 417.320312 184.191406 417.386719 184.179688 C 417.496094 184.164062 417.609375 184.140625 417.71875 184.117188 C 417.78125 184.101562 417.84375 184.089844 417.90625 184.070312 C 418.046875 184.03125 418.183594 183.988281 418.320312 183.9375 C 418.347656 183.925781 418.378906 183.917969 418.410156 183.90625 C 418.578125 183.839844 418.746094 183.757812 418.90625 183.671875 C 418.917969 183.664062 418.929688 183.660156 418.941406 183.65625 C 423.101562 181.351562 427.539062 179.515625 432.125 178.195312 C 432.132812 178.191406 432.144531 178.1875 432.15625 178.183594 C 432.261719 178.152344 432.363281 178.117188 432.460938 178.078125 C 432.507812 178.0625 432.558594 178.046875 432.601562 178.027344 C 432.691406 177.992188 432.777344 177.949219 432.859375 177.910156 C 432.917969 177.882812 432.976562 177.855469 433.03125 177.828125 C 433.09375 177.792969 433.15625 177.753906 433.21875 177.714844 C 433.289062 177.675781 433.363281 177.632812 433.429688 177.585938 C 433.472656 177.558594 433.511719 177.527344 433.550781 177.5 C 433.632812 177.441406 433.71875 177.378906 433.796875 177.316406 C 433.824219 177.292969 433.851562 177.265625 433.878906 177.242188 C 433.964844 177.167969 434.050781 177.09375 434.128906 177.015625 C 434.160156 176.984375 434.191406 176.945312 434.222656 176.914062 C 434.292969 176.839844 434.363281 176.765625 434.429688 176.6875 C 434.476562 176.628906 434.519531 176.566406 434.566406 176.507812 C 434.609375 176.449219 434.652344 176.394531 434.695312 176.332031 C 434.753906 176.246094 434.808594 176.15625 434.859375 176.0625 C 434.882812 176.027344 434.90625 175.992188 434.925781 175.953125 C 434.980469 175.855469 435.03125 175.753906 435.078125 175.648438 C 435.09375 175.617188 435.109375 175.585938 435.125 175.550781 C 435.164062 175.457031 435.199219 175.363281 435.234375 175.265625 C 435.25 175.21875 435.269531 175.171875 435.285156 175.125 C 435.308594 175.046875 435.328125 174.964844 435.347656 174.886719 C 435.367188 174.816406 435.386719 174.746094 435.402344 174.671875 C 435.417969 174.613281 435.425781 174.554688 435.433594 174.492188 C 435.449219 174.398438 435.46875 174.300781 435.476562 174.207031 C 435.484375 174.160156 435.484375 174.109375 435.488281 174.0625 C 435.496094 173.953125 435.503906 173.84375 435.503906 173.734375 C 435.503906 173.722656 435.507812 173.710938 435.507812 173.699219 L 435.507812 153.351562 L 464.492188 153.351562 L 464.492188 173.699219 C 464.492188 173.710938 464.496094 173.722656 464.496094 173.734375 C 464.496094 173.84375 464.503906 173.949219 464.511719 174.058594 C 464.515625 174.109375 464.515625 174.15625 464.523438 174.207031 C 464.53125 174.300781 464.550781 174.394531 464.566406 174.484375 C 464.574219 174.546875 464.582031 174.613281 464.597656 174.671875 C 464.613281 174.742188 464.632812 174.808594 464.648438 174.878906 C 464.671875 174.960938 464.691406 175.042969 464.714844 175.121094 C 464.730469 175.167969 464.75 175.210938 464.765625 175.257812 C 464.800781 175.355469 464.835938 175.453125 464.875 175.550781 C 464.890625 175.582031 464.90625 175.609375 464.917969 175.640625 C 464.96875 175.746094 465.015625 175.851562 465.074219 175.953125 C 465.09375 175.988281 465.117188 176.023438 465.136719 176.058594 C 465.191406 176.152344 465.246094 176.246094 465.304688 176.332031 C 465.347656 176.390625 465.390625 176.445312 465.433594 176.503906 C 465.480469 176.5625 465.523438 176.625 465.570312 176.683594 C 465.636719 176.765625 465.710938 176.839844 465.78125 176.914062 C 465.808594 176.949219 465.839844 176.980469 465.871094 177.011719 C 465.949219 177.09375 466.035156 177.167969 466.121094 177.242188 C 466.148438 177.265625 466.175781 177.292969 466.203125 177.316406 C 466.28125 177.378906 466.367188 177.441406 466.453125 177.5 C 466.492188 177.527344 466.527344 177.558594 466.570312 177.585938 C 466.636719 177.632812 466.710938 177.675781 466.785156 177.71875 C 466.847656 177.753906 466.90625 177.792969 466.96875 177.824219 C 467.023438 177.855469 467.082031 177.878906 467.140625 177.910156 C 467.226562 177.949219 467.308594 177.988281 467.394531 178.027344 C 467.441406 178.042969 467.492188 178.0625 467.539062 178.078125 C 467.640625 178.117188 467.738281 178.152344 467.84375 178.183594 C 467.855469 178.1875 467.863281 178.191406 467.875 178.195312 C 472.460938 179.515625 476.898438 181.351562 481.058594 183.652344 C 481.070312 183.660156 481.082031 183.664062 481.09375 183.667969 C 481.253906 183.757812 481.421875 183.839844 481.59375 183.90625 C 481.621094 183.917969 481.648438 183.925781 481.675781 183.933594 C 481.816406 183.988281 481.953125 184.03125 482.097656 184.070312 C 482.15625 184.089844 482.21875 184.101562 482.28125 184.117188 C 482.394531 184.140625 482.503906 184.164062 482.617188 184.179688 C 482.683594 184.191406 482.75 184.199219 482.8125 184.207031 C 482.957031 184.222656 483.105469 184.234375 483.25 184.234375 C 483.273438 184.234375 483.296875 184.238281 483.320312 184.238281 C 483.328125 184.238281 483.339844 184.238281 483.347656 184.238281 C 483.523438 184.238281 483.699219 184.222656 483.871094 184.203125 C 483.921875 184.195312 483.972656 184.1875 484.023438 184.179688 C 484.167969 184.160156 484.316406 184.128906 484.460938 184.09375 C 484.496094 184.085938 484.535156 184.078125 484.570312 184.066406 C 484.929688 183.96875 485.28125 183.824219 485.613281 183.636719 C 485.652344 183.613281 485.691406 183.589844 485.734375 183.566406 C 485.855469 183.492188 485.976562 183.410156 486.09375 183.324219 C 486.136719 183.292969 486.179688 183.265625 486.21875 183.234375 C 486.359375 183.121094 486.5 183 486.632812 182.867188 L 486.644531 182.855469 C 486.648438 182.855469 486.648438 182.851562 486.652344 182.851562 L 501.019531 168.480469 L 521.519531 188.980469 L 507.128906 203.367188 C 507.125 203.375 507.117188 203.382812 507.109375 203.386719 C 507.066406 203.433594 507.023438 203.484375 506.980469 203.53125 C 505.496094 205.164062 505.371094 207.585938 506.605469 209.351562 C 508.714844 213.21875 510.417969 217.308594 511.679688 221.523438 C 512 223.664062 513.765625 225.328125 515.953125 225.488281 C 516.015625 225.496094 516.078125 225.496094 516.140625 225.5 C 516.195312 225.5 516.246094 225.507812 516.300781 225.507812 L 516.335938 225.507812 C 516.34375 225.507812 516.347656 225.507812 516.355469 225.507812 C 516.359375 225.507812 516.359375 225.507812 516.363281 225.507812 L 536.648438 225.507812 Z M 536.648438 254.492188"/></g></svg>