<svg xmlns="http://www.w3.org/2000/svg" width="900" viewBox="0 0 900 480" height="480" version="1.0"><defs><clipPath id="a"><path d="M 312 190.320312 L 669 190.320312 L 669 260 L 312 260 Z M 312 190.320312"/></clipPath></defs><path fill="#EEEF2A" d="M 359.179688 197.992188 L 367.988281 215.84375 L 387.683594 218.707031 L 373.433594 232.585938 L 376.792969 252.195312 L 359.179688 242.957031 L 341.566406 252.195312 L 344.929688 232.585938 L 330.675781 218.707031 L 350.371094 215.84375 L 359.179688 197.992188"/><path fill="#FFF" d="M 359.179688 242.863281 L 376.6875 252.070312 L 373.34375 232.574219 L 373.375 232.519531 L 387.507812 218.746094 L 367.933594 215.914062 L 367.914062 215.855469 L 359.179688 198.175781 L 350.429688 215.914062 L 350.382812 215.914062 L 330.851562 218.746094 L 345.015625 232.574219 L 341.675781 252.070312 Z M 376.898438 252.351562 L 359.179688 243.03125 L 341.460938 252.351562 L 344.839844 232.605469 L 330.507812 218.632812 L 350.320312 215.773438 L 359.179688 197.808594 L 368.039062 215.773438 L 387.855469 218.632812 L 373.519531 232.605469 L 376.898438 252.351562"/><path fill="#FFF" d="M 424.792969 197.992188 L 433.601562 215.84375 L 453.296875 218.707031 L 439.042969 232.585938 L 442.410156 252.195312 L 424.792969 242.957031 L 407.179688 252.195312 L 410.539062 232.585938 L 396.285156 218.707031 L 415.980469 215.84375 L 424.792969 197.992188"/><path fill="#EEEF2A" d="M 398.015625 219.277344 L 411.402344 232.316406 L 408.242188 250.746094 L 424.792969 242.046875 L 441.339844 250.746094 L 438.175781 232.316406 L 451.566406 219.277344 L 433.066406 216.585938 L 424.792969 199.808594 L 416.515625 216.585938 Z M 443.472656 253.691406 L 424.792969 243.855469 L 406.109375 253.691406 L 409.675781 232.890625 L 394.554688 218.144531 L 415.445312 215.113281 L 424.792969 196.179688 L 434.136719 215.113281 L 455.027344 218.144531 L 439.90625 232.890625 L 443.472656 253.691406"/><path fill="#FFF" d="M 490.402344 197.992188 L 499.210938 215.84375 L 518.90625 218.707031 L 504.65625 232.585938 L 508.019531 252.195312 L 490.402344 242.957031 L 472.785156 252.195312 L 476.148438 232.585938 L 461.898438 218.707031 L 481.59375 215.84375 L 490.402344 197.992188"/><path fill="#EEEF2A" d="M 463.628906 219.277344 L 477.019531 232.316406 L 473.859375 250.746094 L 490.402344 242.046875 L 506.945312 250.746094 L 503.785156 232.316406 L 517.171875 219.277344 L 498.675781 216.585938 L 490.402344 199.808594 L 482.128906 216.585938 Z M 509.089844 253.691406 L 490.402344 243.855469 L 471.714844 253.691406 L 475.289062 232.890625 L 460.167969 218.144531 L 481.058594 215.113281 L 490.402344 196.179688 L 499.746094 215.113281 L 520.636719 218.144531 L 505.515625 232.890625 L 509.089844 253.691406"/><path fill="#FFF" d="M 556.011719 197.992188 L 564.824219 215.84375 L 584.519531 218.707031 L 570.265625 232.585938 L 573.632812 252.195312 L 556.011719 242.957031 L 538.402344 252.195312 L 541.761719 232.585938 L 527.515625 218.707031 L 547.203125 215.84375 L 556.011719 197.992188"/><path fill="#EEEF2A" d="M 529.238281 219.277344 L 542.628906 232.316406 L 539.46875 250.746094 L 556.011719 242.046875 L 572.554688 250.746094 L 569.398438 232.316406 L 582.789062 219.277344 L 564.289062 216.585938 L 556.011719 199.808594 L 547.738281 216.585938 Z M 574.703125 253.691406 L 556.011719 243.855469 L 537.332031 253.691406 L 540.898438 232.890625 L 525.777344 218.144531 L 546.667969 215.113281 L 556.011719 196.179688 L 565.355469 215.113281 L 586.25 218.144531 L 571.128906 232.890625 L 574.703125 253.691406"/><path fill="#FFF" d="M 621.625 197.992188 L 630.433594 215.84375 L 650.128906 218.707031 L 635.875 232.585938 L 639.238281 252.195312 L 621.625 242.957031 L 604.011719 252.195312 L 607.371094 232.585938 L 593.121094 218.707031 L 612.816406 215.84375 L 621.625 197.992188"/><path fill="#EEEF2A" d="M 621.625 242.046875 L 638.171875 250.746094 L 635.007812 232.316406 L 648.390625 219.277344 L 629.898438 216.585938 L 621.625 199.808594 L 613.347656 216.585938 L 594.851562 219.277344 L 608.238281 232.316406 L 605.074219 250.746094 Z M 602.9375 253.691406 L 606.507812 232.890625 L 591.390625 218.144531 L 612.28125 215.113281 L 621.625 196.179688 L 630.96875 215.113281 L 651.859375 218.144531 L 636.738281 232.890625 L 640.3125 253.691406 L 621.625 243.855469 L 602.9375 253.691406"/><g clip-path="url(#a)"><path fill="#E9E9E7" d="M 347.035156 192.851562 C 329.246094 192.851562 314.773438 207.328125 314.773438 225.125 C 314.773438 242.894531 329.246094 257.367188 347.035156 257.367188 L 633.761719 257.367188 C 651.558594 257.367188 666.03125 242.894531 666.03125 225.125 C 666.03125 207.328125 651.558594 192.851562 633.761719 192.851562 Z M 633.761719 259.945312 L 347.035156 259.945312 C 337.730469 259.945312 328.984375 256.347656 322.402344 249.757812 C 315.820312 243.175781 312.195312 234.429688 312.195312 225.125 C 312.195312 215.8125 315.820312 207.046875 322.402344 200.488281 C 328.984375 193.902344 337.730469 190.269531 347.035156 190.269531 L 633.761719 190.269531 C 643.070312 190.269531 651.820312 193.902344 658.402344 200.488281 C 664.984375 207.046875 668.601562 215.8125 668.601562 225.125 C 668.601562 234.429688 664.984375 243.175781 658.402344 249.757812 C 651.820312 256.347656 643.070312 259.945312 633.761719 259.945312"/></g></svg>